<svg xmlns="http://www.w3.org/2000/svg" width="770" height="641" version="1.1"><g><rect width="3" height="193" x="588" y="279" fill="#cbcbcb" stroke="none" stroke-opacity="1"/><rect width="117" height="3" x="474" y="469" fill="#cbcbcb" stroke="none" stroke-opacity="1"/><rect width="118" height="194" x="470" y="275" fill="#ffffc0" stroke="#000" stroke-opacity="1" stroke-width="1"/><text x="529" y="289" fill="#000" font-family="Helvetica" font-size="12" font-style="italic" font-weight="bold" text-anchor="middle" xml:space="preserve">DCfgMgrBase</text><line x1="470" x2="588" y1="291" y2="291" stroke="#000" stroke-opacity="1"/><line x1="470" x2="588" y1="299" y2="299" stroke="#000" stroke-opacity="1"/><text x="474" y="313" fill="#000" font-family="Helvetica" font-size="12" xml:space="preserve">DCfgMgrBase()</text><text x="474" y="327" fill="#000" font-family="Helvetica" font-size="12" xml:space="preserve">~DCfgMgrBase()</text><text x="474" y="341" fill="#000" font-family="Helvetica" font-size="12" xml:space="preserve">parseConfig()</text><text x="474" y="355" fill="#000" font-family="Helvetica" font-size="12" xml:space="preserve">addToParseOrder()</text><text x="474" y="369" fill="#000" font-family="Helvetica" font-size="12" xml:space="preserve">getParseOrder()</text><text x="474" y="383" fill="#000" font-family="Helvetica" font-size="12" xml:space="preserve">getContext()</text><text x="474" y="397" fill="#000" font-family="Helvetica" font-size="12" xml:space="preserve">buildParams()</text><text x="474" y="411" fill="#000" font-family="Helvetica" font-size="12" font-style="italic" xml:space="preserve">createConfigParser()</text><text x="474" y="425" fill="#000" font-family="Helvetica" font-size="12" font-style="italic" xml:space="preserve">createNewContext()</text><text x="474" y="439" fill="#000" font-family="Helvetica" font-size="12" xml:space="preserve">resetContext()</text><text x="474" y="453" fill="#000" font-family="Helvetica" font-size="12" xml:space="preserve">setContext()</text><text x="474" y="467" fill="#000" font-family="Helvetica" font-size="12" xml:space="preserve">buildAndCommit()</text></g><g><rect width="3" height="243" x="754" y="385" fill="#cbcbcb" stroke="none" stroke-opacity="1"/><rect width="117" height="3" x="640" y="625" fill="#cbcbcb" stroke="none" stroke-opacity="1"/><rect width="118" height="244" x="636" y="381" fill="#ffffc0" stroke="#000" stroke-opacity="1" stroke-width="1"/><text x="695" y="395" fill="#000" font-family="Helvetica" font-size="12" font-style="italic" font-weight="bold" text-anchor="middle" xml:space="preserve">DCfgContextBase</text><line x1="636" x2="754" y1="397" y2="397" stroke="#000" stroke-opacity="1"/><text x="640" y="411" fill="#000" font-family="Helvetica" font-size="12" text-decoration="underline" xml:space="preserve">OPTIONAL</text><text x="640" y="425" fill="#000" font-family="Helvetica" font-size="12" text-decoration="underline" xml:space="preserve">REQUIRED</text><text x="640" y="439" fill="#000" font-family="Helvetica" font-size="12" xml:space="preserve">boolean_values_</text><text x="640" y="453" fill="#000" font-family="Helvetica" font-size="12" xml:space="preserve">uint32_values_</text><text x="640" y="467" fill="#000" font-family="Helvetica" font-size="12" xml:space="preserve">string_values_</text><line x1="636" x2="754" y1="469" y2="469" stroke="#000" stroke-opacity="1"/><text x="640" y="483" fill="#000" font-family="Helvetica" font-size="12" xml:space="preserve">DCfgContextBase()</text><text x="640" y="497" fill="#000" font-family="Helvetica" font-size="12" xml:space="preserve">~DCfgContextBase()</text><text x="640" y="511" fill="#000" font-family="Helvetica" font-size="12" xml:space="preserve">getParam()</text><text x="640" y="525" fill="#000" font-family="Helvetica" font-size="12" xml:space="preserve">getParam()</text><text x="640" y="539" fill="#000" font-family="Helvetica" font-size="12" xml:space="preserve">getParam()</text><text x="640" y="553" fill="#000" font-family="Helvetica" font-size="12" xml:space="preserve">getBooleanStorage()</text><text x="640" y="567" fill="#000" font-family="Helvetica" font-size="12" xml:space="preserve">getUint32Storage()</text><text x="640" y="581" fill="#000" font-family="Helvetica" font-size="12" xml:space="preserve">getStringStorage()</text><text x="640" y="595" fill="#000" font-family="Helvetica" font-size="12" font-style="italic" xml:space="preserve">clone()</text><text x="640" y="609" fill="#000" font-family="Helvetica" font-size="12" xml:space="preserve">DCfgContextBase()</text><text x="640" y="623" fill="#000" font-family="Helvetica" font-size="12" xml:space="preserve">operator =()</text></g><g><rect width="3" height="453" x="175" y="14" fill="#cbcbcb" stroke="none" stroke-opacity="1"/><rect width="161" height="3" x="17" y="464" fill="#cbcbcb" stroke="none" stroke-opacity="1"/><rect width="162" height="454" x="13" y="10" fill="#ffffc0" stroke="#000" stroke-opacity="1" stroke-width="1"/><text x="94" y="24" fill="#000" font-family="Helvetica" font-size="12" font-style="italic" font-weight="bold" text-anchor="middle" xml:space="preserve">DControllerBase</text><line x1="13" x2="175" y1="26" y2="26" stroke="#000" stroke-opacity="1"/><text x="17" y="40" fill="#000" font-family="Helvetica" font-size="12" xml:space="preserve">app_name_</text><text x="17" y="54" fill="#000" font-family="Helvetica" font-size="12" xml:space="preserve">bin_name_</text><text x="17" y="68" fill="#000" font-family="Helvetica" font-size="12" xml:space="preserve">verbose_</text><text x="17" y="82" fill="#000" font-family="Helvetica" font-size="12" xml:space="preserve">spec_file_name_</text><line x1="13" x2="175" y1="84" y2="84" stroke="#000" stroke-opacity="1"/><text x="17" y="98" fill="#000" font-family="Helvetica" font-size="12" xml:space="preserve">DControllerBase()</text><text x="17" y="112" fill="#000" font-family="Helvetica" font-size="12" xml:space="preserve">~DControllerBase()</text><text x="17" y="126" fill="#000" font-family="Helvetica" font-size="12" xml:space="preserve">launch()</text><text x="17" y="140" fill="#000" font-family="Helvetica" font-size="12" xml:space="preserve">updateConfig()</text><text x="17" y="154" fill="#000" font-family="Helvetica" font-size="12" xml:space="preserve">configFromFile()</text><text x="17" y="168" fill="#000" font-family="Helvetica" font-size="12" xml:space="preserve">executeCommand()</text><text x="17" y="182" fill="#000" font-family="Helvetica" font-size="12" xml:space="preserve">getAppName()</text><text x="17" y="196" fill="#000" font-family="Helvetica" font-size="12" xml:space="preserve">getBinName()</text><text x="17" y="210" fill="#000" font-family="Helvetica" font-size="12" xml:space="preserve">customOption()</text><text x="17" y="224" fill="#000" font-family="Helvetica" font-size="12" font-style="italic" xml:space="preserve">createProcess()</text><text x="17" y="238" fill="#000" font-family="Helvetica" font-size="12" xml:space="preserve">customControllerCommand()</text><text x="17" y="252" fill="#000" font-family="Helvetica" font-size="12" xml:space="preserve">getUsageText()</text><text x="17" y="266" fill="#000" font-family="Helvetica" font-size="12" xml:space="preserve">getCustomOpts()</text><text x="17" y="280" fill="#000" font-family="Helvetica" font-size="12" xml:space="preserve">isVerbose()</text><text x="17" y="294" fill="#000" font-family="Helvetica" font-size="12" xml:space="preserve">setVerbose()</text><text x="17" y="308" fill="#000" font-family="Helvetica" font-size="12" xml:space="preserve">getIOService()</text><text x="17" y="322" fill="#000" font-family="Helvetica" font-size="12" xml:space="preserve">getSpecFileName()</text><text x="17" y="336" fill="#000" font-family="Helvetica" font-size="12" xml:space="preserve">setSpecFileName()</text><text x="17" y="350" fill="#000" font-family="Helvetica" font-size="12" text-decoration="underline" xml:space="preserve">getController()</text><text x="17" y="364" fill="#000" font-family="Helvetica" font-size="12" text-decoration="underline" xml:space="preserve">setController()</text><text x="17" y="378" fill="#000" font-family="Helvetica" font-size="12" xml:space="preserve">parseArgs()</text><text x="17" y="392" fill="#000" font-family="Helvetica" font-size="12" xml:space="preserve">initProcess()</text><text x="17" y="406" fill="#000" font-family="Helvetica" font-size="12" xml:space="preserve">runProcess()</text><text x="17" y="420" fill="#000" font-family="Helvetica" font-size="12" xml:space="preserve">shutdownProcess()</text><text x="17" y="434" fill="#000" font-family="Helvetica" font-size="12" xml:space="preserve">getConfigFile()</text><text x="17" y="448" fill="#000" font-family="Helvetica" font-size="12" xml:space="preserve">getProcess()</text><text x="17" y="462" fill="#000" font-family="Helvetica" font-size="12" xml:space="preserve">usage()</text></g><g><rect width="3" height="47" x="274" y="165" fill="#cbcbcb" stroke="none" stroke-opacity="1"/><rect width="79" height="3" x="198" y="209" fill="#cbcbcb" stroke="none" stroke-opacity="1"/><rect width="80" height="48" x="194" y="161" fill="#ffffc0" stroke="#000" stroke-opacity="1" stroke-width="1"/><text x="234" y="175" fill="#000" font-family="Helvetica" font-size="12" text-anchor="middle" xml:space="preserve">&lt;&lt;typedef&gt;&gt;</text><text x="234" y="191" fill="#000" font-family="Helvetica" font-size="12" font-weight="bold" text-anchor="middle" xml:space="preserve">IOServicePtr</text><line x1="194" x2="274" y1="193" y2="193" stroke="#000" stroke-opacity="1"/><line x1="194" x2="274" y1="201" y2="201" stroke="#000" stroke-opacity="1"/></g><g><line x1="179" x2="236" y1="118" y2="118" stroke="#000" stroke-opacity="1"/><polygon fill="#000" stroke="#000" stroke-opacity="1" points="179 118 185 112 191 118 185 124"/></g><g><line x1="236" x2="242" y1="160" y2="154" stroke="#000" stroke-opacity="1"/><line x1="236" x2="230" y1="160" y2="154" stroke="#000" stroke-opacity="1"/><line x1="236" x2="236" y1="118" y2="160" stroke="#000" stroke-opacity="1"/></g><g><rect width="3" height="229" x="426" y="148" fill="#cbcbcb" stroke="none" stroke-opacity="1"/><rect width="107" height="3" x="322" y="374" fill="#cbcbcb" stroke="none" stroke-opacity="1"/><rect width="108" height="230" x="318" y="144" fill="#ffffc0" stroke="#000" stroke-opacity="1" stroke-width="1"/><text x="372" y="158" fill="#000" font-family="Helvetica" font-size="12" font-style="italic" font-weight="bold" text-anchor="middle" xml:space="preserve">DProcessBase</text><line x1="318" x2="426" y1="160" y2="160" stroke="#000" stroke-opacity="1"/><text x="322" y="174" fill="#000" font-family="Helvetica" font-size="12" xml:space="preserve">app_name_</text><text x="322" y="188" fill="#000" font-family="Helvetica" font-size="12" xml:space="preserve">shut_down_flag_</text><line x1="318" x2="426" y1="190" y2="190" stroke="#000" stroke-opacity="1"/><text x="322" y="204" fill="#000" font-family="Helvetica" font-size="12" xml:space="preserve">DProcessBase()</text><text x="322" y="218" fill="#000" font-family="Helvetica" font-size="12" font-style="italic" xml:space="preserve">init()</text><text x="322" y="232" fill="#000" font-family="Helvetica" font-size="12" font-style="italic" xml:space="preserve">run()</text><text x="322" y="246" fill="#000" font-family="Helvetica" font-size="12" font-style="italic" xml:space="preserve">shutdown()</text><text x="322" y="260" fill="#000" font-family="Helvetica" font-size="12" font-style="italic" xml:space="preserve">configure()</text><text x="322" y="274" fill="#000" font-family="Helvetica" font-size="12" font-style="italic" xml:space="preserve">command()</text><text x="322" y="288" fill="#000" font-family="Helvetica" font-size="12" xml:space="preserve">~DProcessBase()</text><text x="322" y="302" fill="#000" font-family="Helvetica" font-size="12" xml:space="preserve">shouldShutdown()</text><text x="322" y="316" fill="#000" font-family="Helvetica" font-size="12" xml:space="preserve">setShutdownFlag()</text><text x="322" y="330" fill="#000" font-family="Helvetica" font-size="12" xml:space="preserve">getAppName()</text><text x="322" y="344" fill="#000" font-family="Helvetica" font-size="12" xml:space="preserve">getIoService()</text><text x="322" y="358" fill="#000" font-family="Helvetica" font-size="12" xml:space="preserve">stopIOService()</text><text x="322" y="372" fill="#000" font-family="Helvetica" font-size="12" xml:space="preserve">getCfgMgr()</text></g><g><line x1="317" x2="236" y1="260" y2="260" stroke="#000" stroke-opacity="1"/><polygon fill="#000" stroke="#000" stroke-opacity="1" points="317 260 311 266 305 260 311 254"/></g><g><line x1="236" x2="230" y1="213" y2="219" stroke="#000" stroke-opacity="1"/><line x1="236" x2="242" y1="213" y2="219" stroke="#000" stroke-opacity="1"/><line x1="236" x2="236" y1="260" y2="213" stroke="#000" stroke-opacity="1"/></g><g><rect width="3" height="47" x="424" y="72" fill="#cbcbcb" stroke="none" stroke-opacity="1"/><rect width="107" height="3" x="320" y="116" fill="#cbcbcb" stroke="none" stroke-opacity="1"/><rect width="108" height="48" x="316" y="68" fill="#ffffc0" stroke="#000" stroke-opacity="1" stroke-width="1"/><text x="370" y="82" fill="#000" font-family="Helvetica" font-size="12" text-anchor="middle" xml:space="preserve">&lt;&lt;typedef&gt;&gt;</text><text x="370" y="98" fill="#000" font-family="Helvetica" font-size="12" font-weight="bold" text-anchor="middle" xml:space="preserve">DProcessBasePtr</text><line x1="316" x2="424" y1="100" y2="100" stroke="#000" stroke-opacity="1"/><line x1="316" x2="424" y1="108" y2="108" stroke="#000" stroke-opacity="1"/></g><g><line x1="372" x2="378" y1="143" y2="137" stroke="#000" stroke-opacity="1"/><line x1="372" x2="366" y1="143" y2="137" stroke="#000" stroke-opacity="1"/><line x1="372" x2="372" y1="120" y2="143" stroke="#000" stroke-dasharray="4 4" stroke-opacity="1"/></g><g><line x1="179" x2="372" y1="39" y2="39" stroke="#000" stroke-opacity="1"/><polygon fill="#000" stroke="#000" stroke-opacity="1" points="179 39 185 33 191 39 185 45"/></g><g><line x1="372" x2="378" y1="67" y2="61" stroke="#000" stroke-opacity="1"/><line x1="372" x2="366" y1="67" y2="61" stroke="#000" stroke-opacity="1"/><line x1="372" x2="372" y1="39" y2="67" stroke="#000" stroke-opacity="1"/></g><g><text x="382" y="63" fill="#000" font-family="Helvetica" font-size="12" xml:space="preserve">process_</text></g><g><text x="246" y="231" fill="#000" font-family="Helvetica" font-size="12" xml:space="preserve">io_service_</text></g><g><text x="246" y="156" fill="#000" font-family="Helvetica" font-size="12" xml:space="preserve">io_service_</text></g><g><text x="696" y="302" fill="#000" font-family="Helvetica" font-size="12" xml:space="preserve">context_</text></g><g><text x="534" y="196" fill="#000" font-family="Helvetica" font-size="12" xml:space="preserve">cfg_mgr_</text></g><g><rect width="3" height="47" x="747" y="311" fill="#cbcbcb" stroke="none" stroke-opacity="1"/><rect width="125" height="3" x="625" y="355" fill="#cbcbcb" stroke="none" stroke-opacity="1"/><rect width="126" height="48" x="621" y="307" fill="#ffffc0" stroke="#000" stroke-opacity="1" stroke-width="1"/><text x="684" y="321" fill="#000" font-family="Helvetica" font-size="12" text-anchor="middle" xml:space="preserve">&lt;&lt;typedef&gt;&gt;</text><text x="684" y="337" fill="#000" font-family="Helvetica" font-size="12" font-weight="bold" text-anchor="middle" xml:space="preserve">DCfgContextBasePtr</text><line x1="621" x2="747" y1="339" y2="339" stroke="#000" stroke-opacity="1"/><line x1="621" x2="747" y1="347" y2="347" stroke="#000" stroke-opacity="1"/></g><g><line x1="688" x2="693" y1="380" y2="373" stroke="#000" stroke-opacity="1"/><line x1="688" x2="681" y1="380" y2="374" stroke="#000" stroke-opacity="1"/><line x1="687" x2="688" y1="359" y2="380" stroke="#000" stroke-dasharray="4 4" stroke-opacity="1"/></g><g><line x1="592" x2="686" y1="289" y2="289" stroke="#000" stroke-opacity="1"/><polygon fill="#000" stroke="#000" stroke-opacity="1" points="592 289 598 283 604 289 598 295"/></g><g><line x1="686" x2="692" y1="306" y2="300" stroke="#000" stroke-opacity="1"/><line x1="686" x2="680" y1="306" y2="300" stroke="#000" stroke-opacity="1"/><line x1="686" x2="686" y1="289" y2="306" stroke="#000" stroke-opacity="1"/></g><g><rect width="3" height="47" x="574" y="205" fill="#cbcbcb" stroke="none" stroke-opacity="1"/><rect width="103" height="3" x="474" y="249" fill="#cbcbcb" stroke="none" stroke-opacity="1"/><rect width="104" height="48" x="470" y="201" fill="#ffffc0" stroke="#000" stroke-opacity="1" stroke-width="1"/><text x="522" y="215" fill="#000" font-family="Helvetica" font-size="12" text-anchor="middle" xml:space="preserve">&lt;&lt;typedef&gt;&gt;</text><text x="522" y="231" fill="#000" font-family="Helvetica" font-size="12" font-weight="bold" text-anchor="middle" xml:space="preserve">DCfgMgrBasePtr</text><line x1="470" x2="574" y1="233" y2="233" stroke="#000" stroke-opacity="1"/><line x1="470" x2="574" y1="241" y2="241" stroke="#000" stroke-opacity="1"/></g><g><line x1="524" x2="530" y1="274" y2="268" stroke="#000" stroke-opacity="1"/><line x1="524" x2="518" y1="274" y2="268" stroke="#000" stroke-opacity="1"/><line x1="524" x2="524" y1="253" y2="274" stroke="#000" stroke-dasharray="4 4" stroke-opacity="1"/></g><g><line x1="430" x2="524" y1="168" y2="168" stroke="#000" stroke-opacity="1"/><polygon fill="#000" stroke="#000" stroke-opacity="1" points="430 168 436 162 442 168 436 174"/></g><g><line x1="524" x2="530" y1="200" y2="194" stroke="#000" stroke-opacity="1"/><line x1="524" x2="518" y1="200" y2="194" stroke="#000" stroke-opacity="1"/><line x1="524" x2="524" y1="168" y2="200" stroke="#000" stroke-opacity="1"/></g></svg>