<svg xmlns="http://www.w3.org/2000/svg" width="840" height="777" version="1.1"><g><rect width="74" height="22" x="365" y="49" fill="#cbcbcb" stroke="none" stroke-opacity="1" rx="10"/><rect width="74" height="22" x="361" y="45" fill="#ffffc0" stroke="#000" stroke-opacity="1" rx="10"/><text x="398" y="61" fill="#000" font-family="Helvetica" font-size="11" font-weight="bold" text-anchor="middle" xml:space="preserve">READY_ST</text></g><g><rect width="180" height="22" x="312" y="193" fill="#cbcbcb" stroke="none" stroke-opacity="1" rx="10"/><rect width="180" height="22" x="308" y="189" fill="#ffffc0" stroke="#000" stroke-opacity="1" rx="10"/><text x="398" y="205" fill="#000" font-family="Helvetica" font-size="11" font-weight="bold" text-anchor="middle" xml:space="preserve">SELECTING_FWD_SERVER_ST</text></g><g><rect width="178" height="22" x="46" y="527" fill="#cbcbcb" stroke="none" stroke-opacity="1" rx="10"/><rect width="178" height="22" x="42" y="523" fill="#ffffc0" stroke="#000" stroke-opacity="1" rx="10"/><text x="131" y="539" fill="#000" font-family="Helvetica" font-size="11" font-weight="bold" text-anchor="middle" xml:space="preserve">SELECTING_REV_SERVER_ST</text></g><g><rect width="156" height="22" x="324" y="299" fill="#cbcbcb" stroke="none" stroke-opacity="1" rx="10"/><rect width="156" height="22" x="320" y="295" fill="#ffffc0" stroke="#000" stroke-opacity="1" rx="10"/><text x="398" y="311" fill="#000" font-family="Helvetica" font-size="11" font-weight="bold" text-anchor="middle" xml:space="preserve">ADDING_FWD_ADDRS_ST</text></g><g><rect width="176" height="22" x="466" y="414" fill="#cbcbcb" stroke="none" stroke-opacity="1" rx="10"/><rect width="176" height="22" x="462" y="410" fill="#ffffc0" stroke="#000" stroke-opacity="1" rx="10"/><text x="550" y="426" fill="#000" font-family="Helvetica" font-size="11" font-weight="bold" text-anchor="middle" xml:space="preserve">REPLACING_FWD_ADDRS_ST</text></g><g><rect width="166" height="22" x="662" y="600" fill="#cbcbcb" stroke="none" stroke-opacity="1" rx="10"/><rect width="166" height="22" x="658" y="596" fill="#ffffc0" stroke="#000" stroke-opacity="1" rx="10"/><text x="741" y="612" fill="#000" font-family="Helvetica" font-size="11" font-weight="bold" text-anchor="middle" xml:space="preserve">PROCESS_ADD_FAILED_ST</text></g><g><rect width="151" height="22" x="233" y="735" fill="#cbcbcb" stroke="none" stroke-opacity="1" rx="10"/><rect width="151" height="22" x="229" y="731" fill="#ffffc0" stroke="#000" stroke-opacity="1" rx="10"/><text x="305" y="747" fill="#000" font-family="Helvetica" font-size="11" font-weight="bold" text-anchor="middle" xml:space="preserve">PROCESS_ADD_OK_ST</text></g><g><ellipse cx="743" cy="746" fill="#fff" stroke="#000" stroke-opacity="1" stroke-width="1" rx="11.5" ry="11.5"/><ellipse cx="743" cy="746" fill="#000" rx="8.5" ry="8.5"/></g><ellipse cx="137" cy="57" fill="#000" rx="8.5" ry="8.5"/><polygon fill="#fff" stroke="#000" stroke-opacity="1" points="291 492 300 475 309 492 300 509"/><g><rect width="118" height="43" x="575" y="473" fill="none" stroke="#000" stroke-opacity="1" stroke-width="1"/><text x="634" y="489" fill="#000" font-family="Helvetica" font-size="11" text-anchor="middle" xml:space="preserve">&lt;&lt;DNS IO Callback&gt;&gt;</text></g><g><rect width="118" height="43" x="178" y="244" fill="none" stroke="#000" stroke-opacity="1" stroke-width="1"/><text x="237" y="260" fill="#000" font-family="Helvetica" font-size="11" text-anchor="middle" xml:space="preserve">&lt;&lt;DNS IO Callback&gt;&gt;</text></g><g><rect width="118" height="43" x="12" y="722" fill="none" stroke="#000" stroke-opacity="1" stroke-width="1"/><text x="71" y="738" fill="#000" font-family="Helvetica" font-size="11" text-anchor="middle" xml:space="preserve">&lt;&lt;DNS IO Callback&gt;&gt;</text></g><g><line x1="610" x2="604" y1="436" y2="442" stroke="#000" stroke-opacity="1"/><line x1="610" x2="616" y1="436" y2="441" stroke="#000" stroke-opacity="1"/><line x1="611" x2="610" y1="472" y2="436" stroke="#000" stroke-opacity="1"/></g><g><line x1="360" x2="354" y1="57" y2="51" stroke="#000" stroke-opacity="1"/><line x1="360" x2="354" y1="57" y2="63" stroke="#000" stroke-opacity="1"/><line x1="146" x2="360" y1="57" y2="57" stroke="#000" stroke-opacity="1"/></g><g><line x1="400" x2="406" y1="294" y2="288" stroke="#000" stroke-opacity="1"/><line x1="400" x2="394" y1="294" y2="288" stroke="#000" stroke-opacity="1"/><line x1="400" x2="400" y1="215" y2="294" stroke="#000" stroke-opacity="1"/></g><g><line x1="355" x2="323" y1="294" y2="253" stroke="#000" stroke-opacity="1"/></g><g><line x1="352" x2="343" y1="215" y2="216" stroke="#000" stroke-opacity="1"/><line x1="352" x2="353" y1="215" y2="223" stroke="#000" stroke-opacity="1"/><line x1="323" x2="352" y1="253" y2="215" stroke="#000" stroke-opacity="1"/></g><g><line x1="492" x2="743" y1="201" y2="201" stroke="#000" stroke-opacity="1"/></g><g><line x1="743" x2="749" y1="595" y2="589" stroke="#000" stroke-opacity="1"/><line x1="743" x2="737" y1="595" y2="589" stroke="#000" stroke-opacity="1"/><line x1="743" x2="743" y1="201" y2="595" stroke="#000" stroke-opacity="1"/></g><g><line x1="480" x2="743" y1="308" y2="308" stroke="#000" stroke-opacity="1"/></g><g><line x1="743" x2="749" y1="595" y2="589" stroke="#000" stroke-opacity="1"/><line x1="743" x2="737" y1="595" y2="589" stroke="#000" stroke-opacity="1"/><line x1="743" x2="743" y1="308" y2="595" stroke="#000" stroke-opacity="1"/></g><g><line x1="642" x2="743" y1="423" y2="423" stroke="#000" stroke-opacity="1"/></g><g><line x1="743" x2="749" y1="595" y2="589" stroke="#000" stroke-opacity="1"/><line x1="743" x2="737" y1="595" y2="589" stroke="#000" stroke-opacity="1"/><line x1="743" x2="743" y1="423" y2="595" stroke="#000" stroke-opacity="1"/></g><g><line x1="370" x2="370" y1="321" y2="423" stroke="#000" stroke-opacity="1"/></g><g><line x1="461" x2="455" y1="423" y2="417" stroke="#000" stroke-opacity="1"/><line x1="461" x2="455" y1="423" y2="429" stroke="#000" stroke-opacity="1"/><line x1="370" x2="461" y1="423" y2="423" stroke="#000" stroke-opacity="1"/></g><g><line x1="523" x2="522" y1="409" y2="357" stroke="#000" stroke-opacity="1"/></g><g><line x1="434" x2="437" y1="321" y2="328" stroke="#000" stroke-opacity="1"/><line x1="434" x2="441" y1="321" y2="317" stroke="#000" stroke-opacity="1"/><line x1="522" x2="434" y1="357" y2="321" stroke="#000" stroke-opacity="1"/></g><g><line x1="587" x2="587" y1="409" y2="238" stroke="#000" stroke-opacity="1"/></g><g><line x1="484" x2="488" y1="215" y2="222" stroke="#000" stroke-opacity="1"/><line x1="484" x2="491" y1="215" y2="210" stroke="#000" stroke-opacity="1"/><line x1="587" x2="484" y1="238" y2="215" stroke="#000" stroke-opacity="1"/></g><g><line x1="319" x2="300" y1="312" y2="312" stroke="#000" stroke-opacity="1"/></g><g><line x1="300" x2="306" y1="473" y2="467" stroke="#000" stroke-opacity="1"/><line x1="300" x2="294" y1="473" y2="467" stroke="#000" stroke-opacity="1"/><line x1="300" x2="300" y1="312" y2="473" stroke="#000" stroke-opacity="1"/></g><g><line x1="506" x2="506" y1="436" y2="492" stroke="#000" stroke-opacity="1"/></g><g><line x1="312" x2="318" y1="492" y2="498" stroke="#000" stroke-opacity="1"/><line x1="312" x2="318" y1="492" y2="486" stroke="#000" stroke-opacity="1"/><line x1="506" x2="312" y1="492" y2="492" stroke="#000" stroke-opacity="1"/></g><g><line x1="298" x2="304" y1="730" y2="724" stroke="#000" stroke-opacity="1"/><line x1="298" x2="292" y1="730" y2="723" stroke="#000" stroke-opacity="1"/><line x1="300" x2="298" y1="510" y2="730" stroke="#000" stroke-opacity="1"/></g><g><line x1="287" x2="132" y1="491" y2="491" stroke="#000" stroke-opacity="1"/></g><g><line x1="132" x2="138" y1="522" y2="516" stroke="#000" stroke-opacity="1"/><line x1="132" x2="126" y1="522" y2="516" stroke="#000" stroke-opacity="1"/><line x1="132" x2="132" y1="491" y2="522" stroke="#000" stroke-opacity="1"/></g><g><line x1="743" x2="749" y1="733" y2="727" stroke="#000" stroke-opacity="1"/><line x1="743" x2="737" y1="733" y2="727" stroke="#000" stroke-opacity="1"/><line x1="743" x2="743" y1="622" y2="733" stroke="#000" stroke-opacity="1"/></g><g><line x1="730" x2="724" y1="745" y2="738" stroke="#000" stroke-opacity="1"/><line x1="730" x2="723" y1="745" y2="750" stroke="#000" stroke-opacity="1"/><line x1="384" x2="730" y1="744" y2="745" stroke="#000" stroke-opacity="1"/></g><g><line x1="234" x2="234" y1="287" y2="303" stroke="#000" stroke-opacity="1"/></g><g><line x1="319" x2="313" y1="303" y2="297" stroke="#000" stroke-opacity="1"/><line x1="319" x2="313" y1="303" y2="309" stroke="#000" stroke-opacity="1"/><line x1="234" x2="319" y1="303" y2="303" stroke="#000" stroke-opacity="1"/></g><g><text x="616" y="301" fill="#000" font-family="Helvetica" font-size="11" xml:space="preserve">UPDATE_FAILED_EVT</text></g><g><text x="196" y="236" fill="#000" font-family="Helvetica" font-size="11" xml:space="preserve">SERVER_IO_ERROR_EVT</text></g><g><text x="336" y="440" fill="#000" font-family="Helvetica" font-size="11" xml:space="preserve">FQDN_IN_USE_EVT</text></g><g><text x="436" y="251" fill="#000" font-family="Helvetica" font-size="11" xml:space="preserve">SERVER_IO_ERROR_EVT</text></g><g><text x="378" y="374" fill="#000" font-family="Helvetica" font-size="11" xml:space="preserve">FQDN_NOT_IN_USE_EVT</text></g><g><text x="328" y="485" fill="#000" font-family="Helvetica" font-size="11" xml:space="preserve">UPDATE_OK_EVT</text></g><g><text x="309" y="540" fill="#000" font-family="Helvetica" font-size="11" xml:space="preserve">No reverse change requested</text></g><g><text x="286" y="51" fill="#000" font-family="Helvetica" font-size="11" xml:space="preserve">START_EVT</text></g><g><text x="530" y="740" fill="#000" font-family="Helvetica" font-size="11" xml:space="preserve">END_EVT</text></g><g><text x="197" y="455" fill="#000" font-family="Helvetica" font-size="11" xml:space="preserve">UPDATE_OK_EVT</text></g><g><text x="616" y="400" fill="#000" font-family="Helvetica" font-size="11" xml:space="preserve">UPDATE_FAILED_EVT</text></g><g><text x="149" y="484" fill="#000" font-family="Helvetica" font-size="11" xml:space="preserve">Reverse change requested</text></g><g><text x="674" y="695" fill="#000" font-family="Helvetica" font-size="11" xml:space="preserve">END_EVT</text></g><g><text x="588" y="196" fill="#000" font-family="Helvetica" font-size="11" xml:space="preserve">NO_MORE_SERVERS_EVT</text></g><g><text x="420" y="291" fill="#000" font-family="Helvetica" font-size="11" xml:space="preserve">SERVER_SELECTED_EVT</text></g><g><text x="168" y="324" fill="#000" font-family="Helvetica" font-size="11" xml:space="preserve">IO_COMPLETED_EVT</text></g><polygon fill="#fff" stroke="#000" stroke-opacity="1" points="391 122 400 105 409 122 400 139"/><g><rect width="207" height="23" x="34" y="642" fill="#cbcbcb" stroke="none" stroke-opacity="1" rx="10"/><rect width="207" height="23" x="30" y="638" fill="#ffffc0" stroke="#000" stroke-opacity="1" rx="10"/><text x="134" y="654" fill="#000" font-family="Helvetica" font-size="11" font-weight="bold" text-anchor="middle" xml:space="preserve">REPLACING_REV_PTRS_ST</text></g><g><line x1="400" x2="406" y1="103" y2="97" stroke="#000" stroke-opacity="1"/><line x1="400" x2="394" y1="103" y2="97" stroke="#000" stroke-opacity="1"/><line x1="400" x2="400" y1="71" y2="103" stroke="#000" stroke-opacity="1"/></g><g><line x1="400" x2="406" y1="188" y2="182" stroke="#000" stroke-opacity="1"/><line x1="400" x2="394" y1="188" y2="182" stroke="#000" stroke-opacity="1"/><line x1="400" x2="400" y1="140" y2="188" stroke="#000" stroke-opacity="1"/></g><g><line x1="387" x2="132" y1="121" y2="121" stroke="#000" stroke-opacity="1"/></g><g><line x1="132" x2="138" y1="522" y2="516" stroke="#000" stroke-opacity="1"/><line x1="132" x2="126" y1="522" y2="516" stroke="#000" stroke-opacity="1"/><line x1="132" x2="132" y1="121" y2="522" stroke="#000" stroke-opacity="1"/></g><g><text x="410" y="156" fill="#000" font-family="Helvetica" font-size="11" xml:space="preserve">Forward change requested</text></g><g><text x="179" y="116" fill="#000" font-family="Helvetica" font-size="11" xml:space="preserve">Only reverse change requested</text></g><g><line x1="175" x2="208" y1="549" y2="590" stroke="#000" stroke-opacity="1"/></g><g><line x1="181" x2="189" y1="637" y2="634" stroke="#000" stroke-opacity="1"/><line x1="181" x2="178" y1="637" y2="628" stroke="#000" stroke-opacity="1"/><line x1="208" x2="181" y1="590" y2="637" stroke="#000" stroke-opacity="1"/></g><g><line x1="83" x2="52" y1="637" y2="602" stroke="#000" stroke-opacity="1"/></g><g><line x1="86" x2="77" y1="549" y2="550" stroke="#000" stroke-opacity="1"/><line x1="86" x2="87" y1="549" y2="557" stroke="#000" stroke-opacity="1"/><line x1="52" x2="86" y1="602" y2="549" stroke="#000" stroke-opacity="1"/></g><g><line x1="147" x2="147" y1="665" y2="695" stroke="#000" stroke-opacity="1"/></g><g><line x1="147" x2="298" y1="695" y2="695" stroke="#000" stroke-opacity="1"/></g><g><line x1="298" x2="304" y1="730" y2="724" stroke="#000" stroke-opacity="1"/><line x1="298" x2="292" y1="730" y2="724" stroke="#000" stroke-opacity="1"/><line x1="298" x2="298" y1="695" y2="730" stroke="#000" stroke-opacity="1"/></g><g><line x1="71" x2="65" y1="665" y2="671" stroke="#000" stroke-opacity="1"/><line x1="71" x2="77" y1="665" y2="671" stroke="#000" stroke-opacity="1"/><line x1="71" x2="71" y1="721" y2="665" stroke="#000" stroke-opacity="1"/></g><g><text x="31" y="577" fill="#000" font-family="Helvetica" font-size="11" xml:space="preserve">SERVER_IO_ERROR_EVT</text></g><g><text x="124" y="620" fill="#000" font-family="Helvetica" font-size="11" xml:space="preserve">SERVER_SELECTED_ST</text></g><g><text x="197" y="691" fill="#000" font-family="Helvetica" font-size="11" xml:space="preserve">UPDATE_OK_EVT</text></g><g><text x="11" y="714" fill="#000" font-family="Helvetica" font-size="11" xml:space="preserve">IO_COMPLETED_EVT</text></g><g><text x="553" y="460" fill="#000" font-family="Helvetica" font-size="11" xml:space="preserve">IO_COMPLETED_EVT</text></g></svg>