<svg xmlns="http://www.w3.org/2000/svg" width="744" height="590" version="1.1"><g><rect width="3" height="127" x="163" y="23" fill="#cbcbcb" stroke="none" stroke-opacity="1"/><rect width="89" height="3" x="77" y="147" fill="#cbcbcb" stroke="none" stroke-opacity="1"/><rect width="90" height="128" x="73" y="19" fill="#ffffc0" stroke="#000" stroke-opacity="1" stroke-width="1"/><text x="118" y="32" fill="#000" font-family="Helvetica" font-size="11" font-weight="bold" text-anchor="middle" xml:space="preserve">D2CfgContext</text><line x1="73" x2="163" y1="34" y2="34" stroke="#000" stroke-opacity="1"/><line x1="73" x2="163" y1="42" y2="42" stroke="#000" stroke-opacity="1"/><text x="77" y="55" fill="#000" font-family="Helvetica" font-size="11" xml:space="preserve">D2CfgContext()</text><text x="77" y="68" fill="#000" font-family="Helvetica" font-size="11" xml:space="preserve">~D2CfgContext()</text><text x="77" y="81" fill="#000" font-family="Helvetica" font-size="11" xml:space="preserve">clone()</text><text x="77" y="94" fill="#000" font-family="Helvetica" font-size="11" xml:space="preserve">getForwardMgr()</text><text x="77" y="107" fill="#000" font-family="Helvetica" font-size="11" xml:space="preserve">getReverseMgr()</text><text x="77" y="120" fill="#000" font-family="Helvetica" font-size="11" xml:space="preserve">getKeys()</text><text x="77" y="133" fill="#000" font-family="Helvetica" font-size="11" xml:space="preserve">D2CfgContext()</text><text x="77" y="146" fill="#000" font-family="Helvetica" font-size="11" xml:space="preserve">operator =()</text></g><g><rect width="3" height="213" x="728" y="342" fill="#cbcbcb" stroke="none" stroke-opacity="1"/><rect width="131" height="3" x="600" y="552" fill="#cbcbcb" stroke="none" stroke-opacity="1"/><rect width="132" height="214" x="596" y="338" fill="#ffffc0" stroke="#000" stroke-opacity="1" stroke-width="1"/><text x="662" y="351" fill="#000" font-family="Helvetica" font-size="11" font-weight="bold" text-anchor="middle" xml:space="preserve">DnsServerInfo</text><line x1="596" x2="728" y1="353" y2="353" stroke="#000" stroke-opacity="1"/><text x="600" y="366" fill="#000" font-family="Helvetica" font-size="11" text-decoration="underline" xml:space="preserve">STANDARD_DNS_PORT</text><text x="600" y="379" fill="#000" font-family="Helvetica" font-size="11" text-decoration="underline" xml:space="preserve">EMPTY_IP_STR</text><text x="600" y="392" fill="#000" font-family="Helvetica" font-size="11" xml:space="preserve">hostname_</text><text x="600" y="405" fill="#000" font-family="Helvetica" font-size="11" xml:space="preserve">ip_address_</text><text x="600" y="418" fill="#000" font-family="Helvetica" font-size="11" xml:space="preserve">port_</text><text x="600" y="431" fill="#000" font-family="Helvetica" font-size="11" xml:space="preserve">enabled_</text><line x1="596" x2="728" y1="433" y2="433" stroke="#000" stroke-opacity="1"/><text x="600" y="446" fill="#000" font-family="Helvetica" font-size="11" xml:space="preserve">DnsServerInfo()</text><text x="600" y="459" fill="#000" font-family="Helvetica" font-size="11" xml:space="preserve">~DnsServerInfo()</text><text x="600" y="472" fill="#000" font-family="Helvetica" font-size="11" xml:space="preserve">getHostname()</text><text x="600" y="485" fill="#000" font-family="Helvetica" font-size="11" xml:space="preserve">getPort()</text><text x="600" y="498" fill="#000" font-family="Helvetica" font-size="11" xml:space="preserve">getIpAddress()</text><text x="600" y="511" fill="#000" font-family="Helvetica" font-size="11" xml:space="preserve">isEnabled()</text><text x="600" y="524" fill="#000" font-family="Helvetica" font-size="11" xml:space="preserve">enable()</text><text x="600" y="537" fill="#000" font-family="Helvetica" font-size="11" xml:space="preserve">disable()</text><text x="600" y="550" fill="#000" font-family="Helvetica" font-size="11" xml:space="preserve">toText()</text></g><g><rect width="3" height="45" x="551" y="64" fill="#cbcbcb" stroke="none" stroke-opacity="1"/><rect width="87" height="3" x="467" y="106" fill="#cbcbcb" stroke="none" stroke-opacity="1"/><rect width="88" height="46" x="463" y="60" fill="#ffffc0" stroke="#000" stroke-opacity="1" stroke-width="1"/><text x="507" y="73" fill="#000" font-family="Helvetica" font-size="11" text-anchor="middle" xml:space="preserve">&lt;&lt;typedef&gt;&gt;</text><text x="507" y="88" fill="#000" font-family="Helvetica" font-size="11" font-weight="bold" text-anchor="middle" xml:space="preserve">TSIGKeyInfoPtr</text><line x1="463" x2="551" y1="90" y2="90" stroke="#000" stroke-opacity="1"/><line x1="463" x2="551" y1="98" y2="98" stroke="#000" stroke-opacity="1"/></g><g><rect width="3" height="45" x="158" y="532" fill="#cbcbcb" stroke="none" stroke-opacity="1"/><rect width="97" height="3" x="64" y="574" fill="#cbcbcb" stroke="none" stroke-opacity="1"/><rect width="98" height="46" x="60" y="528" fill="#ffffc0" stroke="#000" stroke-opacity="1" stroke-width="1"/><text x="109" y="541" fill="#000" font-family="Helvetica" font-size="11" text-anchor="middle" xml:space="preserve">&lt;&lt;typedef&gt;&gt;</text><text x="109" y="556" fill="#000" font-family="Helvetica" font-size="11" font-weight="bold" text-anchor="middle" xml:space="preserve">DdnsDomainMap</text><line x1="60" x2="158" y1="558" y2="558" stroke="#000" stroke-opacity="1"/><line x1="60" x2="158" y1="566" y2="566" stroke="#000" stroke-opacity="1"/></g><g><rect width="3" height="45" x="437" y="460" fill="#cbcbcb" stroke="none" stroke-opacity="1"/><rect width="137" height="3" x="303" y="502" fill="#cbcbcb" stroke="none" stroke-opacity="1"/><rect width="138" height="46" x="299" y="456" fill="#ffffc0" stroke="#000" stroke-opacity="1" stroke-width="1"/><text x="368" y="469" fill="#000" font-family="Helvetica" font-size="11" text-anchor="middle" xml:space="preserve">&lt;&lt;typedef&gt;&gt;</text><text x="368" y="484" fill="#000" font-family="Helvetica" font-size="11" font-weight="bold" text-anchor="middle" xml:space="preserve">DnsServerInfoStoragePtr</text><line x1="299" x2="437" y1="486" y2="486" stroke="#000" stroke-opacity="1"/><line x1="299" x2="437" y1="494" y2="494" stroke="#000" stroke-opacity="1"/></g><g><rect width="3" height="45" x="180" y="195" fill="#cbcbcb" stroke="none" stroke-opacity="1"/><rect width="129" height="3" x="54" y="237" fill="#cbcbcb" stroke="none" stroke-opacity="1"/><rect width="130" height="46" x="50" y="191" fill="#ffffc0" stroke="#000" stroke-opacity="1" stroke-width="1"/><text x="115" y="204" fill="#000" font-family="Helvetica" font-size="11" text-anchor="middle" xml:space="preserve">&lt;&lt;typedef&gt;&gt;</text><text x="115" y="219" fill="#000" font-family="Helvetica" font-size="11" font-weight="bold" text-anchor="middle" xml:space="preserve">DdnsDomainListMgrPtr</text><line x1="50" x2="180" y1="221" y2="221" stroke="#000" stroke-opacity="1"/><line x1="50" x2="180" y1="229" y2="229" stroke="#000" stroke-opacity="1"/></g><g><rect width="3" height="45" x="548" y="355" fill="#cbcbcb" stroke="none" stroke-opacity="1"/><rect width="97" height="3" x="454" y="397" fill="#cbcbcb" stroke="none" stroke-opacity="1"/><rect width="98" height="46" x="450" y="351" fill="#ffffc0" stroke="#000" stroke-opacity="1" stroke-width="1"/><text x="499" y="364" fill="#000" font-family="Helvetica" font-size="11" text-anchor="middle" xml:space="preserve">&lt;&lt;typedef&gt;&gt;</text><text x="499" y="379" fill="#000" font-family="Helvetica" font-size="11" font-weight="bold" text-anchor="middle" xml:space="preserve">DnsServerInfoPtr</text><line x1="450" x2="548" y1="381" y2="381" stroke="#000" stroke-opacity="1"/><line x1="450" x2="548" y1="389" y2="389" stroke="#000" stroke-opacity="1"/></g><g><rect width="3" height="121" x="666" y="63" fill="#cbcbcb" stroke="none" stroke-opacity="1"/><rect width="83" height="3" x="586" y="181" fill="#cbcbcb" stroke="none" stroke-opacity="1"/><rect width="84" height="122" x="582" y="59" fill="#ffffc0" stroke="#000" stroke-opacity="1" stroke-width="1"/><text x="624" y="72" fill="#000" font-family="Helvetica" font-size="11" font-weight="bold" text-anchor="middle" xml:space="preserve">TSIGKeyInfo</text><line x1="582" x2="666" y1="74" y2="74" stroke="#000" stroke-opacity="1"/><text x="586" y="87" fill="#000" font-family="Helvetica" font-size="11" xml:space="preserve">name_</text><text x="586" y="100" fill="#000" font-family="Helvetica" font-size="11" xml:space="preserve">algorithm_</text><text x="586" y="113" fill="#000" font-family="Helvetica" font-size="11" xml:space="preserve">secret_</text><line x1="582" x2="666" y1="115" y2="115" stroke="#000" stroke-opacity="1"/><text x="586" y="128" fill="#000" font-family="Helvetica" font-size="11" xml:space="preserve">TSIGKeyInfo()</text><text x="586" y="141" fill="#000" font-family="Helvetica" font-size="11" xml:space="preserve">~TSIGKeyInfo()</text><text x="586" y="154" fill="#000" font-family="Helvetica" font-size="11" xml:space="preserve">getName()</text><text x="586" y="167" fill="#000" font-family="Helvetica" font-size="11" xml:space="preserve">getAlgorithm()</text><text x="586" y="180" fill="#000" font-family="Helvetica" font-size="11" xml:space="preserve">getSecret()</text></g><g><line x1="152" x2="158" y1="190" y2="184" stroke="#000" stroke-opacity="1"/><line x1="152" x2="146" y1="190" y2="184" stroke="#000" stroke-opacity="1"/><line x1="152" x2="152" y1="151" y2="190" stroke="#000" stroke-opacity="1"/><polygon fill="#000" stroke="#000" stroke-opacity="1" points="152 151 158 157 152 163 146 157"/></g><g><line x1="85" x2="91" y1="190" y2="184" stroke="#000" stroke-opacity="1"/><line x1="85" x2="79" y1="190" y2="184" stroke="#000" stroke-opacity="1"/><line x1="85" x2="85" y1="151" y2="190" stroke="#000" stroke-opacity="1"/><polygon fill="#000" stroke="#000" stroke-opacity="1" points="85 151 91 157 85 163 79 157"/></g><g><line x1="595" x2="589" y1="369" y2="362" stroke="#000" stroke-opacity="1"/><line x1="595" x2="588" y1="369" y2="374" stroke="#000" stroke-opacity="1"/><line x1="552" x2="595" y1="368" y2="369" stroke="#000" stroke-dasharray="4 4" stroke-opacity="1"/></g><g><line x1="581" x2="575" y1="72" y2="65" stroke="#000" stroke-opacity="1"/><line x1="581" x2="574" y1="72" y2="77" stroke="#000" stroke-opacity="1"/><line x1="555" x2="581" y1="71" y2="72" stroke="#000" stroke-dasharray="4 4" stroke-opacity="1"/></g><g><rect width="3" height="147" x="177" y="274" fill="#cbcbcb" stroke="none" stroke-opacity="1"/><rect width="129" height="3" x="51" y="418" fill="#cbcbcb" stroke="none" stroke-opacity="1"/><rect width="130" height="148" x="47" y="270" fill="#ffffc0" stroke="#000" stroke-opacity="1" stroke-width="1"/><text x="112" y="283" fill="#000" font-family="Helvetica" font-size="11" font-weight="bold" text-anchor="middle" xml:space="preserve">DdnsDomainListMgr</text><line x1="47" x2="177" y1="285" y2="285" stroke="#000" stroke-opacity="1"/><text x="51" y="298" fill="#000" font-family="Helvetica" font-size="11" text-decoration="underline" xml:space="preserve">wildcard_domain_name_</text><text x="51" y="311" fill="#000" font-family="Helvetica" font-size="11" xml:space="preserve">name_</text><line x1="47" x2="177" y1="313" y2="313" stroke="#000" stroke-opacity="1"/><text x="51" y="326" fill="#000" font-family="Helvetica" font-size="11" xml:space="preserve">DdnsDomainListMgr()</text><text x="51" y="339" fill="#000" font-family="Helvetica" font-size="11" xml:space="preserve">~DdnsDomainListMgr()</text><text x="51" y="352" fill="#000" font-family="Helvetica" font-size="11" xml:space="preserve">matchDomain()</text><text x="51" y="365" fill="#000" font-family="Helvetica" font-size="11" xml:space="preserve">getName()</text><text x="51" y="378" fill="#000" font-family="Helvetica" font-size="11" xml:space="preserve">size()</text><text x="51" y="391" fill="#000" font-family="Helvetica" font-size="11" xml:space="preserve">getWildcardDomain()</text><text x="51" y="404" fill="#000" font-family="Helvetica" font-size="11" xml:space="preserve">getDomains()</text><text x="51" y="417" fill="#000" font-family="Helvetica" font-size="11" xml:space="preserve">setDomains()</text></g><g><rect width="3" height="45" x="428" y="527" fill="#cbcbcb" stroke="none" stroke-opacity="1"/><rect width="123" height="3" x="308" y="569" fill="#cbcbcb" stroke="none" stroke-opacity="1"/><rect width="124" height="46" x="304" y="523" fill="#ffffc0" stroke="#000" stroke-opacity="1" stroke-width="1"/><text x="366" y="536" fill="#000" font-family="Helvetica" font-size="11" text-anchor="middle" xml:space="preserve">&lt;&lt;typedef&gt;&gt;</text><text x="366" y="551" fill="#000" font-family="Helvetica" font-size="11" font-weight="bold" text-anchor="middle" xml:space="preserve">DnsServerInfoStorage</text><line x1="304" x2="428" y1="553" y2="553" stroke="#000" stroke-opacity="1"/><line x1="304" x2="428" y1="561" y2="561" stroke="#000" stroke-opacity="1"/></g><g><line x1="115" x2="121" y1="269" y2="263" stroke="#000" stroke-opacity="1"/><line x1="115" x2="109" y1="269" y2="262" stroke="#000" stroke-opacity="1"/><line x1="116" x2="115" y1="241" y2="269" stroke="#000" stroke-dasharray="4 4" stroke-opacity="1"/></g><g><line x1="432" x2="501" y1="548" y2="548" stroke="#000" stroke-dasharray="4 4" stroke-opacity="1"/></g><g><line x1="501" x2="495" y1="401" y2="407" stroke="#000" stroke-opacity="1"/><line x1="501" x2="507" y1="401" y2="407" stroke="#000" stroke-opacity="1"/><line x1="501" x2="501" y1="548" y2="401" stroke="#000" stroke-dasharray="4 4" stroke-opacity="1"/></g><g><line x1="368" x2="374" y1="522" y2="516" stroke="#000" stroke-opacity="1"/><line x1="368" x2="362" y1="522" y2="515" stroke="#000" stroke-opacity="1"/><line x1="369" x2="368" y1="506" y2="522" stroke="#000" stroke-dasharray="4 4" stroke-opacity="1"/></g><g><rect width="3" height="45" x="295" y="316" fill="#cbcbcb" stroke="none" stroke-opacity="1"/><rect width="89" height="3" x="209" y="358" fill="#cbcbcb" stroke="none" stroke-opacity="1"/><rect width="90" height="46" x="205" y="312" fill="#ffffc0" stroke="#000" stroke-opacity="1" stroke-width="1"/><text x="250" y="325" fill="#000" font-family="Helvetica" font-size="11" text-anchor="middle" xml:space="preserve">&lt;&lt;typedef&gt;&gt;</text><text x="250" y="340" fill="#000" font-family="Helvetica" font-size="11" font-weight="bold" text-anchor="middle" xml:space="preserve">DdnsDomainPtr</text><line x1="205" x2="295" y1="342" y2="342" stroke="#000" stroke-opacity="1"/><line x1="205" x2="295" y1="350" y2="350" stroke="#000" stroke-opacity="1"/></g><g><line x1="181" x2="251" y1="297" y2="297" stroke="#000" stroke-opacity="1"/><polygon fill="#000" stroke="#000" stroke-opacity="1" points="181 297 187 291 193 297 187 303"/></g><g><line x1="251" x2="257" y1="311" y2="305" stroke="#000" stroke-opacity="1"/><line x1="251" x2="245" y1="311" y2="305" stroke="#000" stroke-opacity="1"/><line x1="251" x2="251" y1="297" y2="311" stroke="#000" stroke-opacity="1"/></g><g><line x1="162" x2="251" y1="553" y2="553" stroke="#000" stroke-dasharray="4 4" stroke-opacity="1"/></g><g><line x1="251" x2="245" y1="362" y2="368" stroke="#000" stroke-opacity="1"/><line x1="251" x2="257" y1="362" y2="368" stroke="#000" stroke-opacity="1"/><line x1="251" x2="251" y1="553" y2="362" stroke="#000" stroke-dasharray="4 4" stroke-opacity="1"/></g><g><rect width="3" height="109" x="414" y="318" fill="#cbcbcb" stroke="none" stroke-opacity="1"/><rect width="83" height="3" x="334" y="424" fill="#cbcbcb" stroke="none" stroke-opacity="1"/><rect width="84" height="110" x="330" y="314" fill="#ffffc0" stroke="#000" stroke-opacity="1" stroke-width="1"/><text x="372" y="327" fill="#000" font-family="Helvetica" font-size="11" font-weight="bold" text-anchor="middle" xml:space="preserve">DdnsDomain</text><line x1="330" x2="414" y1="329" y2="329" stroke="#000" stroke-opacity="1"/><text x="334" y="342" fill="#000" font-family="Helvetica" font-size="11" xml:space="preserve">name_</text><text x="334" y="355" fill="#000" font-family="Helvetica" font-size="11" xml:space="preserve">key_name_</text><line x1="330" x2="414" y1="357" y2="357" stroke="#000" stroke-opacity="1"/><text x="334" y="370" fill="#000" font-family="Helvetica" font-size="11" xml:space="preserve">DdnsDomain()</text><text x="334" y="383" fill="#000" font-family="Helvetica" font-size="11" xml:space="preserve">~DdnsDomain()</text><text x="334" y="396" fill="#000" font-family="Helvetica" font-size="11" xml:space="preserve">getName()</text><text x="334" y="409" fill="#000" font-family="Helvetica" font-size="11" xml:space="preserve">getKeyName()</text><text x="334" y="422" fill="#000" font-family="Helvetica" font-size="11" xml:space="preserve">getServers()</text></g><g><line x1="370" x2="376" y1="455" y2="449" stroke="#000" stroke-opacity="1"/><line x1="370" x2="364" y1="455" y2="448" stroke="#000" stroke-opacity="1"/><line x1="371" x2="370" y1="428" y2="455" stroke="#000" stroke-opacity="1"/><polygon fill="#000" stroke="#000" stroke-opacity="1" points="371 428 376 434 370 439 364 433"/></g><g><line x1="329" x2="323" y1="337" y2="330" stroke="#000" stroke-opacity="1"/><line x1="329" x2="322" y1="337" y2="342" stroke="#000" stroke-opacity="1"/><line x1="299" x2="329" y1="336" y2="337" stroke="#000" stroke-dasharray="4 4" stroke-opacity="1"/></g><g><text x="9" y="183" fill="#000" font-family="Helvetica" font-size="11" xml:space="preserve">reverse_mgr_</text></g><g><text x="162" y="187" fill="#000" font-family="Helvetica" font-size="11" xml:space="preserve">forward_mgr_</text></g><g><text x="254" y="78" fill="#000" font-family="Helvetica" font-size="11" xml:space="preserve">keys_</text></g><g><text x="229" y="285" fill="#000" font-family="Helvetica" font-size="11" xml:space="preserve">wildcard_domain_</text></g><g><text x="380" y="452" fill="#000" font-family="Helvetica" font-size="11" xml:space="preserve">servers_</text></g><g><text x="128" y="446" fill="#000" font-family="Helvetica" font-size="11" xml:space="preserve">domains_</text></g><g><rect width="3" height="45" x="408" y="65" fill="#cbcbcb" stroke="none" stroke-opacity="1"/><rect width="109" height="3" x="302" y="107" fill="#cbcbcb" stroke="none" stroke-opacity="1"/><rect width="110" height="46" x="298" y="61" fill="#ffffc0" stroke="#000" stroke-opacity="1" stroke-width="1"/><text x="353" y="74" fill="#000" font-family="Helvetica" font-size="11" text-anchor="middle" xml:space="preserve">&lt;&lt;typedef&gt;&gt;</text><text x="353" y="89" fill="#000" font-family="Helvetica" font-size="11" font-weight="bold" text-anchor="middle" xml:space="preserve">TSIGKeyInfoMapPtr</text><line x1="298" x2="408" y1="91" y2="91" stroke="#000" stroke-opacity="1"/><line x1="298" x2="408" y1="99" y2="99" stroke="#000" stroke-opacity="1"/></g><g><rect width="3" height="45" x="167" y="461" fill="#cbcbcb" stroke="none" stroke-opacity="1"/><rect width="111" height="3" x="59" y="503" fill="#cbcbcb" stroke="none" stroke-opacity="1"/><rect width="112" height="46" x="55" y="457" fill="#ffffc0" stroke="#000" stroke-opacity="1" stroke-width="1"/><text x="111" y="470" fill="#000" font-family="Helvetica" font-size="11" text-anchor="middle" xml:space="preserve">&lt;&lt;typedef&gt;&gt;</text><text x="111" y="485" fill="#000" font-family="Helvetica" font-size="11" font-weight="bold" text-anchor="middle" xml:space="preserve">DdnsDomainMapPtr</text><line x1="55" x2="167" y1="487" y2="487" stroke="#000" stroke-opacity="1"/><line x1="55" x2="167" y1="495" y2="495" stroke="#000" stroke-opacity="1"/></g><g><line x1="297" x2="291" y1="85" y2="79" stroke="#000" stroke-opacity="1"/><line x1="297" x2="291" y1="85" y2="91" stroke="#000" stroke-opacity="1"/><line x1="167" x2="297" y1="85" y2="85" stroke="#000" stroke-opacity="1"/><polygon fill="#000" stroke="#000" stroke-opacity="1" points="167 85 173 79 179 85 173 91"/></g><g><line x1="111" x2="117" y1="527" y2="521" stroke="#000" stroke-opacity="1"/><line x1="111" x2="105" y1="527" y2="520" stroke="#000" stroke-opacity="1"/><line x1="112" x2="111" y1="507" y2="527" stroke="#000" stroke-dasharray="4 4" stroke-opacity="1"/></g><g><line x1="113" x2="119" y1="456" y2="450" stroke="#000" stroke-opacity="1"/><line x1="113" x2="107" y1="456" y2="450" stroke="#000" stroke-opacity="1"/><line x1="113" x2="113" y1="422" y2="456" stroke="#000" stroke-opacity="1"/><polygon fill="#000" stroke="#000" stroke-opacity="1" points="113 422 119 428 113 434 107 428"/></g><g><rect width="3" height="45" x="395" y="136" fill="#cbcbcb" stroke="none" stroke-opacity="1"/><rect width="95" height="3" x="303" y="178" fill="#cbcbcb" stroke="none" stroke-opacity="1"/><rect width="96" height="46" x="299" y="132" fill="#ffffc0" stroke="#000" stroke-opacity="1" stroke-width="1"/><text x="347" y="145" fill="#000" font-family="Helvetica" font-size="11" text-anchor="middle" xml:space="preserve">&lt;&lt;typedef&gt;&gt;</text><text x="347" y="160" fill="#000" font-family="Helvetica" font-size="11" font-weight="bold" text-anchor="middle" xml:space="preserve">TSIGKeyInfoMap</text><line x1="299" x2="395" y1="162" y2="162" stroke="#000" stroke-opacity="1"/><line x1="299" x2="395" y1="170" y2="170" stroke="#000" stroke-opacity="1"/></g><g><line x1="399" x2="509" y1="157" y2="157" stroke="#000" stroke-dasharray="4 4" stroke-opacity="1"/></g><g><line x1="509" x2="503" y1="110" y2="116" stroke="#000" stroke-opacity="1"/><line x1="509" x2="515" y1="110" y2="116" stroke="#000" stroke-opacity="1"/><line x1="509" x2="509" y1="157" y2="110" stroke="#000" stroke-dasharray="4 4" stroke-opacity="1"/></g><g><line x1="350" x2="356" y1="131" y2="125" stroke="#000" stroke-opacity="1"/><line x1="350" x2="344" y1="131" y2="124" stroke="#000" stroke-opacity="1"/><line x1="352" x2="350" y1="111" y2="131" stroke="#000" stroke-dasharray="4 4" stroke-opacity="1"/></g></svg>