<svg xmlns="http://www.w3.org/2000/svg" width="1126" height="713" version="1.1"><g><rect width="3" height="147" x="146" y="343" fill="#cbcbcb" stroke="none" stroke-opacity="1"/><rect width="129" height="3" x="20" y="487" fill="#cbcbcb" stroke="none" stroke-opacity="1"/><rect width="130" height="148" x="16" y="339" fill="#c0ffff" stroke="#000" stroke-opacity="1" stroke-width="1"/><text x="81" y="352" fill="#000" font-family="Helvetica" font-size="11" font-weight="bold" text-anchor="middle" xml:space="preserve">DdnsDomainListMgr</text><line x1="16" x2="146" y1="354" y2="354" stroke="#000" stroke-opacity="1"/><text x="20" y="367" fill="#000" font-family="Helvetica" font-size="11" text-decoration="underline" xml:space="preserve">wildcard_domain_name_</text><text x="20" y="380" fill="#000" font-family="Helvetica" font-size="11" xml:space="preserve">name_</text><line x1="16" x2="146" y1="382" y2="382" stroke="#000" stroke-opacity="1"/><text x="20" y="395" fill="#000" font-family="Helvetica" font-size="11" xml:space="preserve">DdnsDomainListMgr()</text><text x="20" y="408" fill="#000" font-family="Helvetica" font-size="11" xml:space="preserve">~DdnsDomainListMgr()</text><text x="20" y="421" fill="#000" font-family="Helvetica" font-size="11" xml:space="preserve">matchDomain()</text><text x="20" y="434" fill="#000" font-family="Helvetica" font-size="11" xml:space="preserve">getName()</text><text x="20" y="447" fill="#000" font-family="Helvetica" font-size="11" xml:space="preserve">size()</text><text x="20" y="460" fill="#000" font-family="Helvetica" font-size="11" xml:space="preserve">getWildcardDomain()</text><text x="20" y="473" fill="#000" font-family="Helvetica" font-size="11" xml:space="preserve">getDomains()</text><text x="20" y="486" fill="#000" font-family="Helvetica" font-size="11" xml:space="preserve">setDomains()</text></g><g><rect width="3" height="213" x="750" y="474" fill="#cbcbcb" stroke="none" stroke-opacity="1"/><rect width="131" height="3" x="622" y="684" fill="#cbcbcb" stroke="none" stroke-opacity="1"/><rect width="132" height="214" x="618" y="470" fill="#c0ffff" stroke="#000" stroke-opacity="1" stroke-width="1"/><text x="684" y="483" fill="#000" font-family="Helvetica" font-size="11" font-weight="bold" text-anchor="middle" xml:space="preserve">DnsServerInfo</text><line x1="618" x2="750" y1="485" y2="485" stroke="#000" stroke-opacity="1"/><text x="622" y="498" fill="#000" font-family="Helvetica" font-size="11" text-decoration="underline" xml:space="preserve">STANDARD_DNS_PORT</text><text x="622" y="511" fill="#000" font-family="Helvetica" font-size="11" text-decoration="underline" xml:space="preserve">EMPTY_IP_STR</text><text x="622" y="524" fill="#000" font-family="Helvetica" font-size="11" xml:space="preserve">hostname_</text><text x="622" y="537" fill="#000" font-family="Helvetica" font-size="11" xml:space="preserve">ip_address_</text><text x="622" y="550" fill="#000" font-family="Helvetica" font-size="11" xml:space="preserve">port_</text><text x="622" y="563" fill="#000" font-family="Helvetica" font-size="11" xml:space="preserve">enabled_</text><line x1="618" x2="750" y1="565" y2="565" stroke="#000" stroke-opacity="1"/><text x="622" y="578" fill="#000" font-family="Helvetica" font-size="11" xml:space="preserve">DnsServerInfo()</text><text x="622" y="591" fill="#000" font-family="Helvetica" font-size="11" xml:space="preserve">~DnsServerInfo()</text><text x="622" y="604" fill="#000" font-family="Helvetica" font-size="11" xml:space="preserve">getHostname()</text><text x="622" y="617" fill="#000" font-family="Helvetica" font-size="11" xml:space="preserve">getPort()</text><text x="622" y="630" fill="#000" font-family="Helvetica" font-size="11" xml:space="preserve">getIpAddress()</text><text x="622" y="643" fill="#000" font-family="Helvetica" font-size="11" xml:space="preserve">isEnabled()</text><text x="622" y="656" fill="#000" font-family="Helvetica" font-size="11" xml:space="preserve">enable()</text><text x="622" y="669" fill="#000" font-family="Helvetica" font-size="11" xml:space="preserve">disable()</text><text x="622" y="682" fill="#000" font-family="Helvetica" font-size="11" xml:space="preserve">toText()</text></g><g><rect width="3" height="109" x="422" y="422" fill="#cbcbcb" stroke="none" stroke-opacity="1"/><rect width="83" height="3" x="342" y="528" fill="#cbcbcb" stroke="none" stroke-opacity="1"/><rect width="84" height="110" x="338" y="418" fill="#c0ffff" stroke="#000" stroke-opacity="1" stroke-width="1"/><text x="380" y="431" fill="#000" font-family="Helvetica" font-size="11" font-weight="bold" text-anchor="middle" xml:space="preserve">DdnsDomain</text><line x1="338" x2="422" y1="433" y2="433" stroke="#000" stroke-opacity="1"/><text x="342" y="446" fill="#000" font-family="Helvetica" font-size="11" xml:space="preserve">name_</text><text x="342" y="459" fill="#000" font-family="Helvetica" font-size="11" xml:space="preserve">key_name_</text><line x1="338" x2="422" y1="461" y2="461" stroke="#000" stroke-opacity="1"/><text x="342" y="474" fill="#000" font-family="Helvetica" font-size="11" xml:space="preserve">DdnsDomain()</text><text x="342" y="487" fill="#000" font-family="Helvetica" font-size="11" xml:space="preserve">~DdnsDomain()</text><text x="342" y="500" fill="#000" font-family="Helvetica" font-size="11" xml:space="preserve">getName()</text><text x="342" y="513" fill="#000" font-family="Helvetica" font-size="11" xml:space="preserve">getKeyName()</text><text x="342" y="526" fill="#000" font-family="Helvetica" font-size="11" xml:space="preserve">getServers()</text></g><g><rect width="3" height="95" x="598" y="316" fill="#cbcbcb" stroke="none" stroke-opacity="1"/><rect width="139" height="3" x="462" y="408" fill="#cbcbcb" stroke="none" stroke-opacity="1"/><rect width="140" height="96" x="458" y="312" fill="#ffffc0" stroke="#000" stroke-opacity="1" stroke-width="1"/><text x="528" y="325" fill="#000" font-family="Helvetica" font-size="11" font-weight="bold" text-anchor="middle" xml:space="preserve">DnsServerInfoListParser</text><line x1="458" x2="598" y1="327" y2="327" stroke="#000" stroke-opacity="1"/><text x="462" y="340" fill="#000" font-family="Helvetica" font-size="11" xml:space="preserve">list_name_</text><text x="462" y="353" fill="#000" font-family="Helvetica" font-size="11" xml:space="preserve">parsers_</text><line x1="458" x2="598" y1="355" y2="355" stroke="#000" stroke-opacity="1"/><text x="462" y="368" fill="#000" font-family="Helvetica" font-size="11" xml:space="preserve">DnsServerInfoListParser()</text><text x="462" y="381" fill="#000" font-family="Helvetica" font-size="11" xml:space="preserve">~DnsServerInfoListParser()</text><text x="462" y="394" fill="#000" font-family="Helvetica" font-size="11" xml:space="preserve">build()</text><text x="462" y="407" fill="#000" font-family="Helvetica" font-size="11" xml:space="preserve">commit()</text></g><g><rect width="3" height="95" x="738" y="348" fill="#cbcbcb" stroke="none" stroke-opacity="1"/><rect width="123" height="3" x="618" y="440" fill="#cbcbcb" stroke="none" stroke-opacity="1"/><rect width="124" height="96" x="614" y="344" fill="#ffffc0" stroke="#000" stroke-opacity="1" stroke-width="1"/><text x="676" y="357" fill="#000" font-family="Helvetica" font-size="11" font-weight="bold" text-anchor="middle" xml:space="preserve">DnsServerInfoParser</text><line x1="614" x2="738" y1="359" y2="359" stroke="#000" stroke-opacity="1"/><text x="618" y="372" fill="#000" font-family="Helvetica" font-size="11" xml:space="preserve">entry_name_</text><line x1="614" x2="738" y1="374" y2="374" stroke="#000" stroke-opacity="1"/><text x="618" y="387" fill="#000" font-family="Helvetica" font-size="11" xml:space="preserve">DnsServerInfoParser()</text><text x="618" y="400" fill="#000" font-family="Helvetica" font-size="11" xml:space="preserve">~DnsServerInfoParser()</text><text x="618" y="413" fill="#000" font-family="Helvetica" font-size="11" xml:space="preserve">build()</text><text x="618" y="426" fill="#000" font-family="Helvetica" font-size="11" xml:space="preserve">createConfigParser()</text><text x="618" y="439" fill="#000" font-family="Helvetica" font-size="11" xml:space="preserve">commit()</text></g><g><rect width="3" height="95" x="160" y="205" fill="#cbcbcb" stroke="none" stroke-opacity="1"/><rect width="153" height="3" x="10" y="297" fill="#cbcbcb" stroke="none" stroke-opacity="1"/><rect width="154" height="96" x="6" y="201" fill="#ffffc0" stroke="#000" stroke-opacity="1" stroke-width="1"/><text x="83" y="214" fill="#000" font-family="Helvetica" font-size="11" font-weight="bold" text-anchor="middle" xml:space="preserve">DdnsDomainListMgrParser</text><line x1="6" x2="160" y1="216" y2="216" stroke="#000" stroke-opacity="1"/><text x="10" y="229" fill="#000" font-family="Helvetica" font-size="11" xml:space="preserve">entry_name_</text><line x1="6" x2="160" y1="231" y2="231" stroke="#000" stroke-opacity="1"/><text x="10" y="244" fill="#000" font-family="Helvetica" font-size="11" xml:space="preserve">DdnsDomainListMgrParser()</text><text x="10" y="257" fill="#000" font-family="Helvetica" font-size="11" xml:space="preserve">~DdnsDomainListMgrParser()</text><text x="10" y="270" fill="#000" font-family="Helvetica" font-size="11" xml:space="preserve">build()</text><text x="10" y="283" fill="#000" font-family="Helvetica" font-size="11" xml:space="preserve">createConfigParser()</text><text x="10" y="296" fill="#000" font-family="Helvetica" font-size="11" xml:space="preserve">commit()</text></g><g><rect width="3" height="95" x="585" y="65" fill="#cbcbcb" stroke="none" stroke-opacity="1"/><rect width="115" height="3" x="473" y="157" fill="#cbcbcb" stroke="none" stroke-opacity="1"/><rect width="116" height="96" x="469" y="61" fill="#ffffc0" stroke="#000" stroke-opacity="1" stroke-width="1"/><text x="527" y="74" fill="#000" font-family="Helvetica" font-size="11" font-weight="bold" text-anchor="middle" xml:space="preserve">TSIGKeyInfoParser</text><line x1="469" x2="585" y1="76" y2="76" stroke="#000" stroke-opacity="1"/><text x="473" y="89" fill="#000" font-family="Helvetica" font-size="11" xml:space="preserve">entry_name_</text><line x1="469" x2="585" y1="91" y2="91" stroke="#000" stroke-opacity="1"/><text x="473" y="104" fill="#000" font-family="Helvetica" font-size="11" xml:space="preserve">TSIGKeyInfoParser()</text><text x="473" y="117" fill="#000" font-family="Helvetica" font-size="11" xml:space="preserve">~TSIGKeyInfoParser()</text><text x="473" y="130" fill="#000" font-family="Helvetica" font-size="11" xml:space="preserve">build()</text><text x="473" y="143" fill="#000" font-family="Helvetica" font-size="11" xml:space="preserve">createConfigParser()</text><text x="473" y="156" fill="#000" font-family="Helvetica" font-size="11" xml:space="preserve">commit()</text></g><g><line x1="680" x2="686" y1="469" y2="463" stroke="#000" stroke-opacity="1"/><line x1="680" x2="674" y1="469" y2="463" stroke="#000" stroke-opacity="1"/><line x1="680" x2="680" y1="444" y2="469" stroke="#000" stroke-dasharray="4 4" stroke-opacity="1"/></g><g><line x1="602" x2="675" y1="324" y2="324" stroke="#000" stroke-dasharray="4 4" stroke-opacity="1"/></g><g><line x1="83" x2="89" y1="338" y2="332" stroke="#000" stroke-opacity="1"/><line x1="83" x2="77" y1="338" y2="331" stroke="#000" stroke-opacity="1"/><line x1="84" x2="83" y1="301" y2="338" stroke="#000" stroke-dasharray="4 4" stroke-opacity="1"/></g><g><line x1="675" x2="681" y1="343" y2="337" stroke="#000" stroke-opacity="1"/><line x1="675" x2="669" y1="343" y2="337" stroke="#000" stroke-opacity="1"/><line x1="675" x2="675" y1="324" y2="343" stroke="#000" stroke-dasharray="4 4" stroke-opacity="1"/></g><g><rect width="3" height="95" x="434" y="33" fill="#cbcbcb" stroke="none" stroke-opacity="1"/><rect width="133" height="3" x="304" y="125" fill="#cbcbcb" stroke="none" stroke-opacity="1"/><rect width="134" height="96" x="300" y="29" fill="#ffffc0" stroke="#000" stroke-opacity="1" stroke-width="1"/><text x="367" y="42" fill="#000" font-family="Helvetica" font-size="11" font-weight="bold" text-anchor="middle" xml:space="preserve">TSIGKeyInfoListParser</text><line x1="300" x2="434" y1="44" y2="44" stroke="#000" stroke-opacity="1"/><text x="304" y="57" fill="#000" font-family="Helvetica" font-size="11" xml:space="preserve">list_name_</text><text x="304" y="70" fill="#000" font-family="Helvetica" font-size="11" xml:space="preserve">parsers_</text><line x1="300" x2="434" y1="72" y2="72" stroke="#000" stroke-opacity="1"/><text x="304" y="85" fill="#000" font-family="Helvetica" font-size="11" xml:space="preserve">TSIGKeyInfoListParser()</text><text x="304" y="98" fill="#000" font-family="Helvetica" font-size="11" xml:space="preserve">~TSIGKeyInfoListParser()</text><text x="304" y="111" fill="#000" font-family="Helvetica" font-size="11" xml:space="preserve">build()</text><text x="304" y="124" fill="#000" font-family="Helvetica" font-size="11" xml:space="preserve">commit()</text></g><g><rect width="3" height="95" x="443" y="276" fill="#cbcbcb" stroke="none" stroke-opacity="1"/><rect width="117" height="3" x="329" y="368" fill="#cbcbcb" stroke="none" stroke-opacity="1"/><rect width="118" height="96" x="325" y="272" fill="#ffffc0" stroke="#000" stroke-opacity="1" stroke-width="1"/><text x="384" y="285" fill="#000" font-family="Helvetica" font-size="11" font-weight="bold" text-anchor="middle" xml:space="preserve">DdnsDomainParser</text><line x1="325" x2="443" y1="287" y2="287" stroke="#000" stroke-opacity="1"/><text x="329" y="300" fill="#000" font-family="Helvetica" font-size="11" xml:space="preserve">entry_name_</text><line x1="325" x2="443" y1="302" y2="302" stroke="#000" stroke-opacity="1"/><text x="329" y="315" fill="#000" font-family="Helvetica" font-size="11" xml:space="preserve">DdnsDomainParser()</text><text x="329" y="328" fill="#000" font-family="Helvetica" font-size="11" xml:space="preserve">~DdnsDomainParser()</text><text x="329" y="341" fill="#000" font-family="Helvetica" font-size="11" xml:space="preserve">build()</text><text x="329" y="354" fill="#000" font-family="Helvetica" font-size="11" xml:space="preserve">createConfigParser()</text><text x="329" y="367" fill="#000" font-family="Helvetica" font-size="11" xml:space="preserve">commit()</text></g><g><rect width="3" height="95" x="311" y="241" fill="#cbcbcb" stroke="none" stroke-opacity="1"/><rect width="133" height="3" x="181" y="333" fill="#cbcbcb" stroke="none" stroke-opacity="1"/><rect width="134" height="96" x="177" y="237" fill="#ffffc0" stroke="#000" stroke-opacity="1" stroke-width="1"/><text x="244" y="250" fill="#000" font-family="Helvetica" font-size="11" font-weight="bold" text-anchor="middle" xml:space="preserve">DdnsDomainListParser</text><line x1="177" x2="311" y1="252" y2="252" stroke="#000" stroke-opacity="1"/><text x="181" y="265" fill="#000" font-family="Helvetica" font-size="11" xml:space="preserve">list_name_</text><text x="181" y="278" fill="#000" font-family="Helvetica" font-size="11" xml:space="preserve">parsers_</text><line x1="177" x2="311" y1="280" y2="280" stroke="#000" stroke-opacity="1"/><text x="181" y="293" fill="#000" font-family="Helvetica" font-size="11" xml:space="preserve">DdnsDomainListParser()</text><text x="181" y="306" fill="#000" font-family="Helvetica" font-size="11" xml:space="preserve">~DdnsDomainListParser()</text><text x="181" y="319" fill="#000" font-family="Helvetica" font-size="11" xml:space="preserve">build()</text><text x="181" y="332" fill="#000" font-family="Helvetica" font-size="11" xml:space="preserve">commit()</text></g><g><line x1="315" x2="386" y1="253" y2="253" stroke="#000" stroke-dasharray="4 4" stroke-opacity="1"/></g><g><line x1="164" x2="246" y1="220" y2="220" stroke="#000" stroke-dasharray="4 4" stroke-opacity="1"/></g><g><line x1="383" x2="389" y1="417" y2="411" stroke="#000" stroke-opacity="1"/><line x1="383" x2="377" y1="417" y2="410" stroke="#000" stroke-opacity="1"/><line x1="384" x2="383" y1="372" y2="417" stroke="#000" stroke-dasharray="4 4" stroke-opacity="1"/></g><g><line x1="447" x2="530" y1="287" y2="287" stroke="#000" stroke-dasharray="4 4" stroke-opacity="1"/></g><g><line x1="438" x2="529" y1="41" y2="41" stroke="#000" stroke-dasharray="4 4" stroke-opacity="1"/></g><g><line x1="529" x2="535" y1="60" y2="54" stroke="#000" stroke-opacity="1"/><line x1="529" x2="523" y1="60" y2="54" stroke="#000" stroke-opacity="1"/><line x1="529" x2="529" y1="41" y2="60" stroke="#000" stroke-dasharray="4 4" stroke-opacity="1"/></g><g><line x1="530" x2="536" y1="311" y2="305" stroke="#000" stroke-opacity="1"/><line x1="530" x2="524" y1="311" y2="305" stroke="#000" stroke-opacity="1"/><line x1="530" x2="530" y1="287" y2="311" stroke="#000" stroke-dasharray="4 4" stroke-opacity="1"/></g><g><line x1="246" x2="252" y1="236" y2="230" stroke="#000" stroke-opacity="1"/><line x1="246" x2="240" y1="236" y2="230" stroke="#000" stroke-opacity="1"/><line x1="246" x2="246" y1="220" y2="236" stroke="#000" stroke-dasharray="4 4" stroke-opacity="1"/></g><g><line x1="386" x2="392" y1="271" y2="265" stroke="#000" stroke-opacity="1"/><line x1="386" x2="380" y1="271" y2="265" stroke="#000" stroke-opacity="1"/><line x1="386" x2="386" y1="253" y2="271" stroke="#000" stroke-dasharray="4 4" stroke-opacity="1"/></g><g><rect width="3" height="121" x="723" y="99" fill="#cbcbcb" stroke="none" stroke-opacity="1"/><rect width="83" height="3" x="643" y="217" fill="#cbcbcb" stroke="none" stroke-opacity="1"/><rect width="84" height="122" x="639" y="95" fill="#c0ffff" stroke="#000" stroke-opacity="1" stroke-width="1"/><text x="681" y="108" fill="#000" font-family="Helvetica" font-size="11" font-weight="bold" text-anchor="middle" xml:space="preserve">TSIGKeyInfo</text><line x1="639" x2="723" y1="110" y2="110" stroke="#000" stroke-opacity="1"/><text x="643" y="123" fill="#000" font-family="Helvetica" font-size="11" xml:space="preserve">name_</text><text x="643" y="136" fill="#000" font-family="Helvetica" font-size="11" xml:space="preserve">algorithm_</text><text x="643" y="149" fill="#000" font-family="Helvetica" font-size="11" xml:space="preserve">secret_</text><line x1="639" x2="723" y1="151" y2="151" stroke="#000" stroke-opacity="1"/><text x="643" y="164" fill="#000" font-family="Helvetica" font-size="11" xml:space="preserve">TSIGKeyInfo()</text><text x="643" y="177" fill="#000" font-family="Helvetica" font-size="11" xml:space="preserve">~TSIGKeyInfo()</text><text x="643" y="190" fill="#000" font-family="Helvetica" font-size="11" xml:space="preserve">getName()</text><text x="643" y="203" fill="#000" font-family="Helvetica" font-size="11" xml:space="preserve">getAlgorithm()</text><text x="643" y="216" fill="#000" font-family="Helvetica" font-size="11" xml:space="preserve">getSecret()</text></g><g><line x1="589" x2="683" y1="74" y2="74" stroke="#000" stroke-dasharray="4 4" stroke-opacity="1"/></g><g><rect width="3" height="161" x="149" y="9" fill="#cbcbcb" stroke="none" stroke-opacity="1"/><rect width="141" height="3" x="11" y="167" fill="#cbcbcb" stroke="none" stroke-opacity="1"/><rect width="142" height="162" x="7" y="5" fill="#c0ffff" stroke="#000" stroke-opacity="1" stroke-width="1"/><text x="78" y="18" fill="#000" font-family="Helvetica" font-size="11" font-weight="bold" text-anchor="middle" xml:space="preserve">D2CfgMgr</text><line x1="7" x2="149" y1="20" y2="20" stroke="#000" stroke-opacity="1"/><text x="11" y="33" fill="#000" font-family="Helvetica" font-size="11" text-decoration="underline" xml:space="preserve">IPV4_REV_ZONE_SUFFIX</text><text x="11" y="46" fill="#000" font-family="Helvetica" font-size="11" text-decoration="underline" xml:space="preserve">IPV6_REV_ZONE_SUFFIX</text><line x1="7" x2="149" y1="48" y2="48" stroke="#000" stroke-opacity="1"/><text x="11" y="61" fill="#000" font-family="Helvetica" font-size="11" xml:space="preserve">D2CfgMgr()</text><text x="11" y="74" fill="#000" font-family="Helvetica" font-size="11" xml:space="preserve">~D2CfgMgr()</text><text x="11" y="87" fill="#000" font-family="Helvetica" font-size="11" xml:space="preserve">getD2CfgContext()</text><text x="11" y="100" fill="#000" font-family="Helvetica" font-size="11" xml:space="preserve">matchForward()</text><text x="11" y="113" fill="#000" font-family="Helvetica" font-size="11" xml:space="preserve">matchReverse()</text><text x="11" y="126" fill="#000" font-family="Helvetica" font-size="11" text-decoration="underline" xml:space="preserve">reverseIpAddress()</text><text x="11" y="139" fill="#000" font-family="Helvetica" font-size="11" text-decoration="underline" xml:space="preserve">reverseV4Address()</text><text x="11" y="152" fill="#000" font-family="Helvetica" font-size="11" text-decoration="underline" xml:space="preserve">reverseV6Address()</text><text x="11" y="165" fill="#000" font-family="Helvetica" font-size="11" xml:space="preserve">createConfigParser()</text></g><g><line x1="683" x2="689" y1="94" y2="88" stroke="#000" stroke-opacity="1"/><line x1="683" x2="677" y1="94" y2="88" stroke="#000" stroke-opacity="1"/><line x1="683" x2="683" y1="74" y2="94" stroke="#000" stroke-dasharray="4 4" stroke-opacity="1"/></g><g><line x1="82" x2="88" y1="200" y2="194" stroke="#000" stroke-opacity="1"/><line x1="82" x2="76" y1="200" y2="194" stroke="#000" stroke-opacity="1"/><line x1="82" x2="82" y1="171" y2="200" stroke="#000" stroke-dasharray="4 4" stroke-opacity="1"/></g></svg>