<svg xmlns="http://www.w3.org/2000/svg" width="746" height="226" version="1.1"><g><rect width="3" height="18" x="261" y="8" fill="#cbcbcb" stroke="none" stroke-opacity="1"/><rect width="97" height="3" x="167" y="23" fill="#cbcbcb" stroke="none" stroke-opacity="1"/><rect width="98" height="19" x="163" y="4" fill="#ffffc0" stroke="#000" stroke-opacity="1" stroke-width="1"/><text x="212" y="20" fill="#000" font-family="Helvetica" font-size="12" text-anchor="middle" text-decoration="underline" xml:space="preserve">:DControllerBase</text></g><g><rect width="3" height="18" x="488" y="8" fill="#cbcbcb" stroke="none" stroke-opacity="1"/><rect width="89" height="3" x="402" y="23" fill="#cbcbcb" stroke="none" stroke-opacity="1"/><rect width="90" height="19" x="398" y="4" fill="#ffffc0" stroke="#000" stroke-opacity="1" stroke-width="1"/><text x="443" y="20" fill="#000" font-family="Helvetica" font-size="12" text-anchor="middle" text-decoration="underline" xml:space="preserve">:DProcessBase</text></g><g><line x1="214" x2="214" y1="45" y2="226" stroke="#000" stroke-dasharray="18 6" stroke-opacity="1"/></g><g><line x1="445" x2="445" y1="45" y2="226" stroke="#000" stroke-dasharray="18 6" stroke-opacity="1"/></g><g><rect width="3" height="18" x="730" y="8" fill="#cbcbcb" stroke="none" stroke-opacity="1"/><rect width="85" height="3" x="648" y="23" fill="#cbcbcb" stroke="none" stroke-opacity="1"/><rect width="86" height="19" x="644" y="4" fill="#ffffc0" stroke="#000" stroke-opacity="1" stroke-width="1"/><text x="687" y="20" fill="#000" font-family="Helvetica" font-size="12" text-anchor="middle" text-decoration="underline" xml:space="preserve">:DCfgMgrBase</text></g><g><line x1="689" x2="689" y1="45" y2="226" stroke="#000" stroke-dasharray="18 6" stroke-opacity="1"/></g><g><rect width="10" height="28" x="440" y="175" fill="none" stroke="#000" stroke-opacity="1" stroke-width="1"/></g><g><rect width="10" height="24" x="684" y="180" fill="none" stroke="#000" stroke-opacity="1" stroke-width="1"/></g><g><rect width="10" height="147" x="209" y="67" fill="none" stroke="#000" stroke-opacity="1" stroke-width="1"/></g><g><line x1="39" x2="209" y1="72" y2="72" stroke="#000" stroke-opacity="1"/><polygon fill="#000" stroke="none" points="209 72 205 68 205 76"/></g><g><line x1="451" x2="684" y1="194" y2="194" stroke="#000" stroke-opacity="1"/><polygon fill="#000" stroke="none" points="684 194 680 190 680 198"/></g><ellipse cx="34.5" cy="73.5" fill="#000" stroke="none" rx="4.5" ry="4.5"/><g><rect width="10" height="24" x="215" y="99" fill="none" stroke="#000" stroke-opacity="1" stroke-width="1"/></g><g><rect width="10" height="37" x="215" y="164" fill="none" stroke="#000" stroke-opacity="1" stroke-width="1"/></g><g><path fill="none" stroke="#000" stroke-opacity="1" d="M 227 165 L 244 165 L 244 172 L 227 172"/><polygon fill="#000" stroke="none" points="227 172 231 176 231 168"/></g><g><line x1="226" x2="440" y1="187" y2="187" stroke="#000" stroke-opacity="1"/><polygon fill="#000" stroke="none" points="440 187 436 183 436 191"/></g><g><path fill="none" stroke="#000" stroke-opacity="1" d="M 227 100 L 244 100 L 244 107 L 227 107"/><polygon fill="#000" stroke="none" points="227 107 231 111 231 103"/></g><g><text x="591" y="191" fill="#000" font-family="Helvetica" font-size="12" xml:space="preserve">parseConfig()</text></g><g><text x="111" y="67" fill="#000" font-family="Helvetica" font-size="12" xml:space="preserve">configFromFile()</text></g><g><text x="224" y="95" fill="#000" font-family="Helvetica" font-size="12" xml:space="preserve">getConfigFile()</text></g><g><text x="372" y="182" fill="#000" font-family="Helvetica" font-size="12" xml:space="preserve">configure()</text></g><g><text x="231" y="160" fill="#000" font-family="Helvetica" font-size="12" xml:space="preserve">updateConfig()</text></g></svg>