<svg xmlns="http://www.w3.org/2000/svg" width="848" height="803" version="1.1"><g><line x1="92" x2="92" y1="45" y2="803" stroke="#000" stroke-dasharray="18 6" stroke-opacity="1"/></g><g><rect width="3" height="18" x="139" y="8" fill="#cbcbcb" stroke="none" stroke-opacity="1"/><rect width="97" height="3" x="45" y="23" fill="#cbcbcb" stroke="none" stroke-opacity="1"/><rect width="98" height="19" x="41" y="4" fill="#ffffc0" stroke="#000" stroke-opacity="1" stroke-width="1"/><text x="90" y="20" fill="#000" font-family="Helvetica" font-size="12" text-anchor="middle" text-decoration="underline" xml:space="preserve">:DControllerBase</text></g><g><rect width="3" height="18" x="384" y="74" fill="#cbcbcb" stroke="none" stroke-opacity="1"/><rect width="91" height="3" x="296" y="89" fill="#cbcbcb" stroke="none" stroke-opacity="1"/><rect width="92" height="19" x="292" y="70" fill="#ffffc0" stroke="#000" stroke-opacity="1" stroke-width="1"/><text x="338" y="86" fill="#000" font-family="Helvetica" font-size="12" text-anchor="middle" text-decoration="underline" xml:space="preserve">:IOSignalQueue</text></g><g><line x1="340" x2="340" y1="111" y2="803" stroke="#000" stroke-dasharray="18 6" stroke-opacity="1"/></g><g><rect width="3" height="18" x="469" y="101" fill="#cbcbcb" stroke="none" stroke-opacity="1"/><rect width="61" height="3" x="411" y="116" fill="#cbcbcb" stroke="none" stroke-opacity="1"/><rect width="62" height="19" x="407" y="97" fill="#ffffc0" stroke="#000" stroke-opacity="1" stroke-width="1"/><text x="438" y="113" fill="#000" font-family="Helvetica" font-size="12" text-anchor="middle" text-decoration="underline" xml:space="preserve">:SignalSet</text></g><g><line x1="440" x2="440" y1="138" y2="803" stroke="#000" stroke-dasharray="18 6" stroke-opacity="1"/></g><g><rect width="3" height="18" x="559" y="350" fill="#cbcbcb" stroke="none" stroke-opacity="1"/><rect width="55" height="3" x="507" y="365" fill="#cbcbcb" stroke="none" stroke-opacity="1"/><rect width="56" height="19" x="503" y="346" fill="#ffffc0" stroke="#000" stroke-opacity="1" stroke-width="1"/><text x="531" y="362" fill="#000" font-family="Helvetica" font-size="12" text-anchor="middle" text-decoration="underline" xml:space="preserve">:IOSignal</text></g><g><line x1="533" x2="533" y1="387" y2="803" stroke="#000" stroke-dasharray="18 6" stroke-opacity="1"/></g><g><rect width="3" height="18" x="662" y="373" fill="#cbcbcb" stroke="none" stroke-opacity="1"/><rect width="79" height="3" x="586" y="388" fill="#cbcbcb" stroke="none" stroke-opacity="1"/><rect width="80" height="19" x="582" y="369" fill="#ffffc0" stroke="#000" stroke-opacity="1" stroke-width="1"/><text x="622" y="385" fill="#000" font-family="Helvetica" font-size="12" text-anchor="middle" text-decoration="underline" xml:space="preserve">:IntervalTimer</text></g><g><line x1="624" x2="624" y1="410" y2="803" stroke="#000" stroke-dasharray="18 6" stroke-opacity="1"/></g><g><rect width="3" height="18" x="769" y="421" fill="#cbcbcb" stroke="none" stroke-opacity="1"/><rect width="86" height="3" x="686" y="436" fill="#cbcbcb" stroke="none" stroke-opacity="1"/><rect width="87" height="19" x="682" y="417" fill="#ffffc0" stroke="#000" stroke-opacity="1" stroke-width="1"/><text x="726" y="433" fill="#000" font-family="Helvetica" font-size="12" text-anchor="middle" text-decoration="underline" xml:space="preserve">:TimerCallback</text></g><g><line x1="727" x2="727" y1="458" y2="803" stroke="#000" stroke-dasharray="18 6" stroke-opacity="1"/></g><g><rect width="3" height="18" x="832" y="8" fill="#cbcbcb" stroke="none" stroke-opacity="1"/><rect width="62" height="3" x="773" y="23" fill="#cbcbcb" stroke="none" stroke-opacity="1"/><rect width="63" height="19" x="769" y="4" fill="#ffffc0" stroke="#000" stroke-opacity="1" stroke-width="1"/><text x="801" y="20" fill="#000" font-family="Helvetica" font-size="12" text-anchor="middle" text-decoration="underline" xml:space="preserve">:IOService</text></g><g><line x1="802" x2="802" y1="45" y2="803" stroke="#000" stroke-dasharray="18 6" stroke-opacity="1"/></g><g><rect width="3" height="18" x="262" y="8" fill="#cbcbcb" stroke="none" stroke-opacity="1"/><rect width="89" height="3" x="176" y="23" fill="#cbcbcb" stroke="none" stroke-opacity="1"/><rect width="90" height="19" x="172" y="4" fill="#ffffc0" stroke="#000" stroke-opacity="1" stroke-width="1"/><text x="217" y="20" fill="#000" font-family="Helvetica" font-size="12" text-anchor="middle" text-decoration="underline" xml:space="preserve">:DProcessBase</text></g><g><line x1="219" x2="219" y1="45" y2="803" stroke="#000" stroke-dasharray="18 6" stroke-opacity="1"/></g><g><rect width="10" height="726" x="87" y="60" fill="#fff" stroke="#000" stroke-opacity="1" stroke-width="1"/></g><g><polygon fill="#c0ffff" stroke="#000" stroke-opacity="1" points="262 661 416 661 416 671 426 671 426 709 262 709 262 661"/><line x1="416" x2="426" y1="661" y2="671" stroke="#000" stroke-opacity="1"/><text x="272" y="683" fill="#000" font-family="Helvetica" font-size="12" xml:space="preserve">Details of configFromFile</text><text x="272" y="695" fill="#000" font-family="Helvetica" font-size="12" xml:space="preserve">omitted for clarity</text></g><g><rect width="10" height="106" x="528" y="399" fill="#fff" stroke="#000" stroke-opacity="1" stroke-width="1"/></g><g><rect width="10" height="521" x="93" y="242" fill="#fff" stroke="#000" stroke-opacity="1" stroke-width="1"/></g><g><rect width="10" height="24" x="335" y="120" fill="#fff" stroke="#000" stroke-opacity="1" stroke-width="1"/></g><g><rect width="10" height="24" x="435" y="166" fill="#fff" stroke="#000" stroke-opacity="1" stroke-width="1"/></g><g><rect width="10" height="24" x="435" y="203" fill="#fff" stroke="#000" stroke-opacity="1" stroke-width="1"/></g><g><rect width="10" height="152" x="435" y="285" fill="#fff" stroke="#000" stroke-opacity="1" stroke-width="1"/></g><g><rect width="10" height="82" x="335" y="341" fill="#fff" stroke="#000" stroke-opacity="1" stroke-width="1"/></g><g><rect width="10" height="24" x="619" y="419" fill="#fff" stroke="#000" stroke-opacity="1" stroke-width="1"/></g><g><rect width="10" height="41" x="619" y="466" fill="#fff" stroke="#000" stroke-opacity="1" stroke-width="1"/></g><g><rect width="10" height="24" x="722" y="485" fill="#fff" stroke="#000" stroke-opacity="1" stroke-width="1"/></g><g><rect width="10" height="527" x="797" y="253" fill="#fff" stroke="#000" stroke-opacity="1" stroke-width="1"/></g><g><rect width="10" height="195" x="722" y="549" fill="#fff" stroke="#000" stroke-opacity="1" stroke-width="1"/></g><g><rect width="10" height="542" x="214" y="249" fill="#fff" stroke="#000" stroke-opacity="1" stroke-width="1"/></g><g><rect width="10" height="24" x="335" y="587" fill="#fff" stroke="#000" stroke-opacity="1" stroke-width="1"/></g><g><rect width="10" height="24" x="528" y="619" fill="#fff" stroke="#000" stroke-opacity="1" stroke-width="1"/></g><g><line x1="539" x2="619" y1="471" y2="471" stroke="#000" stroke-opacity="1"/><polygon fill="#000" stroke="none" points="619 471 615 467 615 475"/></g><g><line x1="33" x2="87" y1="66" y2="66" stroke="#000" stroke-opacity="1"/><polygon fill="#000" stroke="none" points="87 66 83 62 83 70"/></g><g><line x1="310" x2="435" y1="290" y2="290" stroke="#000" stroke-opacity="1"/><polygon fill="#000" stroke="none" points="435 290 431 286 431 294"/></g><g><line x1="630" x2="722" y1="492" y2="492" stroke="#000" stroke-opacity="1"/><polygon fill="#000" stroke="none" points="722 492 718 488 718 496"/></g><g><line x1="733" x2="797" y1="554" y2="554" stroke="#000" stroke-opacity="1"/><polygon fill="#000" stroke="none" points="733 554 737 550 737 558"/></g><g><polygon fill="#c0ffff" stroke="#000" stroke-opacity="1" points="29 288 173 288 173 298 183 298 183 348 29 348 29 288"/><line x1="173" x2="183" y1="288" y2="298" stroke="#000" stroke-opacity="1"/><text x="39" y="310" fill="#000" font-family="Helvetica" font-size="12" xml:space="preserve">Sometime after</text><text x="39" y="322" fill="#000" font-family="Helvetica" font-size="12" xml:space="preserve">runProcess is called</text><text x="39" y="334" fill="#000" font-family="Helvetica" font-size="12" xml:space="preserve">SIGHUP is sent</text></g><ellipse cx="28.5" cy="67.5" fill="#000" stroke="none" rx="4.5" ry="4.5"/><ellipse cx="305.5" cy="291.5" fill="#000" stroke="none" rx="4.5" ry="4.5"/><g><line x1="183" x2="300" y1="306" y2="291" stroke="#000" stroke-dasharray="4 4" stroke-opacity="1"/></g><g><rect width="10" height="122" x="93" y="98" fill="#fff" stroke="#000" stroke-opacity="1" stroke-width="1"/></g><g><rect width="10" height="195" x="99" y="562" fill="#fff" stroke="#000" stroke-opacity="1" stroke-width="1"/></g><g><rect width="10" height="116" x="441" y="313" fill="#fff" stroke="#000" stroke-opacity="1" stroke-width="1"/></g><g><rect width="10" height="24" x="220" y="722" fill="#fff" stroke="#000" stroke-opacity="1" stroke-width="1"/></g><g><path fill="none" stroke="#000" stroke-opacity="1" d="M 105 99 L 122 99 L 122 106 L 105 106"/><polygon fill="#000" stroke="none" points="105 106 109 110 109 102"/></g><g><line x1="104" x2="335" y1="134" y2="134" stroke="#000" stroke-opacity="1"/><polygon fill="#000" stroke="none" points="335 134 331 130 331 138"/></g><g><line x1="104" x2="435" y1="178" y2="178" stroke="#000" stroke-opacity="1"/><polygon fill="#000" stroke="none" points="435 178 431 174 431 182"/></g><g><line x1="104" x2="435" y1="208" y2="208" stroke="#000" stroke-opacity="1"/><polygon fill="#000" stroke="none" points="435 208 431 204 431 212"/></g><g><path fill="none" stroke="#000" stroke-opacity="1" d="M 453 314 L 470 314 L 470 321 L 453 321"/><polygon fill="#000" stroke="none" points="453 321 457 325 457 317"/></g><g><line x1="346" x2="441" y1="351" y2="351" stroke="#000" stroke-opacity="1"/><polygon fill="#000" stroke="none" points="346 351 350 347 350 355"/></g><g><line x1="110" x2="722" y1="567" y2="567" stroke="#000" stroke-opacity="1"/><polygon fill="#000" stroke="none" points="110 567 114 563 114 571"/></g><g><line x1="110" x2="335" y1="592" y2="592" stroke="#000" stroke-opacity="1"/><polygon fill="#000" stroke="none" points="335 592 331 588 331 596"/></g><g><line x1="110" x2="528" y1="624" y2="624" stroke="#000" stroke-opacity="1"/><polygon fill="#000" stroke="none" points="528 624 524 620 524 628"/></g><g><rect width="10" height="100" x="105" y="652" fill="#fff" stroke="#000" stroke-opacity="1" stroke-width="1"/></g><g><line x1="346" x2="528" y1="404" y2="404" stroke="#000" stroke-opacity="1"/><polygon fill="#000" stroke="none" points="528 404 524 400 524 408"/></g><g><line x1="539" x2="619" y1="431" y2="431" stroke="#000" stroke-opacity="1"/><polygon fill="#000" stroke="none" points="619 431 615 427 615 435"/></g><g><path fill="none" stroke="#000" stroke-opacity="1" d="M 117 653 L 134 653 L 134 660 L 117 660"/><polygon fill="#000" stroke="none" points="117 660 121 664 121 656"/></g><g><rect width="10" height="61" x="111" y="686" fill="#fff" stroke="#000" stroke-opacity="1" stroke-width="1"/></g><g><path fill="none" stroke="#000" stroke-opacity="1" d="M 123 687 L 140 687 L 140 694 L 123 694"/><polygon fill="#000" stroke="none" points="123 694 127 698 127 690"/></g><g><line x1="122" x2="220" y1="727" y2="727" stroke="#000" stroke-opacity="1"/><polygon fill="#000" stroke="none" points="220 727 216 723 216 731"/></g><g><line x1="261" x2="141" y1="687" y2="691" stroke="#000" stroke-dasharray="4 4" stroke-opacity="1"/></g><g><text x="38" y="61" fill="#000" font-family="Helvetica" font-size="12" xml:space="preserve">launch()</text></g><g><text x="106" y="91" fill="#000" font-family="Helvetica" font-size="12" xml:space="preserve">initSignalHandling()</text></g><g><text x="113" y="121" fill="#000" font-family="Helvetica" font-size="12" xml:space="preserve">IOSignalQueue(io_service)</text></g><g><text x="116" y="161" fill="#000" font-family="Helvetica" font-size="12" xml:space="preserve">setOnReceiptHandler(DControllerBase::osSignalHandler)</text></g><g><text x="140" y="202" fill="#000" font-family="Helvetica" font-size="12" xml:space="preserve">SignalSet(SIGHUP,SIGINT,SIGTERM)</text></g><g><text x="288" y="279" fill="#000" font-family="Helvetica" font-size="12" xml:space="preserve">internalHandler(SIGHUP)</text></g><g><text x="359" y="309" fill="#000" font-family="Helvetica" font-size="12" xml:space="preserve">invokeOnReceiptHandler(SIGHUP)</text></g><g><text x="314" y="340" fill="#000" font-family="Helvetica" font-size="12" xml:space="preserve">pushSignal(SIGHUP, DControllerBase::ioSignalHandler)</text></g><g><text x="353" y="399" fill="#000" font-family="Helvetica" font-size="12" xml:space="preserve">IOSignal(io_service, SIGHUP, handler)</text></g><g><text x="548" y="418" fill="#000" font-family="Helvetica" font-size="12" xml:space="preserve">IntervalTimer(io_service)</text></g><g><text x="431" y="459" fill="#000" font-family="Helvetica" font-size="12" xml:space="preserve">setup(TimerCallBack(sequence_id, handler), 1, ONE_SHOT))</text></g><g><text x="637" y="478" fill="#000" font-family="Helvetica" font-size="12" xml:space="preserve">TimerCallback(sequence_id, handler)</text></g><g><text x="737" y="547" fill="#000" font-family="Helvetica" font-size="12" xml:space="preserve">operator ()()</text></g><g><text x="722" y="256" fill="#000" font-family="Helvetica" font-size="12" xml:space="preserve">run()</text></g><g><text x="118" y="240" fill="#000" font-family="Helvetica" font-size="12" xml:space="preserve">runProcess()</text></g><g><text x="146" y="254" fill="#000" font-family="Helvetica" font-size="12" xml:space="preserve">run()</text></g><g><text x="128" y="562" fill="#000" font-family="Helvetica" font-size="12" xml:space="preserve">ioSignalHandler(sequence_id)</text></g><g><text x="191" y="587" fill="#000" font-family="Helvetica" font-size="12" xml:space="preserve">popSignal()</text></g><g><text x="448" y="615" fill="#000" font-family="Helvetica" font-size="12" xml:space="preserve">getSignum()</text></g><g><text x="117" y="647" fill="#000" font-family="Helvetica" font-size="12" xml:space="preserve">processSignal(SIGHUP)</text></g><g><text x="126" y="682" fill="#000" font-family="Helvetica" font-size="12" xml:space="preserve">configFromFile()</text></g><g><text x="142" y="722" fill="#000" font-family="Helvetica" font-size="12" xml:space="preserve">configure()</text></g><g><line x1="225" x2="797" y1="260" y2="260" stroke="#000" stroke-opacity="1"/><polygon fill="#000" stroke="none" points="797 260 793 256 793 264"/></g><g><path fill="none" stroke="#000" stroke-opacity="1" d="M 105 243 L 122 243 L 122 250 L 105 250"/><polygon fill="#000" stroke="none" points="105 250 109 254 109 246"/></g><g><line x1="104" x2="214" y1="259" y2="259" stroke="#000" stroke-opacity="1"/><polygon fill="#000" stroke="none" points="214 259 210 255 210 263"/></g></svg>