<svg xmlns="http://www.w3.org/2000/svg" width="804" height="836" version="1.1"><g><rect width="3" height="495" x="344" y="10" fill="#cbcbcb" stroke="none" stroke-opacity="1"/><rect width="161" height="3" x="186" y="502" fill="#cbcbcb" stroke="none" stroke-opacity="1"/><rect width="162" height="496" x="182" y="6" fill="#ffffc0" stroke="#000" stroke-opacity="1" stroke-width="1"/><text x="263" y="20" fill="#000" font-family="Helvetica" font-size="12" font-style="italic" font-weight="bold" text-anchor="middle" xml:space="preserve">DControllerBase</text><line x1="182" x2="344" y1="22" y2="22" stroke="#000" stroke-opacity="1"/><text x="186" y="36" fill="#000" font-family="Helvetica" font-size="12" xml:space="preserve">app_name_</text><text x="186" y="50" fill="#000" font-family="Helvetica" font-size="12" xml:space="preserve">bin_name_</text><text x="186" y="64" fill="#000" font-family="Helvetica" font-size="12" xml:space="preserve">verbose_</text><text x="186" y="78" fill="#000" font-family="Helvetica" font-size="12" xml:space="preserve">spec_file_name_</text><line x1="182" x2="344" y1="80" y2="80" stroke="#000" stroke-opacity="1"/><text x="186" y="94" fill="#000" font-family="Helvetica" font-size="12" xml:space="preserve">DControllerBase()</text><text x="186" y="108" fill="#000" font-family="Helvetica" font-size="12" xml:space="preserve">~DControllerBase()</text><text x="186" y="122" fill="#000" font-family="Helvetica" font-size="12" xml:space="preserve">launch()</text><text x="186" y="136" fill="#000" font-family="Helvetica" font-size="12" xml:space="preserve">updateConfig()</text><text x="186" y="150" fill="#000" font-family="Helvetica" font-size="12" xml:space="preserve">configFromFile()</text><text x="186" y="164" fill="#000" font-family="Helvetica" font-size="12" xml:space="preserve">executeCommand()</text><text x="186" y="178" fill="#000" font-family="Helvetica" font-size="12" xml:space="preserve">getAppName()</text><text x="186" y="192" fill="#000" font-family="Helvetica" font-size="12" xml:space="preserve">getBinName()</text><text x="186" y="206" fill="#000" font-family="Helvetica" font-size="12" xml:space="preserve">customOption()</text><text x="186" y="220" fill="#000" font-family="Helvetica" font-size="12" font-style="italic" xml:space="preserve">createProcess()</text><text x="186" y="234" fill="#000" font-family="Helvetica" font-size="12" xml:space="preserve">customControllerCommand()</text><text x="186" y="248" fill="#000" font-family="Helvetica" font-size="12" xml:space="preserve">getUsageText()</text><text x="186" y="262" fill="#000" font-family="Helvetica" font-size="12" xml:space="preserve">getCustomOpts()</text><text x="186" y="276" fill="#000" font-family="Helvetica" font-size="12" xml:space="preserve">processSignal()</text><text x="186" y="290" fill="#000" font-family="Helvetica" font-size="12" xml:space="preserve">isVerbose()</text><text x="186" y="304" fill="#000" font-family="Helvetica" font-size="12" xml:space="preserve">setVerbose()</text><text x="186" y="318" fill="#000" font-family="Helvetica" font-size="12" xml:space="preserve">getIOService()</text><text x="186" y="332" fill="#000" font-family="Helvetica" font-size="12" xml:space="preserve">getSpecFileName()</text><text x="186" y="346" fill="#000" font-family="Helvetica" font-size="12" xml:space="preserve">setSpecFileName()</text><text x="186" y="360" fill="#000" font-family="Helvetica" font-size="12" text-decoration="underline" xml:space="preserve">getController()</text><text x="186" y="374" fill="#000" font-family="Helvetica" font-size="12" text-decoration="underline" xml:space="preserve">setController()</text><text x="186" y="388" fill="#000" font-family="Helvetica" font-size="12" xml:space="preserve">parseArgs()</text><text x="186" y="402" fill="#000" font-family="Helvetica" font-size="12" xml:space="preserve">initProcess()</text><text x="186" y="416" fill="#000" font-family="Helvetica" font-size="12" xml:space="preserve">runProcess()</text><text x="186" y="430" fill="#000" font-family="Helvetica" font-size="12" xml:space="preserve">shutdownProcess()</text><text x="186" y="444" fill="#000" font-family="Helvetica" font-size="12" xml:space="preserve">initSignalHandling()</text><text x="186" y="458" fill="#000" font-family="Helvetica" font-size="12" xml:space="preserve">osSignalHandler()</text><text x="186" y="472" fill="#000" font-family="Helvetica" font-size="12" xml:space="preserve">ioSignalHandler()</text><text x="186" y="486" fill="#000" font-family="Helvetica" font-size="12" xml:space="preserve">getProcess()</text><text x="186" y="500" fill="#000" font-family="Helvetica" font-size="12" xml:space="preserve">usage()</text></g><g><rect width="3" height="47" x="737" y="207" fill="#cbcbcb" stroke="none" stroke-opacity="1"/><rect width="73" height="3" x="667" y="251" fill="#cbcbcb" stroke="none" stroke-opacity="1"/><rect width="74" height="48" x="663" y="203" fill="#c0ffff" stroke="#000" stroke-opacity="1" stroke-width="1"/><text x="700" y="217" fill="#000" font-family="Helvetica" font-size="12" text-anchor="middle" xml:space="preserve">&lt;&lt;typedef&gt;&gt;</text><text x="700" y="233" fill="#000" font-family="Helvetica" font-size="12" font-weight="bold" text-anchor="middle" xml:space="preserve">IOSignalPtr</text><line x1="663" x2="737" y1="235" y2="235" stroke="#000" stroke-opacity="1"/><line x1="663" x2="737" y1="243" y2="243" stroke="#000" stroke-opacity="1"/></g><g><rect width="3" height="47" x="467" y="353" fill="#cbcbcb" stroke="none" stroke-opacity="1"/><rect width="99" height="3" x="371" y="397" fill="#cbcbcb" stroke="none" stroke-opacity="1"/><rect width="100" height="48" x="367" y="349" fill="#c0ffff" stroke="#000" stroke-opacity="1" stroke-width="1"/><text x="417" y="363" fill="#000" font-family="Helvetica" font-size="12" text-anchor="middle" xml:space="preserve">&lt;&lt;typedef&gt;&gt;</text><text x="417" y="379" fill="#000" font-family="Helvetica" font-size="12" font-weight="bold" text-anchor="middle" xml:space="preserve">IOSignalHandler</text><line x1="367" x2="467" y1="381" y2="381" stroke="#000" stroke-opacity="1"/><line x1="367" x2="467" y1="389" y2="389" stroke="#000" stroke-opacity="1"/></g><rect width="268" height="25" x="323" y="800" fill="#c0ffff" stroke="none" stroke-opacity="1"/><text x="323" y="812" fill="#000" font-family="Helvetica" font-size="12" font-weight="bold" xml:space="preserve">Blue class integrate signal handling into D2</text><g><line x1="348" x2="419" y1="278" y2="278" stroke="#000" stroke-dasharray="4 4" stroke-opacity="1"/></g><g><line x1="419" x2="425" y1="348" y2="342" stroke="#000" stroke-opacity="1"/><line x1="419" x2="413" y1="348" y2="342" stroke="#000" stroke-opacity="1"/><line x1="419" x2="419" y1="278" y2="348" stroke="#000" stroke-dasharray="4 4" stroke-opacity="1"/></g><g><rect width="3" height="103" x="751" y="309" fill="#cbcbcb" stroke="none" stroke-opacity="1"/><rect width="101" height="3" x="653" y="409" fill="#cbcbcb" stroke="none" stroke-opacity="1"/><rect width="102" height="104" x="649" y="305" fill="#c0ffff" stroke="#000" stroke-opacity="1" stroke-width="1"/><text x="700" y="319" fill="#000" font-family="Helvetica" font-size="12" font-weight="bold" text-anchor="middle" xml:space="preserve">IOSignal</text><line x1="649" x2="751" y1="321" y2="321" stroke="#000" stroke-opacity="1"/><text x="653" y="335" fill="#000" font-family="Helvetica" font-size="12" xml:space="preserve">signum_</text><line x1="649" x2="751" y1="337" y2="337" stroke="#000" stroke-opacity="1"/><text x="653" y="351" fill="#000" font-family="Helvetica" font-size="12" xml:space="preserve">IOSignal()</text><text x="653" y="365" fill="#000" font-family="Helvetica" font-size="12" xml:space="preserve">~IOSignal()</text><text x="653" y="379" fill="#000" font-family="Helvetica" font-size="12" text-decoration="underline" xml:space="preserve">nextSequenceId()</text><text x="653" y="393" fill="#000" font-family="Helvetica" font-size="12" xml:space="preserve">getSequenceId()</text><text x="653" y="407" fill="#000" font-family="Helvetica" font-size="12" xml:space="preserve">getSignum()</text></g><g><line x1="698" x2="703" y1="304" y2="297" stroke="#000" stroke-opacity="1"/><line x1="698" x2="691" y1="304" y2="298" stroke="#000" stroke-opacity="1"/><line x1="697" x2="698" y1="255" y2="304" stroke="#000" stroke-dasharray="4 4" stroke-opacity="1"/></g><g><text x="538" y="197" fill="#000" font-family="Helvetica" font-size="12" xml:space="preserve">signals_</text></g><g><text x="100" y="444" fill="#000" font-family="Helvetica" font-size="12" xml:space="preserve">signal_set_</text></g><g><text x="566" y="314" fill="#000" font-family="Helvetica" font-size="12" xml:space="preserve">sequence_id_</text></g><g><text x="193" y="703" fill="#000" font-family="Helvetica" font-size="12" text-decoration="underline" xml:space="preserve">onreceipt_handler_</text></g><g><text x="454" y="27" fill="#000" font-family="Helvetica" font-size="12" xml:space="preserve">io_signal_queue_</text></g><g><text x="599" y="729" fill="#000" font-family="Helvetica" font-size="12" xml:space="preserve">io_service_</text></g><g><text x="433" y="729" fill="#000" font-family="Helvetica" font-size="12" xml:space="preserve">io_service_</text></g><g><text x="549" y="424" fill="#000" font-family="Helvetica" font-size="12" xml:space="preserve">sequence_id_</text></g><g><text x="429" y="419" fill="#000" font-family="Helvetica" font-size="12" xml:space="preserve">handler_</text></g><g><text x="724" y="539" fill="#000" font-family="Helvetica" font-size="12" xml:space="preserve">timer_</text></g><g><rect width="3" height="47" x="669" y="10" fill="#cbcbcb" stroke="none" stroke-opacity="1"/><rect width="109" height="3" x="563" y="54" fill="#cbcbcb" stroke="none" stroke-opacity="1"/><rect width="110" height="48" x="559" y="6" fill="#c0ffff" stroke="#000" stroke-opacity="1" stroke-width="1"/><text x="614" y="20" fill="#000" font-family="Helvetica" font-size="12" text-anchor="middle" xml:space="preserve">&lt;&lt;typedef&gt;&gt;</text><text x="614" y="36" fill="#000" font-family="Helvetica" font-size="12" font-weight="bold" text-anchor="middle" xml:space="preserve">IOSignalQueuePtr</text><line x1="559" x2="669" y1="38" y2="38" stroke="#000" stroke-opacity="1"/><line x1="559" x2="669" y1="46" y2="46" stroke="#000" stroke-opacity="1"/></g><g><line x1="558" x2="552" y1="31" y2="25" stroke="#000" stroke-opacity="1"/><line x1="558" x2="552" y1="31" y2="37" stroke="#000" stroke-opacity="1"/><line x1="348" x2="558" y1="31" y2="31" stroke="#000" stroke-opacity="1"/><polygon fill="#000" stroke="#000" stroke-opacity="1" points="348 31 354 25 360 31 354 37"/></g><g><rect width="3" height="95" x="668" y="77" fill="#cbcbcb" stroke="none" stroke-opacity="1"/><rect width="103" height="3" x="568" y="169" fill="#cbcbcb" stroke="none" stroke-opacity="1"/><rect width="104" height="96" x="564" y="73" fill="#c0ffff" stroke="#000" stroke-opacity="1" stroke-width="1"/><text x="616" y="87" fill="#000" font-family="Helvetica" font-size="12" font-weight="bold" text-anchor="middle" xml:space="preserve">IOSignalQueue</text><line x1="564" x2="668" y1="89" y2="89" stroke="#000" stroke-opacity="1"/><line x1="564" x2="668" y1="97" y2="97" stroke="#000" stroke-opacity="1"/><text x="568" y="111" fill="#000" font-family="Helvetica" font-size="12" xml:space="preserve">IOSignalQueue()</text><text x="568" y="125" fill="#000" font-family="Helvetica" font-size="12" xml:space="preserve">~IOSignalQueue()</text><text x="568" y="139" fill="#000" font-family="Helvetica" font-size="12" xml:space="preserve">pushSignal()</text><text x="568" y="153" fill="#000" font-family="Helvetica" font-size="12" xml:space="preserve">popSignal()</text><text x="568" y="167" fill="#000" font-family="Helvetica" font-size="12" xml:space="preserve">clear()</text></g><g><line x1="618" x2="624" y1="72" y2="66" stroke="#000" stroke-opacity="1"/><line x1="618" x2="612" y1="72" y2="66" stroke="#000" stroke-opacity="1"/><line x1="618" x2="618" y1="58" y2="72" stroke="#000" stroke-dasharray="4 4" stroke-opacity="1"/></g><g><rect width="3" height="285" x="168" y="532" fill="#cbcbcb" stroke="none" stroke-opacity="1"/><rect width="147" height="3" x="24" y="814" fill="#cbcbcb" stroke="none" stroke-opacity="1"/><rect width="148" height="286" x="20" y="528" fill="#ffffc0" stroke="#000" stroke-opacity="1" stroke-width="1"/><text x="94" y="542" fill="#000" font-family="Helvetica" font-size="12" font-weight="bold" text-anchor="middle" xml:space="preserve">SignalSet</text><line x1="20" x2="168" y1="544" y2="544" stroke="#000" stroke-opacity="1"/><text x="24" y="558" fill="#000" font-family="Helvetica" font-size="12" xml:space="preserve">local_signals_</text><line x1="20" x2="168" y1="560" y2="560" stroke="#000" stroke-opacity="1"/><text x="24" y="574" fill="#000" font-family="Helvetica" font-size="12" xml:space="preserve">SignalSet()</text><text x="24" y="588" fill="#000" font-family="Helvetica" font-size="12" xml:space="preserve">SignalSet()</text><text x="24" y="602" fill="#000" font-family="Helvetica" font-size="12" xml:space="preserve">SignalSet()</text><text x="24" y="616" fill="#000" font-family="Helvetica" font-size="12" xml:space="preserve">~SignalSet()</text><text x="24" y="630" fill="#000" font-family="Helvetica" font-size="12" xml:space="preserve">add()</text><text x="24" y="644" fill="#000" font-family="Helvetica" font-size="12" xml:space="preserve">clear()</text><text x="24" y="658" fill="#000" font-family="Helvetica" font-size="12" xml:space="preserve">getNext()</text><text x="24" y="672" fill="#000" font-family="Helvetica" font-size="12" xml:space="preserve">handleNext()</text><text x="24" y="686" fill="#000" font-family="Helvetica" font-size="12" xml:space="preserve">remove()</text><text x="24" y="700" fill="#000" font-family="Helvetica" font-size="12" text-decoration="underline" xml:space="preserve">setOnReceiptHandler()</text><text x="24" y="714" fill="#000" font-family="Helvetica" font-size="12" text-decoration="underline" xml:space="preserve">clearOnReceiptHandler()</text><text x="24" y="728" fill="#000" font-family="Helvetica" font-size="12" text-decoration="underline" xml:space="preserve">invokeOnReceiptHandler()</text><text x="24" y="742" fill="#000" font-family="Helvetica" font-size="12" xml:space="preserve">block()</text><text x="24" y="756" fill="#000" font-family="Helvetica" font-size="12" xml:space="preserve">erase()</text><text x="24" y="770" fill="#000" font-family="Helvetica" font-size="12" xml:space="preserve">insert()</text><text x="24" y="784" fill="#000" font-family="Helvetica" font-size="12" xml:space="preserve">maskSignals()</text><text x="24" y="798" fill="#000" font-family="Helvetica" font-size="12" xml:space="preserve">popNext()</text><text x="24" y="812" fill="#000" font-family="Helvetica" font-size="12" xml:space="preserve">unblock()</text></g><g><rect width="3" height="47" x="566" y="206" fill="#cbcbcb" stroke="none" stroke-opacity="1"/><rect width="79" height="3" x="490" y="250" fill="#cbcbcb" stroke="none" stroke-opacity="1"/><rect width="80" height="48" x="486" y="202" fill="#c0ffff" stroke="#000" stroke-opacity="1" stroke-width="1"/><text x="526" y="216" fill="#000" font-family="Helvetica" font-size="12" text-anchor="middle" xml:space="preserve">&lt;&lt;typedef&gt;&gt;</text><text x="526" y="232" fill="#000" font-family="Helvetica" font-size="12" font-weight="bold" text-anchor="middle" xml:space="preserve">IOSignalMap</text><line x1="486" x2="566" y1="234" y2="234" stroke="#000" stroke-opacity="1"/><line x1="486" x2="566" y1="242" y2="242" stroke="#000" stroke-opacity="1"/></g><g><rect width="3" height="47" x="585" y="712" fill="#cbcbcb" stroke="none" stroke-opacity="1"/><rect width="79" height="3" x="509" y="756" fill="#cbcbcb" stroke="none" stroke-opacity="1"/><rect width="80" height="48" x="505" y="708" fill="#ffffc0" stroke="#000" stroke-opacity="1" stroke-width="1"/><text x="545" y="722" fill="#000" font-family="Helvetica" font-size="12" text-anchor="middle" xml:space="preserve">&lt;&lt;typedef&gt;&gt;</text><text x="545" y="738" fill="#000" font-family="Helvetica" font-size="12" font-weight="bold" text-anchor="middle" xml:space="preserve">IOServicePtr</text><line x1="505" x2="585" y1="740" y2="740" stroke="#000" stroke-opacity="1"/><line x1="505" x2="585" y1="748" y2="748" stroke="#000" stroke-opacity="1"/></g><g><line x1="563" x2="528" y1="123" y2="123" stroke="#000" stroke-opacity="1"/><polygon fill="#000" stroke="#000" stroke-opacity="1" points="563 123 557 129 551 123 557 117"/></g><g><line x1="528" x2="534" y1="201" y2="195" stroke="#000" stroke-opacity="1"/><line x1="528" x2="522" y1="201" y2="195" stroke="#000" stroke-opacity="1"/><line x1="528" x2="528" y1="123" y2="201" stroke="#000" stroke-opacity="1"/></g><g><line x1="662" x2="656" y1="228" y2="222" stroke="#000" stroke-opacity="1"/><line x1="662" x2="656" y1="228" y2="234" stroke="#000" stroke-opacity="1"/><line x1="570" x2="662" y1="228" y2="228" stroke="#000" stroke-dasharray="4 4" stroke-opacity="1"/></g><g><line x1="672" x2="783" y1="120" y2="120" stroke="#000" stroke-opacity="1"/><polygon fill="#000" stroke="#000" stroke-opacity="1" points="672 120 678 114 684 120 678 126"/></g><g><line x1="783" x2="784" y1="120" y2="733" stroke="#000" stroke-opacity="1"/></g><g><line x1="589" x2="595" y1="733" y2="739" stroke="#000" stroke-opacity="1"/><line x1="589" x2="595" y1="733" y2="727" stroke="#000" stroke-opacity="1"/><line x1="784" x2="589" y1="733" y2="733" stroke="#000" stroke-opacity="1"/></g><g><line x1="336" x2="336" y1="506" y2="734" stroke="#000" stroke-opacity="1"/><polygon fill="#000" stroke="#000" stroke-opacity="1" points="336 506 342 512 336 518 330 512"/></g><g><line x1="504" x2="498" y1="734" y2="728" stroke="#000" stroke-opacity="1"/><line x1="504" x2="498" y1="734" y2="740" stroke="#000" stroke-opacity="1"/><line x1="336" x2="504" y1="734" y2="734" stroke="#000" stroke-opacity="1"/></g><g><rect width="3" height="47" x="127" y="453" fill="#cbcbcb" stroke="none" stroke-opacity="1"/><rect width="77" height="3" x="53" y="497" fill="#cbcbcb" stroke="none" stroke-opacity="1"/><rect width="78" height="48" x="49" y="449" fill="#ffffc0" stroke="#000" stroke-opacity="1" stroke-width="1"/><text x="88" y="463" fill="#000" font-family="Helvetica" font-size="12" text-anchor="middle" xml:space="preserve">&lt;&lt;typedef&gt;&gt;</text><text x="88" y="479" fill="#000" font-family="Helvetica" font-size="12" font-weight="bold" text-anchor="middle" xml:space="preserve">SignalSetPtr</text><line x1="49" x2="127" y1="481" y2="481" stroke="#000" stroke-opacity="1"/><line x1="49" x2="127" y1="489" y2="489" stroke="#000" stroke-opacity="1"/></g><g><rect width="3" height="47" x="318" y="584" fill="#cbcbcb" stroke="none" stroke-opacity="1"/><rect width="113" height="3" x="208" y="628" fill="#cbcbcb" stroke="none" stroke-opacity="1"/><rect width="114" height="48" x="204" y="580" fill="#c0ffff" stroke="#000" stroke-opacity="1" stroke-width="1"/><text x="261" y="594" fill="#000" font-family="Helvetica" font-size="12" text-anchor="middle" xml:space="preserve">&lt;&lt;typedef&gt;&gt;</text><text x="261" y="610" fill="#000" font-family="Helvetica" font-size="12" font-weight="bold" text-anchor="middle" xml:space="preserve">BoolSignalHandler</text><line x1="204" x2="318" y1="612" y2="612" stroke="#000" stroke-opacity="1"/><line x1="204" x2="318" y1="620" y2="620" stroke="#000" stroke-opacity="1"/></g><g><rect width="3" height="47" x="574" y="358" fill="#cbcbcb" stroke="none" stroke-opacity="1"/><rect width="73" height="3" x="504" y="402" fill="#cbcbcb" stroke="none" stroke-opacity="1"/><rect width="74" height="48" x="500" y="354" fill="#c0ffff" stroke="#000" stroke-opacity="1" stroke-width="1"/><text x="537" y="368" fill="#000" font-family="Helvetica" font-size="12" text-anchor="middle" xml:space="preserve">&lt;&lt;typedef&gt;&gt;</text><text x="537" y="384" fill="#000" font-family="Helvetica" font-size="12" font-weight="bold" text-anchor="middle" xml:space="preserve">IOSignalId</text><line x1="500" x2="574" y1="386" y2="386" stroke="#000" stroke-opacity="1"/><line x1="500" x2="574" y1="394" y2="394" stroke="#000" stroke-opacity="1"/></g><g><line x1="90" x2="96" y1="527" y2="521" stroke="#000" stroke-opacity="1"/><line x1="90" x2="84" y1="527" y2="521" stroke="#000" stroke-opacity="1"/><line x1="90" x2="90" y1="501" y2="527" stroke="#000" stroke-dasharray="4 4" stroke-opacity="1"/></g><g><line x1="263" x2="257" y1="632" y2="638" stroke="#000" stroke-opacity="1"/><line x1="263" x2="269" y1="632" y2="638" stroke="#000" stroke-opacity="1"/><line x1="263" x2="263" y1="673" y2="632" stroke="#000" stroke-opacity="1"/></g><g><line x1="181" x2="90" y1="401" y2="401" stroke="#000" stroke-opacity="1"/><polygon fill="#000" stroke="#000" stroke-opacity="1" points="181 401 175 407 169 401 175 395"/></g><g><line x1="172" x2="263" y1="673" y2="673" stroke="#000" stroke-opacity="1"/><polygon fill="#000" stroke="#000" stroke-opacity="1" points="172 673 178 667 184 673 178 679"/></g><g><line x1="90" x2="96" y1="448" y2="442" stroke="#000" stroke-opacity="1"/><line x1="90" x2="84" y1="448" y2="442" stroke="#000" stroke-opacity="1"/><line x1="90" x2="90" y1="401" y2="448" stroke="#000" stroke-opacity="1"/></g><g><line x1="648" x2="560" y1="327" y2="327" stroke="#000" stroke-opacity="1"/><polygon fill="#000" stroke="#000" stroke-opacity="1" points="648 327 642 333 636 327 642 321"/></g><g><line x1="560" x2="566" y1="353" y2="347" stroke="#000" stroke-opacity="1"/><line x1="560" x2="554" y1="353" y2="347" stroke="#000" stroke-opacity="1"/><line x1="560" x2="560" y1="327" y2="353" stroke="#000" stroke-opacity="1"/></g><g><line x1="499" x2="493" y1="377" y2="370" stroke="#000" stroke-opacity="1"/><line x1="499" x2="492" y1="377" y2="382" stroke="#000" stroke-opacity="1"/><line x1="471" x2="499" y1="376" y2="377" stroke="#000" stroke-dasharray="4 4" stroke-opacity="1"/></g><g><line x1="267" x2="273" y1="579" y2="573" stroke="#000" stroke-opacity="1"/><line x1="267" x2="261" y1="579" y2="572" stroke="#000" stroke-opacity="1"/><line x1="268" x2="267" y1="506" y2="579" stroke="#000" stroke-dasharray="4 4" stroke-opacity="1"/></g><g><line x1="531" x2="536" y1="353" y2="346" stroke="#000" stroke-opacity="1"/><line x1="531" x2="524" y1="353" y2="347" stroke="#000" stroke-opacity="1"/><line x1="529" x2="531" y1="254" y2="353" stroke="#000" stroke-dasharray="4 4" stroke-opacity="1"/></g><g><rect width="3" height="123" x="588" y="551" fill="#cbcbcb" stroke="none" stroke-opacity="1"/><rect width="91" height="3" x="500" y="671" fill="#cbcbcb" stroke="none" stroke-opacity="1"/><rect width="92" height="124" x="496" y="547" fill="#ffffc0" stroke="#000" stroke-opacity="1" stroke-width="1"/><text x="542" y="561" fill="#000" font-family="Helvetica" font-size="12" font-weight="bold" text-anchor="middle" xml:space="preserve">IntervalTimer</text><line x1="496" x2="588" y1="563" y2="563" stroke="#000" stroke-opacity="1"/><line x1="496" x2="588" y1="571" y2="571" stroke="#000" stroke-opacity="1"/><text x="500" y="585" fill="#000" font-family="Helvetica" font-size="12" xml:space="preserve">IntervalTimer()</text><text x="500" y="599" fill="#000" font-family="Helvetica" font-size="12" xml:space="preserve">operator =()</text><text x="500" y="613" fill="#000" font-family="Helvetica" font-size="12" xml:space="preserve">IntervalTimer()</text><text x="500" y="627" fill="#000" font-family="Helvetica" font-size="12" xml:space="preserve">~IntervalTimer()</text><text x="500" y="641" fill="#000" font-family="Helvetica" font-size="12" xml:space="preserve">setup()</text><text x="500" y="655" fill="#000" font-family="Helvetica" font-size="12" xml:space="preserve">cancel()</text><text x="500" y="669" fill="#000" font-family="Helvetica" font-size="12" xml:space="preserve">getInterval()</text></g><g><line x1="546" x2="551" y1="707" y2="700" stroke="#000" stroke-opacity="1"/><line x1="546" x2="539" y1="707" y2="701" stroke="#000" stroke-opacity="1"/><line x1="545" x2="546" y1="675" y2="707" stroke="#000" stroke-dasharray="4 4" stroke-opacity="1"/></g><g><rect width="3" height="53" x="585" y="463" fill="#cbcbcb" stroke="none" stroke-opacity="1"/><rect width="91" height="3" x="497" y="513" fill="#cbcbcb" stroke="none" stroke-opacity="1"/><rect width="92" height="54" x="493" y="459" fill="#c0ffff" stroke="#000" stroke-opacity="1" stroke-width="1"/><text x="539" y="473" fill="#000" font-family="Helvetica" font-size="12" font-weight="bold" text-anchor="middle" xml:space="preserve">TimerCallback</text><line x1="493" x2="585" y1="475" y2="475" stroke="#000" stroke-opacity="1"/><line x1="493" x2="585" y1="483" y2="483" stroke="#000" stroke-opacity="1"/><text x="497" y="497" fill="#000" font-family="Helvetica" font-size="12" xml:space="preserve">TimerCallback()</text><text x="497" y="511" fill="#000" font-family="Helvetica" font-size="12" xml:space="preserve">operator ()()</text></g><g><rect width="3" height="47" x="763" y="548" fill="#cbcbcb" stroke="none" stroke-opacity="1"/><rect width="99" height="3" x="667" y="592" fill="#cbcbcb" stroke="none" stroke-opacity="1"/><rect width="100" height="48" x="663" y="544" fill="#c0ffff" stroke="#000" stroke-opacity="1" stroke-width="1"/><text x="713" y="558" fill="#000" font-family="Helvetica" font-size="12" text-anchor="middle" xml:space="preserve">&lt;&lt;typedef&gt;&gt;</text><text x="713" y="574" fill="#000" font-family="Helvetica" font-size="12" font-weight="bold" text-anchor="middle" xml:space="preserve">IntervalTimerPtr</text><line x1="663" x2="763" y1="576" y2="576" stroke="#000" stroke-opacity="1"/><line x1="663" x2="763" y1="584" y2="584" stroke="#000" stroke-opacity="1"/></g><g><line x1="671" x2="671" y1="488" y2="425" stroke="#000" stroke-opacity="1"/><ellipse cx="671" cy="419" fill="none" stroke="#000" stroke-opacity="1" stroke-width="1" rx="5" ry="5"/><line x1="666" x2="676" y1="419" y2="419" stroke="#000" stroke-opacity="1"/><line x1="671" x2="671" y1="414" y2="424" stroke="#000" stroke-opacity="1"/></g><g><line x1="589" x2="671" y1="488" y2="488" stroke="#000" stroke-opacity="1"/></g><g><line x1="539" x2="533" y1="406" y2="412" stroke="#000" stroke-opacity="1"/><line x1="539" x2="545" y1="406" y2="411" stroke="#000" stroke-opacity="1"/><line x1="540" x2="539" y1="458" y2="406" stroke="#000" stroke-opacity="1"/><polygon fill="#000" stroke="#000" stroke-opacity="1" points="540 458 533 452 539 446 545 451"/></g><g><line x1="492" x2="419" y1="488" y2="488" stroke="#000" stroke-opacity="1"/><polygon fill="#000" stroke="#000" stroke-opacity="1" points="492 488 486 494 480 488 486 482"/></g><g><line x1="419" x2="413" y1="401" y2="407" stroke="#000" stroke-opacity="1"/><line x1="419" x2="425" y1="401" y2="407" stroke="#000" stroke-opacity="1"/><line x1="419" x2="419" y1="488" y2="401" stroke="#000" stroke-opacity="1"/></g><g><line x1="541" x2="535" y1="517" y2="523" stroke="#000" stroke-opacity="1"/><line x1="541" x2="547" y1="517" y2="523" stroke="#000" stroke-opacity="1"/><line x1="541" x2="541" y1="546" y2="517" stroke="#000" stroke-dasharray="4 4" stroke-opacity="1"/></g><g><line x1="714" x2="714" y1="596" y2="611" stroke="#000" stroke-dasharray="4 4" stroke-opacity="1"/></g><g><line x1="592" x2="598" y1="611" y2="617" stroke="#000" stroke-opacity="1"/><line x1="592" x2="598" y1="611" y2="605" stroke="#000" stroke-opacity="1"/><line x1="714" x2="592" y1="611" y2="611" stroke="#000" stroke-dasharray="4 4" stroke-opacity="1"/></g><g><line x1="714" x2="719" y1="543" y2="536" stroke="#000" stroke-opacity="1"/><line x1="714" x2="707" y1="543" y2="537" stroke="#000" stroke-opacity="1"/><line x1="713" x2="714" y1="413" y2="543" stroke="#000" stroke-opacity="1"/><polygon fill="#000" stroke="#000" stroke-opacity="1" points="713 413 719 418 713 424 707 419"/></g></svg>