<svg xmlns="http://www.w3.org/2000/svg" width="812" height="795" version="1.1"><g><rect width="3" height="453" x="175" y="14" fill="#cbcbcb" stroke="none" stroke-opacity="1"/><rect width="161" height="3" x="17" y="464" fill="#cbcbcb" stroke="none" stroke-opacity="1"/><rect width="162" height="454" x="13" y="10" fill="#c0ffff" stroke="#000" stroke-opacity="1" stroke-width="1"/><text x="94" y="24" fill="#000" font-family="Helvetica" font-size="12" font-style="italic" font-weight="bold" text-anchor="middle" xml:space="preserve">DControllerBase</text><line x1="13" x2="175" y1="26" y2="26" stroke="#000" stroke-opacity="1"/><text x="17" y="40" fill="#000" font-family="Helvetica" font-size="12" xml:space="preserve">app_name_</text><text x="17" y="54" fill="#000" font-family="Helvetica" font-size="12" xml:space="preserve">bin_name_</text><text x="17" y="68" fill="#000" font-family="Helvetica" font-size="12" xml:space="preserve">verbose_</text><text x="17" y="82" fill="#000" font-family="Helvetica" font-size="12" xml:space="preserve">spec_file_name_</text><line x1="13" x2="175" y1="84" y2="84" stroke="#000" stroke-opacity="1"/><text x="17" y="98" fill="#000" font-family="Helvetica" font-size="12" xml:space="preserve">DControllerBase()</text><text x="17" y="112" fill="#000" font-family="Helvetica" font-size="12" xml:space="preserve">~DControllerBase()</text><text x="17" y="126" fill="#000" font-family="Helvetica" font-size="12" xml:space="preserve">launch()</text><text x="17" y="140" fill="#000" font-family="Helvetica" font-size="12" xml:space="preserve">updateConfig()</text><text x="17" y="154" fill="#000" font-family="Helvetica" font-size="12" xml:space="preserve">configFromFile()</text><text x="17" y="168" fill="#000" font-family="Helvetica" font-size="12" xml:space="preserve">executeCommand()</text><text x="17" y="182" fill="#000" font-family="Helvetica" font-size="12" xml:space="preserve">getAppName()</text><text x="17" y="196" fill="#000" font-family="Helvetica" font-size="12" xml:space="preserve">getBinName()</text><text x="17" y="210" fill="#000" font-family="Helvetica" font-size="12" xml:space="preserve">customOption()</text><text x="17" y="224" fill="#000" font-family="Helvetica" font-size="12" font-style="italic" xml:space="preserve">createProcess()</text><text x="17" y="238" fill="#000" font-family="Helvetica" font-size="12" xml:space="preserve">customControllerCommand()</text><text x="17" y="252" fill="#000" font-family="Helvetica" font-size="12" xml:space="preserve">getUsageText()</text><text x="17" y="266" fill="#000" font-family="Helvetica" font-size="12" xml:space="preserve">getCustomOpts()</text><text x="17" y="280" fill="#000" font-family="Helvetica" font-size="12" xml:space="preserve">isVerbose()</text><text x="17" y="294" fill="#000" font-family="Helvetica" font-size="12" xml:space="preserve">setVerbose()</text><text x="17" y="308" fill="#000" font-family="Helvetica" font-size="12" xml:space="preserve">getIOService()</text><text x="17" y="322" fill="#000" font-family="Helvetica" font-size="12" xml:space="preserve">getSpecFileName()</text><text x="17" y="336" fill="#000" font-family="Helvetica" font-size="12" xml:space="preserve">setSpecFileName()</text><text x="17" y="350" fill="#000" font-family="Helvetica" font-size="12" text-decoration="underline" xml:space="preserve">getController()</text><text x="17" y="364" fill="#000" font-family="Helvetica" font-size="12" text-decoration="underline" xml:space="preserve">setController()</text><text x="17" y="378" fill="#000" font-family="Helvetica" font-size="12" xml:space="preserve">parseArgs()</text><text x="17" y="392" fill="#000" font-family="Helvetica" font-size="12" xml:space="preserve">initProcess()</text><text x="17" y="406" fill="#000" font-family="Helvetica" font-size="12" xml:space="preserve">runProcess()</text><text x="17" y="420" fill="#000" font-family="Helvetica" font-size="12" xml:space="preserve">shutdownProcess()</text><text x="17" y="434" fill="#000" font-family="Helvetica" font-size="12" xml:space="preserve">getConfigFile()</text><text x="17" y="448" fill="#000" font-family="Helvetica" font-size="12" xml:space="preserve">getProcess()</text><text x="17" y="462" fill="#000" font-family="Helvetica" font-size="12" xml:space="preserve">usage()</text></g><g><rect width="3" height="193" x="629" y="261" fill="#cbcbcb" stroke="none" stroke-opacity="1"/><rect width="117" height="3" x="515" y="451" fill="#cbcbcb" stroke="none" stroke-opacity="1"/><rect width="118" height="194" x="511" y="257" fill="#c0ffff" stroke="#000" stroke-opacity="1" stroke-width="1"/><text x="570" y="271" fill="#000" font-family="Helvetica" font-size="12" font-style="italic" font-weight="bold" text-anchor="middle" xml:space="preserve">DCfgMgrBase</text><line x1="511" x2="629" y1="273" y2="273" stroke="#000" stroke-opacity="1"/><line x1="511" x2="629" y1="281" y2="281" stroke="#000" stroke-opacity="1"/><text x="515" y="295" fill="#000" font-family="Helvetica" font-size="12" xml:space="preserve">DCfgMgrBase()</text><text x="515" y="309" fill="#000" font-family="Helvetica" font-size="12" xml:space="preserve">~DCfgMgrBase()</text><text x="515" y="323" fill="#000" font-family="Helvetica" font-size="12" xml:space="preserve">parseConfig()</text><text x="515" y="337" fill="#000" font-family="Helvetica" font-size="12" xml:space="preserve">addToParseOrder()</text><text x="515" y="351" fill="#000" font-family="Helvetica" font-size="12" xml:space="preserve">getParseOrder()</text><text x="515" y="365" fill="#000" font-family="Helvetica" font-size="12" xml:space="preserve">getContext()</text><text x="515" y="379" fill="#000" font-family="Helvetica" font-size="12" xml:space="preserve">buildParams()</text><text x="515" y="393" fill="#000" font-family="Helvetica" font-size="12" font-style="italic" xml:space="preserve">createConfigParser()</text><text x="515" y="407" fill="#000" font-family="Helvetica" font-size="12" font-style="italic" xml:space="preserve">createNewContext()</text><text x="515" y="421" fill="#000" font-family="Helvetica" font-size="12" xml:space="preserve">resetContext()</text><text x="515" y="435" fill="#000" font-family="Helvetica" font-size="12" xml:space="preserve">setContext()</text><text x="515" y="449" fill="#000" font-family="Helvetica" font-size="12" xml:space="preserve">buildAndCommit()</text></g><g><rect width="3" height="243" x="796" y="361" fill="#cbcbcb" stroke="none" stroke-opacity="1"/><rect width="117" height="3" x="682" y="601" fill="#cbcbcb" stroke="none" stroke-opacity="1"/><rect width="118" height="244" x="678" y="357" fill="#c0ffff" stroke="#000" stroke-opacity="1" stroke-width="1"/><text x="737" y="371" fill="#000" font-family="Helvetica" font-size="12" font-style="italic" font-weight="bold" text-anchor="middle" xml:space="preserve">DCfgContextBase</text><line x1="678" x2="796" y1="373" y2="373" stroke="#000" stroke-opacity="1"/><text x="682" y="387" fill="#000" font-family="Helvetica" font-size="12" text-decoration="underline" xml:space="preserve">OPTIONAL</text><text x="682" y="401" fill="#000" font-family="Helvetica" font-size="12" text-decoration="underline" xml:space="preserve">REQUIRED</text><text x="682" y="415" fill="#000" font-family="Helvetica" font-size="12" xml:space="preserve">boolean_values_</text><text x="682" y="429" fill="#000" font-family="Helvetica" font-size="12" xml:space="preserve">uint32_values_</text><text x="682" y="443" fill="#000" font-family="Helvetica" font-size="12" xml:space="preserve">string_values_</text><line x1="678" x2="796" y1="445" y2="445" stroke="#000" stroke-opacity="1"/><text x="682" y="459" fill="#000" font-family="Helvetica" font-size="12" xml:space="preserve">DCfgContextBase()</text><text x="682" y="473" fill="#000" font-family="Helvetica" font-size="12" xml:space="preserve">~DCfgContextBase()</text><text x="682" y="487" fill="#000" font-family="Helvetica" font-size="12" xml:space="preserve">getParam()</text><text x="682" y="501" fill="#000" font-family="Helvetica" font-size="12" xml:space="preserve">getParam()</text><text x="682" y="515" fill="#000" font-family="Helvetica" font-size="12" xml:space="preserve">getParam()</text><text x="682" y="529" fill="#000" font-family="Helvetica" font-size="12" xml:space="preserve">getBooleanStorage()</text><text x="682" y="543" fill="#000" font-family="Helvetica" font-size="12" xml:space="preserve">getUint32Storage()</text><text x="682" y="557" fill="#000" font-family="Helvetica" font-size="12" xml:space="preserve">getStringStorage()</text><text x="682" y="571" fill="#000" font-family="Helvetica" font-size="12" font-style="italic" xml:space="preserve">clone()</text><text x="682" y="585" fill="#000" font-family="Helvetica" font-size="12" xml:space="preserve">DCfgContextBase()</text><text x="682" y="599" fill="#000" font-family="Helvetica" font-size="12" xml:space="preserve">operator =()</text></g><g><rect width="3" height="103" x="134" y="554" fill="#cbcbcb" stroke="none" stroke-opacity="1"/><rect width="91" height="3" x="46" y="654" fill="#cbcbcb" stroke="none" stroke-opacity="1"/><rect width="92" height="104" x="42" y="550" fill="#ffffc0" stroke="#000" stroke-opacity="1" stroke-width="1"/><text x="88" y="564" fill="#000" font-family="Helvetica" font-size="12" font-weight="bold" text-anchor="middle" xml:space="preserve">D2Controller</text><line x1="42" x2="134" y1="566" y2="566" stroke="#000" stroke-opacity="1"/><text x="46" y="580" fill="#000" font-family="Helvetica" font-size="12" text-decoration="underline" xml:space="preserve">d2_app_name_</text><text x="46" y="594" fill="#000" font-family="Helvetica" font-size="12" text-decoration="underline" xml:space="preserve">d2_bin_name_</text><line x1="42" x2="134" y1="596" y2="596" stroke="#000" stroke-opacity="1"/><text x="46" y="610" fill="#000" font-family="Helvetica" font-size="12" text-decoration="underline" xml:space="preserve">instance()</text><text x="46" y="624" fill="#000" font-family="Helvetica" font-size="12" xml:space="preserve">~D2Controller()</text><text x="46" y="638" fill="#000" font-family="Helvetica" font-size="12" xml:space="preserve">createProcess()</text><text x="46" y="652" fill="#000" font-family="Helvetica" font-size="12" xml:space="preserve">D2Controller()</text></g><g><line x1="90" x2="90" y1="549" y2="473" stroke="#000" stroke-opacity="1"/><line x1="91" x2="84" y1="468" y2="473" stroke="#000" stroke-opacity="1"/><line x1="91" x2="96" y1="468" y2="474" stroke="#000" stroke-opacity="1"/><line x1="84" x2="96" y1="473" y2="474" stroke="#000" stroke-opacity="1"/></g><g><rect width="3" height="47" x="274" y="165" fill="#cbcbcb" stroke="none" stroke-opacity="1"/><rect width="79" height="3" x="198" y="209" fill="#cbcbcb" stroke="none" stroke-opacity="1"/><rect width="80" height="48" x="194" y="161" fill="#c0ffff" stroke="#000" stroke-opacity="1" stroke-width="1"/><text x="234" y="175" fill="#000" font-family="Helvetica" font-size="12" text-anchor="middle" xml:space="preserve">&lt;&lt;typedef&gt;&gt;</text><text x="234" y="191" fill="#000" font-family="Helvetica" font-size="12" font-weight="bold" text-anchor="middle" xml:space="preserve">IOServicePtr</text><line x1="194" x2="274" y1="193" y2="193" stroke="#000" stroke-opacity="1"/><line x1="194" x2="274" y1="201" y2="201" stroke="#000" stroke-opacity="1"/></g><g><line x1="179" x2="236" y1="118" y2="118" stroke="#000" stroke-opacity="1"/><polygon fill="#000" stroke="#000" stroke-opacity="1" points="179 118 185 112 191 118 185 124"/></g><g><line x1="236" x2="242" y1="160" y2="154" stroke="#000" stroke-opacity="1"/><line x1="236" x2="230" y1="160" y2="154" stroke="#000" stroke-opacity="1"/><line x1="236" x2="236" y1="118" y2="160" stroke="#000" stroke-opacity="1"/></g><g><rect width="3" height="229" x="424" y="153" fill="#cbcbcb" stroke="none" stroke-opacity="1"/><rect width="107" height="3" x="320" y="379" fill="#cbcbcb" stroke="none" stroke-opacity="1"/><rect width="108" height="230" x="316" y="149" fill="#c0ffff" stroke="#000" stroke-opacity="1" stroke-width="1"/><text x="370" y="163" fill="#000" font-family="Helvetica" font-size="12" font-style="italic" font-weight="bold" text-anchor="middle" xml:space="preserve">DProcessBase</text><line x1="316" x2="424" y1="165" y2="165" stroke="#000" stroke-opacity="1"/><text x="320" y="179" fill="#000" font-family="Helvetica" font-size="12" xml:space="preserve">app_name_</text><text x="320" y="193" fill="#000" font-family="Helvetica" font-size="12" xml:space="preserve">shut_down_flag_</text><line x1="316" x2="424" y1="195" y2="195" stroke="#000" stroke-opacity="1"/><text x="320" y="209" fill="#000" font-family="Helvetica" font-size="12" xml:space="preserve">DProcessBase()</text><text x="320" y="223" fill="#000" font-family="Helvetica" font-size="12" font-style="italic" xml:space="preserve">init()</text><text x="320" y="237" fill="#000" font-family="Helvetica" font-size="12" font-style="italic" xml:space="preserve">run()</text><text x="320" y="251" fill="#000" font-family="Helvetica" font-size="12" font-style="italic" xml:space="preserve">shutdown()</text><text x="320" y="265" fill="#000" font-family="Helvetica" font-size="12" font-style="italic" xml:space="preserve">configure()</text><text x="320" y="279" fill="#000" font-family="Helvetica" font-size="12" font-style="italic" xml:space="preserve">command()</text><text x="320" y="293" fill="#000" font-family="Helvetica" font-size="12" xml:space="preserve">~DProcessBase()</text><text x="320" y="307" fill="#000" font-family="Helvetica" font-size="12" xml:space="preserve">shouldShutdown()</text><text x="320" y="321" fill="#000" font-family="Helvetica" font-size="12" xml:space="preserve">setShutdownFlag()</text><text x="320" y="335" fill="#000" font-family="Helvetica" font-size="12" xml:space="preserve">getAppName()</text><text x="320" y="349" fill="#000" font-family="Helvetica" font-size="12" xml:space="preserve">getIoService()</text><text x="320" y="363" fill="#000" font-family="Helvetica" font-size="12" xml:space="preserve">stopIOService()</text><text x="320" y="377" fill="#000" font-family="Helvetica" font-size="12" xml:space="preserve">getCfgMgr()</text></g><g><line x1="315" x2="236" y1="265" y2="265" stroke="#000" stroke-opacity="1"/><polygon fill="#000" stroke="#000" stroke-opacity="1" points="315 265 309 271 303 265 309 259"/></g><g><line x1="236" x2="230" y1="213" y2="219" stroke="#000" stroke-opacity="1"/><line x1="236" x2="242" y1="213" y2="219" stroke="#000" stroke-opacity="1"/><line x1="236" x2="236" y1="265" y2="213" stroke="#000" stroke-opacity="1"/></g><g><rect width="3" height="47" x="424" y="72" fill="#cbcbcb" stroke="none" stroke-opacity="1"/><rect width="107" height="3" x="320" y="116" fill="#cbcbcb" stroke="none" stroke-opacity="1"/><rect width="108" height="48" x="316" y="68" fill="#c0ffff" stroke="#000" stroke-opacity="1" stroke-width="1"/><text x="370" y="82" fill="#000" font-family="Helvetica" font-size="12" text-anchor="middle" xml:space="preserve">&lt;&lt;typedef&gt;&gt;</text><text x="370" y="98" fill="#000" font-family="Helvetica" font-size="12" font-weight="bold" text-anchor="middle" xml:space="preserve">DProcessBasePtr</text><line x1="316" x2="424" y1="100" y2="100" stroke="#000" stroke-opacity="1"/><line x1="316" x2="424" y1="108" y2="108" stroke="#000" stroke-opacity="1"/></g><g><rect width="3" height="313" x="448" y="468" fill="#cbcbcb" stroke="none" stroke-opacity="1"/><rect width="175" height="3" x="276" y="778" fill="#cbcbcb" stroke="none" stroke-opacity="1"/><rect width="176" height="314" x="272" y="464" fill="#ffffc0" stroke="#000" stroke-opacity="1" stroke-width="1"/><text x="360" y="478" fill="#000" font-family="Helvetica" font-size="12" font-weight="bold" text-anchor="middle" xml:space="preserve">D2Process</text><line x1="272" x2="448" y1="480" y2="480" stroke="#000" stroke-opacity="1"/><text x="276" y="494" fill="#000" font-family="Helvetica" font-size="12" text-decoration="underline" xml:space="preserve">QUEUE_RESTART_PERCENT</text><text x="276" y="508" fill="#000" font-family="Helvetica" font-size="12" xml:space="preserve">reconf_queue_flag_</text><line x1="272" x2="448" y1="510" y2="510" stroke="#000" stroke-opacity="1"/><text x="276" y="524" fill="#000" font-family="Helvetica" font-size="12" xml:space="preserve">D2Process()</text><text x="276" y="538" fill="#000" font-family="Helvetica" font-size="12" xml:space="preserve">init()</text><text x="276" y="552" fill="#000" font-family="Helvetica" font-size="12" xml:space="preserve">run()</text><text x="276" y="566" fill="#000" font-family="Helvetica" font-size="12" xml:space="preserve">shutdown()</text><text x="276" y="580" fill="#000" font-family="Helvetica" font-size="12" xml:space="preserve">configure()</text><text x="276" y="594" fill="#000" font-family="Helvetica" font-size="12" xml:space="preserve">command()</text><text x="276" y="608" fill="#000" font-family="Helvetica" font-size="12" xml:space="preserve">~D2Process()</text><text x="276" y="622" fill="#000" font-family="Helvetica" font-size="12" xml:space="preserve">checkQueueStatus()</text><text x="276" y="636" fill="#000" font-family="Helvetica" font-size="12" xml:space="preserve">reconfigureQueueMgr()</text><text x="276" y="650" fill="#000" font-family="Helvetica" font-size="12" xml:space="preserve">runIO()</text><text x="276" y="664" fill="#000" font-family="Helvetica" font-size="12" xml:space="preserve">canShutdown()</text><text x="276" y="678" fill="#000" font-family="Helvetica" font-size="12" xml:space="preserve">setReconfQueueFlag()</text><text x="276" y="692" fill="#000" font-family="Helvetica" font-size="12" xml:space="preserve">setShutdownType()</text><text x="276" y="706" fill="#000" font-family="Helvetica" font-size="12" xml:space="preserve">getD2CfgMgr()</text><text x="276" y="720" fill="#000" font-family="Helvetica" font-size="12" xml:space="preserve">getD2QueueMgr()</text><text x="276" y="734" fill="#000" font-family="Helvetica" font-size="12" xml:space="preserve">getD2UpdateMgr()</text><text x="276" y="748" fill="#000" font-family="Helvetica" font-size="12" xml:space="preserve">getReconfQueueFlag()</text><text x="276" y="762" fill="#000" font-family="Helvetica" font-size="12" xml:space="preserve">getShutdownType()</text><text x="276" y="776" fill="#000" font-family="Helvetica" font-size="12" text-decoration="underline" xml:space="preserve">getShutdownTypeStr()</text></g><g><line x1="372" x2="378" y1="148" y2="142" stroke="#000" stroke-opacity="1"/><line x1="372" x2="366" y1="148" y2="142" stroke="#000" stroke-opacity="1"/><line x1="372" x2="372" y1="120" y2="148" stroke="#000" stroke-dasharray="4 4" stroke-opacity="1"/></g><g><line x1="179" x2="372" y1="39" y2="39" stroke="#000" stroke-opacity="1"/><polygon fill="#000" stroke="#000" stroke-opacity="1" points="179 39 185 33 191 39 185 45"/></g><g><line x1="372" x2="378" y1="67" y2="61" stroke="#000" stroke-opacity="1"/><line x1="372" x2="366" y1="67" y2="61" stroke="#000" stroke-opacity="1"/><line x1="372" x2="372" y1="39" y2="67" stroke="#000" stroke-opacity="1"/></g><g><line x1="366" x2="367" y1="463" y2="388" stroke="#000" stroke-opacity="1"/><line x1="368" x2="361" y1="383" y2="388" stroke="#000" stroke-opacity="1"/><line x1="368" x2="373" y1="383" y2="389" stroke="#000" stroke-opacity="1"/><line x1="361" x2="373" y1="388" y2="389" stroke="#000" stroke-opacity="1"/></g><g><line x1="271" x2="265" y1="607" y2="600" stroke="#000" stroke-opacity="1"/><line x1="271" x2="264" y1="607" y2="612" stroke="#000" stroke-opacity="1"/><line x1="138" x2="271" y1="606" y2="607" stroke="#000" stroke-dasharray="4 4" stroke-opacity="1"/></g><g><rect width="3" height="243" x="649" y="539" fill="#cbcbcb" stroke="none" stroke-opacity="1"/><rect width="153" height="3" x="499" y="779" fill="#cbcbcb" stroke="none" stroke-opacity="1"/><rect width="154" height="244" x="495" y="535" fill="#ffffc0" stroke="#000" stroke-opacity="1" stroke-width="1"/><text x="572" y="549" fill="#000" font-family="Helvetica" font-size="12" font-weight="bold" text-anchor="middle" xml:space="preserve">D2CfgMgr</text><line x1="495" x2="649" y1="551" y2="551" stroke="#000" stroke-opacity="1"/><text x="499" y="565" fill="#000" font-family="Helvetica" font-size="12" text-decoration="underline" xml:space="preserve">IPV4_REV_ZONE_SUFFIX</text><text x="499" y="579" fill="#000" font-family="Helvetica" font-size="12" text-decoration="underline" xml:space="preserve">IPV6_REV_ZONE_SUFFIX</text><line x1="495" x2="649" y1="581" y2="581" stroke="#000" stroke-opacity="1"/><text x="499" y="595" fill="#000" font-family="Helvetica" font-size="12" xml:space="preserve">D2CfgMgr()</text><text x="499" y="609" fill="#000" font-family="Helvetica" font-size="12" xml:space="preserve">~D2CfgMgr()</text><text x="499" y="623" fill="#000" font-family="Helvetica" font-size="12" xml:space="preserve">getD2CfgContext()</text><text x="499" y="637" fill="#000" font-family="Helvetica" font-size="12" xml:space="preserve">forwardUpdatesEnabled()</text><text x="499" y="651" fill="#000" font-family="Helvetica" font-size="12" xml:space="preserve">reverseUpdatesEnabled()</text><text x="499" y="665" fill="#000" font-family="Helvetica" font-size="12" xml:space="preserve">matchForward()</text><text x="499" y="679" fill="#000" font-family="Helvetica" font-size="12" xml:space="preserve">matchReverse()</text><text x="499" y="693" fill="#000" font-family="Helvetica" font-size="12" text-decoration="underline" xml:space="preserve">reverseIpAddress()</text><text x="499" y="707" fill="#000" font-family="Helvetica" font-size="12" text-decoration="underline" xml:space="preserve">reverseV4Address()</text><text x="499" y="721" fill="#000" font-family="Helvetica" font-size="12" text-decoration="underline" xml:space="preserve">reverseV6Address()</text><text x="499" y="735" fill="#000" font-family="Helvetica" font-size="12" xml:space="preserve">getD2Params()</text><text x="499" y="749" fill="#000" font-family="Helvetica" font-size="12" xml:space="preserve">buildParams()</text><text x="499" y="763" fill="#000" font-family="Helvetica" font-size="12" xml:space="preserve">createConfigParser()</text><text x="499" y="777" fill="#000" font-family="Helvetica" font-size="12" xml:space="preserve">createNewContext()</text></g><g><line x1="573" x2="572" y1="534" y2="460" stroke="#000" stroke-opacity="1"/><line x1="572" x2="566" y1="455" y2="461" stroke="#000" stroke-opacity="1"/><line x1="572" x2="578" y1="455" y2="460" stroke="#000" stroke-opacity="1"/><line x1="566" x2="578" y1="461" y2="460" stroke="#000" stroke-opacity="1"/></g><g><line x1="494" x2="487" y1="636" y2="630" stroke="#000" stroke-opacity="1"/><line x1="494" x2="488" y1="636" y2="642" stroke="#000" stroke-opacity="1"/><line x1="452" x2="494" y1="637" y2="636" stroke="#000" stroke-dasharray="4 4" stroke-opacity="1"/></g><g><rect width="3" height="151" x="788" y="629" fill="#cbcbcb" stroke="none" stroke-opacity="1"/><rect width="97" height="3" x="694" y="777" fill="#cbcbcb" stroke="none" stroke-opacity="1"/><rect width="98" height="152" x="690" y="625" fill="#ffffc0" stroke="#000" stroke-opacity="1" stroke-width="1"/><text x="739" y="639" fill="#000" font-family="Helvetica" font-size="12" font-weight="bold" text-anchor="middle" xml:space="preserve">D2CfgContext</text><line x1="690" x2="788" y1="641" y2="641" stroke="#000" stroke-opacity="1"/><line x1="690" x2="788" y1="649" y2="649" stroke="#000" stroke-opacity="1"/><text x="694" y="663" fill="#000" font-family="Helvetica" font-size="12" xml:space="preserve">D2CfgContext()</text><text x="694" y="677" fill="#000" font-family="Helvetica" font-size="12" xml:space="preserve">~D2CfgContext()</text><text x="694" y="691" fill="#000" font-family="Helvetica" font-size="12" xml:space="preserve">clone()</text><text x="694" y="705" fill="#000" font-family="Helvetica" font-size="12" xml:space="preserve">getD2Params()</text><text x="694" y="719" fill="#000" font-family="Helvetica" font-size="12" xml:space="preserve">getForwardMgr()</text><text x="694" y="733" fill="#000" font-family="Helvetica" font-size="12" xml:space="preserve">getReverseMgr()</text><text x="694" y="747" fill="#000" font-family="Helvetica" font-size="12" xml:space="preserve">getKeys()</text><text x="694" y="761" fill="#000" font-family="Helvetica" font-size="12" xml:space="preserve">D2CfgContext()</text><text x="694" y="775" fill="#000" font-family="Helvetica" font-size="12" xml:space="preserve">operator =()</text></g><g><line x1="740" x2="739" y1="624" y2="610" stroke="#000" stroke-opacity="1"/><line x1="739" x2="733" y1="605" y2="611" stroke="#000" stroke-opacity="1"/><line x1="739" x2="745" y1="605" y2="610" stroke="#000" stroke-opacity="1"/><line x1="733" x2="745" y1="611" y2="610" stroke="#000" stroke-opacity="1"/></g><g><line x1="689" x2="682" y1="678" y2="672" stroke="#000" stroke-opacity="1"/><line x1="689" x2="683" y1="678" y2="684" stroke="#000" stroke-opacity="1"/><line x1="653" x2="689" y1="679" y2="678" stroke="#000" stroke-dasharray="4 4" stroke-opacity="1"/></g><g><text x="246" y="231" fill="#000" font-family="Helvetica" font-size="12" xml:space="preserve">io_service_</text></g><g><text x="382" y="63" fill="#000" font-family="Helvetica" font-size="12" xml:space="preserve">process_</text></g><g><text x="246" y="156" fill="#000" font-family="Helvetica" font-size="12" xml:space="preserve">io_service_</text></g><g><text x="736" y="285" fill="#000" font-family="Helvetica" font-size="12" xml:space="preserve">context_</text></g><g><text x="572" y="183" fill="#000" font-family="Helvetica" font-size="12" xml:space="preserve">cfg_mgr_</text></g><g><rect width="3" height="47" x="788" y="294" fill="#cbcbcb" stroke="none" stroke-opacity="1"/><rect width="125" height="3" x="666" y="338" fill="#cbcbcb" stroke="none" stroke-opacity="1"/><rect width="126" height="48" x="662" y="290" fill="#c0ffff" stroke="#000" stroke-opacity="1" stroke-width="1"/><text x="725" y="304" fill="#000" font-family="Helvetica" font-size="12" text-anchor="middle" xml:space="preserve">&lt;&lt;typedef&gt;&gt;</text><text x="725" y="320" fill="#000" font-family="Helvetica" font-size="12" font-weight="bold" text-anchor="middle" xml:space="preserve">DCfgContextBasePtr</text><line x1="662" x2="788" y1="322" y2="322" stroke="#000" stroke-opacity="1"/><line x1="662" x2="788" y1="330" y2="330" stroke="#000" stroke-opacity="1"/></g><g><line x1="728" x2="734" y1="356" y2="350" stroke="#000" stroke-opacity="1"/><line x1="728" x2="722" y1="356" y2="350" stroke="#000" stroke-opacity="1"/><line x1="728" x2="728" y1="342" y2="356" stroke="#000" stroke-dasharray="4 4" stroke-opacity="1"/></g><g><line x1="633" x2="726" y1="271" y2="271" stroke="#000" stroke-opacity="1"/><polygon fill="#000" stroke="#000" stroke-opacity="1" points="633 271 639 265 645 271 639 277"/></g><g><line x1="726" x2="732" y1="289" y2="283" stroke="#000" stroke-opacity="1"/><line x1="726" x2="720" y1="289" y2="283" stroke="#000" stroke-opacity="1"/><line x1="726" x2="726" y1="271" y2="289" stroke="#000" stroke-opacity="1"/></g><g><rect width="3" height="47" x="612" y="192" fill="#cbcbcb" stroke="none" stroke-opacity="1"/><rect width="103" height="3" x="512" y="236" fill="#cbcbcb" stroke="none" stroke-opacity="1"/><rect width="104" height="48" x="508" y="188" fill="#c0ffff" stroke="#000" stroke-opacity="1" stroke-width="1"/><text x="560" y="202" fill="#000" font-family="Helvetica" font-size="12" text-anchor="middle" xml:space="preserve">&lt;&lt;typedef&gt;&gt;</text><text x="560" y="218" fill="#000" font-family="Helvetica" font-size="12" font-weight="bold" text-anchor="middle" xml:space="preserve">DCfgMgrBasePtr</text><line x1="508" x2="612" y1="220" y2="220" stroke="#000" stroke-opacity="1"/><line x1="508" x2="612" y1="228" y2="228" stroke="#000" stroke-opacity="1"/></g><g><line x1="564" x2="569" y1="256" y2="249" stroke="#000" stroke-opacity="1"/><line x1="564" x2="557" y1="256" y2="250" stroke="#000" stroke-opacity="1"/><line x1="563" x2="564" y1="240" y2="256" stroke="#000" stroke-dasharray="4 4" stroke-opacity="1"/></g><g><line x1="428" x2="562" y1="173" y2="173" stroke="#000" stroke-opacity="1"/><polygon fill="#000" stroke="#000" stroke-opacity="1" points="428 173 434 167 440 173 434 179"/></g><g><line x1="562" x2="568" y1="187" y2="181" stroke="#000" stroke-opacity="1"/><line x1="562" x2="556" y1="187" y2="181" stroke="#000" stroke-opacity="1"/><line x1="562" x2="562" y1="173" y2="187" stroke="#000" stroke-opacity="1"/></g></svg>