<svg xmlns="http://www.w3.org/2000/svg" width="788" height="792" version="1.1"><g><rect width="74" height="22" x="331" y="16" fill="#cbcbcb" stroke="none" stroke-opacity="1" rx="10"/><rect width="74" height="22" x="327" y="12" fill="#ffffc0" stroke="#000" stroke-opacity="1" rx="10"/><text x="364" y="28" fill="#000" font-family="Helvetica" font-size="11" font-weight="bold" text-anchor="middle" xml:space="preserve">READY_ST</text></g><g><rect width="180" height="22" x="280" y="138" fill="#cbcbcb" stroke="none" stroke-opacity="1" rx="10"/><rect width="180" height="22" x="276" y="134" fill="#ffffc0" stroke="#000" stroke-opacity="1" rx="10"/><text x="366" y="150" fill="#000" font-family="Helvetica" font-size="11" font-weight="bold" text-anchor="middle" xml:space="preserve">SELECTING_FWD_SERVER_ST</text></g><g><rect width="178" height="22" x="56" y="493" fill="#cbcbcb" stroke="none" stroke-opacity="1" rx="10"/><rect width="178" height="22" x="52" y="489" fill="#ffffc0" stroke="#000" stroke-opacity="1" rx="10"/><text x="141" y="505" fill="#000" font-family="Helvetica" font-size="11" font-weight="bold" text-anchor="middle" xml:space="preserve">SELECTING_REV_SERVER_ST</text></g><g><rect width="172" height="22" x="285" y="234" fill="#cbcbcb" stroke="none" stroke-opacity="1" rx="10"/><rect width="172" height="22" x="281" y="230" fill="#ffffc0" stroke="#000" stroke-opacity="1" rx="10"/><text x="367" y="246" fill="#000" font-family="Helvetica" font-size="11" font-weight="bold" text-anchor="middle" xml:space="preserve">REMOVING_FWD_ADDRS_ST</text></g><g><rect width="156" height="22" x="293" y="349" fill="#cbcbcb" stroke="none" stroke-opacity="1" rx="10"/><rect width="156" height="22" x="289" y="345" fill="#ffffc0" stroke="#000" stroke-opacity="1" rx="10"/><text x="367" y="361" fill="#000" font-family="Helvetica" font-size="11" font-weight="bold" text-anchor="middle" xml:space="preserve">REMOVING_FWD_RRS_ST</text></g><g><rect width="188" height="22" x="588" y="610" fill="#cbcbcb" stroke="none" stroke-opacity="1" rx="10"/><rect width="188" height="22" x="584" y="606" fill="#ffffc0" stroke="#000" stroke-opacity="1" rx="10"/><text x="678" y="622" fill="#000" font-family="Helvetica" font-size="11" font-weight="bold" text-anchor="middle" xml:space="preserve">PROCESS_REMOVE_FAILED_ST</text></g><g><rect width="166" height="22" x="277" y="687" fill="#cbcbcb" stroke="none" stroke-opacity="1" rx="10"/><rect width="166" height="22" x="273" y="683" fill="#ffffc0" stroke="#000" stroke-opacity="1" rx="10"/><text x="356" y="699" fill="#000" font-family="Helvetica" font-size="11" font-weight="bold" text-anchor="middle" xml:space="preserve">PROCESS_REMOVE_OK_ST</text></g><g><rect width="160" height="22" x="62" y="608" fill="#cbcbcb" stroke="none" stroke-opacity="1" rx="10"/><rect width="160" height="22" x="58" y="604" fill="#ffffc0" stroke="#000" stroke-opacity="1" rx="10"/><text x="138" y="620" fill="#000" font-family="Helvetica" font-size="11" font-weight="bold" text-anchor="middle" xml:space="preserve">REMOVING_REV_PTRS_ST</text></g><polygon fill="#fff" stroke="#000" stroke-opacity="1" points="358 88 367 71 376 88 367 105"/><ellipse cx="163" cy="26" fill="#000" rx="8.5" ry="8.5"/><g><ellipse cx="531" cy="768" fill="#fff" stroke="#000" stroke-opacity="1" stroke-width="1" rx="11.5" ry="11.5"/><ellipse cx="531" cy="768" fill="#000" rx="8.5" ry="8.5"/></g><polygon fill="#fff" stroke="#000" stroke-opacity="1" points="346 451 355 434 364 451 355 468"/><g><rect width="118" height="43" x="153" y="255" fill="none" stroke="#000" stroke-opacity="1" stroke-width="1"/><text x="212" y="271" fill="#000" font-family="Helvetica" font-size="11" text-anchor="middle" xml:space="preserve">&lt;&lt;DNS IO Callback&gt;&gt;</text></g><g><rect width="118" height="43" x="11" y="666" fill="none" stroke="#000" stroke-opacity="1" stroke-width="1"/><text x="70" y="682" fill="#000" font-family="Helvetica" font-size="11" text-anchor="middle" xml:space="preserve">&lt;&lt;DNS IO Callback&gt;&gt;</text></g><g><rect width="118" height="43" x="154" y="368" fill="none" stroke="#000" stroke-opacity="1" stroke-width="1"/><text x="213" y="384" fill="#000" font-family="Helvetica" font-size="11" text-anchor="middle" xml:space="preserve">&lt;&lt;DNS IO Callback&gt;&gt;</text></g><g><line x1="326" x2="320" y1="25" y2="19" stroke="#000" stroke-opacity="1"/><line x1="326" x2="320" y1="25" y2="31" stroke="#000" stroke-opacity="1"/><line x1="172" x2="326" y1="25" y2="25" stroke="#000" stroke-opacity="1"/></g><g><line x1="366" x2="372" y1="69" y2="63" stroke="#000" stroke-opacity="1"/><line x1="366" x2="360" y1="69" y2="63" stroke="#000" stroke-opacity="1"/><line x1="366" x2="366" y1="38" y2="69" stroke="#000" stroke-opacity="1"/></g><g><line x1="367" x2="373" y1="133" y2="127" stroke="#000" stroke-opacity="1"/><line x1="367" x2="361" y1="133" y2="127" stroke="#000" stroke-opacity="1"/><line x1="367" x2="367" y1="106" y2="133" stroke="#000" stroke-opacity="1"/></g><g><line x1="354" x2="143" y1="88" y2="88" stroke="#000" stroke-opacity="1"/></g><g><line x1="143" x2="149" y1="488" y2="482" stroke="#000" stroke-opacity="1"/><line x1="143" x2="137" y1="488" y2="482" stroke="#000" stroke-opacity="1"/><line x1="143" x2="143" y1="88" y2="488" stroke="#000" stroke-opacity="1"/></g><g><line x1="368" x2="374" y1="229" y2="223" stroke="#000" stroke-opacity="1"/><line x1="368" x2="362" y1="229" y2="223" stroke="#000" stroke-opacity="1"/><line x1="368" x2="368" y1="160" y2="229" stroke="#000" stroke-opacity="1"/></g><g><line x1="351" x2="293" y1="229" y2="190" stroke="#000" stroke-opacity="1"/></g><g><line x1="340" x2="331" y1="160" y2="158" stroke="#000" stroke-opacity="1"/><line x1="340" x2="338" y1="160" y2="168" stroke="#000" stroke-opacity="1"/><line x1="293" x2="340" y1="190" y2="160" stroke="#000" stroke-opacity="1"/></g><g><line x1="368" x2="374" y1="344" y2="338" stroke="#000" stroke-opacity="1"/><line x1="368" x2="362" y1="344" y2="337" stroke="#000" stroke-opacity="1"/><line x1="369" x2="368" y1="256" y2="344" stroke="#000" stroke-opacity="1"/></g><g><line x1="460" x2="680" y1="147" y2="147" stroke="#000" stroke-opacity="1"/></g><g><line x1="680" x2="686" y1="605" y2="599" stroke="#000" stroke-opacity="1"/><line x1="680" x2="674" y1="605" y2="599" stroke="#000" stroke-opacity="1"/><line x1="680" x2="680" y1="147" y2="605" stroke="#000" stroke-opacity="1"/></g><g><line x1="457" x2="680" y1="243" y2="243" stroke="#000" stroke-opacity="1"/></g><g><line x1="680" x2="686" y1="605" y2="599" stroke="#000" stroke-opacity="1"/><line x1="680" x2="674" y1="605" y2="599" stroke="#000" stroke-opacity="1"/><line x1="680" x2="680" y1="243" y2="605" stroke="#000" stroke-opacity="1"/></g><g><line x1="449" x2="680" y1="357" y2="357" stroke="#000" stroke-opacity="1"/></g><g><line x1="680" x2="686" y1="605" y2="599" stroke="#000" stroke-opacity="1"/><line x1="680" x2="674" y1="605" y2="599" stroke="#000" stroke-opacity="1"/><line x1="680" x2="680" y1="357" y2="605" stroke="#000" stroke-opacity="1"/></g><g><line x1="429" x2="429" y1="371" y2="398" stroke="#000" stroke-opacity="1"/></g><g><line x1="429" x2="679" y1="398" y2="398" stroke="#000" stroke-opacity="1"/></g><g><line x1="679" x2="685" y1="605" y2="599" stroke="#000" stroke-opacity="1"/><line x1="679" x2="673" y1="605" y2="599" stroke="#000" stroke-opacity="1"/><line x1="679" x2="679" y1="398" y2="605" stroke="#000" stroke-opacity="1"/></g><g><line x1="680" x2="680" y1="632" y2="767" stroke="#000" stroke-opacity="1"/></g><g><line x1="543" x2="549" y1="767" y2="773" stroke="#000" stroke-opacity="1"/><line x1="543" x2="549" y1="767" y2="761" stroke="#000" stroke-opacity="1"/><line x1="680" x2="543" y1="767" y2="767" stroke="#000" stroke-opacity="1"/></g><g><line x1="358" x2="358" y1="709" y2="767" stroke="#000" stroke-opacity="1"/></g><g><line x1="518" x2="512" y1="767" y2="761" stroke="#000" stroke-opacity="1"/><line x1="518" x2="512" y1="767" y2="773" stroke="#000" stroke-opacity="1"/><line x1="358" x2="518" y1="767" y2="767" stroke="#000" stroke-opacity="1"/></g><g><line x1="161" x2="219" y1="515" y2="561" stroke="#000" stroke-opacity="1"/></g><g><line x1="156" x2="164" y1="603" y2="604" stroke="#000" stroke-opacity="1"/><line x1="156" x2="157" y1="603" y2="594" stroke="#000" stroke-opacity="1"/><line x1="219" x2="156" y1="561" y2="603" stroke="#000" stroke-opacity="1"/></g><g><line x1="125" x2="72" y1="603" y2="559" stroke="#000" stroke-opacity="1"/></g><g><line x1="125" x2="116" y1="515" y2="514" stroke="#000" stroke-opacity="1"/><line x1="125" x2="124" y1="515" y2="523" stroke="#000" stroke-opacity="1"/><line x1="72" x2="125" y1="559" y2="515" stroke="#000" stroke-opacity="1"/></g><g><line x1="342" x2="143" y1="450" y2="450" stroke="#000" stroke-opacity="1"/></g><g><line x1="143" x2="149" y1="488" y2="482" stroke="#000" stroke-opacity="1"/><line x1="143" x2="137" y1="488" y2="482" stroke="#000" stroke-opacity="1"/><line x1="143" x2="143" y1="450" y2="488" stroke="#000" stroke-opacity="1"/></g><g><line x1="354" x2="360" y1="432" y2="426" stroke="#000" stroke-opacity="1"/><line x1="354" x2="348" y1="432" y2="426" stroke="#000" stroke-opacity="1"/><line x1="354" x2="354" y1="371" y2="432" stroke="#000" stroke-opacity="1"/></g><g><line x1="358" x2="364" y1="682" y2="676" stroke="#000" stroke-opacity="1"/><line x1="358" x2="352" y1="682" y2="676" stroke="#000" stroke-opacity="1"/><line x1="358" x2="358" y1="469" y2="682" stroke="#000" stroke-opacity="1"/></g><g><line x1="234" x2="680" y1="501" y2="501" stroke="#000" stroke-opacity="1"/></g><g><line x1="680" x2="686" y1="605" y2="599" stroke="#000" stroke-opacity="1"/><line x1="680" x2="674" y1="605" y2="599" stroke="#000" stroke-opacity="1"/><line x1="680" x2="680" y1="501" y2="605" stroke="#000" stroke-opacity="1"/></g><g><line x1="583" x2="577" y1="618" y2="611" stroke="#000" stroke-opacity="1"/><line x1="583" x2="576" y1="618" y2="623" stroke="#000" stroke-opacity="1"/><line x1="222" x2="583" y1="617" y2="618" stroke="#000" stroke-opacity="1"/></g><g><line x1="163" x2="163" y1="630" y2="696" stroke="#000" stroke-opacity="1"/></g><g><line x1="272" x2="266" y1="696" y2="690" stroke="#000" stroke-opacity="1"/><line x1="272" x2="266" y1="696" y2="702" stroke="#000" stroke-opacity="1"/><line x1="163" x2="272" y1="696" y2="696" stroke="#000" stroke-opacity="1"/></g><g><line x1="213" x2="213" y1="367" y2="358" stroke="#000" stroke-opacity="1"/></g><g><line x1="209" x2="209" y1="254" y2="243" stroke="#000" stroke-opacity="1"/></g><g><line x1="73" x2="74" y1="667" y2="667" stroke="#000" stroke-opacity="1"/></g><g><line x1="74" x2="68" y1="630" y2="636" stroke="#000" stroke-opacity="1"/><line x1="74" x2="80" y1="630" y2="636" stroke="#000" stroke-opacity="1"/><line x1="74" x2="74" y1="667" y2="630" stroke="#000" stroke-opacity="1"/></g><g><text x="527" y="497" fill="#000" font-family="Helvetica" font-size="11" xml:space="preserve">NO_MORE_SERVERS_EVT</text></g><g><text x="655" y="695" fill="#000" font-family="Helvetica" font-size="11" xml:space="preserve">END_EVT</text></g><g><text x="298" y="420" fill="#000" font-family="Helvetica" font-size="11" xml:space="preserve">UPDATE_OK_EVT</text></g><g><text x="551" y="352" fill="#000" font-family="Helvetica" font-size="11" xml:space="preserve">UPDATE_FAILED_EVT</text></g><g><text x="374" y="202" fill="#000" font-family="Helvetica" font-size="11" xml:space="preserve">SERVER_SELECTED_EVT</text></g><g><text x="176" y="688" fill="#000" font-family="Helvetica" font-size="11" xml:space="preserve">UPDATE_OK_EVT</text></g><g><text x="171" y="350" fill="#000" font-family="Helvetica" font-size="11" xml:space="preserve">IO_COMPLETED_EVT</text></g><g><text x="133" y="580" fill="#000" font-family="Helvetica" font-size="11" xml:space="preserve">SERVER_SELECTED_EVT</text></g><g><text x="366" y="681" fill="#000" font-family="Helvetica" font-size="11" xml:space="preserve">No reverse change requested</text></g><g><text x="332" y="733" fill="#000" font-family="Helvetica" font-size="11" xml:space="preserve">END_EVT</text></g><g><text x="164" y="448" fill="#000" font-family="Helvetica" font-size="11" xml:space="preserve">Reverse change requested</text></g><g><text x="452" y="612" fill="#000" font-family="Helvetica" font-size="11" xml:space="preserve">UPDATE_FAILED_EVT</text></g><g><text x="529" y="394" fill="#000" font-family="Helvetica" font-size="11" xml:space="preserve">SERVER_IO_ERROR_EVT</text></g><g><text x="525" y="140" fill="#000" font-family="Helvetica" font-size="11" xml:space="preserve">NO_MORE_SERVERS_EVT</text></g><g><text x="381" y="332" fill="#000" font-family="Helvetica" font-size="11" xml:space="preserve">UPDATE_OK_EVT</text></g><g><text x="548" y="234" fill="#000" font-family="Helvetica" font-size="11" xml:space="preserve">UPDATE_FAILED_EVT</text></g><g><text x="213" y="192" fill="#000" font-family="Helvetica" font-size="11" xml:space="preserve">SERVER_IO_ERROR_EVT</text></g><g><text x="164" y="82" fill="#000" font-family="Helvetica" font-size="11" xml:space="preserve">Only reverse change requested</text></g><g><text x="203" y="14" fill="#000" font-family="Helvetica" font-size="11" xml:space="preserve">START_EVT</text></g><g><text x="384" y="115" fill="#000" font-family="Helvetica" font-size="11" xml:space="preserve">Forward change requested</text></g><g><text x="19" y="554" fill="#000" font-family="Helvetica" font-size="11" xml:space="preserve">SERVER_IO_ERROR_EVT</text></g><g><text x="156" y="237" fill="#000" font-family="Helvetica" font-size="11" xml:space="preserve">IO_COMPLETED_EVT</text></g><g><text x="11" y="655" fill="#000" font-family="Helvetica" font-size="11" xml:space="preserve">IO_COMPLETED_EVT</text></g><g><line x1="288" x2="282" y1="358" y2="352" stroke="#000" stroke-opacity="1"/><line x1="288" x2="282" y1="358" y2="364" stroke="#000" stroke-opacity="1"/><line x1="213" x2="288" y1="358" y2="358" stroke="#000" stroke-opacity="1"/></g><g><line x1="280" x2="274" y1="243" y2="237" stroke="#000" stroke-opacity="1"/><line x1="280" x2="274" y1="243" y2="249" stroke="#000" stroke-opacity="1"/><line x1="209" x2="280" y1="243" y2="243" stroke="#000" stroke-opacity="1"/></g></svg>