<svg xmlns="http://www.w3.org/2000/svg" width="791" height="846" version="1.1"><g><rect width="3" height="291" x="169" y="10" fill="#cbcbcb" stroke="none" stroke-opacity="1"/><rect width="161" height="3" x="11" y="298" fill="#cbcbcb" stroke="none" stroke-opacity="1"/><rect width="162" height="292" x="7" y="6" fill="#c0ffff" stroke="#000" stroke-opacity="1" stroke-width="1"/><text x="88" y="19" fill="#000" font-family="Helvetica" font-size="11" font-weight="bold" text-anchor="middle" xml:space="preserve">D2Process</text><line x1="7" x2="169" y1="21" y2="21" stroke="#000" stroke-opacity="1"/><text x="11" y="34" fill="#000" font-family="Helvetica" font-size="11" text-decoration="underline" xml:space="preserve">QUEUE_RESTART_PERCENT</text><text x="11" y="47" fill="#000" font-family="Helvetica" font-size="11" xml:space="preserve">reconf_queue_flag_</text><line x1="7" x2="169" y1="49" y2="49" stroke="#000" stroke-opacity="1"/><text x="11" y="62" fill="#000" font-family="Helvetica" font-size="11" xml:space="preserve">D2Process()</text><text x="11" y="75" fill="#000" font-family="Helvetica" font-size="11" xml:space="preserve">init()</text><text x="11" y="88" fill="#000" font-family="Helvetica" font-size="11" xml:space="preserve">run()</text><text x="11" y="101" fill="#000" font-family="Helvetica" font-size="11" xml:space="preserve">shutdown()</text><text x="11" y="114" fill="#000" font-family="Helvetica" font-size="11" xml:space="preserve">configure()</text><text x="11" y="127" fill="#000" font-family="Helvetica" font-size="11" xml:space="preserve">command()</text><text x="11" y="140" fill="#000" font-family="Helvetica" font-size="11" xml:space="preserve">~D2Process()</text><text x="11" y="153" fill="#000" font-family="Helvetica" font-size="11" xml:space="preserve">checkQueueStatus()</text><text x="11" y="166" fill="#000" font-family="Helvetica" font-size="11" xml:space="preserve">reconfigureQueueMgr()</text><text x="11" y="179" fill="#000" font-family="Helvetica" font-size="11" xml:space="preserve">runIO()</text><text x="11" y="192" fill="#000" font-family="Helvetica" font-size="11" xml:space="preserve">canShutdown()</text><text x="11" y="205" fill="#000" font-family="Helvetica" font-size="11" xml:space="preserve">setReconfQueueFlag()</text><text x="11" y="218" fill="#000" font-family="Helvetica" font-size="11" xml:space="preserve">setShutdownType()</text><text x="11" y="231" fill="#000" font-family="Helvetica" font-size="11" xml:space="preserve">getD2CfgMgr()</text><text x="11" y="244" fill="#000" font-family="Helvetica" font-size="11" xml:space="preserve">getD2QueueMgr()</text><text x="11" y="257" fill="#000" font-family="Helvetica" font-size="11" xml:space="preserve">getD2UpdateMgr()</text><text x="11" y="270" fill="#000" font-family="Helvetica" font-size="11" xml:space="preserve">getReconfQueueFlag()</text><text x="11" y="283" fill="#000" font-family="Helvetica" font-size="11" xml:space="preserve">getShutdownType()</text><text x="11" y="296" fill="#000" font-family="Helvetica" font-size="11" text-decoration="underline" xml:space="preserve">getShutdownTypeStr()</text></g><g><rect width="3" height="45" x="367" y="446" fill="#cbcbcb" stroke="none" stroke-opacity="1"/><rect width="73" height="3" x="297" y="488" fill="#cbcbcb" stroke="none" stroke-opacity="1"/><rect width="74" height="46" x="293" y="442" fill="#c0ffff" stroke="#000" stroke-opacity="1" stroke-width="1"/><text x="330" y="455" fill="#000" font-family="Helvetica" font-size="11" text-anchor="middle" xml:space="preserve">&lt;&lt;typedef&gt;&gt;</text><text x="330" y="470" fill="#000" font-family="Helvetica" font-size="11" font-weight="bold" text-anchor="middle" xml:space="preserve">IOServicePtr</text><line x1="293" x2="367" y1="472" y2="472" stroke="#000" stroke-opacity="1"/><line x1="293" x2="367" y1="480" y2="480" stroke="#000" stroke-opacity="1"/></g><g><rect width="3" height="199" x="587" y="319" fill="#cbcbcb" stroke="none" stroke-opacity="1"/><rect width="127" height="3" x="463" y="515" fill="#cbcbcb" stroke="none" stroke-opacity="1"/><rect width="128" height="200" x="459" y="315" fill="#ffffc0" stroke="#000" stroke-opacity="1" stroke-width="1"/><text x="523" y="328" fill="#000" font-family="Helvetica" font-size="11" font-style="italic" font-weight="bold" text-anchor="middle" xml:space="preserve">NameChangeListener</text><line x1="459" x2="587" y1="330" y2="330" stroke="#000" stroke-opacity="1"/><text x="463" y="343" fill="#000" font-family="Helvetica" font-size="11" xml:space="preserve">listening_</text><text x="463" y="356" fill="#000" font-family="Helvetica" font-size="11" xml:space="preserve">io_pending_</text><line x1="459" x2="587" y1="358" y2="358" stroke="#000" stroke-opacity="1"/><text x="463" y="371" fill="#000" font-family="Helvetica" font-size="11" xml:space="preserve">NameChangeListener()</text><text x="463" y="384" fill="#000" font-family="Helvetica" font-size="11" xml:space="preserve">~NameChangeListener()</text><text x="463" y="397" fill="#000" font-family="Helvetica" font-size="11" xml:space="preserve">startListening()</text><text x="463" y="410" fill="#000" font-family="Helvetica" font-size="11" xml:space="preserve">stopListening()</text><text x="463" y="423" fill="#000" font-family="Helvetica" font-size="11" xml:space="preserve">receiveNext()</text><text x="463" y="436" fill="#000" font-family="Helvetica" font-size="11" xml:space="preserve">invokeRecvHandler()</text><text x="463" y="449" fill="#000" font-family="Helvetica" font-size="11" font-style="italic" xml:space="preserve">open()</text><text x="463" y="462" fill="#000" font-family="Helvetica" font-size="11" font-style="italic" xml:space="preserve">close()</text><text x="463" y="475" fill="#000" font-family="Helvetica" font-size="11" font-style="italic" xml:space="preserve">doReceive()</text><text x="463" y="488" fill="#000" font-family="Helvetica" font-size="11" xml:space="preserve">amListening()</text><text x="463" y="501" fill="#000" font-family="Helvetica" font-size="11" xml:space="preserve">isIoPending()</text><text x="463" y="514" fill="#000" font-family="Helvetica" font-size="11" xml:space="preserve">setListening()</text></g><g><line x1="371" x2="377" y1="464" y2="470" stroke="#000" stroke-opacity="1"/><line x1="371" x2="377" y1="464" y2="458" stroke="#000" stroke-opacity="1"/><line x1="458" x2="371" y1="464" y2="464" stroke="#000" stroke-dasharray="4 4" stroke-opacity="1"/></g><g><rect width="3" height="615" x="775" y="218" fill="#cbcbcb" stroke="none" stroke-opacity="1"/><rect width="125" height="3" x="653" y="830" fill="#cbcbcb" stroke="none" stroke-opacity="1"/><rect width="126" height="616" x="649" y="214" fill="#ffffc0" stroke="#000" stroke-opacity="1" stroke-width="1"/><text x="712" y="227" fill="#000" font-family="Helvetica" font-size="11" font-weight="bold" text-anchor="middle" xml:space="preserve">NameChangeRequest</text><line x1="649" x2="775" y1="229" y2="229" stroke="#000" stroke-opacity="1"/><text x="653" y="242" fill="#000" font-family="Helvetica" font-size="11" xml:space="preserve">forward_change_</text><text x="653" y="255" fill="#000" font-family="Helvetica" font-size="11" xml:space="preserve">reverse_change_</text><text x="653" y="268" fill="#000" font-family="Helvetica" font-size="11" xml:space="preserve">fqdn_</text><text x="653" y="281" fill="#000" font-family="Helvetica" font-size="11" xml:space="preserve">lease_expires_on_</text><text x="653" y="294" fill="#000" font-family="Helvetica" font-size="11" xml:space="preserve">lease_length_</text><line x1="649" x2="775" y1="296" y2="296" stroke="#000" stroke-opacity="1"/><text x="653" y="309" fill="#000" font-family="Helvetica" font-size="11" xml:space="preserve">NameChangeRequest()</text><text x="653" y="322" fill="#000" font-family="Helvetica" font-size="11" xml:space="preserve">NameChangeRequest()</text><text x="653" y="335" fill="#000" font-family="Helvetica" font-size="11" text-decoration="underline" xml:space="preserve">fromFormat()</text><text x="653" y="348" fill="#000" font-family="Helvetica" font-size="11" xml:space="preserve">toFormat()</text><text x="653" y="361" fill="#000" font-family="Helvetica" font-size="11" text-decoration="underline" xml:space="preserve">fromJSON()</text><text x="653" y="374" fill="#000" font-family="Helvetica" font-size="11" xml:space="preserve">toJSON()</text><text x="653" y="387" fill="#000" font-family="Helvetica" font-size="11" xml:space="preserve">validateContent()</text><text x="653" y="400" fill="#000" font-family="Helvetica" font-size="11" xml:space="preserve">getChangeType()</text><text x="653" y="413" fill="#000" font-family="Helvetica" font-size="11" xml:space="preserve">setChangeType()</text><text x="653" y="426" fill="#000" font-family="Helvetica" font-size="11" xml:space="preserve">setChangeType()</text><text x="653" y="439" fill="#000" font-family="Helvetica" font-size="11" xml:space="preserve">isForwardChange()</text><text x="653" y="452" fill="#000" font-family="Helvetica" font-size="11" xml:space="preserve">setForwardChange()</text><text x="653" y="465" fill="#000" font-family="Helvetica" font-size="11" xml:space="preserve">setForwardChange()</text><text x="653" y="478" fill="#000" font-family="Helvetica" font-size="11" xml:space="preserve">isReverseChange()</text><text x="653" y="491" fill="#000" font-family="Helvetica" font-size="11" xml:space="preserve">setReverseChange()</text><text x="653" y="504" fill="#000" font-family="Helvetica" font-size="11" xml:space="preserve">setReverseChange()</text><text x="653" y="517" fill="#000" font-family="Helvetica" font-size="11" xml:space="preserve">getFqdn()</text><text x="653" y="530" fill="#000" font-family="Helvetica" font-size="11" xml:space="preserve">setFqdn()</text><text x="653" y="543" fill="#000" font-family="Helvetica" font-size="11" xml:space="preserve">setFqdn()</text><text x="653" y="556" fill="#000" font-family="Helvetica" font-size="11" xml:space="preserve">getIpAddress()</text><text x="653" y="569" fill="#000" font-family="Helvetica" font-size="11" xml:space="preserve">getIpIoAddress()</text><text x="653" y="582" fill="#000" font-family="Helvetica" font-size="11" xml:space="preserve">isV4()</text><text x="653" y="595" fill="#000" font-family="Helvetica" font-size="11" xml:space="preserve">isV6()</text><text x="653" y="608" fill="#000" font-family="Helvetica" font-size="11" xml:space="preserve">setIpAddress()</text><text x="653" y="621" fill="#000" font-family="Helvetica" font-size="11" xml:space="preserve">setIpAddress()</text><text x="653" y="634" fill="#000" font-family="Helvetica" font-size="11" xml:space="preserve">getDhcid()</text><text x="653" y="647" fill="#000" font-family="Helvetica" font-size="11" xml:space="preserve">setDhcid()</text><text x="653" y="660" fill="#000" font-family="Helvetica" font-size="11" xml:space="preserve">setDhcid()</text><text x="653" y="673" fill="#000" font-family="Helvetica" font-size="11" xml:space="preserve">getLeaseExpiresOn()</text><text x="653" y="686" fill="#000" font-family="Helvetica" font-size="11" xml:space="preserve">getLeaseExpiresOnStr()</text><text x="653" y="699" fill="#000" font-family="Helvetica" font-size="11" xml:space="preserve">setLeaseExpiresOn()</text><text x="653" y="712" fill="#000" font-family="Helvetica" font-size="11" xml:space="preserve">setLeaseExpiresOn()</text><text x="653" y="725" fill="#000" font-family="Helvetica" font-size="11" xml:space="preserve">getLeaseLength()</text><text x="653" y="738" fill="#000" font-family="Helvetica" font-size="11" xml:space="preserve">setLeaseLength()</text><text x="653" y="751" fill="#000" font-family="Helvetica" font-size="11" xml:space="preserve">setLeaseLength()</text><text x="653" y="764" fill="#000" font-family="Helvetica" font-size="11" xml:space="preserve">getStatus()</text><text x="653" y="777" fill="#000" font-family="Helvetica" font-size="11" xml:space="preserve">setStatus()</text><text x="653" y="790" fill="#000" font-family="Helvetica" font-size="11" xml:space="preserve">getElement()</text><text x="653" y="803" fill="#000" font-family="Helvetica" font-size="11" xml:space="preserve">toText()</text><text x="653" y="816" fill="#000" font-family="Helvetica" font-size="11" xml:space="preserve">operator ==()</text><text x="653" y="829" fill="#000" font-family="Helvetica" font-size="11" xml:space="preserve">operator !=()</text></g><g><rect width="3" height="277" x="377" y="113" fill="#cbcbcb" stroke="none" stroke-opacity="1"/><rect width="131" height="3" x="249" y="387" fill="#cbcbcb" stroke="none" stroke-opacity="1"/><rect width="132" height="278" x="245" y="109" fill="#ffffc0" stroke="#000" stroke-opacity="1" stroke-width="1"/><text x="311" y="122" fill="#000" font-family="Helvetica" font-size="11" font-weight="bold" text-anchor="middle" xml:space="preserve">D2QueueMgr</text><line x1="245" x2="377" y1="124" y2="124" stroke="#000" stroke-opacity="1"/><text x="249" y="137" fill="#000" font-family="Helvetica" font-size="11" text-decoration="underline" xml:space="preserve">MAX_QUEUE_DEFAULT</text><text x="249" y="150" fill="#000" font-family="Helvetica" font-size="11" xml:space="preserve">max_queue_size_</text><line x1="245" x2="377" y1="152" y2="152" stroke="#000" stroke-opacity="1"/><text x="249" y="165" fill="#000" font-family="Helvetica" font-size="11" xml:space="preserve">D2QueueMgr()</text><text x="249" y="178" fill="#000" font-family="Helvetica" font-size="11" xml:space="preserve">~D2QueueMgr()</text><text x="249" y="191" fill="#000" font-family="Helvetica" font-size="11" xml:space="preserve">initUDPListener()</text><text x="249" y="204" fill="#000" font-family="Helvetica" font-size="11" xml:space="preserve">startListening()</text><text x="249" y="217" fill="#000" font-family="Helvetica" font-size="11" xml:space="preserve">operator ()()</text><text x="249" y="230" fill="#000" font-family="Helvetica" font-size="11" xml:space="preserve">stopListening()</text><text x="249" y="243" fill="#000" font-family="Helvetica" font-size="11" xml:space="preserve">removeListener()</text><text x="249" y="256" fill="#000" font-family="Helvetica" font-size="11" xml:space="preserve">getQueueSize()</text><text x="249" y="269" fill="#000" font-family="Helvetica" font-size="11" xml:space="preserve">getMaxQueueSize()</text><text x="249" y="282" fill="#000" font-family="Helvetica" font-size="11" xml:space="preserve">setMaxQueueSize()</text><text x="249" y="295" fill="#000" font-family="Helvetica" font-size="11" xml:space="preserve">getMgrState()</text><text x="249" y="308" fill="#000" font-family="Helvetica" font-size="11" xml:space="preserve">peek()</text><text x="249" y="321" fill="#000" font-family="Helvetica" font-size="11" xml:space="preserve">peekAt()</text><text x="249" y="334" fill="#000" font-family="Helvetica" font-size="11" xml:space="preserve">dequeueAt()</text><text x="249" y="347" fill="#000" font-family="Helvetica" font-size="11" xml:space="preserve">dequeue()</text><text x="249" y="360" fill="#000" font-family="Helvetica" font-size="11" xml:space="preserve">enqueue()</text><text x="249" y="373" fill="#000" font-family="Helvetica" font-size="11" xml:space="preserve">clearQueue()</text><text x="249" y="386" fill="#000" font-family="Helvetica" font-size="11" xml:space="preserve">updateStopState()</text></g><g><rect width="3" height="45" x="590" y="227" fill="#cbcbcb" stroke="none" stroke-opacity="1"/><rect width="135" height="3" x="458" y="269" fill="#cbcbcb" stroke="none" stroke-opacity="1"/><rect width="136" height="46" x="454" y="223" fill="#ffffc0" stroke="#000" stroke-opacity="1" stroke-width="1"/><text x="522" y="236" fill="#000" font-family="Helvetica" font-size="11" text-anchor="middle" xml:space="preserve">&lt;&lt;typedef&gt;&gt;</text><text x="522" y="251" fill="#000" font-family="Helvetica" font-size="11" font-weight="bold" text-anchor="middle" xml:space="preserve">NameChangeListenerPtr</text><line x1="454" x2="590" y1="253" y2="253" stroke="#000" stroke-opacity="1"/><line x1="454" x2="590" y1="261" y2="261" stroke="#000" stroke-opacity="1"/></g><g><rect width="3" height="173" x="604" y="547" fill="#cbcbcb" stroke="none" stroke-opacity="1"/><rect width="151" height="3" x="456" y="717" fill="#cbcbcb" stroke="none" stroke-opacity="1"/><rect width="152" height="174" x="452" y="543" fill="#ffffc0" stroke="#000" stroke-opacity="1" stroke-width="1"/><text x="528" y="556" fill="#000" font-family="Helvetica" font-size="11" font-weight="bold" text-anchor="middle" xml:space="preserve">NameChangeUDPListener</text><line x1="452" x2="604" y1="558" y2="558" stroke="#000" stroke-opacity="1"/><text x="456" y="571" fill="#000" font-family="Helvetica" font-size="11" text-decoration="underline" xml:space="preserve">RECV_BUF_MAX</text><text x="456" y="584" fill="#000" font-family="Helvetica" font-size="11" xml:space="preserve">port_</text><text x="456" y="597" fill="#000" font-family="Helvetica" font-size="11" xml:space="preserve">asio_socket_</text><text x="456" y="610" fill="#000" font-family="Helvetica" font-size="11" xml:space="preserve">reuse_address_</text><line x1="452" x2="604" y1="612" y2="612" stroke="#000" stroke-opacity="1"/><text x="456" y="625" fill="#000" font-family="Helvetica" font-size="11" xml:space="preserve">NameChangeUDPListener()</text><text x="456" y="638" fill="#000" font-family="Helvetica" font-size="11" xml:space="preserve">~NameChangeUDPListener()</text><text x="456" y="651" fill="#000" font-family="Helvetica" font-size="11" xml:space="preserve">open()</text><text x="456" y="664" fill="#000" font-family="Helvetica" font-size="11" xml:space="preserve">close()</text><text x="456" y="677" fill="#000" font-family="Helvetica" font-size="11" xml:space="preserve">doReceive()</text><text x="456" y="690" fill="#000" font-family="Helvetica" font-size="11" xml:space="preserve">receiveCompletionHandler()</text><text x="456" y="703" fill="#000" font-family="Helvetica" font-size="11" xml:space="preserve">NameChangeUDPListener()</text><text x="456" y="716" fill="#000" font-family="Helvetica" font-size="11" xml:space="preserve">operator =()</text></g><g><line x1="331" x2="337" y1="441" y2="435" stroke="#000" stroke-opacity="1"/><line x1="331" x2="325" y1="441" y2="435" stroke="#000" stroke-opacity="1"/><line x1="331" x2="331" y1="391" y2="441" stroke="#000" stroke-opacity="1"/><polygon fill="#000" stroke="#000" stroke-opacity="1" points="331 391 337 397 331 403 325 397"/></g><g><line x1="524" x2="530" y1="314" y2="308" stroke="#000" stroke-opacity="1"/><line x1="524" x2="518" y1="314" y2="308" stroke="#000" stroke-opacity="1"/><line x1="524" x2="524" y1="273" y2="314" stroke="#000" stroke-dasharray="4 4" stroke-opacity="1"/></g><g><line x1="453" x2="447" y1="245" y2="239" stroke="#000" stroke-opacity="1"/><line x1="453" x2="447" y1="245" y2="251" stroke="#000" stroke-opacity="1"/><line x1="381" x2="453" y1="245" y2="245" stroke="#000" stroke-opacity="1"/><polygon fill="#000" stroke="#000" stroke-opacity="1" points="381 245 387 239 393 245 387 251"/></g><g><line x1="527" x2="526" y1="542" y2="524" stroke="#000" stroke-opacity="1"/><line x1="526" x2="520" y1="519" y2="525" stroke="#000" stroke-opacity="1"/><line x1="526" x2="532" y1="519" y2="524" stroke="#000" stroke-opacity="1"/><line x1="520" x2="532" y1="525" y2="524" stroke="#000" stroke-opacity="1"/></g><g><rect width="3" height="45" x="554" y="129" fill="#cbcbcb" stroke="none" stroke-opacity="1"/><rect width="85" height="3" x="472" y="171" fill="#cbcbcb" stroke="none" stroke-opacity="1"/><rect width="86" height="46" x="468" y="125" fill="#ffffc0" stroke="#000" stroke-opacity="1" stroke-width="1"/><text x="511" y="138" fill="#000" font-family="Helvetica" font-size="11" text-anchor="middle" xml:space="preserve">&lt;&lt;typedef&gt;&gt;</text><text x="511" y="153" fill="#000" font-family="Helvetica" font-size="11" font-weight="bold" text-anchor="middle" xml:space="preserve">RequestQueue</text><line x1="468" x2="554" y1="155" y2="155" stroke="#000" stroke-opacity="1"/><line x1="468" x2="554" y1="163" y2="163" stroke="#000" stroke-opacity="1"/></g><g><rect width="3" height="129" x="173" y="353" fill="#cbcbcb" stroke="none" stroke-opacity="1"/><rect width="141" height="3" x="35" y="479" fill="#cbcbcb" stroke="none" stroke-opacity="1"/><rect width="142" height="130" x="31" y="349" fill="#ffffc0" stroke="#000" stroke-opacity="1" stroke-width="1"/><text x="102" y="362" fill="#000" font-family="Helvetica" font-size="11" text-anchor="middle" xml:space="preserve">&lt;&lt;enum&gt;&gt;</text><text x="102" y="377" fill="#000" font-family="Helvetica" font-size="11" font-weight="bold" text-anchor="middle" xml:space="preserve">State</text><line x1="31" x2="173" y1="379" y2="379" stroke="#000" stroke-opacity="1"/><text x="35" y="392" fill="#000" font-family="Helvetica" font-size="11" xml:space="preserve">NOT_INITTED</text><text x="35" y="405" fill="#000" font-family="Helvetica" font-size="11" xml:space="preserve">INITTED</text><text x="35" y="418" fill="#000" font-family="Helvetica" font-size="11" xml:space="preserve">RUNNING</text><text x="35" y="431" fill="#000" font-family="Helvetica" font-size="11" xml:space="preserve">STOPPING</text><text x="35" y="444" fill="#000" font-family="Helvetica" font-size="11" xml:space="preserve">STOPPED_QUEUE_FULL</text><text x="35" y="457" fill="#000" font-family="Helvetica" font-size="11" xml:space="preserve">STOPPED_RECV_ERROR</text><text x="35" y="470" fill="#000" font-family="Helvetica" font-size="11" xml:space="preserve">STOPPED</text><line x1="31" x2="173" y1="472" y2="472" stroke="#000" stroke-opacity="1"/></g><g><line x1="467" x2="461" y1="150" y2="144" stroke="#000" stroke-opacity="1"/><line x1="467" x2="461" y1="150" y2="156" stroke="#000" stroke-opacity="1"/><line x1="381" x2="467" y1="150" y2="150" stroke="#000" stroke-opacity="1"/><polygon fill="#000" stroke="#000" stroke-opacity="1" points="381 150 387 144 393 150 387 156"/></g><g><line x1="244" x2="102" y1="319" y2="319" stroke="#000" stroke-opacity="1"/><polygon fill="#000" stroke="#000" stroke-opacity="1" points="244 319 238 325 232 319 238 313"/></g><g><line x1="102" x2="108" y1="348" y2="342" stroke="#000" stroke-opacity="1"/><line x1="102" x2="96" y1="348" y2="342" stroke="#000" stroke-opacity="1"/><line x1="102" x2="102" y1="319" y2="348" stroke="#000" stroke-opacity="1"/></g><g><line x1="285" x2="285" y1="391" y2="416" stroke="#000" stroke-opacity="1"/><polygon fill="#000" stroke="#000" stroke-opacity="1" points="285 391 291 397 285 403 279 397"/></g><g><line x1="177" x2="183" y1="416" y2="422" stroke="#000" stroke-opacity="1"/><line x1="177" x2="183" y1="416" y2="410" stroke="#000" stroke-opacity="1"/><line x1="285" x2="177" y1="416" y2="416" stroke="#000" stroke-opacity="1"/></g><g><line x1="177" x2="232" y1="367" y2="366" stroke="#000" stroke-opacity="1"/><ellipse cx="238" cy="366" fill="none" stroke="#000" stroke-opacity="1" stroke-width="1" rx="5" ry="5"/><line x1="233" x2="243" y1="366" y2="366" stroke="#000" stroke-opacity="1"/><line x1="238" x2="238" y1="361" y2="371" stroke="#000" stroke-opacity="1"/></g><g><rect width="3" height="45" x="774" y="129" fill="#cbcbcb" stroke="none" stroke-opacity="1"/><rect width="135" height="3" x="642" y="171" fill="#cbcbcb" stroke="none" stroke-opacity="1"/><rect width="136" height="46" x="638" y="125" fill="#ffffc0" stroke="#000" stroke-opacity="1" stroke-width="1"/><text x="706" y="138" fill="#000" font-family="Helvetica" font-size="11" text-anchor="middle" xml:space="preserve">&lt;&lt;typedef&gt;&gt;</text><text x="706" y="153" fill="#000" font-family="Helvetica" font-size="11" font-weight="bold" text-anchor="middle" xml:space="preserve">NameChangeRequestPtr</text><line x1="638" x2="774" y1="155" y2="155" stroke="#000" stroke-opacity="1"/><line x1="638" x2="774" y1="163" y2="163" stroke="#000" stroke-opacity="1"/></g><g><line x1="708" x2="714" y1="213" y2="207" stroke="#000" stroke-opacity="1"/><line x1="708" x2="702" y1="213" y2="207" stroke="#000" stroke-opacity="1"/><line x1="708" x2="708" y1="175" y2="213" stroke="#000" stroke-dasharray="4 4" stroke-opacity="1"/></g><g><line x1="637" x2="631" y1="150" y2="144" stroke="#000" stroke-opacity="1"/><line x1="637" x2="631" y1="150" y2="156" stroke="#000" stroke-opacity="1"/><line x1="558" x2="637" y1="150" y2="150" stroke="#000" stroke-dasharray="4 4" stroke-opacity="1"/></g><g><text x="187" y="54" fill="#000" font-family="Helvetica" font-size="11" xml:space="preserve">queue_mgr_</text></g><g><text x="341" y="438" fill="#000" font-family="Helvetica" font-size="11" xml:space="preserve">io_service_</text></g><g><text x="187" y="413" fill="#000" font-family="Helvetica" font-size="11" xml:space="preserve">target_stop_state_</text></g><g><text x="401" y="242" fill="#000" font-family="Helvetica" font-size="11" xml:space="preserve">listener_</text></g><g><text x="112" y="345" fill="#000" font-family="Helvetica" font-size="11" xml:space="preserve">mgr_state_</text></g><g><text x="399" y="147" fill="#000" font-family="Helvetica" font-size="11" xml:space="preserve">ncr_queue_</text></g><g><rect width="3" height="45" x="352" y="36" fill="#cbcbcb" stroke="none" stroke-opacity="1"/><rect width="91" height="3" x="264" y="78" fill="#cbcbcb" stroke="none" stroke-opacity="1"/><rect width="92" height="46" x="260" y="32" fill="#ffffc0" stroke="#000" stroke-opacity="1" stroke-width="1"/><text x="306" y="45" fill="#000" font-family="Helvetica" font-size="11" text-anchor="middle" xml:space="preserve">&lt;&lt;typedef&gt;&gt;</text><text x="306" y="60" fill="#000" font-family="Helvetica" font-size="11" font-weight="bold" text-anchor="middle" xml:space="preserve">D2QueueMgrPtr</text><line x1="260" x2="352" y1="62" y2="62" stroke="#000" stroke-opacity="1"/><line x1="260" x2="352" y1="70" y2="70" stroke="#000" stroke-opacity="1"/></g><g><line x1="259" x2="252" y1="57" y2="51" stroke="#000" stroke-opacity="1"/><line x1="259" x2="253" y1="57" y2="63" stroke="#000" stroke-opacity="1"/><line x1="173" x2="259" y1="58" y2="57" stroke="#000" stroke-opacity="1"/><polygon fill="#000" stroke="#000" stroke-opacity="1" points="173 58 178 51 184 57 179 63"/></g><g><line x1="308" x2="314" y1="108" y2="102" stroke="#000" stroke-opacity="1"/><line x1="308" x2="302" y1="108" y2="102" stroke="#000" stroke-opacity="1"/><line x1="308" x2="308" y1="82" y2="108" stroke="#000" stroke-dasharray="4 4" stroke-opacity="1"/></g></svg>