<svg xmlns="http://www.w3.org/2000/svg" width="645" height="712" version="1.1"><g><rect width="3" height="63" x="212" y="431" fill="#cbcbcb" stroke="none" stroke-opacity="1"/><rect width="45" height="3" x="170" y="491" fill="#cbcbcb" stroke="none" stroke-opacity="1"/><rect width="46" height="64" x="166" y="427" fill="#ffffc0" stroke="#000" stroke-opacity="1" stroke-width="1"/><text x="189" y="440" fill="#000" font-family="Helvetica" font-size="11" font-weight="bold" text-anchor="middle" xml:space="preserve">State</text><line x1="166" x2="212" y1="442" y2="442" stroke="#000" stroke-opacity="1"/><line x1="166" x2="212" y1="450" y2="450" stroke="#000" stroke-opacity="1"/><text x="170" y="463" fill="#000" font-family="Helvetica" font-size="11" xml:space="preserve">State()</text><text x="170" y="476" fill="#000" font-family="Helvetica" font-size="11" xml:space="preserve">~State()</text><text x="170" y="489" fill="#000" font-family="Helvetica" font-size="11" xml:space="preserve">run()</text></g><g><rect width="3" height="45" x="227" y="531" fill="#cbcbcb" stroke="none" stroke-opacity="1"/><rect width="69" height="3" x="161" y="573" fill="#cbcbcb" stroke="none" stroke-opacity="1"/><rect width="70" height="46" x="157" y="527" fill="#ffffc0" stroke="#000" stroke-opacity="1" stroke-width="1"/><text x="192" y="540" fill="#000" font-family="Helvetica" font-size="11" text-anchor="middle" xml:space="preserve">&lt;&lt;typedef&gt;&gt;</text><text x="192" y="555" fill="#000" font-family="Helvetica" font-size="11" font-weight="bold" text-anchor="middle" xml:space="preserve">StatePtr</text><line x1="157" x2="227" y1="557" y2="557" stroke="#000" stroke-opacity="1"/><line x1="157" x2="227" y1="565" y2="565" stroke="#000" stroke-opacity="1"/></g><g><line x1="191" x2="185" y1="495" y2="501" stroke="#000" stroke-opacity="1"/><line x1="191" x2="197" y1="495" y2="500" stroke="#000" stroke-opacity="1"/><line x1="192" x2="191" y1="526" y2="495" stroke="#000" stroke-dasharray="4 4" stroke-opacity="1"/></g><g><text x="403" y="271" fill="#000" font-family="Helvetica" font-size="11" xml:space="preserve">states_</text></g><g><text x="255" y="125" fill="#000" font-family="Helvetica" font-size="11" xml:space="preserve">map_</text></g><g><text x="108" y="458" fill="#000" font-family="Helvetica" font-size="11" xml:space="preserve">handler_</text></g><g><text x="426" y="86" fill="#000" font-family="Helvetica" font-size="11" xml:space="preserve">events_</text></g><g><rect width="3" height="45" x="94" y="441" fill="#cbcbcb" stroke="none" stroke-opacity="1"/><rect width="75" height="3" x="22" y="483" fill="#cbcbcb" stroke="none" stroke-opacity="1"/><rect width="76" height="46" x="18" y="437" fill="#ffffc0" stroke="#000" stroke-opacity="1" stroke-width="1"/><text x="56" y="450" fill="#000" font-family="Helvetica" font-size="11" text-anchor="middle" xml:space="preserve">&lt;&lt;typedef&gt;&gt;</text><text x="56" y="465" fill="#000" font-family="Helvetica" font-size="11" font-weight="bold" text-anchor="middle" xml:space="preserve">StateHandler</text><line x1="18" x2="94" y1="467" y2="467" stroke="#000" stroke-opacity="1"/><line x1="18" x2="94" y1="475" y2="475" stroke="#000" stroke-opacity="1"/></g><g><line x1="98" x2="104" y1="461" y2="467" stroke="#000" stroke-opacity="1"/><line x1="98" x2="104" y1="461" y2="455" stroke="#000" stroke-opacity="1"/><line x1="165" x2="98" y1="461" y2="461" stroke="#000" stroke-opacity="1"/><polygon fill="#000" stroke="#000" stroke-opacity="1" points="165 461 159 467 153 461 159 455"/></g><g><rect width="3" height="45" x="84" y="302" fill="#cbcbcb" stroke="none" stroke-opacity="1"/><rect width="69" height="3" x="18" y="344" fill="#cbcbcb" stroke="none" stroke-opacity="1"/><rect width="70" height="46" x="14" y="298" fill="#ffffc0" stroke="#000" stroke-opacity="1" stroke-width="1"/><text x="49" y="311" fill="#000" font-family="Helvetica" font-size="11" text-anchor="middle" xml:space="preserve">&lt;&lt;typedef&gt;&gt;</text><text x="49" y="326" fill="#000" font-family="Helvetica" font-size="11" font-weight="bold" text-anchor="middle" xml:space="preserve">Event</text><line x1="14" x2="84" y1="328" y2="328" stroke="#000" stroke-opacity="1"/><line x1="14" x2="84" y1="336" y2="336" stroke="#000" stroke-opacity="1"/></g><g><rect width="3" height="45" x="84" y="183" fill="#cbcbcb" stroke="none" stroke-opacity="1"/><rect width="69" height="3" x="18" y="225" fill="#cbcbcb" stroke="none" stroke-opacity="1"/><rect width="70" height="46" x="14" y="179" fill="#ffffc0" stroke="#000" stroke-opacity="1" stroke-width="1"/><text x="49" y="192" fill="#000" font-family="Helvetica" font-size="11" text-anchor="middle" xml:space="preserve">&lt;&lt;typedef&gt;&gt;</text><text x="49" y="207" fill="#000" font-family="Helvetica" font-size="11" font-weight="bold" text-anchor="middle" xml:space="preserve">EventPtr</text><line x1="14" x2="84" y1="209" y2="209" stroke="#000" stroke-opacity="1"/><line x1="14" x2="84" y1="217" y2="217" stroke="#000" stroke-opacity="1"/></g><g><rect width="3" height="667" x="629" y="32" fill="#cbcbcb" stroke="none" stroke-opacity="1"/><rect width="147" height="3" x="485" y="696" fill="#cbcbcb" stroke="none" stroke-opacity="1"/><rect width="148" height="668" x="481" y="28" fill="#c0ffff" stroke="#000" stroke-opacity="1" stroke-width="1"/><text x="555" y="41" fill="#000" font-family="Helvetica" font-size="11" font-weight="bold" text-anchor="middle" xml:space="preserve">StateModel</text><line x1="481" x2="629" y1="43" y2="43" stroke="#000" stroke-opacity="1"/><text x="485" y="56" fill="#000" font-family="Helvetica" font-size="11" text-decoration="underline" xml:space="preserve">NEW_ST</text><text x="485" y="69" fill="#000" font-family="Helvetica" font-size="11" text-decoration="underline" xml:space="preserve">END_ST</text><text x="485" y="82" fill="#000" font-family="Helvetica" font-size="11" text-decoration="underline" xml:space="preserve">SM_DERIVED_STATE_MIN</text><text x="485" y="95" fill="#000" font-family="Helvetica" font-size="11" text-decoration="underline" xml:space="preserve">NOP_EVT</text><text x="485" y="108" fill="#000" font-family="Helvetica" font-size="11" text-decoration="underline" xml:space="preserve">START_EVT</text><text x="485" y="121" fill="#000" font-family="Helvetica" font-size="11" text-decoration="underline" xml:space="preserve">END_EVT</text><text x="485" y="134" fill="#000" font-family="Helvetica" font-size="11" text-decoration="underline" xml:space="preserve">FAIL_EVT</text><text x="485" y="147" fill="#000" font-family="Helvetica" font-size="11" text-decoration="underline" xml:space="preserve">SM_DERIVED_EVENT_MIN</text><text x="485" y="160" fill="#000" font-family="Helvetica" font-size="11" xml:space="preserve">dictionaries_initted_</text><text x="485" y="173" fill="#000" font-family="Helvetica" font-size="11" xml:space="preserve">curr_state_</text><text x="485" y="186" fill="#000" font-family="Helvetica" font-size="11" xml:space="preserve">prev_state_</text><text x="485" y="199" fill="#000" font-family="Helvetica" font-size="11" xml:space="preserve">last_event_</text><text x="485" y="212" fill="#000" font-family="Helvetica" font-size="11" xml:space="preserve">next_event_</text><text x="485" y="225" fill="#000" font-family="Helvetica" font-size="11" xml:space="preserve">on_entry_flag_</text><text x="485" y="238" fill="#000" font-family="Helvetica" font-size="11" xml:space="preserve">on_exit_flag_</text><line x1="481" x2="629" y1="240" y2="240" stroke="#000" stroke-opacity="1"/><text x="485" y="253" fill="#000" font-family="Helvetica" font-size="11" xml:space="preserve">StateModel()</text><text x="485" y="266" fill="#000" font-family="Helvetica" font-size="11" xml:space="preserve">~StateModel()</text><text x="485" y="279" fill="#000" font-family="Helvetica" font-size="11" xml:space="preserve">startModel()</text><text x="485" y="292" fill="#000" font-family="Helvetica" font-size="11" xml:space="preserve">runModel()</text><text x="485" y="305" fill="#000" font-family="Helvetica" font-size="11" xml:space="preserve">endModel()</text><text x="485" y="318" fill="#000" font-family="Helvetica" font-size="11" xml:space="preserve">nopStateHandler()</text><text x="485" y="331" fill="#000" font-family="Helvetica" font-size="11" xml:space="preserve">initDictionaries()</text><text x="485" y="344" fill="#000" font-family="Helvetica" font-size="11" xml:space="preserve">defineEvents()</text><text x="485" y="357" fill="#000" font-family="Helvetica" font-size="11" xml:space="preserve">defineEvent()</text><text x="485" y="370" fill="#000" font-family="Helvetica" font-size="11" xml:space="preserve">getEvent()</text><text x="485" y="383" fill="#000" font-family="Helvetica" font-size="11" xml:space="preserve">verifyEvents()</text><text x="485" y="396" fill="#000" font-family="Helvetica" font-size="11" xml:space="preserve">defineStates()</text><text x="485" y="409" fill="#000" font-family="Helvetica" font-size="11" xml:space="preserve">defineState()</text><text x="485" y="422" fill="#000" font-family="Helvetica" font-size="11" xml:space="preserve">getState()</text><text x="485" y="435" fill="#000" font-family="Helvetica" font-size="11" xml:space="preserve">verifyStates()</text><text x="485" y="448" fill="#000" font-family="Helvetica" font-size="11" xml:space="preserve">onModelFailure()</text><text x="485" y="461" fill="#000" font-family="Helvetica" font-size="11" xml:space="preserve">transition()</text><text x="485" y="474" fill="#000" font-family="Helvetica" font-size="11" xml:space="preserve">abortModel()</text><text x="485" y="487" fill="#000" font-family="Helvetica" font-size="11" xml:space="preserve">setState()</text><text x="485" y="500" fill="#000" font-family="Helvetica" font-size="11" xml:space="preserve">postNextEvent()</text><text x="485" y="513" fill="#000" font-family="Helvetica" font-size="11" xml:space="preserve">doOnEntry()</text><text x="485" y="526" fill="#000" font-family="Helvetica" font-size="11" xml:space="preserve">doOnExit()</text><text x="485" y="539" fill="#000" font-family="Helvetica" font-size="11" xml:space="preserve">getCurrState()</text><text x="485" y="552" fill="#000" font-family="Helvetica" font-size="11" xml:space="preserve">getPrevState()</text><text x="485" y="565" fill="#000" font-family="Helvetica" font-size="11" xml:space="preserve">getLastEvent()</text><text x="485" y="578" fill="#000" font-family="Helvetica" font-size="11" xml:space="preserve">getNextEvent()</text><text x="485" y="591" fill="#000" font-family="Helvetica" font-size="11" xml:space="preserve">isModelNew()</text><text x="485" y="604" fill="#000" font-family="Helvetica" font-size="11" xml:space="preserve">isModelRunning()</text><text x="485" y="617" fill="#000" font-family="Helvetica" font-size="11" xml:space="preserve">isModelWaiting()</text><text x="485" y="630" fill="#000" font-family="Helvetica" font-size="11" xml:space="preserve">isModelDone()</text><text x="485" y="643" fill="#000" font-family="Helvetica" font-size="11" xml:space="preserve">didModelFail()</text><text x="485" y="656" fill="#000" font-family="Helvetica" font-size="11" xml:space="preserve">getEventLabel()</text><text x="485" y="669" fill="#000" font-family="Helvetica" font-size="11" xml:space="preserve">getStateLabel()</text><text x="485" y="682" fill="#000" font-family="Helvetica" font-size="11" xml:space="preserve">getContextStr()</text><text x="485" y="695" fill="#000" font-family="Helvetica" font-size="11" xml:space="preserve">getPrevContextStr()</text></g><g><rect width="3" height="121" x="412" y="69" fill="#cbcbcb" stroke="none" stroke-opacity="1"/><rect width="111" height="3" x="304" y="187" fill="#cbcbcb" stroke="none" stroke-opacity="1"/><rect width="112" height="122" x="300" y="65" fill="#ffffc0" stroke="#000" stroke-opacity="1" stroke-width="1"/><text x="356" y="78" fill="#000" font-family="Helvetica" font-size="11" font-weight="bold" text-anchor="middle" xml:space="preserve">LabeledValueSet</text><line x1="300" x2="412" y1="80" y2="80" stroke="#000" stroke-opacity="1"/><text x="304" y="93" fill="#000" font-family="Helvetica" font-size="11" text-decoration="underline" xml:space="preserve">UNDEFINED_LABEL</text><line x1="300" x2="412" y1="95" y2="95" stroke="#000" stroke-opacity="1"/><text x="304" y="108" fill="#000" font-family="Helvetica" font-size="11" xml:space="preserve">LabeledValueSet()</text><text x="304" y="121" fill="#000" font-family="Helvetica" font-size="11" xml:space="preserve">~LabeledValueSet()</text><text x="304" y="134" fill="#000" font-family="Helvetica" font-size="11" xml:space="preserve">add()</text><text x="304" y="147" fill="#000" font-family="Helvetica" font-size="11" xml:space="preserve">add()</text><text x="304" y="160" fill="#000" font-family="Helvetica" font-size="11" xml:space="preserve">get()</text><text x="304" y="173" fill="#000" font-family="Helvetica" font-size="11" xml:space="preserve">isDefined()</text><text x="304" y="186" fill="#000" font-family="Helvetica" font-size="11" xml:space="preserve">getLabel()</text></g><g><line x1="416" x2="422" y1="89" y2="95" stroke="#000" stroke-opacity="1"/><line x1="416" x2="422" y1="89" y2="83" stroke="#000" stroke-opacity="1"/><line x1="480" x2="416" y1="89" y2="89" stroke="#000" stroke-opacity="1"/><polygon fill="#000" stroke="#000" stroke-opacity="1" points="480 89 474 95 468 89 474 83"/></g><g><rect width="3" height="45" x="241" y="107" fill="#cbcbcb" stroke="none" stroke-opacity="1"/><rect width="99" height="3" x="145" y="149" fill="#cbcbcb" stroke="none" stroke-opacity="1"/><rect width="100" height="46" x="141" y="103" fill="#ffffc0" stroke="#000" stroke-opacity="1" stroke-width="1"/><text x="191" y="116" fill="#000" font-family="Helvetica" font-size="11" text-anchor="middle" xml:space="preserve">&lt;&lt;typedef&gt;&gt;</text><text x="191" y="131" fill="#000" font-family="Helvetica" font-size="11" font-weight="bold" text-anchor="middle" xml:space="preserve">LabeledValueMap</text><line x1="141" x2="241" y1="133" y2="133" stroke="#000" stroke-opacity="1"/><line x1="141" x2="241" y1="141" y2="141" stroke="#000" stroke-opacity="1"/></g><g><rect width="3" height="75" x="389" y="239" fill="#cbcbcb" stroke="none" stroke-opacity="1"/><rect width="63" height="3" x="329" y="311" fill="#cbcbcb" stroke="none" stroke-opacity="1"/><rect width="64" height="76" x="325" y="235" fill="#ffffc0" stroke="#000" stroke-opacity="1" stroke-width="1"/><text x="357" y="248" fill="#000" font-family="Helvetica" font-size="11" font-weight="bold" text-anchor="middle" xml:space="preserve">StateSet</text><line x1="325" x2="389" y1="250" y2="250" stroke="#000" stroke-opacity="1"/><line x1="325" x2="389" y1="258" y2="258" stroke="#000" stroke-opacity="1"/><text x="329" y="271" fill="#000" font-family="Helvetica" font-size="11" xml:space="preserve">StateSet()</text><text x="329" y="284" fill="#000" font-family="Helvetica" font-size="11" xml:space="preserve">~StateSet()</text><text x="329" y="297" fill="#000" font-family="Helvetica" font-size="11" xml:space="preserve">add()</text><text x="329" y="310" fill="#000" font-family="Helvetica" font-size="11" xml:space="preserve">getState()</text></g><g><line x1="245" x2="251" y1="128" y2="134" stroke="#000" stroke-opacity="1"/><line x1="245" x2="251" y1="128" y2="122" stroke="#000" stroke-opacity="1"/><line x1="299" x2="245" y1="128" y2="128" stroke="#000" stroke-opacity="1"/><polygon fill="#000" stroke="#000" stroke-opacity="1" points="299 128 293 134 287 128 293 122"/></g><g><line x1="358" x2="358" y1="234" y2="197" stroke="#000" stroke-opacity="1"/><line x1="358" x2="352" y1="191" y2="197" stroke="#000" stroke-opacity="1"/><line x1="358" x2="364" y1="191" y2="197" stroke="#000" stroke-opacity="1"/><line x1="352" x2="364" y1="197" y2="197" stroke="#000" stroke-opacity="1"/></g><g><line x1="393" x2="399" y1="274" y2="280" stroke="#000" stroke-opacity="1"/><line x1="393" x2="399" y1="274" y2="268" stroke="#000" stroke-opacity="1"/><line x1="480" x2="393" y1="274" y2="274" stroke="#000" stroke-opacity="1"/><polygon fill="#000" stroke="#000" stroke-opacity="1" points="480 274 474 280 468 274 474 268"/></g><g><rect width="3" height="45" x="240" y="185" fill="#cbcbcb" stroke="none" stroke-opacity="1"/><rect width="93" height="3" x="150" y="227" fill="#cbcbcb" stroke="none" stroke-opacity="1"/><rect width="94" height="46" x="146" y="181" fill="#ffffc0" stroke="#000" stroke-opacity="1" stroke-width="1"/><text x="193" y="194" fill="#000" font-family="Helvetica" font-size="11" text-anchor="middle" xml:space="preserve">&lt;&lt;typedef&gt;&gt;</text><text x="193" y="209" fill="#000" font-family="Helvetica" font-size="11" font-weight="bold" text-anchor="middle" xml:space="preserve">LabeledValuePtr</text><line x1="146" x2="240" y1="211" y2="211" stroke="#000" stroke-opacity="1"/><line x1="146" x2="240" y1="219" y2="219" stroke="#000" stroke-opacity="1"/></g><g><line x1="145" x2="139" y1="205" y2="198" stroke="#000" stroke-opacity="1"/><line x1="145" x2="138" y1="205" y2="210" stroke="#000" stroke-opacity="1"/><line x1="88" x2="145" y1="204" y2="205" stroke="#000" stroke-dasharray="4 4" stroke-opacity="1"/></g><g><line x1="194" x2="199" y1="180" y2="173" stroke="#000" stroke-opacity="1"/><line x1="194" x2="187" y1="180" y2="174" stroke="#000" stroke-opacity="1"/><line x1="193" x2="194" y1="153" y2="180" stroke="#000" stroke-dasharray="4 4" stroke-opacity="1"/></g><g><rect width="3" height="135" x="234" y="260" fill="#cbcbcb" stroke="none" stroke-opacity="1"/><rect width="87" height="3" x="150" y="392" fill="#cbcbcb" stroke="none" stroke-opacity="1"/><rect width="88" height="136" x="146" y="256" fill="#ffffc0" stroke="#000" stroke-opacity="1" stroke-width="1"/><text x="190" y="269" fill="#000" font-family="Helvetica" font-size="11" font-weight="bold" text-anchor="middle" xml:space="preserve">LabeledValue</text><line x1="146" x2="234" y1="271" y2="271" stroke="#000" stroke-opacity="1"/><text x="150" y="284" fill="#000" font-family="Helvetica" font-size="11" xml:space="preserve">value_</text><text x="150" y="297" fill="#000" font-family="Helvetica" font-size="11" xml:space="preserve">label_</text><line x1="146" x2="234" y1="299" y2="299" stroke="#000" stroke-opacity="1"/><text x="150" y="312" fill="#000" font-family="Helvetica" font-size="11" xml:space="preserve">LabeledValue()</text><text x="150" y="325" fill="#000" font-family="Helvetica" font-size="11" xml:space="preserve">~LabeledValue()</text><text x="150" y="338" fill="#000" font-family="Helvetica" font-size="11" xml:space="preserve">getValue()</text><text x="150" y="351" fill="#000" font-family="Helvetica" font-size="11" xml:space="preserve">getLabel()</text><text x="150" y="364" fill="#000" font-family="Helvetica" font-size="11" xml:space="preserve">operator ==()</text><text x="150" y="377" fill="#000" font-family="Helvetica" font-size="11" xml:space="preserve">operator !=()</text><text x="150" y="390" fill="#000" font-family="Helvetica" font-size="11" xml:space="preserve">operator &lt;()</text></g><g><line x1="191" x2="191" y1="426" y2="402" stroke="#000" stroke-opacity="1"/><line x1="191" x2="185" y1="396" y2="402" stroke="#000" stroke-opacity="1"/><line x1="191" x2="197" y1="396" y2="402" stroke="#000" stroke-opacity="1"/><line x1="185" x2="197" y1="402" y2="402" stroke="#000" stroke-opacity="1"/></g><g><line x1="145" x2="139" y1="324" y2="317" stroke="#000" stroke-opacity="1"/><line x1="145" x2="138" y1="324" y2="329" stroke="#000" stroke-opacity="1"/><line x1="88" x2="145" y1="323" y2="324" stroke="#000" stroke-dasharray="4 4" stroke-opacity="1"/></g><g><line x1="193" x2="199" y1="255" y2="249" stroke="#000" stroke-opacity="1"/><line x1="193" x2="187" y1="255" y2="248" stroke="#000" stroke-opacity="1"/><line x1="194" x2="193" y1="231" y2="255" stroke="#000" stroke-dasharray="4 4" stroke-opacity="1"/></g></svg>