<svg xmlns="http://www.w3.org/2000/svg" width="847" height="932" version="1.1"><g><rect width="3" height="291" x="175" y="5" fill="#cbcbcb" stroke="none" stroke-opacity="1"/><rect width="161" height="3" x="17" y="293" fill="#cbcbcb" stroke="none" stroke-opacity="1"/><rect width="162" height="292" x="13" y="1" fill="#c0ffff" stroke="#000" stroke-opacity="1" stroke-width="1"/><text x="94" y="14" fill="#000" font-family="Helvetica" font-size="11" font-weight="bold" text-anchor="middle" xml:space="preserve">D2Process</text><line x1="13" x2="175" y1="16" y2="16" stroke="#000" stroke-opacity="1"/><text x="17" y="29" fill="#000" font-family="Helvetica" font-size="11" text-decoration="underline" xml:space="preserve">QUEUE_RESTART_PERCENT</text><text x="17" y="42" fill="#000" font-family="Helvetica" font-size="11" xml:space="preserve">reconf_queue_flag_</text><line x1="13" x2="175" y1="44" y2="44" stroke="#000" stroke-opacity="1"/><text x="17" y="57" fill="#000" font-family="Helvetica" font-size="11" xml:space="preserve">D2Process()</text><text x="17" y="70" fill="#000" font-family="Helvetica" font-size="11" xml:space="preserve">init()</text><text x="17" y="83" fill="#000" font-family="Helvetica" font-size="11" xml:space="preserve">run()</text><text x="17" y="96" fill="#000" font-family="Helvetica" font-size="11" xml:space="preserve">shutdown()</text><text x="17" y="109" fill="#000" font-family="Helvetica" font-size="11" xml:space="preserve">configure()</text><text x="17" y="122" fill="#000" font-family="Helvetica" font-size="11" xml:space="preserve">command()</text><text x="17" y="135" fill="#000" font-family="Helvetica" font-size="11" xml:space="preserve">~D2Process()</text><text x="17" y="148" fill="#000" font-family="Helvetica" font-size="11" xml:space="preserve">checkQueueStatus()</text><text x="17" y="161" fill="#000" font-family="Helvetica" font-size="11" xml:space="preserve">reconfigureQueueMgr()</text><text x="17" y="174" fill="#000" font-family="Helvetica" font-size="11" xml:space="preserve">runIO()</text><text x="17" y="187" fill="#000" font-family="Helvetica" font-size="11" xml:space="preserve">canShutdown()</text><text x="17" y="200" fill="#000" font-family="Helvetica" font-size="11" xml:space="preserve">setReconfQueueFlag()</text><text x="17" y="213" fill="#000" font-family="Helvetica" font-size="11" xml:space="preserve">setShutdownType()</text><text x="17" y="226" fill="#000" font-family="Helvetica" font-size="11" xml:space="preserve">getD2CfgMgr()</text><text x="17" y="239" fill="#000" font-family="Helvetica" font-size="11" xml:space="preserve">getD2QueueMgr()</text><text x="17" y="252" fill="#000" font-family="Helvetica" font-size="11" xml:space="preserve">getD2UpdateMgr()</text><text x="17" y="265" fill="#000" font-family="Helvetica" font-size="11" xml:space="preserve">getReconfQueueFlag()</text><text x="17" y="278" fill="#000" font-family="Helvetica" font-size="11" xml:space="preserve">getShutdownType()</text><text x="17" y="291" fill="#000" font-family="Helvetica" font-size="11" text-decoration="underline" xml:space="preserve">getShutdownTypeStr()</text></g><g><rect width="3" height="45" x="332" y="412" fill="#cbcbcb" stroke="none" stroke-opacity="1"/><rect width="73" height="3" x="262" y="454" fill="#cbcbcb" stroke="none" stroke-opacity="1"/><rect width="74" height="46" x="258" y="408" fill="#c0ffff" stroke="#000" stroke-opacity="1" stroke-width="1"/><text x="295" y="421" fill="#000" font-family="Helvetica" font-size="11" text-anchor="middle" xml:space="preserve">&lt;&lt;typedef&gt;&gt;</text><text x="295" y="436" fill="#000" font-family="Helvetica" font-size="11" font-weight="bold" text-anchor="middle" xml:space="preserve">IOServicePtr</text><line x1="258" x2="332" y1="438" y2="438" stroke="#000" stroke-opacity="1"/><line x1="258" x2="332" y1="446" y2="446" stroke="#000" stroke-opacity="1"/></g><g><rect width="3" height="511" x="617" y="285" fill="#cbcbcb" stroke="none" stroke-opacity="1"/><rect width="199" height="3" x="421" y="793" fill="#cbcbcb" stroke="none" stroke-opacity="1"/><rect width="200" height="512" x="417" y="281" fill="#ffffc0" stroke="#000" stroke-opacity="1" stroke-width="1"/><text x="517" y="294" fill="#000" font-family="Helvetica" font-size="11" font-weight="bold" text-anchor="middle" xml:space="preserve">NameChangeTransaction</text><line x1="417" x2="617" y1="296" y2="296" stroke="#000" stroke-opacity="1"/><text x="421" y="309" fill="#000" font-family="Helvetica" font-size="11" text-decoration="underline" xml:space="preserve">READY_ST</text><text x="421" y="322" fill="#000" font-family="Helvetica" font-size="11" text-decoration="underline" xml:space="preserve">SELECTING_FWD_SERVER_ST</text><text x="421" y="335" fill="#000" font-family="Helvetica" font-size="11" text-decoration="underline" xml:space="preserve">SELECTING_REV_SERVER_ST</text><text x="421" y="348" fill="#000" font-family="Helvetica" font-size="11" text-decoration="underline" xml:space="preserve">PROCESS_TRANS_OK_ST</text><text x="421" y="361" fill="#000" font-family="Helvetica" font-size="11" text-decoration="underline" xml:space="preserve">PROCESS_TRANS_FAILED_ST</text><text x="421" y="374" fill="#000" font-family="Helvetica" font-size="11" text-decoration="underline" xml:space="preserve">NCT_DERIVED_STATE_MIN</text><text x="421" y="387" fill="#000" font-family="Helvetica" font-size="11" text-decoration="underline" xml:space="preserve">SELECT_SERVER_EVT</text><text x="421" y="400" fill="#000" font-family="Helvetica" font-size="11" text-decoration="underline" xml:space="preserve">SERVER_SELECTED_EVT</text><text x="421" y="413" fill="#000" font-family="Helvetica" font-size="11" text-decoration="underline" xml:space="preserve">SERVER_IO_ERROR_EVT</text><text x="421" y="426" fill="#000" font-family="Helvetica" font-size="11" text-decoration="underline" xml:space="preserve">NO_MORE_SERVERS_EVT</text><text x="421" y="439" fill="#000" font-family="Helvetica" font-size="11" text-decoration="underline" xml:space="preserve">IO_COMPLETED_EVT</text><text x="421" y="452" fill="#000" font-family="Helvetica" font-size="11" text-decoration="underline" xml:space="preserve">UPDATE_OK_EVT</text><text x="421" y="465" fill="#000" font-family="Helvetica" font-size="11" text-decoration="underline" xml:space="preserve">UPDATE_FAILED_EVT</text><text x="421" y="478" fill="#000" font-family="Helvetica" font-size="11" text-decoration="underline" xml:space="preserve">NCT_DERIVED_EVENT_MIN</text><text x="421" y="491" fill="#000" font-family="Helvetica" font-size="11" text-decoration="underline" xml:space="preserve">DNS_UPDATE_DEFAULT_TIMEOUT</text><text x="421" y="504" fill="#000" font-family="Helvetica" font-size="11" text-decoration="underline" xml:space="preserve">MAX_UPDATE_TRIES_PER_SERVER</text><text x="421" y="517" fill="#000" font-family="Helvetica" font-size="11" xml:space="preserve">forward_change_completed_</text><text x="421" y="530" fill="#000" font-family="Helvetica" font-size="11" xml:space="preserve">reverse_change_completed_</text><text x="421" y="543" fill="#000" font-family="Helvetica" font-size="11" xml:space="preserve">next_server_pos_</text><text x="421" y="556" fill="#000" font-family="Helvetica" font-size="11" xml:space="preserve">update_attempts_</text><line x1="417" x2="617" y1="558" y2="558" stroke="#000" stroke-opacity="1"/><text x="421" y="571" fill="#000" font-family="Helvetica" font-size="11" xml:space="preserve">NameChangeTransaction()</text><text x="421" y="584" fill="#000" font-family="Helvetica" font-size="11" xml:space="preserve">~NameChangeTransaction()</text><text x="421" y="597" fill="#000" font-family="Helvetica" font-size="11" xml:space="preserve">startTransaction()</text><text x="421" y="610" fill="#000" font-family="Helvetica" font-size="11" xml:space="preserve">operator ()()</text><text x="421" y="623" fill="#000" font-family="Helvetica" font-size="11" xml:space="preserve">getNcr()</text><text x="421" y="636" fill="#000" font-family="Helvetica" font-size="11" xml:space="preserve">getTransactionKey()</text><text x="421" y="649" fill="#000" font-family="Helvetica" font-size="11" xml:space="preserve">getNcrStatus()</text><text x="421" y="662" fill="#000" font-family="Helvetica" font-size="11" xml:space="preserve">getForwardDomain()</text><text x="421" y="675" fill="#000" font-family="Helvetica" font-size="11" xml:space="preserve">getReverseDomain()</text><text x="421" y="688" fill="#000" font-family="Helvetica" font-size="11" xml:space="preserve">getCurrentServer()</text><text x="421" y="701" fill="#000" font-family="Helvetica" font-size="11" xml:space="preserve">getDNSClient()</text><text x="421" y="714" fill="#000" font-family="Helvetica" font-size="11" xml:space="preserve">getDnsUpdateRequest()</text><text x="421" y="727" fill="#000" font-family="Helvetica" font-size="11" xml:space="preserve">getDnsUpdateStatus()</text><text x="421" y="740" fill="#000" font-family="Helvetica" font-size="11" xml:space="preserve">getDnsUpdateResponse()</text><text x="421" y="753" fill="#000" font-family="Helvetica" font-size="11" xml:space="preserve">getForwardChangeCompleted()</text><text x="421" y="766" fill="#000" font-family="Helvetica" font-size="11" xml:space="preserve">getReverseChangeCompleted()</text><text x="421" y="779" fill="#000" font-family="Helvetica" font-size="11" xml:space="preserve">getUpdateAttempts()</text><text x="421" y="792" fill="#000" font-family="Helvetica" font-size="11" xml:space="preserve">getAddressRRType()</text></g><g><line x1="336" x2="342" y1="432" y2="438" stroke="#000" stroke-opacity="1"/><line x1="336" x2="342" y1="432" y2="426" stroke="#000" stroke-opacity="1"/><line x1="416" x2="336" y1="432" y2="432" stroke="#000" stroke-opacity="1"/><polygon fill="#000" stroke="#000" stroke-opacity="1" points="416 432 410 438 404 432 410 426"/></g><g><rect width="3" height="45" x="586" y="211" fill="#cbcbcb" stroke="none" stroke-opacity="1"/><rect width="153" height="3" x="436" y="253" fill="#cbcbcb" stroke="none" stroke-opacity="1"/><rect width="154" height="46" x="432" y="207" fill="#ffffc0" stroke="#000" stroke-opacity="1" stroke-width="1"/><text x="509" y="220" fill="#000" font-family="Helvetica" font-size="11" text-anchor="middle" xml:space="preserve">&lt;&lt;typedef&gt;&gt;</text><text x="509" y="235" fill="#000" font-family="Helvetica" font-size="11" font-weight="bold" text-anchor="middle" xml:space="preserve">NameChangeTransactionPtr</text><line x1="432" x2="586" y1="237" y2="237" stroke="#000" stroke-opacity="1"/><line x1="432" x2="586" y1="245" y2="245" stroke="#000" stroke-opacity="1"/></g><g><line x1="511" x2="517" y1="280" y2="274" stroke="#000" stroke-opacity="1"/><line x1="511" x2="505" y1="280" y2="274" stroke="#000" stroke-opacity="1"/><line x1="511" x2="511" y1="257" y2="280" stroke="#000" stroke-dasharray="4 4" stroke-opacity="1"/></g><g><rect width="3" height="45" x="361" y="487" fill="#cbcbcb" stroke="none" stroke-opacity="1"/><rect width="135" height="3" x="229" y="529" fill="#cbcbcb" stroke="none" stroke-opacity="1"/><rect width="136" height="46" x="225" y="483" fill="#c0ffff" stroke="#000" stroke-opacity="1" stroke-width="1"/><text x="293" y="496" fill="#000" font-family="Helvetica" font-size="11" text-anchor="middle" xml:space="preserve">&lt;&lt;typedef&gt;&gt;</text><text x="293" y="511" fill="#000" font-family="Helvetica" font-size="11" font-weight="bold" text-anchor="middle" xml:space="preserve">NameChangeRequestPtr</text><line x1="225" x2="361" y1="513" y2="513" stroke="#000" stroke-opacity="1"/><line x1="225" x2="361" y1="521" y2="521" stroke="#000" stroke-opacity="1"/></g><g><line x1="365" x2="371" y1="507" y2="513" stroke="#000" stroke-opacity="1"/><line x1="365" x2="371" y1="507" y2="501" stroke="#000" stroke-opacity="1"/><line x1="416" x2="365" y1="507" y2="507" stroke="#000" stroke-opacity="1"/><polygon fill="#000" stroke="#000" stroke-opacity="1" points="416 507 410 513 404 507 410 501"/></g><g><text x="506" y="138" fill="#000" font-family="Helvetica" font-size="11" xml:space="preserve">transaction_list_</text></g><g><text x="650" y="529" fill="#000" font-family="Helvetica" font-size="11" xml:space="preserve">dns_update_request_</text></g><g><text x="312" y="650" fill="#000" font-family="Helvetica" font-size="11" xml:space="preserve">reverse_domain_</text></g><g><text x="626" y="637" fill="#000" font-family="Helvetica" font-size="11" xml:space="preserve">dns_update_response_</text></g><g><text x="312" y="580" fill="#000" font-family="Helvetica" font-size="11" xml:space="preserve">forward_domain_</text></g><g><text x="714" y="313" fill="#000" font-family="Helvetica" font-size="11" xml:space="preserve">dns_client_</text></g><g><text x="134" y="354" fill="#000" font-family="Helvetica" font-size="11" xml:space="preserve">queue_mgr_</text></g><g><text x="311" y="35" fill="#000" font-family="Helvetica" font-size="11" xml:space="preserve">update_mgr_</text></g><g><text x="375" y="504" fill="#000" font-family="Helvetica" font-size="11" xml:space="preserve">ncr_</text></g><g><text x="303" y="404" fill="#000" font-family="Helvetica" font-size="11" xml:space="preserve">io_service_</text></g><g><text x="346" y="429" fill="#000" font-family="Helvetica" font-size="11" xml:space="preserve">io_service_</text></g><g><text x="85" y="329" fill="#000" font-family="Helvetica" font-size="11" xml:space="preserve">queue_mgr_</text></g><g><rect width="3" height="45" x="346" y="588" fill="#cbcbcb" stroke="none" stroke-opacity="1"/><rect width="89" height="3" x="260" y="630" fill="#cbcbcb" stroke="none" stroke-opacity="1"/><rect width="90" height="46" x="256" y="584" fill="#c0ffff" stroke="#000" stroke-opacity="1" stroke-width="1"/><text x="301" y="597" fill="#000" font-family="Helvetica" font-size="11" text-anchor="middle" xml:space="preserve">&lt;&lt;typedef&gt;&gt;</text><text x="301" y="612" fill="#000" font-family="Helvetica" font-size="11" font-weight="bold" text-anchor="middle" xml:space="preserve">DdnsDomainPtr</text><line x1="256" x2="346" y1="614" y2="614" stroke="#000" stroke-opacity="1"/><line x1="256" x2="346" y1="622" y2="622" stroke="#000" stroke-opacity="1"/></g><g><rect width="3" height="45" x="120" y="337" fill="#cbcbcb" stroke="none" stroke-opacity="1"/><rect width="91" height="3" x="32" y="379" fill="#cbcbcb" stroke="none" stroke-opacity="1"/><rect width="92" height="46" x="28" y="333" fill="#c0ffff" stroke="#000" stroke-opacity="1" stroke-width="1"/><text x="74" y="346" fill="#000" font-family="Helvetica" font-size="11" text-anchor="middle" xml:space="preserve">&lt;&lt;typedef&gt;&gt;</text><text x="74" y="361" fill="#000" font-family="Helvetica" font-size="11" font-weight="bold" text-anchor="middle" xml:space="preserve">D2QueueMgrPtr</text><line x1="28" x2="120" y1="363" y2="363" stroke="#000" stroke-opacity="1"/><line x1="28" x2="120" y1="371" y2="371" stroke="#000" stroke-opacity="1"/></g><g><rect width="3" height="45" x="740" y="321" fill="#cbcbcb" stroke="none" stroke-opacity="1"/><rect width="75" height="3" x="668" y="363" fill="#cbcbcb" stroke="none" stroke-opacity="1"/><rect width="76" height="46" x="664" y="317" fill="#ffffc0" stroke="#000" stroke-opacity="1" stroke-width="1"/><text x="702" y="330" fill="#000" font-family="Helvetica" font-size="11" text-anchor="middle" xml:space="preserve">&lt;&lt;typedef&gt;&gt;</text><text x="702" y="345" fill="#000" font-family="Helvetica" font-size="11" font-weight="bold" text-anchor="middle" xml:space="preserve">DNSClientPtr</text><line x1="664" x2="740" y1="347" y2="347" stroke="#000" stroke-opacity="1"/><line x1="664" x2="740" y1="355" y2="355" stroke="#000" stroke-opacity="1"/></g><g><rect width="3" height="45" x="760" y="553" fill="#cbcbcb" stroke="none" stroke-opacity="1"/><rect width="119" height="3" x="644" y="595" fill="#cbcbcb" stroke="none" stroke-opacity="1"/><rect width="120" height="46" x="640" y="549" fill="#ffffc0" stroke="#000" stroke-opacity="1" stroke-width="1"/><text x="700" y="562" fill="#000" font-family="Helvetica" font-size="11" text-anchor="middle" xml:space="preserve">&lt;&lt;typedef&gt;&gt;</text><text x="700" y="577" fill="#000" font-family="Helvetica" font-size="11" font-weight="bold" text-anchor="middle" xml:space="preserve">D2UpdateMessagePtr</text><line x1="640" x2="760" y1="579" y2="579" stroke="#000" stroke-opacity="1"/><line x1="640" x2="760" y1="587" y2="587" stroke="#000" stroke-opacity="1"/></g><g><line x1="416" x2="302" y1="563" y2="563" stroke="#000" stroke-opacity="1"/><polygon fill="#000" stroke="#000" stroke-opacity="1" points="416 563 410 569 404 563 410 557"/></g><g><line x1="416" x2="302" y1="656" y2="656" stroke="#000" stroke-opacity="1"/><polygon fill="#000" stroke="#000" stroke-opacity="1" points="416 656 410 662 404 656 410 650"/></g><g><line x1="75" x2="80" y1="332" y2="325" stroke="#000" stroke-opacity="1"/><line x1="75" x2="68" y1="332" y2="326" stroke="#000" stroke-opacity="1"/><line x1="74" x2="75" y1="297" y2="332" stroke="#000" stroke-opacity="1"/><polygon fill="#000" stroke="#000" stroke-opacity="1" points="74 297 80 302 74 308 68 303"/></g><g><line x1="621" x2="704" y1="295" y2="295" stroke="#000" stroke-opacity="1"/><polygon fill="#000" stroke="#000" stroke-opacity="1" points="621 295 627 289 633 295 627 301"/></g><g><line x1="621" x2="682" y1="534" y2="534" stroke="#000" stroke-opacity="1"/><polygon fill="#000" stroke="#000" stroke-opacity="1" points="621 534 627 528 633 534 627 540"/></g><g><line x1="621" x2="688" y1="618" y2="618" stroke="#000" stroke-opacity="1"/><polygon fill="#000" stroke="#000" stroke-opacity="1" points="621 618 627 612 633 618 627 624"/></g><g><line x1="688" x2="682" y1="599" y2="605" stroke="#000" stroke-opacity="1"/><line x1="688" x2="694" y1="599" y2="605" stroke="#000" stroke-opacity="1"/><line x1="688" x2="688" y1="618" y2="599" stroke="#000" stroke-opacity="1"/></g><g><line x1="302" x2="296" y1="634" y2="640" stroke="#000" stroke-opacity="1"/><line x1="302" x2="308" y1="634" y2="640" stroke="#000" stroke-opacity="1"/><line x1="302" x2="302" y1="656" y2="634" stroke="#000" stroke-opacity="1"/></g><g><line x1="302" x2="308" y1="583" y2="577" stroke="#000" stroke-opacity="1"/><line x1="302" x2="296" y1="583" y2="577" stroke="#000" stroke-opacity="1"/><line x1="302" x2="302" y1="563" y2="583" stroke="#000" stroke-opacity="1"/></g><g><line x1="704" x2="710" y1="316" y2="310" stroke="#000" stroke-opacity="1"/><line x1="704" x2="698" y1="316" y2="310" stroke="#000" stroke-opacity="1"/><line x1="704" x2="704" y1="295" y2="316" stroke="#000" stroke-opacity="1"/></g><g><line x1="682" x2="688" y1="548" y2="542" stroke="#000" stroke-opacity="1"/><line x1="682" x2="676" y1="548" y2="542" stroke="#000" stroke-opacity="1"/><line x1="682" x2="682" y1="534" y2="548" stroke="#000" stroke-opacity="1"/></g><g><rect width="3" height="265" x="383" y="112" fill="#cbcbcb" stroke="none" stroke-opacity="1"/><rect width="177" height="3" x="209" y="374" fill="#cbcbcb" stroke="none" stroke-opacity="1"/><rect width="178" height="266" x="205" y="108" fill="#ffffc0" stroke="#000" stroke-opacity="1" stroke-width="1"/><text x="294" y="121" fill="#000" font-family="Helvetica" font-size="11" font-weight="bold" text-anchor="middle" xml:space="preserve">D2UpdateMgr</text><line x1="205" x2="383" y1="123" y2="123" stroke="#000" stroke-opacity="1"/><text x="209" y="136" fill="#000" font-family="Helvetica" font-size="11" text-decoration="underline" xml:space="preserve">MAX_TRANSACTIONS_DEFAULT</text><text x="209" y="149" fill="#000" font-family="Helvetica" font-size="11" xml:space="preserve">max_transactions_</text><line x1="205" x2="383" y1="151" y2="151" stroke="#000" stroke-opacity="1"/><text x="209" y="164" fill="#000" font-family="Helvetica" font-size="11" xml:space="preserve">D2UpdateMgr()</text><text x="209" y="177" fill="#000" font-family="Helvetica" font-size="11" xml:space="preserve">~D2UpdateMgr()</text><text x="209" y="190" fill="#000" font-family="Helvetica" font-size="11" xml:space="preserve">sweep()</text><text x="209" y="203" fill="#000" font-family="Helvetica" font-size="11" xml:space="preserve">checkFinishedTransactions()</text><text x="209" y="216" fill="#000" font-family="Helvetica" font-size="11" xml:space="preserve">pickNextJob()</text><text x="209" y="229" fill="#000" font-family="Helvetica" font-size="11" xml:space="preserve">makeTransaction()</text><text x="209" y="242" fill="#000" font-family="Helvetica" font-size="11" xml:space="preserve">getIOService()</text><text x="209" y="255" fill="#000" font-family="Helvetica" font-size="11" xml:space="preserve">getMaxTransactions()</text><text x="209" y="268" fill="#000" font-family="Helvetica" font-size="11" xml:space="preserve">setMaxTransactions()</text><text x="209" y="281" fill="#000" font-family="Helvetica" font-size="11" xml:space="preserve">findTransaction()</text><text x="209" y="294" fill="#000" font-family="Helvetica" font-size="11" xml:space="preserve">transactionListEnd()</text><text x="209" y="307" fill="#000" font-family="Helvetica" font-size="11" xml:space="preserve">transactionListBegin()</text><text x="209" y="320" fill="#000" font-family="Helvetica" font-size="11" xml:space="preserve">hasTransaction()</text><text x="209" y="333" fill="#000" font-family="Helvetica" font-size="11" xml:space="preserve">removeTransaction()</text><text x="209" y="346" fill="#000" font-family="Helvetica" font-size="11" xml:space="preserve">clearTransactionList()</text><text x="209" y="359" fill="#000" font-family="Helvetica" font-size="11" xml:space="preserve">getQueueCount()</text><text x="209" y="372" fill="#000" font-family="Helvetica" font-size="11" xml:space="preserve">getTransactionCount()</text></g><g><rect width="3" height="115" x="756" y="385" fill="#cbcbcb" stroke="none" stroke-opacity="1"/><rect width="89" height="3" x="670" y="497" fill="#cbcbcb" stroke="none" stroke-opacity="1"/><rect width="90" height="116" x="666" y="381" fill="#ffffc0" stroke="#000" stroke-opacity="1" stroke-width="1"/><text x="711" y="394" fill="#000" font-family="Helvetica" font-size="11" font-weight="bold" text-anchor="middle" xml:space="preserve">DNSClient</text><line x1="666" x2="756" y1="396" y2="396" stroke="#000" stroke-opacity="1"/><line x1="666" x2="756" y1="404" y2="404" stroke="#000" stroke-opacity="1"/><text x="670" y="417" fill="#000" font-family="Helvetica" font-size="11" xml:space="preserve">DNSClient()</text><text x="670" y="430" fill="#000" font-family="Helvetica" font-size="11" xml:space="preserve">~DNSClient()</text><text x="670" y="443" fill="#000" font-family="Helvetica" font-size="11" xml:space="preserve">DNSClient()</text><text x="670" y="456" fill="#000" font-family="Helvetica" font-size="11" xml:space="preserve">operator =()</text><text x="670" y="469" fill="#000" font-family="Helvetica" font-size="11" text-decoration="underline" xml:space="preserve">getMaxTimeout()</text><text x="670" y="482" fill="#000" font-family="Helvetica" font-size="11" xml:space="preserve">doUpdate()</text><text x="670" y="495" fill="#000" font-family="Helvetica" font-size="11" xml:space="preserve">doUpdate()</text></g><g><line x1="124" x2="130" y1="357" y2="362" stroke="#000" stroke-opacity="1"/><line x1="124" x2="129" y1="357" y2="350" stroke="#000" stroke-opacity="1"/><line x1="204" x2="124" y1="356" y2="357" stroke="#000" stroke-opacity="1"/><polygon fill="#000" stroke="#000" stroke-opacity="1" points="204 356 198 362 192 356 197 350"/></g><g><line x1="706" x2="712" y1="380" y2="374" stroke="#000" stroke-opacity="1"/><line x1="706" x2="700" y1="380" y2="374" stroke="#000" stroke-opacity="1"/><line x1="706" x2="706" y1="367" y2="380" stroke="#000" stroke-dasharray="4 4" stroke-opacity="1"/></g><g><line x1="293" x2="298" y1="407" y2="400" stroke="#000" stroke-opacity="1"/><line x1="293" x2="286" y1="407" y2="401" stroke="#000" stroke-opacity="1"/><line x1="292" x2="293" y1="378" y2="407" stroke="#000" stroke-opacity="1"/><polygon fill="#000" stroke="#000" stroke-opacity="1" points="292 378 298 383 292 389 286 384"/></g><g><rect width="3" height="265" x="831" y="654" fill="#cbcbcb" stroke="none" stroke-opacity="1"/><rect width="107" height="3" x="727" y="916" fill="#cbcbcb" stroke="none" stroke-opacity="1"/><rect width="108" height="266" x="723" y="650" fill="#ffffc0" stroke="#000" stroke-opacity="1" stroke-width="1"/><text x="777" y="663" fill="#000" font-family="Helvetica" font-size="11" font-weight="bold" text-anchor="middle" xml:space="preserve">D2UpdateMessage</text><line x1="723" x2="831" y1="665" y2="665" stroke="#000" stroke-opacity="1"/><text x="727" y="678" fill="#000" font-family="Helvetica" font-size="11" xml:space="preserve">message_</text><line x1="723" x2="831" y1="680" y2="680" stroke="#000" stroke-opacity="1"/><text x="727" y="693" fill="#000" font-family="Helvetica" font-size="11" xml:space="preserve">D2UpdateMessage()</text><text x="727" y="706" fill="#000" font-family="Helvetica" font-size="11" xml:space="preserve">D2UpdateMessage()</text><text x="727" y="719" fill="#000" font-family="Helvetica" font-size="11" xml:space="preserve">operator =()</text><text x="727" y="732" fill="#000" font-family="Helvetica" font-size="11" xml:space="preserve">getQRFlag()</text><text x="727" y="745" fill="#000" font-family="Helvetica" font-size="11" xml:space="preserve">getId()</text><text x="727" y="758" fill="#000" font-family="Helvetica" font-size="11" xml:space="preserve">setId()</text><text x="727" y="771" fill="#000" font-family="Helvetica" font-size="11" xml:space="preserve">getRcode()</text><text x="727" y="784" fill="#000" font-family="Helvetica" font-size="11" xml:space="preserve">setRcode()</text><text x="727" y="797" fill="#000" font-family="Helvetica" font-size="11" xml:space="preserve">getRRCount()</text><text x="727" y="810" fill="#000" font-family="Helvetica" font-size="11" xml:space="preserve">beginSection()</text><text x="727" y="823" fill="#000" font-family="Helvetica" font-size="11" xml:space="preserve">endSection()</text><text x="727" y="836" fill="#000" font-family="Helvetica" font-size="11" xml:space="preserve">setZone()</text><text x="727" y="849" fill="#000" font-family="Helvetica" font-size="11" xml:space="preserve">getZone()</text><text x="727" y="862" fill="#000" font-family="Helvetica" font-size="11" xml:space="preserve">addRRset()</text><text x="727" y="875" fill="#000" font-family="Helvetica" font-size="11" xml:space="preserve">toWire()</text><text x="727" y="888" fill="#000" font-family="Helvetica" font-size="11" xml:space="preserve">fromWire()</text><text x="727" y="901" fill="#000" font-family="Helvetica" font-size="11" text-decoration="underline" xml:space="preserve">ddnsToDnsSection()</text><text x="727" y="914" fill="#000" font-family="Helvetica" font-size="11" xml:space="preserve">validateResponse()</text></g><g><rect width="3" height="45" x="349" y="43" fill="#cbcbcb" stroke="none" stroke-opacity="1"/><rect width="93" height="3" x="259" y="85" fill="#cbcbcb" stroke="none" stroke-opacity="1"/><rect width="94" height="46" x="255" y="39" fill="#ffffc0" stroke="#000" stroke-opacity="1" stroke-width="1"/><text x="302" y="52" fill="#000" font-family="Helvetica" font-size="11" text-anchor="middle" xml:space="preserve">&lt;&lt;typedef&gt;&gt;</text><text x="302" y="67" fill="#000" font-family="Helvetica" font-size="11" font-weight="bold" text-anchor="middle" xml:space="preserve">D2UpdateMgrPtr</text><line x1="255" x2="349" y1="69" y2="69" stroke="#000" stroke-opacity="1"/><line x1="255" x2="349" y1="77" y2="77" stroke="#000" stroke-opacity="1"/></g><g><line x1="764" x2="776" y1="574" y2="574" stroke="#000" stroke-dasharray="4 4" stroke-opacity="1"/></g><g><rect width="3" height="45" x="539" y="146" fill="#cbcbcb" stroke="none" stroke-opacity="1"/><rect width="87" height="3" x="455" y="188" fill="#cbcbcb" stroke="none" stroke-opacity="1"/><rect width="88" height="46" x="451" y="142" fill="#ffffc0" stroke="#000" stroke-opacity="1" stroke-width="1"/><text x="495" y="155" fill="#000" font-family="Helvetica" font-size="11" text-anchor="middle" xml:space="preserve">&lt;&lt;typedef&gt;&gt;</text><text x="495" y="170" fill="#000" font-family="Helvetica" font-size="11" font-weight="bold" text-anchor="middle" xml:space="preserve">TransactionList</text><line x1="451" x2="539" y1="172" y2="172" stroke="#000" stroke-opacity="1"/><line x1="451" x2="539" y1="180" y2="180" stroke="#000" stroke-opacity="1"/></g><g><line x1="179" x2="301" y1="17" y2="17" stroke="#000" stroke-opacity="1"/><polygon fill="#000" stroke="#000" stroke-opacity="1" points="179 17 185 11 191 17 185 23"/></g><g><line x1="504" x2="509" y1="206" y2="199" stroke="#000" stroke-opacity="1"/><line x1="504" x2="497" y1="206" y2="200" stroke="#000" stroke-opacity="1"/><line x1="502" x2="504" y1="192" y2="206" stroke="#000" stroke-dasharray="4 4" stroke-opacity="1"/></g><g><line x1="301" x2="307" y1="107" y2="101" stroke="#000" stroke-opacity="1"/><line x1="301" x2="295" y1="107" y2="100" stroke="#000" stroke-opacity="1"/><line x1="302" x2="301" y1="89" y2="107" stroke="#000" stroke-dasharray="4 4" stroke-opacity="1"/></g><g><line x1="387" x2="497" y1="120" y2="120" stroke="#000" stroke-opacity="1"/><polygon fill="#000" stroke="#000" stroke-opacity="1" points="387 120 393 114 399 120 393 126"/></g><g><line x1="776" x2="782" y1="649" y2="643" stroke="#000" stroke-opacity="1"/><line x1="776" x2="770" y1="649" y2="643" stroke="#000" stroke-opacity="1"/><line x1="776" x2="776" y1="574" y2="649" stroke="#000" stroke-dasharray="4 4" stroke-opacity="1"/></g><g><line x1="497" x2="503" y1="141" y2="135" stroke="#000" stroke-opacity="1"/><line x1="497" x2="491" y1="141" y2="135" stroke="#000" stroke-opacity="1"/><line x1="497" x2="497" y1="120" y2="141" stroke="#000" stroke-opacity="1"/></g><g><line x1="301" x2="307" y1="38" y2="32" stroke="#000" stroke-opacity="1"/><line x1="301" x2="295" y1="38" y2="32" stroke="#000" stroke-opacity="1"/><line x1="301" x2="301" y1="17" y2="38" stroke="#000" stroke-opacity="1"/></g></svg>