<svg xmlns="http://www.w3.org/2000/svg" width="1211" height="918" version="1.1"><g><rect width="2" height="212" x="144" y="237" fill="#cbcbcb" stroke="none" stroke-opacity="1"/><rect width="130" height="2" x="16" y="447" fill="#cbcbcb" stroke="none" stroke-opacity="1"/><rect width="131" height="213" x="13" y="234" fill="#ffffc0" stroke="#000" stroke-opacity="1" stroke-width="1"/><text x="79" y="246" fill="#000" font-family=".Helvetica Neue DeskInterface" font-size="11" font-weight="bold" text-anchor="middle" xml:space="preserve">PgSqlHostDataSource</text><line x1="13" x2="144" y1="247" y2="247" stroke="#000" stroke-opacity="1"/><line x1="13" x2="144" y1="253" y2="253" stroke="#000" stroke-opacity="1"/><text x="16" y="265" fill="#000" font-family=".Helvetica Neue DeskInterface" font-size="11" xml:space="preserve">PgSqlHostDataSource()</text><text x="16" y="277" fill="#000" font-family=".Helvetica Neue DeskInterface" font-size="11" xml:space="preserve">~PgSqlHostDataSource()</text><text x="16" y="289" fill="#000" font-family=".Helvetica Neue DeskInterface" font-size="11" xml:space="preserve">getAll()</text><text x="16" y="301" fill="#000" font-family=".Helvetica Neue DeskInterface" font-size="11" xml:space="preserve">getAll()</text><text x="16" y="313" fill="#000" font-family=".Helvetica Neue DeskInterface" font-size="11" xml:space="preserve">getAll4()</text><text x="16" y="325" fill="#000" font-family=".Helvetica Neue DeskInterface" font-size="11" xml:space="preserve">get4()</text><text x="16" y="337" fill="#000" font-family=".Helvetica Neue DeskInterface" font-size="11" xml:space="preserve">get4()</text><text x="16" y="349" fill="#000" font-family=".Helvetica Neue DeskInterface" font-size="11" xml:space="preserve">get4()</text><text x="16" y="361" fill="#000" font-family=".Helvetica Neue DeskInterface" font-size="11" xml:space="preserve">get6()</text><text x="16" y="373" fill="#000" font-family=".Helvetica Neue DeskInterface" font-size="11" xml:space="preserve">get6()</text><text x="16" y="385" fill="#000" font-family=".Helvetica Neue DeskInterface" font-size="11" xml:space="preserve">get6()</text><text x="16" y="397" fill="#000" font-family=".Helvetica Neue DeskInterface" font-size="11" xml:space="preserve">add()</text><text x="16" y="409" fill="#000" font-family=".Helvetica Neue DeskInterface" font-size="11" xml:space="preserve">getType()</text><text x="16" y="421" fill="#000" font-family=".Helvetica Neue DeskInterface" font-size="11" xml:space="preserve">getName()</text><text x="16" y="433" fill="#000" font-family=".Helvetica Neue DeskInterface" font-size="11" xml:space="preserve">getDescription()</text><text x="16" y="445" fill="#000" font-family=".Helvetica Neue DeskInterface" font-size="11" xml:space="preserve">getVersion()</text></g><g><rect width="2" height="208" x="704" y="24" fill="#cbcbcb" stroke="none" stroke-opacity="1"/><rect width="146" height="2" x="560" y="230" fill="#cbcbcb" stroke="none" stroke-opacity="1"/><rect width="147" height="209" x="557" y="21" fill="#ffffc0" stroke="#000" stroke-opacity="1" stroke-width="1"/><text x="631" y="33" fill="#000" font-family=".Helvetica Neue DeskInterface" font-size="11" font-weight="bold" text-anchor="middle" xml:space="preserve">PgSqlExchange</text><line x1="557" x2="704" y1="34" y2="34" stroke="#000" stroke-opacity="1"/><text x="560" y="46" fill="#000" font-family=".Helvetica Neue DeskInterface" font-size="11" xml:space="preserve">columns_</text><line x1="557" x2="704" y1="47" y2="47" stroke="#000" stroke-opacity="1"/><text x="560" y="59" fill="#000" font-family=".Helvetica Neue DeskInterface" font-size="11" xml:space="preserve">PgSqlExchange()</text><text x="560" y="71" fill="#000" font-family=".Helvetica Neue DeskInterface" font-size="11" xml:space="preserve">~PgSqlExchange()</text><text x="560" y="83" fill="#000" font-family=".Helvetica Neue DeskInterface" font-size="11" text-decoration="underline" xml:space="preserve">convertToDatabaseTime()</text><text x="560" y="95" fill="#000" font-family=".Helvetica Neue DeskInterface" font-size="11" text-decoration="underline" xml:space="preserve">convertToDatabaseTime()</text><text x="560" y="107" fill="#000" font-family=".Helvetica Neue DeskInterface" font-size="11" text-decoration="underline" xml:space="preserve">convertFromDatabaseTime()</text><text x="560" y="119" fill="#000" font-family=".Helvetica Neue DeskInterface" font-size="11" text-decoration="underline" xml:space="preserve">getRawColumnValue()</text><text x="560" y="131" fill="#000" font-family=".Helvetica Neue DeskInterface" font-size="11" text-decoration="underline" xml:space="preserve">getColumnLabel()</text><text x="560" y="143" fill="#000" font-family=".Helvetica Neue DeskInterface" font-size="11" text-decoration="underline" xml:space="preserve">getColumnValue()</text><text x="560" y="155" fill="#000" font-family=".Helvetica Neue DeskInterface" font-size="11" text-decoration="underline" xml:space="preserve">getColumnValue()</text><text x="560" y="167" fill="#000" font-family=".Helvetica Neue DeskInterface" font-size="11" text-decoration="underline" xml:space="preserve">getColumnValue()</text><text x="560" y="179" fill="#000" font-family=".Helvetica Neue DeskInterface" font-size="11" text-decoration="underline" xml:space="preserve">getIPv6Value()</text><text x="560" y="191" fill="#000" font-family=".Helvetica Neue DeskInterface" font-size="11" text-decoration="underline" xml:space="preserve">isColumnNull()</text><text x="560" y="203" fill="#000" font-family=".Helvetica Neue DeskInterface" font-size="11" text-decoration="underline" xml:space="preserve">getColumnValue()</text><text x="560" y="215" fill="#000" font-family=".Helvetica Neue DeskInterface" font-size="11" text-decoration="underline" xml:space="preserve">convertFromBytea()</text><text x="560" y="227" fill="#000" font-family=".Helvetica Neue DeskInterface" font-size="11" text-decoration="underline" xml:space="preserve">dumpRow()</text></g><g><rect width="2" height="172" x="698" y="643" fill="#cbcbcb" stroke="none" stroke-opacity="1"/><rect width="122" height="2" x="578" y="813" fill="#cbcbcb" stroke="none" stroke-opacity="1"/><rect width="123" height="173" x="575" y="640" fill="#ffffc0" stroke="#000" stroke-opacity="1" stroke-width="1"/><text x="637" y="652" fill="#000" font-family=".Helvetica Neue DeskInterface" font-size="11" font-weight="bold" text-anchor="middle" xml:space="preserve">OptionProcessor</text><line x1="575" x2="698" y1="653" y2="653" stroke="#000" stroke-opacity="1"/><text x="578" y="665" fill="#000" font-family=".Helvetica Neue DeskInterface" font-size="11" xml:space="preserve">universe_</text><text x="578" y="677" fill="#000" font-family=".Helvetica Neue DeskInterface" font-size="11" xml:space="preserve">start_column_</text><text x="578" y="689" fill="#000" font-family=".Helvetica Neue DeskInterface" font-size="11" xml:space="preserve">option_id_index_</text><text x="578" y="701" fill="#000" font-family=".Helvetica Neue DeskInterface" font-size="11" xml:space="preserve">code_index_</text><text x="578" y="713" fill="#000" font-family=".Helvetica Neue DeskInterface" font-size="11" xml:space="preserve">value_index_</text><text x="578" y="725" fill="#000" font-family=".Helvetica Neue DeskInterface" font-size="11" xml:space="preserve">formatted_value_index_</text><text x="578" y="737" fill="#000" font-family=".Helvetica Neue DeskInterface" font-size="11" xml:space="preserve">space_index_</text><text x="578" y="749" fill="#000" font-family=".Helvetica Neue DeskInterface" font-size="11" xml:space="preserve">persistent_index_</text><text x="578" y="761" fill="#000" font-family=".Helvetica Neue DeskInterface" font-size="11" xml:space="preserve">most_recent_option_id_</text><line x1="575" x2="698" y1="762" y2="762" stroke="#000" stroke-opacity="1"/><text x="578" y="774" fill="#000" font-family=".Helvetica Neue DeskInterface" font-size="11" xml:space="preserve">OptionProcessor()</text><text x="578" y="786" fill="#000" font-family=".Helvetica Neue DeskInterface" font-size="11" xml:space="preserve">clear()</text><text x="578" y="798" fill="#000" font-family=".Helvetica Neue DeskInterface" font-size="11" xml:space="preserve">retrieveOption()</text><text x="578" y="810" fill="#000" font-family=".Helvetica Neue DeskInterface" font-size="11" xml:space="preserve">setColumnNames()</text></g><g><text x="90" y="475" fill="#000" font-family=".Helvetica Neue DeskInterface" font-size="11" xml:space="preserve">impl_</text></g><g><text x="87" y="638" fill="#000" font-family=".Helvetica Neue DeskInterface" font-size="11" xml:space="preserve">conn_</text></g><g><text x="76" y="831" fill="#000" font-family=".Helvetica Neue DeskInterface" font-size="11" xml:space="preserve">conn_</text></g><g><text x="230" y="581" fill="#000" font-family=".Helvetica Neue DeskInterface" font-size="11" xml:space="preserve">host_exchange_</text></g><g><text x="215" y="714" fill="#000" font-family=".Helvetica Neue DeskInterface" font-size="11" xml:space="preserve">host_ipv6_exchange_</text></g><g><text x="210" y="755" fill="#000" font-family=".Helvetica Neue DeskInterface" font-size="11" xml:space="preserve">host_ipv46_exchange_</text></g><g><text x="282" y="155" fill="#000" font-family=".Helvetica Neue DeskInterface" font-size="11" xml:space="preserve">host_ipv6_reservation_exchange_</text></g><g><text x="391" y="425" fill="#000" font-family=".Helvetica Neue DeskInterface" font-size="11" xml:space="preserve">host_option_exchange_</text></g><g><text x="513" y="563" fill="#000" font-family=".Helvetica Neue DeskInterface" font-size="11" xml:space="preserve">opt_proc4_</text></g><g><text x="513" y="601" fill="#000" font-family=".Helvetica Neue DeskInterface" font-size="11" xml:space="preserve">opt_proc6_</text></g><g><rect width="2" height="128" x="155" y="486" fill="#cbcbcb" stroke="none" stroke-opacity="1"/><rect width="150" height="2" x="7" y="612" fill="#cbcbcb" stroke="none" stroke-opacity="1"/><rect width="151" height="129" x="4" y="483" fill="#ffffc0" stroke="#000" stroke-opacity="1" stroke-width="1"/><text x="80" y="495" fill="#000" font-family=".Helvetica Neue DeskInterface" font-size="11" font-weight="bold" text-anchor="middle" xml:space="preserve">PgSqlHostDataSourceImpl</text><line x1="4" x2="155" y1="496" y2="496" stroke="#000" stroke-opacity="1"/><line x1="4" x2="155" y1="502" y2="502" stroke="#000" stroke-opacity="1"/><text x="7" y="514" fill="#000" font-family=".Helvetica Neue DeskInterface" font-size="11" xml:space="preserve">PgSqlHostDataSourceImpl()</text><text x="7" y="526" fill="#000" font-family=".Helvetica Neue DeskInterface" font-size="11" xml:space="preserve">~PgSqlHostDataSourceImpl()</text><text x="7" y="538" fill="#000" font-family=".Helvetica Neue DeskInterface" font-size="11" xml:space="preserve">addStatement()</text><text x="7" y="550" fill="#000" font-family=".Helvetica Neue DeskInterface" font-size="11" xml:space="preserve">addResv()</text><text x="7" y="562" fill="#000" font-family=".Helvetica Neue DeskInterface" font-size="11" xml:space="preserve">addOption()</text><text x="7" y="574" fill="#000" font-family=".Helvetica Neue DeskInterface" font-size="11" xml:space="preserve">addOptions()</text><text x="7" y="586" fill="#000" font-family=".Helvetica Neue DeskInterface" font-size="11" xml:space="preserve">getHostCollection()</text><text x="7" y="598" fill="#000" font-family=".Helvetica Neue DeskInterface" font-size="11" xml:space="preserve">getHost()</text><text x="7" y="610" fill="#000" font-family=".Helvetica Neue DeskInterface" font-size="11" xml:space="preserve">getVersion()</text></g><g><line x1="80" x2="86" y1="482" y2="476" stroke="#000" stroke-opacity="1"/><line x1="80" x2="74" y1="482" y2="476" stroke="#000" stroke-opacity="1"/><line x1="80" x2="80" y1="450" y2="482" stroke="#000" stroke-opacity="1"/></g><g><rect width="2" height="160" x="126" y="650" fill="#cbcbcb" stroke="none" stroke-opacity="1"/><rect width="116" height="2" x="12" y="808" fill="#cbcbcb" stroke="none" stroke-opacity="1"/><rect width="117" height="161" x="9" y="647" fill="#ffffc0" stroke="#000" stroke-opacity="1" stroke-width="1"/><text x="68" y="659" fill="#000" font-family=".Helvetica Neue DeskInterface" font-size="11" font-weight="bold" text-anchor="middle" xml:space="preserve">PgSqlConnection</text><line x1="9" x2="126" y1="660" y2="660" stroke="#000" stroke-opacity="1"/><text x="12" y="672" fill="#000" font-family=".Helvetica Neue DeskInterface" font-size="11" text-decoration="underline" xml:space="preserve">DUPLICATE_KEY</text><line x1="9" x2="126" y1="673" y2="673" stroke="#000" stroke-opacity="1"/><text x="12" y="685" fill="#000" font-family=".Helvetica Neue DeskInterface" font-size="11" xml:space="preserve">PgSqlConnection()</text><text x="12" y="697" fill="#000" font-family=".Helvetica Neue DeskInterface" font-size="11" xml:space="preserve">~PgSqlConnection()</text><text x="12" y="709" fill="#000" font-family=".Helvetica Neue DeskInterface" font-size="11" xml:space="preserve">prepareStatement()</text><text x="12" y="721" fill="#000" font-family=".Helvetica Neue DeskInterface" font-size="11" xml:space="preserve">openDatabase()</text><text x="12" y="733" fill="#000" font-family=".Helvetica Neue DeskInterface" font-size="11" xml:space="preserve">startTransaction()</text><text x="12" y="745" fill="#000" font-family=".Helvetica Neue DeskInterface" font-size="11" xml:space="preserve">commit()</text><text x="12" y="757" fill="#000" font-family=".Helvetica Neue DeskInterface" font-size="11" xml:space="preserve">rollback()</text><text x="12" y="769" fill="#000" font-family=".Helvetica Neue DeskInterface" font-size="11" xml:space="preserve">compareError()</text><text x="12" y="781" fill="#000" font-family=".Helvetica Neue DeskInterface" font-size="11" xml:space="preserve">checkStatementError()</text><text x="12" y="793" fill="#000" font-family=".Helvetica Neue DeskInterface" font-size="11" xml:space="preserve">operator PGconn*()</text><text x="12" y="805" fill="#000" font-family=".Helvetica Neue DeskInterface" font-size="11" xml:space="preserve">operator bool()</text></g><g><rect width="2" height="76" x="497" y="548" fill="#cbcbcb" stroke="none" stroke-opacity="1"/><rect width="178" height="2" x="321" y="622" fill="#cbcbcb" stroke="none" stroke-opacity="1"/><rect width="179" height="77" x="318" y="545" fill="#ffffc0" stroke="#000" stroke-opacity="1" stroke-width="1"/><text x="408" y="557" fill="#000" font-family=".Helvetica Neue DeskInterface" font-size="11" font-weight="bold" text-anchor="middle" xml:space="preserve">PgSqlHostWithOptionsExchange</text><line x1="318" x2="497" y1="558" y2="558" stroke="#000" stroke-opacity="1"/><text x="321" y="570" fill="#000" font-family=".Helvetica Neue DeskInterface" font-size="11" text-decoration="underline" xml:space="preserve">OPTION_COLUMNS</text><line x1="318" x2="497" y1="571" y2="571" stroke="#000" stroke-opacity="1"/><text x="321" y="583" fill="#000" font-family=".Helvetica Neue DeskInterface" font-size="11" xml:space="preserve">PgSqlHostWithOptionsExchange()</text><text x="321" y="595" fill="#000" font-family=".Helvetica Neue DeskInterface" font-size="11" xml:space="preserve">clear()</text><text x="321" y="607" fill="#000" font-family=".Helvetica Neue DeskInterface" font-size="11" xml:space="preserve">processRowData()</text><text x="321" y="619" fill="#000" font-family=".Helvetica Neue DeskInterface" font-size="11" text-decoration="underline" xml:space="preserve">getRequiredColumnsNum()</text></g><g><line x1="78" x2="83" y1="646" y2="639" stroke="#000" stroke-opacity="1"/><line x1="78" x2="71" y1="646" y2="640" stroke="#000" stroke-opacity="1"/><line x1="77" x2="78" y1="615" y2="646" stroke="#000" stroke-opacity="1"/><polygon fill="#000" stroke="#000" stroke-opacity="1" points="77 615 83 620 77 626 71 621"/></g><g><line x1="317" x2="311" y1="583" y2="576" stroke="#000" stroke-opacity="1"/><line x1="317" x2="310" y1="583" y2="588" stroke="#000" stroke-opacity="1"/><line x1="158" x2="317" y1="582" y2="583" stroke="#000" stroke-opacity="1"/><polygon fill="#000" stroke="#000" stroke-opacity="1" points="158 582 164 576 169 582 163 588"/></g><g><text x="198" y="596" fill="#000" font-family=".Helvetica Neue DeskInterface" font-size="11" xml:space="preserve">&lt;&lt;:shared_ptr&gt;&gt;</text></g><g><rect width="2" height="64" x="118" y="841" fill="#cbcbcb" stroke="none" stroke-opacity="1"/><rect width="106" height="2" x="14" y="903" fill="#cbcbcb" stroke="none" stroke-opacity="1"/><rect width="107" height="65" x="11" y="838" fill="#ffffc0" stroke="#000" stroke-opacity="1" stroke-width="1"/><text x="65" y="850" fill="#000" font-family=".Helvetica Neue DeskInterface" font-size="11" font-weight="bold" text-anchor="middle" xml:space="preserve">PgSqlTransaction</text><line x1="11" x2="118" y1="851" y2="851" stroke="#000" stroke-opacity="1"/><text x="14" y="863" fill="#000" font-family=".Helvetica Neue DeskInterface" font-size="11" xml:space="preserve">committed_</text><line x1="11" x2="118" y1="864" y2="864" stroke="#000" stroke-opacity="1"/><text x="14" y="876" fill="#000" font-family=".Helvetica Neue DeskInterface" font-size="11" xml:space="preserve">PgSqlTransaction()</text><text x="14" y="888" fill="#000" font-family=".Helvetica Neue DeskInterface" font-size="11" xml:space="preserve">~PgSqlTransaction()</text><text x="14" y="900" fill="#000" font-family=".Helvetica Neue DeskInterface" font-size="11" xml:space="preserve">commit()</text></g><g><rect width="2" height="160" x="478" y="679" fill="#cbcbcb" stroke="none" stroke-opacity="1"/><rect width="148" height="2" x="332" y="837" fill="#cbcbcb" stroke="none" stroke-opacity="1"/><rect width="149" height="161" x="329" y="676" fill="#ffffc0" stroke="#000" stroke-opacity="1" stroke-width="1"/><text x="404" y="688" fill="#000" font-family=".Helvetica Neue DeskInterface" font-size="11" font-weight="bold" text-anchor="middle" xml:space="preserve">PgSqlHostIPv6Exchange</text><line x1="329" x2="478" y1="689" y2="689" stroke="#000" stroke-opacity="1"/><text x="332" y="701" fill="#000" font-family=".Helvetica Neue DeskInterface" font-size="11" text-decoration="underline" xml:space="preserve">RESERVATION_COLUMNS</text><text x="332" y="713" fill="#000" font-family=".Helvetica Neue DeskInterface" font-size="11" xml:space="preserve">reservation_id_index_</text><text x="332" y="725" fill="#000" font-family=".Helvetica Neue DeskInterface" font-size="11" xml:space="preserve">address_index_</text><text x="332" y="737" fill="#000" font-family=".Helvetica Neue DeskInterface" font-size="11" xml:space="preserve">prefix_len_index_</text><text x="332" y="749" fill="#000" font-family=".Helvetica Neue DeskInterface" font-size="11" xml:space="preserve">type_index_</text><text x="332" y="761" fill="#000" font-family=".Helvetica Neue DeskInterface" font-size="11" xml:space="preserve">iaid_index_</text><text x="332" y="773" fill="#000" font-family=".Helvetica Neue DeskInterface" font-size="11" xml:space="preserve">most_recent_reservation_id_</text><line x1="329" x2="478" y1="774" y2="774" stroke="#000" stroke-opacity="1"/><text x="332" y="786" fill="#000" font-family=".Helvetica Neue DeskInterface" font-size="11" xml:space="preserve">PgSqlHostIPv6Exchange()</text><text x="332" y="798" fill="#000" font-family=".Helvetica Neue DeskInterface" font-size="11" xml:space="preserve">clear()</text><text x="332" y="810" fill="#000" font-family=".Helvetica Neue DeskInterface" font-size="11" xml:space="preserve">getReservationId()</text><text x="332" y="822" fill="#000" font-family=".Helvetica Neue DeskInterface" font-size="11" xml:space="preserve">retrieveReservation()</text><text x="332" y="834" fill="#000" font-family=".Helvetica Neue DeskInterface" font-size="11" xml:space="preserve">processRowData()</text></g><g><rect width="2" height="232" x="724" y="272" fill="#cbcbcb" stroke="none" stroke-opacity="1"/><rect width="174" height="2" x="552" y="502" fill="#cbcbcb" stroke="none" stroke-opacity="1"/><rect width="175" height="233" x="549" y="269" fill="#ffffc0" stroke="#000" stroke-opacity="1" stroke-width="1"/><text x="637" y="281" fill="#000" font-family=".Helvetica Neue DeskInterface" font-size="11" font-weight="bold" text-anchor="middle" xml:space="preserve">PgSqlHostExchange</text><line x1="549" x2="724" y1="282" y2="282" stroke="#000" stroke-opacity="1"/><text x="552" y="294" fill="#000" font-family=".Helvetica Neue DeskInterface" font-size="11" text-decoration="underline" xml:space="preserve">HOST_ID_COL</text><text x="552" y="306" fill="#000" font-family=".Helvetica Neue DeskInterface" font-size="11" text-decoration="underline" xml:space="preserve">DHCP_IDENTIFIER_COL</text><text x="552" y="318" fill="#000" font-family=".Helvetica Neue DeskInterface" font-size="11" text-decoration="underline" xml:space="preserve">DHCP_IDENTIFIER_TYPE_COL</text><text x="552" y="330" fill="#000" font-family=".Helvetica Neue DeskInterface" font-size="11" text-decoration="underline" xml:space="preserve">DHCP4_SUBNET_ID_COL</text><text x="552" y="342" fill="#000" font-family=".Helvetica Neue DeskInterface" font-size="11" text-decoration="underline" xml:space="preserve">DHCP6_SUBNET_ID_COL</text><text x="552" y="354" fill="#000" font-family=".Helvetica Neue DeskInterface" font-size="11" text-decoration="underline" xml:space="preserve">IPV4_ADDRESS_COL</text><text x="552" y="366" fill="#000" font-family=".Helvetica Neue DeskInterface" font-size="11" text-decoration="underline" xml:space="preserve">HOSTNAME_COL</text><text x="552" y="378" fill="#000" font-family=".Helvetica Neue DeskInterface" font-size="11" text-decoration="underline" xml:space="preserve">DHCP4_CLIENT_CLASSES_COL</text><text x="552" y="390" fill="#000" font-family=".Helvetica Neue DeskInterface" font-size="11" text-decoration="underline" xml:space="preserve">DHCP6_CLIENT_CLASSES_COL</text><text x="552" y="402" fill="#000" font-family=".Helvetica Neue DeskInterface" font-size="11" text-decoration="underline" xml:space="preserve">HOST_COLUMNS</text><line x1="549" x2="724" y1="403" y2="403" stroke="#000" stroke-opacity="1"/><text x="552" y="415" fill="#000" font-family=".Helvetica Neue DeskInterface" font-size="11" xml:space="preserve">PgSqlHostExchange()</text><text x="552" y="427" fill="#000" font-family=".Helvetica Neue DeskInterface" font-size="11" xml:space="preserve">~PgSqlHostExchange()</text><text x="552" y="439" fill="#000" font-family=".Helvetica Neue DeskInterface" font-size="11" xml:space="preserve">clear()</text><text x="552" y="451" fill="#000" font-family=".Helvetica Neue DeskInterface" font-size="11" xml:space="preserve">findAvailColumn()</text><text x="552" y="463" fill="#000" font-family=".Helvetica Neue DeskInterface" font-size="11" xml:space="preserve">getHostId()</text><text x="552" y="475" fill="#000" font-family=".Helvetica Neue DeskInterface" font-size="11" xml:space="preserve">createBindForSend()</text><text x="552" y="487" fill="#000" font-family=".Helvetica Neue DeskInterface" font-size="11" xml:space="preserve">processRowData()</text><text x="552" y="499" fill="#000" font-family=".Helvetica Neue DeskInterface" font-size="11" xml:space="preserve">retrieveHost()</text></g><g><line x1="66" x2="60" y1="811" y2="817" stroke="#000" stroke-opacity="1"/><line x1="66" x2="72" y1="811" y2="817" stroke="#000" stroke-opacity="1"/><line x1="66" x2="66" y1="837" y2="811" stroke="#000" stroke-opacity="1"/></g><g><line x1="406" x2="406" y1="675" y2="630" stroke="#000" stroke-opacity="1"/><line x1="407" x2="400" y1="625" y2="630" stroke="#000" stroke-opacity="1"/><line x1="407" x2="412" y1="625" y2="631" stroke="#000" stroke-opacity="1"/><line x1="400" x2="412" y1="630" y2="631" stroke="#000" stroke-opacity="1"/></g><g><line x1="148" x2="148" y1="615" y2="720" stroke="#000" stroke-opacity="1"/><polygon fill="#000" stroke="#000" stroke-opacity="1" points="148 615 154 621 148 627 142 621"/></g><g><line x1="328" x2="322" y1="720" y2="714" stroke="#000" stroke-opacity="1"/><line x1="328" x2="322" y1="720" y2="726" stroke="#000" stroke-opacity="1"/><line x1="148" x2="328" y1="720" y2="720" stroke="#000" stroke-opacity="1"/></g><g><line x1="136" x2="136" y1="615" y2="758" stroke="#000" stroke-opacity="1"/><polygon fill="#000" stroke="#000" stroke-opacity="1" points="136 615 142 621 136 627 130 621"/></g><g><line x1="328" x2="322" y1="758" y2="752" stroke="#000" stroke-opacity="1"/><line x1="328" x2="322" y1="758" y2="764" stroke="#000" stroke-opacity="1"/><line x1="136" x2="328" y1="758" y2="758" stroke="#000" stroke-opacity="1"/></g><g><line x1="631" x2="631" y1="268" y2="239" stroke="#000" stroke-opacity="1"/><line x1="631" x2="625" y1="233" y2="239" stroke="#000" stroke-opacity="1"/><line x1="631" x2="637" y1="233" y2="239" stroke="#000" stroke-opacity="1"/><line x1="625" x2="637" y1="239" y2="239" stroke="#000" stroke-opacity="1"/></g><g><line x1="409" x2="409" y1="544" y2="487" stroke="#000" stroke-opacity="1"/></g><g><line x1="409" x2="542" y1="487" y2="487" stroke="#000" stroke-opacity="1"/><line x1="548" x2="542" y1="487" y2="481" stroke="#000" stroke-opacity="1"/><line x1="548" x2="542" y1="487" y2="493" stroke="#000" stroke-opacity="1"/><line x1="542" x2="542" y1="481" y2="493" stroke="#000" stroke-opacity="1"/></g><g><text x="155" y="731" fill="#000" font-family=".Helvetica Neue DeskInterface" font-size="11" xml:space="preserve">&lt;&lt;:shared_ptr&gt;&gt;</text></g><g><text x="145" y="774" fill="#000" font-family=".Helvetica Neue DeskInterface" font-size="11" xml:space="preserve">&lt;&lt;:shared_ptr&gt;&gt;</text></g><g><rect width="2" height="49" x="689" y="562" fill="#cbcbcb" stroke="none" stroke-opacity="1"/><rect width="111" height="2" x="580" y="609" fill="#cbcbcb" stroke="none" stroke-opacity="1"/><rect width="112" height="50" x="577" y="559" fill="#ffffc0" stroke="#000" stroke-opacity="1" stroke-width="1"/><text x="633" y="571" fill="#000" font-family=".Helvetica Neue DeskInterface" font-size="11" text-anchor="middle" xml:space="preserve">&lt;&lt;typedef&gt;&gt;</text><text x="633" y="584" fill="#000" font-family=".Helvetica Neue DeskInterface" font-size="11" font-weight="bold" text-anchor="middle" xml:space="preserve">OptionProcessorPtr</text><line x1="577" x2="689" y1="585" y2="585" stroke="#000" stroke-opacity="1"/><line x1="577" x2="689" y1="591" y2="591" stroke="#000" stroke-opacity="1"/></g><g><rect width="2" height="52" x="359" y="83" fill="#cbcbcb" stroke="none" stroke-opacity="1"/><rect width="174" height="2" x="187" y="133" fill="#cbcbcb" stroke="none" stroke-opacity="1"/><rect width="175" height="53" x="184" y="80" fill="#ffffc0" stroke="#000" stroke-opacity="1" stroke-width="1"/><text x="272" y="92" fill="#000" font-family=".Helvetica Neue DeskInterface" font-size="11" font-weight="bold" text-anchor="middle" xml:space="preserve">PgSqlIPv6ReservationExchange</text><line x1="184" x2="359" y1="93" y2="93" stroke="#000" stroke-opacity="1"/><text x="187" y="105" fill="#000" font-family=".Helvetica Neue DeskInterface" font-size="11" text-decoration="underline" xml:space="preserve">RESRV_COLUMNS</text><line x1="184" x2="359" y1="106" y2="106" stroke="#000" stroke-opacity="1"/><text x="187" y="118" fill="#000" font-family=".Helvetica Neue DeskInterface" font-size="11" xml:space="preserve">PgSqlIPv6ReservationExchange()</text><text x="187" y="130" fill="#000" font-family=".Helvetica Neue DeskInterface" font-size="11" xml:space="preserve">createBindForSend()</text></g><g><line x1="634" x2="640" y1="639" y2="633" stroke="#000" stroke-opacity="1"/><line x1="634" x2="628" y1="639" y2="633" stroke="#000" stroke-opacity="1"/><line x1="634" x2="634" y1="612" y2="639" stroke="#000" stroke-dasharray="4 4" stroke-opacity="1"/></g><g><line x1="576" x2="512" y1="582" y2="582" stroke="#000" stroke-opacity="1"/><ellipse cx="506" cy="582" fill="none" stroke="#000" stroke-opacity="1" stroke-width="1" rx="5" ry="5"/><line x1="501" x2="511" y1="582" y2="582" stroke="#000" stroke-opacity="1"/><line x1="506" x2="506" y1="577" y2="587" stroke="#000" stroke-opacity="1"/></g><g><line x1="576" x2="569" y1="567" y2="561" stroke="#000" stroke-opacity="1"/><line x1="576" x2="570" y1="567" y2="573" stroke="#000" stroke-opacity="1"/><line x1="500" x2="576" y1="568" y2="567" stroke="#000" stroke-opacity="1"/><polygon fill="#000" stroke="#000" stroke-opacity="1" points="500 568 505 561 511 567 506 573"/></g><g><line x1="576" x2="570" y1="605" y2="598" stroke="#000" stroke-opacity="1"/><line x1="576" x2="569" y1="605" y2="610" stroke="#000" stroke-opacity="1"/><line x1="500" x2="576" y1="603" y2="605" stroke="#000" stroke-opacity="1"/><polygon fill="#000" stroke="#000" stroke-opacity="1" points="500 603 506 597 511 603 505 609"/></g><g><line x1="273" x2="273" y1="79" y2="55" stroke="#000" stroke-opacity="1"/></g><g><line x1="273" x2="550" y1="55" y2="55" stroke="#000" stroke-opacity="1"/><line x1="556" x2="550" y1="55" y2="49" stroke="#000" stroke-opacity="1"/><line x1="556" x2="550" y1="55" y2="61" stroke="#000" stroke-opacity="1"/><line x1="550" x2="550" y1="49" y2="61" stroke="#000" stroke-opacity="1"/></g><g><line x1="158" x2="273" y1="493" y2="493" stroke="#000" stroke-opacity="1"/><polygon fill="#000" stroke="#000" stroke-opacity="1" points="158 493 164 487 170 493 164 499"/></g><g><line x1="273" x2="267" y1="136" y2="142" stroke="#000" stroke-opacity="1"/><line x1="273" x2="279" y1="136" y2="142" stroke="#000" stroke-opacity="1"/><line x1="273" x2="273" y1="493" y2="136" stroke="#000" stroke-opacity="1"/></g><g><text x="181" y="489" fill="#000" font-family=".Helvetica Neue DeskInterface" font-size="11" xml:space="preserve">&lt;&lt;:shared_ptr&gt;&gt;</text></g><g><rect width="2" height="208" x="461" y="194" fill="#cbcbcb" stroke="none" stroke-opacity="1"/><rect width="152" height="2" x="311" y="400" fill="#cbcbcb" stroke="none" stroke-opacity="1"/><rect width="153" height="209" x="308" y="191" fill="#ffffc0" stroke="#000" stroke-opacity="1" stroke-width="1"/><text x="385" y="203" fill="#000" font-family=".Helvetica Neue DeskInterface" font-size="11" font-weight="bold" text-anchor="middle" xml:space="preserve">PgSqlOptionExchange</text><line x1="308" x2="461" y1="204" y2="204" stroke="#000" stroke-opacity="1"/><text x="311" y="216" fill="#000" font-family=".Helvetica Neue DeskInterface" font-size="11" text-decoration="underline" xml:space="preserve">OPTION_ID_COL</text><text x="311" y="228" fill="#000" font-family=".Helvetica Neue DeskInterface" font-size="11" text-decoration="underline" xml:space="preserve">CODE_COL</text><text x="311" y="240" fill="#000" font-family=".Helvetica Neue DeskInterface" font-size="11" text-decoration="underline" xml:space="preserve">VALUE_COL</text><text x="311" y="252" fill="#000" font-family=".Helvetica Neue DeskInterface" font-size="11" text-decoration="underline" xml:space="preserve">FORMATTED_VALUE_COL</text><text x="311" y="264" fill="#000" font-family=".Helvetica Neue DeskInterface" font-size="11" text-decoration="underline" xml:space="preserve">SPACE_COL</text><text x="311" y="276" fill="#000" font-family=".Helvetica Neue DeskInterface" font-size="11" text-decoration="underline" xml:space="preserve">PERSISTENT_COL</text><text x="311" y="288" fill="#000" font-family=".Helvetica Neue DeskInterface" font-size="11" text-decoration="underline" xml:space="preserve">DHCP_CLIENT_CLASS_COL</text><text x="311" y="300" fill="#000" font-family=".Helvetica Neue DeskInterface" font-size="11" text-decoration="underline" xml:space="preserve">DHCP_SUBNET_ID_COL</text><text x="311" y="312" fill="#000" font-family=".Helvetica Neue DeskInterface" font-size="11" text-decoration="underline" xml:space="preserve">HOST_ID_COL</text><text x="311" y="324" fill="#000" font-family=".Helvetica Neue DeskInterface" font-size="11" text-decoration="underline" xml:space="preserve">SCOPE_ID_COL</text><text x="311" y="336" fill="#000" font-family=".Helvetica Neue DeskInterface" font-size="11" text-decoration="underline" xml:space="preserve">OPTION_COLUMNS</text><text x="311" y="348" fill="#000" font-family=".Helvetica Neue DeskInterface" font-size="11" xml:space="preserve">value_</text><text x="311" y="360" fill="#000" font-family=".Helvetica Neue DeskInterface" font-size="11" xml:space="preserve">value_len_</text><text x="311" y="372" fill="#000" font-family=".Helvetica Neue DeskInterface" font-size="11" xml:space="preserve">option_</text><line x1="308" x2="461" y1="373" y2="373" stroke="#000" stroke-opacity="1"/><text x="311" y="385" fill="#000" font-family=".Helvetica Neue DeskInterface" font-size="11" xml:space="preserve">PgSqlOptionExchange()</text><text x="311" y="397" fill="#000" font-family=".Helvetica Neue DeskInterface" font-size="11" xml:space="preserve">createBindForSend()</text></g><g><line x1="386" x2="386" y1="190" y2="168" stroke="#000" stroke-opacity="1"/></g><g><line x1="386" x2="550" y1="168" y2="168" stroke="#000" stroke-opacity="1"/><line x1="556" x2="550" y1="168" y2="162" stroke="#000" stroke-opacity="1"/><line x1="556" x2="550" y1="168" y2="174" stroke="#000" stroke-opacity="1"/><line x1="550" x2="550" y1="162" y2="174" stroke="#000" stroke-opacity="1"/></g><g><line x1="158" x2="383" y1="509" y2="509" stroke="#000" stroke-opacity="1"/><polygon fill="#000" stroke="#000" stroke-opacity="1" points="158 509 164 503 170 509 164 515"/></g><g><line x1="383" x2="377" y1="403" y2="409" stroke="#000" stroke-opacity="1"/><line x1="383" x2="389" y1="403" y2="409" stroke="#000" stroke-opacity="1"/><line x1="383" x2="383" y1="509" y2="403" stroke="#000" stroke-opacity="1"/></g><g><text x="250" y="522" fill="#000" font-family=".Helvetica Neue DeskInterface" font-size="11" xml:space="preserve">&lt;&lt;:shared_ptr&gt;&gt;</text></g><g><rect width="2" height="188" x="137" y="22" fill="#cbcbcb" stroke="none" stroke-opacity="1"/><rect width="124" height="2" x="15" y="208" fill="#cbcbcb" stroke="none" stroke-opacity="1"/><rect width="125" height="189" x="12" y="19" fill="#ffffc0" stroke="#000" stroke-opacity="1" stroke-width="1"/><text x="75" y="31" fill="#000" font-family=".Helvetica Neue DeskInterface" font-size="11" font-style="italic" font-weight="bold" text-anchor="middle" xml:space="preserve">BaseHostDataSource</text><line x1="12" x2="137" y1="32" y2="32" stroke="#000" stroke-opacity="1"/><line x1="12" x2="137" y1="38" y2="38" stroke="#000" stroke-opacity="1"/><text x="15" y="50" fill="#000" font-family=".Helvetica Neue DeskInterface" font-size="11" xml:space="preserve">~BaseHostDataSource()</text><text x="15" y="62" fill="#000" font-family=".Helvetica Neue DeskInterface" font-size="11" font-style="italic" xml:space="preserve">getAll()</text><text x="15" y="74" fill="#000" font-family=".Helvetica Neue DeskInterface" font-size="11" font-style="italic" xml:space="preserve">getAll()</text><text x="15" y="86" fill="#000" font-family=".Helvetica Neue DeskInterface" font-size="11" font-style="italic" xml:space="preserve">getAll4()</text><text x="15" y="98" fill="#000" font-family=".Helvetica Neue DeskInterface" font-size="11" font-style="italic" xml:space="preserve">get4()</text><text x="15" y="110" fill="#000" font-family=".Helvetica Neue DeskInterface" font-size="11" font-style="italic" xml:space="preserve">get4()</text><text x="15" y="122" fill="#000" font-family=".Helvetica Neue DeskInterface" font-size="11" font-style="italic" xml:space="preserve">get4()</text><text x="15" y="134" fill="#000" font-family=".Helvetica Neue DeskInterface" font-size="11" font-style="italic" xml:space="preserve">get6()</text><text x="15" y="146" fill="#000" font-family=".Helvetica Neue DeskInterface" font-size="11" font-style="italic" xml:space="preserve">get6()</text><text x="15" y="158" fill="#000" font-family=".Helvetica Neue DeskInterface" font-size="11" font-style="italic" xml:space="preserve">get6()</text><text x="15" y="170" fill="#000" font-family=".Helvetica Neue DeskInterface" font-size="11" font-style="italic" xml:space="preserve">add()</text><text x="15" y="182" fill="#000" font-family=".Helvetica Neue DeskInterface" font-size="11" font-style="italic" xml:space="preserve">getType()</text><text x="15" y="194" fill="#000" font-family=".Helvetica Neue DeskInterface" font-size="11" xml:space="preserve">commit()</text><text x="15" y="206" fill="#000" font-family=".Helvetica Neue DeskInterface" font-size="11" xml:space="preserve">rollback()</text></g><g><line x1="74" x2="74" y1="233" y2="217" stroke="#000" stroke-opacity="1"/><line x1="74" x2="68" y1="211" y2="217" stroke="#000" stroke-opacity="1"/><line x1="74" x2="80" y1="211" y2="217" stroke="#000" stroke-opacity="1"/><line x1="68" x2="80" y1="217" y2="217" stroke="#000" stroke-opacity="1"/></g></svg>