<svg xmlns="http://www.w3.org/2000/svg" xmlns:xlink="http://www.w3.org/1999/xlink" width="509" height="1590" contentScriptType="application/ecmascript" contentStyleType="text/css" preserveAspectRatio="none" style="width:509px;height:1590px" version="1.1" viewBox="0 0 509 1590" zoomAndPan="magnify"><defs><filter id="f1fxs94y917cvd" width="300%" height="300%" x="-1" y="-1"><feGaussianBlur result="blurOut" stdDeviation="2"/><feColorMatrix in="blurOut" result="blurOut2" type="matrix" values="0 0 0 0 0 0 0 0 0 0 0 0 0 0 0 0 0 0 .4 0"/><feOffset dx="4" dy="4" in="blurOut2" result="blurOut3"/><feBlend in="SourceGraphic" in2="blurOut3" mode="normal"/></filter></defs><g><text x="12" y="27.402" fill="#000" font-family="sans-serif" font-size="18" lengthAdjust="spacingAndGlyphs" textLength="485">Append vendor requested options algorithm (Kea 1.8.0)</text><rect width="237" height="34.133" x="138.75" y="32.199" fill="#FEFECE" filter="url(#f1fxs94y917cvd)" rx="12.5" ry="12.5" style="stroke:#a80036;stroke-width:1.5"/><text x="148.75" y="53.801" fill="#000" font-family="sans-serif" font-size="12" lengthAdjust="spacingAndGlyphs" textLength="217">get vendor id from query vivso option</text><rect width="257" height="34.133" x="128.75" y="86.332" fill="#FEFECE" filter="url(#f1fxs94y917cvd)" rx="12.5" ry="12.5" style="stroke:#a80036;stroke-width:1.5"/><text x="138.75" y="107.934" fill="#000" font-family="sans-serif" font-size="12" lengthAdjust="spacingAndGlyphs" textLength="237">get vendor id from response vivso option</text><rect width="55" height="34.133" x="229.75" y="188.942" fill="#FEFECE" filter="url(#f1fxs94y917cvd)" rx="12.5" ry="12.5" style="stroke:#a80036;stroke-width:1.5"/><text x="239.75" y="210.544" fill="#000" font-family="sans-serif" font-size="12" lengthAdjust="spacingAndGlyphs" textLength="35">return</text><ellipse cx="257.25" cy="262.509" fill="#FFF" filter="url(#f1fxs94y917cvd)" rx="11" ry="11" style="stroke:#000;stroke-width:1"/><ellipse cx="257.25" cy="262.509" fill="#000" rx="6" ry="6" style="stroke:#7f7f7f;stroke-width:1"/><polygon fill="#FEFECE" points="231.75 140.465 282.75 140.465 294.75 152.465 282.75 164.465 231.75 164.465 219.75 152.465 231.75 140.465" filter="url(#f1fxs94y917cvd)" style="stroke:#a80036;stroke-width:1.5"/><text x="261.25" y="175.1" fill="#000" font-family="sans-serif" font-size="11" lengthAdjust="spacingAndGlyphs" textLength="14">no</text><text x="231.75" y="156.622" fill="#000" font-family="sans-serif" font-size="11" lengthAdjust="spacingAndGlyphs" textLength="51">vendor id</text><text x="294.75" y="150.144" fill="#000" font-family="sans-serif" font-size="11" lengthAdjust="spacingAndGlyphs" textLength="18">yes</text><rect width="163" height="34.133" x="175.75" y="315.509" fill="#FEFECE" filter="url(#f1fxs94y917cvd)" rx="12.5" ry="12.5" style="stroke:#a80036;stroke-width:1.5"/><text x="185.75" y="337.11" fill="#000" font-family="sans-serif" font-size="12" lengthAdjust="spacingAndGlyphs" textLength="143">get configured option list</text><rect width="381" height="34.133" x="66.75" y="369.642" fill="#FEFECE" filter="url(#f1fxs94y917cvd)" rx="12.5" ry="12.5" style="stroke:#a80036;stroke-width:1.5"/><text x="76.75" y="391.243" fill="#000" font-family="sans-serif" font-size="12" lengthAdjust="spacingAndGlyphs" textLength="361">get option request list (ORO) from query DOCSIS vendor option</text><rect width="260" height="34.133" x="127.25" y="467.774" fill="#FEFECE" filter="url(#f1fxs94y917cvd)" rx="12.5" ry="12.5" style="stroke:#a80036;stroke-width:1.5"/><text x="137.25" y="489.376" fill="#000" font-family="sans-serif" font-size="12" lengthAdjust="spacingAndGlyphs" textLength="240">get configured options in vendor id space</text><rect width="197" height="34.133" x="158.75" y="565.907" fill="#FEFECE" filter="url(#f1fxs94y917cvd)" rx="12.5" ry="12.5" style="stroke:#a80036;stroke-width:1.5"/><text x="168.75" y="587.509" fill="#000" font-family="sans-serif" font-size="12" lengthAdjust="spacingAndGlyphs" textLength="177">push back option code to ORO</text><polygon fill="#FEFECE" points="187.75 521.907 326.75 521.907 338.75 533.907 326.75 545.907 187.75 545.907 175.75 533.907 187.75 521.907" filter="url(#f1fxs94y917cvd)" style="stroke:#a80036;stroke-width:1.5"/><text x="187.75" y="538.064" fill="#000" font-family="sans-serif" font-size="11" lengthAdjust="spacingAndGlyphs" textLength="139">for each persistent option</text><polygon fill="#FEFECE" points="148.25 423.774 366.25 423.774 378.25 435.774 366.25 447.774 148.25 447.774 136.25 435.774 148.25 423.774" filter="url(#f1fxs94y917cvd)" style="stroke:#a80036;stroke-width:1.5"/><text x="148.25" y="439.932" fill="#000" font-family="sans-serif" font-size="11" lengthAdjust="spacingAndGlyphs" textLength="218">for each item from configured option list</text><rect width="207" height="34.133" x="153.75" y="712.518" fill="#FEFECE" filter="url(#f1fxs94y917cvd)" rx="12.5" ry="12.5" style="stroke:#a80036;stroke-width:1.5"/><text x="163.75" y="734.119" fill="#000" font-family="sans-serif" font-size="12" lengthAdjust="spacingAndGlyphs" textLength="187">create vivso option for vendor id</text><polygon fill="#FEFECE" points="197.75 664.04 316.75 664.04 328.75 676.04 316.75 688.04 197.75 688.04 185.75 676.04 197.75 664.04" filter="url(#f1fxs94y917cvd)" style="stroke:#a80036;stroke-width:1.5"/><text x="261.25" y="698.675" fill="#000" font-family="sans-serif" font-size="11" lengthAdjust="spacingAndGlyphs" textLength="14">no</text><text x="197.75" y="680.197" fill="#000" font-family="sans-serif" font-size="11" lengthAdjust="spacingAndGlyphs" textLength="119">response vivso option</text><text x="328.75" y="673.72" fill="#000" font-family="sans-serif" font-size="11" lengthAdjust="spacingAndGlyphs" textLength="18">yes</text><polygon fill="#FEFECE" points="257.25 766.65 269.25 778.65 257.25 790.65 245.25 778.65 257.25 766.65" filter="url(#f1fxs94y917cvd)" style="stroke:#a80036;stroke-width:1.5"/><rect width="103" height="34.133" x="205.75" y="810.65" fill="#FEFECE" filter="url(#f1fxs94y917cvd)" rx="12.5" ry="12.5" style="stroke:#a80036;stroke-width:1.5"/><text x="215.75" y="832.252" fill="#000" font-family="sans-serif" font-size="12" lengthAdjust="spacingAndGlyphs" textLength="83">added = false</text><rect width="260" height="34.133" x="127.25" y="1001.261" fill="#FEFECE" filter="url(#f1fxs94y917cvd)" rx="12.5" ry="12.5" style="stroke:#a80036;stroke-width:1.5"/><text x="137.25" y="1022.862" fill="#000" font-family="sans-serif" font-size="12" lengthAdjust="spacingAndGlyphs" textLength="240">get configured options in vendor id space</text><rect width="198" height="34.133" x="158.25" y="1103.871" fill="#FEFECE" filter="url(#f1fxs94y917cvd)" rx="12.5" ry="12.5" style="stroke:#a80036;stroke-width:1.5"/><text x="168.25" y="1125.473" fill="#000" font-family="sans-serif" font-size="12" lengthAdjust="spacingAndGlyphs" textLength="178">add sub-option to vivso option</text><rect width="99" height="34.133" x="207.75" y="1173.004" fill="#FEFECE" filter="url(#f1fxs94y917cvd)" rx="12.5" ry="12.5" style="stroke:#a80036;stroke-width:1.5"/><text x="217.75" y="1194.605" fill="#000" font-family="sans-serif" font-size="12" lengthAdjust="spacingAndGlyphs" textLength="79">added = true</text><polygon fill="#FEFECE" points="241.25 1055.394 273.25 1055.394 285.25 1067.394 273.25 1079.394 241.25 1079.394 229.25 1067.394 241.25 1055.394" filter="url(#f1fxs94y917cvd)" style="stroke:#a80036;stroke-width:1.5"/><text x="261.25" y="1090.028" fill="#000" font-family="sans-serif" font-size="11" lengthAdjust="spacingAndGlyphs" textLength="22">first</text><text x="241.25" y="1071.551" fill="#000" font-family="sans-serif" font-size="11" lengthAdjust="spacingAndGlyphs" textLength="32">found</text><text x="285.25" y="1065.073" fill="#000" font-family="sans-serif" font-size="11" lengthAdjust="spacingAndGlyphs" textLength="145">not found or already found</text><polygon fill="#FEFECE" points="257.25 1227.137 269.25 1239.137 257.25 1251.137 245.25 1239.137 257.25 1227.137" filter="url(#f1fxs94y917cvd)" style="stroke:#a80036;stroke-width:1.5"/><polygon fill="#FEFECE" points="148.25 957.261 366.25 957.261 378.25 969.261 366.25 981.261 148.25 981.261 136.25 969.261 148.25 957.261" filter="url(#f1fxs94y917cvd)" style="stroke:#a80036;stroke-width:1.5"/><text x="148.25" y="973.418" fill="#000" font-family="sans-serif" font-size="11" lengthAdjust="spacingAndGlyphs" textLength="218">for each item from configured option list</text><polygon fill="#FEFECE" points="159.75 908.783 354.75 908.783 366.75 920.783 354.75 932.783 159.75 932.783 147.75 920.783 159.75 908.783" filter="url(#f1fxs94y917cvd)" style="stroke:#a80036;stroke-width:1.5"/><text x="261.25" y="943.418" fill="#000" font-family="sans-serif" font-size="11" lengthAdjust="spacingAndGlyphs" textLength="18">yes</text><text x="159.75" y="924.94" fill="#000" font-family="sans-serif" font-size="11" lengthAdjust="spacingAndGlyphs" textLength="195">sub-option is not set in vivso option</text><text x="366.75" y="918.463" fill="#000" font-family="sans-serif" font-size="11" lengthAdjust="spacingAndGlyphs" textLength="14">no</text><polygon fill="#FEFECE" points="257.25 1293.137 269.25 1305.137 257.25 1317.137 245.25 1305.137 257.25 1293.137" filter="url(#f1fxs94y917cvd)" style="stroke:#a80036;stroke-width:1.5"/><rect width="186" height="34.133" x="164.25" y="1434.092" fill="#FEFECE" filter="url(#f1fxs94y917cvd)" rx="12.5" ry="12.5" style="stroke:#a80036;stroke-width:1.5"/><text x="174.25" y="1455.693" fill="#000" font-family="sans-serif" font-size="12" lengthAdjust="spacingAndGlyphs" textLength="166">add vivso option in response</text><polygon fill="#FEFECE" points="191.25 1385.614 323.25 1385.614 335.25 1397.614 323.25 1409.614 191.25 1409.614 179.25 1397.614 191.25 1385.614" filter="url(#f1fxs94y917cvd)" style="stroke:#a80036;stroke-width:1.5"/><text x="261.25" y="1420.249" fill="#000" font-family="sans-serif" font-size="11" lengthAdjust="spacingAndGlyphs" textLength="14">no</text><text x="191.25" y="1401.772" fill="#000" font-family="sans-serif" font-size="11" lengthAdjust="spacingAndGlyphs" textLength="132">vivso option in response</text><text x="335.25" y="1395.294" fill="#000" font-family="sans-serif" font-size="11" lengthAdjust="spacingAndGlyphs" textLength="18">yes</text><polygon fill="#FEFECE" points="257.25 1488.225 269.25 1500.225 257.25 1512.225 245.25 1500.225 257.25 1488.225" filter="url(#f1fxs94y917cvd)" style="stroke:#a80036;stroke-width:1.5"/><polygon fill="#FEFECE" points="240.75 1337.137 273.75 1337.137 285.75 1349.137 273.75 1361.137 240.75 1361.137 228.75 1349.137 240.75 1337.137" filter="url(#f1fxs94y917cvd)" style="stroke:#a80036;stroke-width:1.5"/><text x="261.25" y="1371.772" fill="#000" font-family="sans-serif" font-size="11" lengthAdjust="spacingAndGlyphs" textLength="18">yes</text><text x="240.75" y="1353.294" fill="#000" font-family="sans-serif" font-size="11" lengthAdjust="spacingAndGlyphs" textLength="33">added</text><text x="285.75" y="1346.816" fill="#000" font-family="sans-serif" font-size="11" lengthAdjust="spacingAndGlyphs" textLength="14">no</text><polygon fill="#FEFECE" points="257.25 1532.225 269.25 1544.225 257.25 1556.225 245.25 1544.225 257.25 1532.225" filter="url(#f1fxs94y917cvd)" style="stroke:#a80036;stroke-width:1.5"/><polygon fill="#FEFECE" points="200.25 864.783 314.25 864.783 326.25 876.783 314.25 888.783 200.25 888.783 188.25 876.783 200.25 864.783" filter="url(#f1fxs94y917cvd)" style="stroke:#a80036;stroke-width:1.5"/><text x="200.25" y="880.94" fill="#000" font-family="sans-serif" font-size="11" lengthAdjust="spacingAndGlyphs" textLength="114">for each code in ORO</text><ellipse cx="70.25" cy="919.783" fill="#FFF" filter="url(#f1fxs94y917cvd)" rx="11" ry="11" style="stroke:#000;stroke-width:1"/><ellipse cx="70.25" cy="919.783" fill="#000" rx="6" ry="6" style="stroke:#7f7f7f;stroke-width:1"/><line style="stroke:#a80036;stroke-width:1.5" x1="257.25" x2="257.25" y1="66.332" y2="86.332"/><polygon fill="#A80036" points="253.25 76.332 257.25 86.332 261.25 76.332 257.25 80.332" style="stroke:#a80036;stroke-width:1"/><line style="stroke:#a80036;stroke-width:1.5" x1="257.25" x2="257.25" y1="223.075" y2="251.509"/><polygon fill="#A80036" points="253.25 241.509 257.25 251.509 261.25 241.509 257.25 245.509" style="stroke:#a80036;stroke-width:1"/><line style="stroke:#a80036;stroke-width:1.5" x1="257.25" x2="257.25" y1="164.465" y2="188.942"/><polygon fill="#A80036" points="253.25 178.942 257.25 188.942 261.25 178.942 257.25 182.942" style="stroke:#a80036;stroke-width:1"/><line style="stroke:#a80036;stroke-width:1.5" x1="294.75" x2="306.75" y1="152.465" y2="152.465"/><polygon fill="#A80036" points="302.75 221.509 306.75 231.509 310.75 221.509 306.75 225.509" style="stroke:#a80036;stroke-width:1.5"/><line style="stroke:#a80036;stroke-width:1.5" x1="306.75" x2="306.75" y1="152.465" y2="295.509"/><line style="stroke:#a80036;stroke-width:1.5" x1="306.75" x2="257.25" y1="295.509" y2="295.509"/><line style="stroke:#a80036;stroke-width:1.5" x1="257.25" x2="257.25" y1="295.509" y2="315.509"/><polygon fill="#A80036" points="253.25 305.509 257.25 315.509 261.25 305.509 257.25 309.509" style="stroke:#a80036;stroke-width:1"/><line style="stroke:#a80036;stroke-width:1.5" x1="257.25" x2="257.25" y1="120.465" y2="140.465"/><polygon fill="#A80036" points="253.25 130.465 257.25 140.465 261.25 130.465 257.25 134.465" style="stroke:#a80036;stroke-width:1"/><line style="stroke:#a80036;stroke-width:1.5" x1="257.25" x2="257.25" y1="349.642" y2="369.642"/><polygon fill="#A80036" points="253.25 359.642 257.25 369.642 261.25 359.642 257.25 363.642" style="stroke:#a80036;stroke-width:1"/><line style="stroke:#a80036;stroke-width:1.5" x1="257.25" x2="257.25" y1="545.907" y2="565.907"/><polygon fill="#A80036" points="253.25 555.907 257.25 565.907 261.25 555.907 257.25 559.907" style="stroke:#a80036;stroke-width:1"/><line style="stroke:#a80036;stroke-width:1.5" x1="257.25" x2="257.25" y1="600.04" y2="610.04"/><line style="stroke:#a80036;stroke-width:1.5" x1="257.25" x2="367.75" y1="610.04" y2="610.04"/><polygon fill="#A80036" points="363.75 580.974 367.75 570.974 371.75 580.974 367.75 576.974" style="stroke:#a80036;stroke-width:1.5"/><line style="stroke:#a80036;stroke-width:1.5" x1="367.75" x2="367.75" y1="533.907" y2="610.04"/><line style="stroke:#a80036;stroke-width:1.5" x1="367.75" x2="338.75" y1="533.907" y2="533.907"/><polygon fill="#A80036" points="348.75 529.907 338.75 533.907 348.75 537.907 344.75 533.907" style="stroke:#a80036;stroke-width:1"/><line style="stroke:#a80036;stroke-width:1.5" x1="175.75" x2="146.75" y1="533.907" y2="533.907"/><polygon fill="#A80036" points="142.75 566.974 146.75 576.974 150.75 566.974 146.75 570.974" style="stroke:#a80036;stroke-width:1.5"/><line style="stroke:#a80036;stroke-width:1.5" x1="146.75" x2="146.75" y1="533.907" y2="622.04"/><line style="stroke:#a80036;stroke-width:1.5" x1="146.75" x2="399.25" y1="622.04" y2="622.04"/><line style="stroke:#a80036;stroke-width:1.5" x1="399.25" x2="399.25" y1="435.774" y2="622.04"/><line style="stroke:#a80036;stroke-width:1.5" x1="399.25" x2="378.25" y1="435.774" y2="435.774"/><polygon fill="#A80036" points="388.25 431.774 378.25 435.774 388.25 439.774 384.25 435.774" style="stroke:#a80036;stroke-width:1"/><line style="stroke:#a80036;stroke-width:1.5" x1="257.25" x2="257.25" y1="501.907" y2="521.907"/><polygon fill="#A80036" points="253.25 511.907 257.25 521.907 261.25 511.907 257.25 515.907" style="stroke:#a80036;stroke-width:1"/><line style="stroke:#a80036;stroke-width:1.5" x1="257.25" x2="257.25" y1="447.774" y2="467.774"/><polygon fill="#A80036" points="253.25 457.774 257.25 467.774 261.25 457.774 257.25 461.774" style="stroke:#a80036;stroke-width:1"/><line style="stroke:#a80036;stroke-width:1.5" x1="136.25" x2="115.25" y1="435.774" y2="435.774"/><polygon fill="#A80036" points="111.25 524.407 115.25 534.407 119.25 524.407 115.25 528.407" style="stroke:#a80036;stroke-width:1.5"/><line style="stroke:#a80036;stroke-width:1.5" x1="115.25" x2="115.25" y1="435.774" y2="644.04"/><line style="stroke:#a80036;stroke-width:1.5" x1="115.25" x2="257.25" y1="644.04" y2="644.04"/><line style="stroke:#a80036;stroke-width:1.5" x1="257.25" x2="257.25" y1="644.04" y2="664.04"/><polygon fill="#A80036" points="253.25 654.04 257.25 664.04 261.25 654.04 257.25 658.04" style="stroke:#a80036;stroke-width:1"/><line style="stroke:#a80036;stroke-width:1.5" x1="257.25" x2="257.25" y1="403.774" y2="423.774"/><polygon fill="#A80036" points="253.25 413.774 257.25 423.774 261.25 413.774 257.25 417.774" style="stroke:#a80036;stroke-width:1"/><line style="stroke:#a80036;stroke-width:1.5" x1="257.25" x2="257.25" y1="688.04" y2="712.518"/><polygon fill="#A80036" points="253.25 702.518 257.25 712.518 261.25 702.518 257.25 706.518" style="stroke:#a80036;stroke-width:1"/><line style="stroke:#a80036;stroke-width:1.5" x1="328.75" x2="370.75" y1="676.04" y2="676.04"/><polygon fill="#A80036" points="366.75 719.584 370.75 729.584 374.75 719.584 370.75 723.584" style="stroke:#a80036;stroke-width:1.5"/><line style="stroke:#a80036;stroke-width:1.5" x1="370.75" x2="370.75" y1="676.04" y2="778.65"/><line style="stroke:#a80036;stroke-width:1.5" x1="370.75" x2="269.25" y1="778.65" y2="778.65"/><polygon fill="#A80036" points="279.25 774.65 269.25 778.65 279.25 782.65 275.25 778.65" style="stroke:#a80036;stroke-width:1"/><line style="stroke:#a80036;stroke-width:1.5" x1="257.25" x2="257.25" y1="746.65" y2="766.65"/><polygon fill="#A80036" points="253.25 756.65 257.25 766.65 261.25 756.65 257.25 760.65" style="stroke:#a80036;stroke-width:1"/><line style="stroke:#a80036;stroke-width:1.5" x1="257.25" x2="257.25" y1="790.65" y2="810.65"/><polygon fill="#A80036" points="253.25 800.65 257.25 810.65 261.25 800.65 257.25 804.65" style="stroke:#a80036;stroke-width:1"/><line style="stroke:#a80036;stroke-width:1.5" x1="257.25" x2="257.25" y1="1138.004" y2="1173.004"/><polygon fill="#A80036" points="253.25 1163.004 257.25 1173.004 261.25 1163.004 257.25 1167.004" style="stroke:#a80036;stroke-width:1"/><line style="stroke:#a80036;stroke-width:1.5" x1="257.25" x2="257.25" y1="1079.394" y2="1103.871"/><polygon fill="#A80036" points="253.25 1093.871 257.25 1103.871 261.25 1093.871 257.25 1097.871" style="stroke:#a80036;stroke-width:1"/><line style="stroke:#a80036;stroke-width:1.5" x1="285.25" x2="366.25" y1="1067.394" y2="1067.394"/><polygon fill="#A80036" points="362.25 1145.504 366.25 1155.504 370.25 1145.504 366.25 1149.504" style="stroke:#a80036;stroke-width:1.5"/><line style="stroke:#a80036;stroke-width:1.5" x1="366.25" x2="366.25" y1="1067.394" y2="1239.137"/><line style="stroke:#a80036;stroke-width:1.5" x1="366.25" x2="269.25" y1="1239.137" y2="1239.137"/><polygon fill="#A80036" points="279.25 1235.137 269.25 1239.137 279.25 1243.137 275.25 1239.137" style="stroke:#a80036;stroke-width:1"/><line style="stroke:#a80036;stroke-width:1.5" x1="257.25" x2="257.25" y1="1207.137" y2="1227.137"/><polygon fill="#A80036" points="253.25 1217.137 257.25 1227.137 261.25 1217.137 257.25 1221.137" style="stroke:#a80036;stroke-width:1"/><line style="stroke:#a80036;stroke-width:1.5" x1="257.25" x2="257.25" y1="1035.394" y2="1055.394"/><polygon fill="#A80036" points="253.25 1045.394 257.25 1055.394 261.25 1045.394 257.25 1049.394" style="stroke:#a80036;stroke-width:1"/><line style="stroke:#a80036;stroke-width:1.5" x1="257.25" x2="257.25" y1="981.261" y2="1001.261"/><polygon fill="#A80036" points="253.25 991.261 257.25 1001.261 261.25 991.261 257.25 995.261" style="stroke:#a80036;stroke-width:1"/><line style="stroke:#a80036;stroke-width:1.5" x1="257.25" x2="257.25" y1="1251.137" y2="1261.137"/><line style="stroke:#a80036;stroke-width:1.5" x1="257.25" x2="399.25" y1="1261.137" y2="1261.137"/><polygon fill="#A80036" points="395.25 1118.938 399.25 1108.938 403.25 1118.938 399.25 1114.938" style="stroke:#a80036;stroke-width:1.5"/><line style="stroke:#a80036;stroke-width:1.5" x1="399.25" x2="399.25" y1="969.261" y2="1261.137"/><line style="stroke:#a80036;stroke-width:1.5" x1="399.25" x2="378.25" y1="969.261" y2="969.261"/><polygon fill="#A80036" points="388.25 965.261 378.25 969.261 388.25 973.261 384.25 969.261" style="stroke:#a80036;stroke-width:1"/><line style="stroke:#a80036;stroke-width:1.5" x1="136.25" x2="115.25" y1="969.261" y2="969.261"/><polygon fill="#A80036" points="111.25 1104.938 115.25 1114.938 119.25 1104.938 115.25 1108.938" style="stroke:#a80036;stroke-width:1.5"/><line style="stroke:#a80036;stroke-width:1.5" x1="115.25" x2="115.25" y1="969.261" y2="1273.137"/><line style="stroke:#a80036;stroke-width:1.5" x1="115.25" x2="257.25" y1="1273.137" y2="1273.137"/><line style="stroke:#a80036;stroke-width:1.5" x1="257.25" x2="257.25" y1="1273.137" y2="1293.137"/><polygon fill="#A80036" points="253.25 1283.137 257.25 1293.137 261.25 1283.137 257.25 1287.137" style="stroke:#a80036;stroke-width:1"/><line style="stroke:#a80036;stroke-width:1.5" x1="257.25" x2="257.25" y1="932.783" y2="957.261"/><polygon fill="#A80036" points="253.25 947.261 257.25 957.261 261.25 947.261 257.25 951.261" style="stroke:#a80036;stroke-width:1"/><line style="stroke:#a80036;stroke-width:1.5" x1="366.75" x2="409.25" y1="920.783" y2="920.783"/><polygon fill="#A80036" points="405.25 1098.938 409.25 1108.938 413.25 1098.938 409.25 1102.938" style="stroke:#a80036;stroke-width:1.5"/><line style="stroke:#a80036;stroke-width:1.5" x1="409.25" x2="409.25" y1="920.783" y2="1305.137"/><line style="stroke:#a80036;stroke-width:1.5" x1="409.25" x2="269.25" y1="1305.137" y2="1305.137"/><polygon fill="#A80036" points="279.25 1301.137 269.25 1305.137 279.25 1309.137 275.25 1305.137" style="stroke:#a80036;stroke-width:1"/><line style="stroke:#a80036;stroke-width:1.5" x1="257.25" x2="257.25" y1="1409.614" y2="1434.092"/><polygon fill="#A80036" points="253.25 1424.092 257.25 1434.092 261.25 1424.092 257.25 1428.092" style="stroke:#a80036;stroke-width:1"/><line style="stroke:#a80036;stroke-width:1.5" x1="335.25" x2="360.25" y1="1397.614" y2="1397.614"/><polygon fill="#A80036" points="356.25 1441.158 360.25 1451.158 364.25 1441.158 360.25 1445.158" style="stroke:#a80036;stroke-width:1.5"/><line style="stroke:#a80036;stroke-width:1.5" x1="360.25" x2="360.25" y1="1397.614" y2="1500.225"/><line style="stroke:#a80036;stroke-width:1.5" x1="360.25" x2="269.25" y1="1500.225" y2="1500.225"/><polygon fill="#A80036" points="279.25 1496.225 269.25 1500.225 279.25 1504.225 275.25 1500.225" style="stroke:#a80036;stroke-width:1"/><line style="stroke:#a80036;stroke-width:1.5" x1="257.25" x2="257.25" y1="1468.225" y2="1488.225"/><polygon fill="#A80036" points="253.25 1478.225 257.25 1488.225 261.25 1478.225 257.25 1482.225" style="stroke:#a80036;stroke-width:1"/><line style="stroke:#a80036;stroke-width:1.5" x1="257.25" x2="257.25" y1="1361.137" y2="1385.614"/><polygon fill="#A80036" points="253.25 1375.614 257.25 1385.614 261.25 1375.614 257.25 1379.614" style="stroke:#a80036;stroke-width:1"/><line style="stroke:#a80036;stroke-width:1.5" x1="285.75" x2="382.25" y1="1349.137" y2="1349.137"/><polygon fill="#A80036" points="378.25 1441.158 382.25 1451.158 386.25 1441.158 382.25 1445.158" style="stroke:#a80036;stroke-width:1.5"/><line style="stroke:#a80036;stroke-width:1.5" x1="382.25" x2="382.25" y1="1349.137" y2="1544.225"/><line style="stroke:#a80036;stroke-width:1.5" x1="382.25" x2="269.25" y1="1544.225" y2="1544.225"/><polygon fill="#A80036" points="279.25 1540.225 269.25 1544.225 279.25 1548.225 275.25 1544.225" style="stroke:#a80036;stroke-width:1"/><line style="stroke:#a80036;stroke-width:1.5" x1="257.25" x2="257.25" y1="1512.225" y2="1532.225"/><polygon fill="#A80036" points="253.25 1522.225 257.25 1532.225 261.25 1522.225 257.25 1526.225" style="stroke:#a80036;stroke-width:1"/><line style="stroke:#a80036;stroke-width:1.5" x1="257.25" x2="257.25" y1="1317.137" y2="1337.137"/><polygon fill="#A80036" points="253.25 1327.137 257.25 1337.137 261.25 1327.137 257.25 1331.137" style="stroke:#a80036;stroke-width:1"/><line style="stroke:#a80036;stroke-width:1.5" x1="257.25" x2="257.25" y1="888.783" y2="908.783"/><polygon fill="#A80036" points="253.25 898.783 257.25 908.783 261.25 898.783 257.25 902.783" style="stroke:#a80036;stroke-width:1"/><line style="stroke:#a80036;stroke-width:1.5" x1="257.25" x2="257.25" y1="1556.225" y2="1566.225"/><line style="stroke:#a80036;stroke-width:1.5" x1="257.25" x2="433.25" y1="1566.225" y2="1566.225"/><polygon fill="#A80036" points="429.25 1233.981 433.25 1223.981 437.25 1233.981 433.25 1229.981" style="stroke:#a80036;stroke-width:1.5"/><line style="stroke:#a80036;stroke-width:1.5" x1="433.25" x2="433.25" y1="876.783" y2="1566.225"/><line style="stroke:#a80036;stroke-width:1.5" x1="433.25" x2="326.25" y1="876.783" y2="876.783"/><polygon fill="#A80036" points="336.25 872.783 326.25 876.783 336.25 880.783 332.25 876.783" style="stroke:#a80036;stroke-width:1"/><line style="stroke:#a80036;stroke-width:1.5" x1="188.25" x2="70.25" y1="876.783" y2="876.783"/><line style="stroke:#a80036;stroke-width:1.5" x1="70.25" x2="70.25" y1="876.783" y2="908.783"/><polygon fill="#A80036" points="66.25 898.783 70.25 908.783 74.25 898.783 70.25 902.783" style="stroke:#a80036;stroke-width:1"/><line style="stroke:#a80036;stroke-width:1.5" x1="257.25" x2="257.25" y1="844.783" y2="864.783"/><polygon fill="#A80036" points="253.25 854.783 257.25 864.783 261.25 854.783 257.25 858.783" style="stroke:#a80036;stroke-width:1"/></g></svg>