<svg xmlns="http://www.w3.org/2000/svg" xmlns:xlink="http://www.w3.org/1999/xlink" width="444" height="797" contentScriptType="application/ecmascript" contentStyleType="text/css" preserveAspectRatio="none" style="width:444px;height:797px" version="1.1" viewBox="0 0 444 797" zoomAndPan="magnify"><defs><filter id="fmj8a1z5wugx1" width="300%" height="300%" x="-1" y="-1"><feGaussianBlur result="blurOut" stdDeviation="2"/><feColorMatrix in="blurOut" result="blurOut2" type="matrix" values="0 0 0 0 0 0 0 0 0 0 0 0 0 0 0 0 0 0 .4 0"/><feOffset dx="4" dy="4" in="blurOut2" result="blurOut3"/><feBlend in="SourceGraphic" in2="blurOut3" mode="normal"/></filter></defs><g><text x="12" y="27.402" fill="#000" font-family="sans-serif" font-size="18" lengthAdjust="spacingAndGlyphs" textLength="420">Append requested options algorithm (Kea 1.8.0)</text><rect width="163" height="34.133" x="136" y="32.199" fill="#FEFECE" filter="url(#fmj8a1z5wugx1)" rx="12.5" ry="12.5" style="stroke:#a80036;stroke-width:1.5"/><text x="146" y="53.801" fill="#000" font-family="sans-serif" font-size="12" lengthAdjust="spacingAndGlyphs" textLength="143">get configured option list</text><rect width="272" height="34.133" x="81.5" y="86.332" fill="#FEFECE" filter="url(#fmj8a1z5wugx1)" rx="12.5" ry="12.5" style="stroke:#a80036;stroke-width:1.5"/><text x="91.5" y="107.934" fill="#000" font-family="sans-serif" font-size="12" lengthAdjust="spacingAndGlyphs" textLength="252">get parameter request list (PRL) from query</text><rect width="242" height="34.133" x="96.5" y="184.465" fill="#FEFECE" filter="url(#fmj8a1z5wugx1)" rx="12.5" ry="12.5" style="stroke:#a80036;stroke-width:1.5"/><text x="106.5" y="206.066" fill="#000" font-family="sans-serif" font-size="12" lengthAdjust="spacingAndGlyphs" textLength="222">get configured options in dhcp4 space</text><rect width="192" height="34.133" x="121.5" y="282.598" fill="#FEFECE" filter="url(#fmj8a1z5wugx1)" rx="12.5" ry="12.5" style="stroke:#a80036;stroke-width:1.5"/><text x="131.5" y="304.199" fill="#000" font-family="sans-serif" font-size="12" lengthAdjust="spacingAndGlyphs" textLength="172">push back option code to PRL</text><polygon fill="#FEFECE" points="148 238.598 287 238.598 299 250.598 287 262.598 148 262.598 136 250.598 148 238.598" filter="url(#fmj8a1z5wugx1)" style="stroke:#a80036;stroke-width:1.5"/><text x="148" y="254.755" fill="#000" font-family="sans-serif" font-size="11" lengthAdjust="spacingAndGlyphs" textLength="139">for each persistent option</text><polygon fill="#FEFECE" points="108.5 140.465 326.5 140.465 338.5 152.465 326.5 164.465 108.5 164.465 96.5 152.465 108.5 140.465" filter="url(#fmj8a1z5wugx1)" style="stroke:#a80036;stroke-width:1.5"/><text x="108.5" y="156.622" fill="#000" font-family="sans-serif" font-size="11" lengthAdjust="spacingAndGlyphs" textLength="218">for each item from configured option list</text><rect width="242" height="34.133" x="96.5" y="517.208" fill="#FEFECE" filter="url(#fmj8a1z5wugx1)" rx="12.5" ry="12.5" style="stroke:#a80036;stroke-width:1.5"/><text x="106.5" y="538.81" fill="#000" font-family="sans-serif" font-size="12" lengthAdjust="spacingAndGlyphs" textLength="222">get configured options in dhcp4 space</text><rect width="155" height="34.133" x="140" y="619.818" fill="#FEFECE" filter="url(#fmj8a1z5wugx1)" rx="12.5" ry="12.5" style="stroke:#a80036;stroke-width:1.5"/><text x="150" y="641.42" fill="#000" font-family="sans-serif" font-size="12" lengthAdjust="spacingAndGlyphs" textLength="135">add option to response</text><polygon fill="#FEFECE" points="201.5 571.341 233.5 571.341 245.5 583.341 233.5 595.341 201.5 595.341 189.5 583.341 201.5 571.341" filter="url(#fmj8a1z5wugx1)" style="stroke:#a80036;stroke-width:1.5"/><text x="221.5" y="605.976" fill="#000" font-family="sans-serif" font-size="11" lengthAdjust="spacingAndGlyphs" textLength="22">first</text><text x="201.5" y="587.498" fill="#000" font-family="sans-serif" font-size="11" lengthAdjust="spacingAndGlyphs" textLength="32">found</text><text x="245.5" y="581.02" fill="#000" font-family="sans-serif" font-size="11" lengthAdjust="spacingAndGlyphs" textLength="145">not found or already found</text><polygon fill="#FEFECE" points="217.5 673.951 229.5 685.951 217.5 697.951 205.5 685.951 217.5 673.951" filter="url(#fmj8a1z5wugx1)" style="stroke:#a80036;stroke-width:1.5"/><polygon fill="#FEFECE" points="108.5 473.208 326.5 473.208 338.5 485.208 326.5 497.208 108.5 497.208 96.5 485.208 108.5 473.208" filter="url(#fmj8a1z5wugx1)" style="stroke:#a80036;stroke-width:1.5"/><text x="108.5" y="489.365" fill="#000" font-family="sans-serif" font-size="11" lengthAdjust="spacingAndGlyphs" textLength="218">for each item from configured option list</text><polygon fill="#FEFECE" points="141 424.731 294 424.731 306 436.731 294 448.731 141 448.731 129 436.731 141 424.731" filter="url(#fmj8a1z5wugx1)" style="stroke:#a80036;stroke-width:1.5"/><text x="221.5" y="459.365" fill="#000" font-family="sans-serif" font-size="11" lengthAdjust="spacingAndGlyphs" textLength="18">yes</text><text x="141" y="440.888" fill="#000" font-family="sans-serif" font-size="11" lengthAdjust="spacingAndGlyphs" textLength="153">option is not set in response</text><text x="306" y="434.41" fill="#000" font-family="sans-serif" font-size="11" lengthAdjust="spacingAndGlyphs" textLength="14">no</text><polygon fill="#FEFECE" points="217.5 739.951 229.5 751.951 217.5 763.951 205.5 751.951 217.5 739.951" filter="url(#fmj8a1z5wugx1)" style="stroke:#a80036;stroke-width:1.5"/><polygon fill="#FEFECE" points="163.5 380.731 271.5 380.731 283.5 392.731 271.5 404.731 163.5 404.731 151.5 392.731 163.5 380.731" filter="url(#fmj8a1z5wugx1)" style="stroke:#a80036;stroke-width:1.5"/><text x="163.5" y="396.888" fill="#000" font-family="sans-serif" font-size="11" lengthAdjust="spacingAndGlyphs" textLength="108">for each code in PRL</text><ellipse cx="59.5" cy="435.731" fill="#FFF" filter="url(#fmj8a1z5wugx1)" rx="11" ry="11" style="stroke:#000;stroke-width:1"/><ellipse cx="59.5" cy="435.731" fill="#000" rx="6" ry="6" style="stroke:#7f7f7f;stroke-width:1"/><line style="stroke:#a80036;stroke-width:1.5" x1="217.5" x2="217.5" y1="66.332" y2="86.332"/><polygon fill="#A80036" points="213.5 76.332 217.5 86.332 221.5 76.332 217.5 80.332" style="stroke:#a80036;stroke-width:1"/><line style="stroke:#a80036;stroke-width:1.5" x1="217.5" x2="217.5" y1="262.598" y2="282.598"/><polygon fill="#A80036" points="213.5 272.598 217.5 282.598 221.5 272.598 217.5 276.598" style="stroke:#a80036;stroke-width:1"/><line style="stroke:#a80036;stroke-width:1.5" x1="217.5" x2="217.5" y1="316.731" y2="326.731"/><line style="stroke:#a80036;stroke-width:1.5" x1="217.5" x2="325.5" y1="326.731" y2="326.731"/><polygon fill="#A80036" points="321.5 297.664 325.5 287.664 329.5 297.664 325.5 293.664" style="stroke:#a80036;stroke-width:1.5"/><line style="stroke:#a80036;stroke-width:1.5" x1="325.5" x2="325.5" y1="250.598" y2="326.731"/><line style="stroke:#a80036;stroke-width:1.5" x1="325.5" x2="299" y1="250.598" y2="250.598"/><polygon fill="#A80036" points="309 246.598 299 250.598 309 254.598 305 250.598" style="stroke:#a80036;stroke-width:1"/><line style="stroke:#a80036;stroke-width:1.5" x1="136" x2="109.5" y1="250.598" y2="250.598"/><polygon fill="#A80036" points="105.5 283.664 109.5 293.664 113.5 283.664 109.5 287.664" style="stroke:#a80036;stroke-width:1.5"/><line style="stroke:#a80036;stroke-width:1.5" x1="109.5" x2="109.5" y1="250.598" y2="338.731"/><line style="stroke:#a80036;stroke-width:1.5" x1="109.5" x2="350.5" y1="338.731" y2="338.731"/><line style="stroke:#a80036;stroke-width:1.5" x1="350.5" x2="350.5" y1="152.465" y2="338.731"/><line style="stroke:#a80036;stroke-width:1.5" x1="350.5" x2="338.5" y1="152.465" y2="152.465"/><polygon fill="#A80036" points="348.5 148.465 338.5 152.465 348.5 156.465 344.5 152.465" style="stroke:#a80036;stroke-width:1"/><line style="stroke:#a80036;stroke-width:1.5" x1="217.5" x2="217.5" y1="218.598" y2="238.598"/><polygon fill="#A80036" points="213.5 228.598 217.5 238.598 221.5 228.598 217.5 232.598" style="stroke:#a80036;stroke-width:1"/><line style="stroke:#a80036;stroke-width:1.5" x1="217.5" x2="217.5" y1="164.465" y2="184.465"/><polygon fill="#A80036" points="213.5 174.465 217.5 184.465 221.5 174.465 217.5 178.465" style="stroke:#a80036;stroke-width:1"/><line style="stroke:#a80036;stroke-width:1.5" x1="96.5" x2="84.5" y1="152.465" y2="152.465"/><polygon fill="#A80036" points="80.5 241.098 84.5 251.098 88.5 241.098 84.5 245.098" style="stroke:#a80036;stroke-width:1.5"/><line style="stroke:#a80036;stroke-width:1.5" x1="84.5" x2="84.5" y1="152.465" y2="360.731"/><line style="stroke:#a80036;stroke-width:1.5" x1="84.5" x2="217.5" y1="360.731" y2="360.731"/><line style="stroke:#a80036;stroke-width:1.5" x1="217.5" x2="217.5" y1="360.731" y2="380.731"/><polygon fill="#A80036" points="213.5 370.731 217.5 380.731 221.5 370.731 217.5 374.731" style="stroke:#a80036;stroke-width:1"/><line style="stroke:#a80036;stroke-width:1.5" x1="217.5" x2="217.5" y1="120.465" y2="140.465"/><polygon fill="#A80036" points="213.5 130.465 217.5 140.465 221.5 130.465 217.5 134.465" style="stroke:#a80036;stroke-width:1"/><line style="stroke:#a80036;stroke-width:1.5" x1="217.5" x2="217.5" y1="595.341" y2="619.818"/><polygon fill="#A80036" points="213.5 609.818 217.5 619.818 221.5 609.818 217.5 613.818" style="stroke:#a80036;stroke-width:1"/><line style="stroke:#a80036;stroke-width:1.5" x1="245.5" x2="305" y1="583.341" y2="583.341"/><polygon fill="#A80036" points="301 626.885 305 636.885 309 626.885 305 630.885" style="stroke:#a80036;stroke-width:1.5"/><line style="stroke:#a80036;stroke-width:1.5" x1="305" x2="305" y1="583.341" y2="685.951"/><line style="stroke:#a80036;stroke-width:1.5" x1="305" x2="229.5" y1="685.951" y2="685.951"/><polygon fill="#A80036" points="239.5 681.951 229.5 685.951 239.5 689.951 235.5 685.951" style="stroke:#a80036;stroke-width:1"/><line style="stroke:#a80036;stroke-width:1.5" x1="217.5" x2="217.5" y1="653.951" y2="673.951"/><polygon fill="#A80036" points="213.5 663.951 217.5 673.951 221.5 663.951 217.5 667.951" style="stroke:#a80036;stroke-width:1"/><line style="stroke:#a80036;stroke-width:1.5" x1="217.5" x2="217.5" y1="551.341" y2="571.341"/><polygon fill="#A80036" points="213.5 561.341 217.5 571.341 221.5 561.341 217.5 565.341" style="stroke:#a80036;stroke-width:1"/><line style="stroke:#a80036;stroke-width:1.5" x1="217.5" x2="217.5" y1="497.208" y2="517.208"/><polygon fill="#A80036" points="213.5 507.208 217.5 517.208 221.5 507.208 217.5 511.208" style="stroke:#a80036;stroke-width:1"/><line style="stroke:#a80036;stroke-width:1.5" x1="217.5" x2="217.5" y1="697.951" y2="707.951"/><line style="stroke:#a80036;stroke-width:1.5" x1="217.5" x2="350.5" y1="707.951" y2="707.951"/><polygon fill="#A80036" points="346.5 600.318 350.5 590.318 354.5 600.318 350.5 596.318" style="stroke:#a80036;stroke-width:1.5"/><line style="stroke:#a80036;stroke-width:1.5" x1="350.5" x2="350.5" y1="485.208" y2="707.951"/><line style="stroke:#a80036;stroke-width:1.5" x1="350.5" x2="338.5" y1="485.208" y2="485.208"/><polygon fill="#A80036" points="348.5 481.208 338.5 485.208 348.5 489.208 344.5 485.208" style="stroke:#a80036;stroke-width:1"/><line style="stroke:#a80036;stroke-width:1.5" x1="96.5" x2="84.5" y1="485.208" y2="485.208"/><polygon fill="#A80036" points="80.5 586.318 84.5 596.318 88.5 586.318 84.5 590.318" style="stroke:#a80036;stroke-width:1.5"/><line style="stroke:#a80036;stroke-width:1.5" x1="84.5" x2="84.5" y1="485.208" y2="719.951"/><line style="stroke:#a80036;stroke-width:1.5" x1="84.5" x2="217.5" y1="719.951" y2="719.951"/><line style="stroke:#a80036;stroke-width:1.5" x1="217.5" x2="217.5" y1="719.951" y2="739.951"/><polygon fill="#A80036" points="213.5 729.951 217.5 739.951 221.5 729.951 217.5 733.951" style="stroke:#a80036;stroke-width:1"/><line style="stroke:#a80036;stroke-width:1.5" x1="217.5" x2="217.5" y1="448.731" y2="473.208"/><polygon fill="#A80036" points="213.5 463.208 217.5 473.208 221.5 463.208 217.5 467.208" style="stroke:#a80036;stroke-width:1"/><line style="stroke:#a80036;stroke-width:1.5" x1="306" x2="360.5" y1="436.731" y2="436.731"/><polygon fill="#A80036" points="356.5 580.318 360.5 590.318 364.5 580.318 360.5 584.318" style="stroke:#a80036;stroke-width:1.5"/><line style="stroke:#a80036;stroke-width:1.5" x1="360.5" x2="360.5" y1="436.731" y2="751.951"/><line style="stroke:#a80036;stroke-width:1.5" x1="360.5" x2="229.5" y1="751.951" y2="751.951"/><polygon fill="#A80036" points="239.5 747.951 229.5 751.951 239.5 755.951 235.5 751.951" style="stroke:#a80036;stroke-width:1"/><line style="stroke:#a80036;stroke-width:1.5" x1="217.5" x2="217.5" y1="404.731" y2="424.731"/><polygon fill="#A80036" points="213.5 414.731 217.5 424.731 221.5 414.731 217.5 418.731" style="stroke:#a80036;stroke-width:1"/><line style="stroke:#a80036;stroke-width:1.5" x1="217.5" x2="217.5" y1="763.951" y2="773.951"/><line style="stroke:#a80036;stroke-width:1.5" x1="217.5" x2="384.5" y1="773.951" y2="773.951"/><polygon fill="#A80036" points="380.5 588.318 384.5 578.318 388.5 588.318 384.5 584.318" style="stroke:#a80036;stroke-width:1.5"/><line style="stroke:#a80036;stroke-width:1.5" x1="384.5" x2="384.5" y1="392.731" y2="773.951"/><line style="stroke:#a80036;stroke-width:1.5" x1="384.5" x2="283.5" y1="392.731" y2="392.731"/><polygon fill="#A80036" points="293.5 388.731 283.5 392.731 293.5 396.731 289.5 392.731" style="stroke:#a80036;stroke-width:1"/><line style="stroke:#a80036;stroke-width:1.5" x1="151.5" x2="59.5" y1="392.731" y2="392.731"/><line style="stroke:#a80036;stroke-width:1.5" x1="59.5" x2="59.5" y1="392.731" y2="424.731"/><polygon fill="#A80036" points="55.5 414.731 59.5 424.731 63.5 414.731 59.5 418.731" style="stroke:#a80036;stroke-width:1"/></g></svg>