<svg xmlns="http://www.w3.org/2000/svg" xmlns:xlink="http://www.w3.org/1999/xlink" width="631" height="1473" contentScriptType="application/ecmascript" contentStyleType="text/css" preserveAspectRatio="none" style="width:631px;height:1473px" version="1.1" viewBox="0 0 631 1473" zoomAndPan="magnify"><defs><filter id="fir6yoc6xktif" width="300%" height="300%" x="-1" y="-1"><feGaussianBlur result="blurOut" stdDeviation="2"/><feColorMatrix in="blurOut" result="blurOut2" type="matrix" values="0 0 0 0 0 0 0 0 0 0 0 0 0 0 0 0 0 0 .4 0"/><feOffset dx="4" dy="4" in="blurOut2" result="blurOut3"/><feBlend in="SourceGraphic" in2="blurOut3" mode="normal"/></filter></defs><g><text x="13.5" y="27.402" fill="#000" font-family="sans-serif" font-size="18" lengthAdjust="spacingAndGlyphs" textLength="602">buildCfgOptionList: build configured option list algorithm (Kea 1.8.0)</text><ellipse cx="285.25" cy="41.199" fill="#000" filter="url(#fir6yoc6xktif)" rx="10" ry="10" style="stroke:none;stroke-width:1"/><rect width="213" height="34.133" x="178.75" y="71.199" fill="#FEFECE" filter="url(#fir6yoc6xktif)" rx="12.5" ry="12.5" style="stroke:#a80036;stroke-width:1.5"/><text x="188.75" y="92.801" fill="#000" font-family="sans-serif" font-size="12" lengthAdjust="spacingAndGlyphs" textLength="193">Get (empty) configured option list</text><rect width="55" height="34.133" x="257.75" y="173.81" fill="#FEFECE" filter="url(#fir6yoc6xktif)" rx="12.5" ry="12.5" style="stroke:#a80036;stroke-width:1.5"/><text x="267.75" y="195.411" fill="#000" font-family="sans-serif" font-size="12" lengthAdjust="spacingAndGlyphs" textLength="35">return</text><ellipse cx="285.25" cy="247.376" fill="#FFF" filter="url(#fir6yoc6xktif)" rx="11" ry="11" style="stroke:#000;stroke-width:1"/><ellipse cx="285.25" cy="247.376" fill="#000" rx="6" ry="6" style="stroke:#7f7f7f;stroke-width:1"/><polygon fill="#FEFECE" points="258.25 125.332 312.25 125.332 324.25 137.332 312.25 149.332 258.25 149.332 246.25 137.332 258.25 125.332" filter="url(#fir6yoc6xktif)" style="stroke:#a80036;stroke-width:1.5"/><text x="289.25" y="159.967" fill="#000" font-family="sans-serif" font-size="11" lengthAdjust="spacingAndGlyphs" textLength="18">yes</text><text x="258.25" y="141.489" fill="#000" font-family="sans-serif" font-size="11" lengthAdjust="spacingAndGlyphs" textLength="54">no subnet</text><text x="324.25" y="135.012" fill="#000" font-family="sans-serif" font-size="11" lengthAdjust="spacingAndGlyphs" textLength="14">no</text><rect width="219" height="34.133" x="175.75" y="348.853" fill="#FEFECE" filter="url(#fir6yoc6xktif)" rx="12.5" ry="12.5" style="stroke:#a80036;stroke-width:1.5"/><text x="185.75" y="370.455" fill="#000" font-family="sans-serif" font-size="12" lengthAdjust="spacingAndGlyphs" textLength="199">push back host configured options</text><polygon fill="#FEFECE" points="219.75 300.376 350.75 300.376 362.75 312.376 350.75 324.376 219.75 324.376 207.75 312.376 219.75 300.376" filter="url(#fir6yoc6xktif)" style="stroke:#a80036;stroke-width:1.5"/><text x="289.25" y="335.011" fill="#000" font-family="sans-serif" font-size="11" lengthAdjust="spacingAndGlyphs" textLength="18">yes</text><text x="219.75" y="316.533" fill="#000" font-family="sans-serif" font-size="11" lengthAdjust="spacingAndGlyphs" textLength="131">current host reservation</text><text x="362.75" y="310.056" fill="#000" font-family="sans-serif" font-size="11" lengthAdjust="spacingAndGlyphs" textLength="14">no</text><polygon fill="#FEFECE" points="285.25 402.986 297.25 414.986 285.25 426.986 273.25 414.986 285.25 402.986" filter="url(#fir6yoc6xktif)" style="stroke:#a80036;stroke-width:1.5"/><rect width="188" height="34.133" x="191.25" y="495.464" fill="#FEFECE" filter="url(#fir6yoc6xktif)" rx="12.5" ry="12.5" style="stroke:#a80036;stroke-width:1.5"/><text x="201.25" y="517.065" fill="#000" font-family="sans-serif" font-size="12" lengthAdjust="spacingAndGlyphs" textLength="168">get pool of assigned address</text><rect width="220" height="34.133" x="175.25" y="598.074" fill="#FEFECE" filter="url(#fir6yoc6xktif)" rx="12.5" ry="12.5" style="stroke:#a80036;stroke-width:1.5"/><text x="185.25" y="619.676" fill="#000" font-family="sans-serif" font-size="12" lengthAdjust="spacingAndGlyphs" textLength="200">push back pool configured options</text><polygon fill="#FEFECE" points="273.25 549.597 297.25 549.597 309.25 561.597 297.25 573.597 273.25 573.597 261.25 561.597 273.25 549.597" filter="url(#fir6yoc6xktif)" style="stroke:#a80036;stroke-width:1.5"/><text x="289.25" y="584.231" fill="#000" font-family="sans-serif" font-size="11" lengthAdjust="spacingAndGlyphs" textLength="18">yes</text><text x="273.25" y="565.754" fill="#000" font-family="sans-serif" font-size="11" lengthAdjust="spacingAndGlyphs" textLength="24">pool</text><text x="309.25" y="559.276" fill="#000" font-family="sans-serif" font-size="11" lengthAdjust="spacingAndGlyphs" textLength="14">no</text><polygon fill="#FEFECE" points="285.25 652.207 297.25 664.207 285.25 676.207 273.25 664.207 285.25 652.207" filter="url(#fir6yoc6xktif)" style="stroke:#a80036;stroke-width:1.5"/><polygon fill="#FEFECE" points="238.25 446.986 332.25 446.986 344.25 458.986 332.25 470.986 238.25 470.986 226.25 458.986 238.25 446.986" filter="url(#fir6yoc6xktif)" style="stroke:#a80036;stroke-width:1.5"/><text x="289.25" y="481.621" fill="#000" font-family="sans-serif" font-size="11" lengthAdjust="spacingAndGlyphs" textLength="18">yes</text><text x="238.25" y="463.144" fill="#000" font-family="sans-serif" font-size="11" lengthAdjust="spacingAndGlyphs" textLength="94">assigned address</text><text x="344.25" y="456.666" fill="#000" font-family="sans-serif" font-size="11" lengthAdjust="spacingAndGlyphs" textLength="14">no</text><polygon fill="#FEFECE" points="285.25 696.207 297.25 708.207 285.25 720.207 273.25 708.207 285.25 696.207" filter="url(#fir6yoc6xktif)" style="stroke:#a80036;stroke-width:1.5"/><rect width="234" height="34.133" x="168.25" y="740.207" fill="#FEFECE" filter="url(#fir6yoc6xktif)" rx="12.5" ry="12.5" style="stroke:#a80036;stroke-width:1.5"/><text x="178.25" y="761.809" fill="#000" font-family="sans-serif" font-size="12" lengthAdjust="spacingAndGlyphs" textLength="214">push back subnet configured options</text><rect width="206" height="34.133" x="182.25" y="794.34" fill="#FEFECE" filter="url(#fir6yoc6xktif)" rx="12.5" ry="12.5" style="stroke:#a80036;stroke-width:1.5"/><text x="192.25" y="815.941" fill="#000" font-family="sans-serif" font-size="12" lengthAdjust="spacingAndGlyphs" textLength="186">get shared network from subnet</text><rect width="285" height="34.133" x="142.75" y="896.95" fill="#FEFECE" filter="url(#fir6yoc6xktif)" rx="12.5" ry="12.5" style="stroke:#a80036;stroke-width:1.5"/><text x="152.75" y="918.552" fill="#000" font-family="sans-serif" font-size="12" lengthAdjust="spacingAndGlyphs" textLength="265">push back shared network configured options</text><polygon fill="#FEFECE" points="243.75 848.473 326.75 848.473 338.75 860.473 326.75 872.473 243.75 872.473 231.75 860.473 243.75 848.473" filter="url(#fir6yoc6xktif)" style="stroke:#a80036;stroke-width:1.5"/><text x="289.25" y="883.107" fill="#000" font-family="sans-serif" font-size="11" lengthAdjust="spacingAndGlyphs" textLength="18">yes</text><text x="243.75" y="864.63" fill="#000" font-family="sans-serif" font-size="11" lengthAdjust="spacingAndGlyphs" textLength="83">shared network</text><text x="338.75" y="858.152" fill="#000" font-family="sans-serif" font-size="11" lengthAdjust="spacingAndGlyphs" textLength="14">no</text><polygon fill="#FEFECE" points="285.25 951.083 297.25 963.083 285.25 975.083 273.25 963.083 285.25 951.083" filter="url(#fir6yoc6xktif)" style="stroke:#a80036;stroke-width:1.5"/><rect width="315" height="34.133" x="127.75" y="1039.083" fill="#FEFECE" filter="url(#fir6yoc6xktif)" rx="12.5" ry="12.5" style="stroke:#a80036;stroke-width:1.5"/><text x="137.75" y="1060.685" fill="#000" font-family="sans-serif" font-size="12" lengthAdjust="spacingAndGlyphs" textLength="295">get client class definition from current configuration</text><polygon fill="#FEFECE" points="269.25 1093.216 301.25 1093.216 313.25 1105.216 301.25 1117.216 269.25 1117.216 257.25 1105.216 269.25 1093.216" filter="url(#fir6yoc6xktif)" style="stroke:#a80036;stroke-width:1.5"/><text x="269.25" y="1109.373" fill="#000" font-family="sans-serif" font-size="11" lengthAdjust="spacingAndGlyphs" textLength="32">found</text><text x="243.25" y="1102.896" fill="#000" font-family="sans-serif" font-size="11" lengthAdjust="spacingAndGlyphs" textLength="14">no</text><text x="313.25" y="1102.896" fill="#000" font-family="sans-serif" font-size="11" lengthAdjust="spacingAndGlyphs" textLength="18">yes</text><rect width="197" height="34.133" x="38" y="1175.693" fill="#FEFECE" filter="url(#fir6yoc6xktif)" rx="12.5" ry="12.5" style="stroke:#a80036;stroke-width:1.5"/><text x="48" y="1197.295" fill="#000" font-family="sans-serif" font-size="12" lengthAdjust="spacingAndGlyphs" textLength="177">log debug &quot;class unconfigured&quot;</text><polygon fill="#FEFECE" points="85.5 1127.216 187.5 1127.216 199.5 1139.216 187.5 1151.216 85.5 1151.216 73.5 1139.216 85.5 1127.216" filter="url(#fir6yoc6xktif)" style="stroke:#a80036;stroke-width:1.5"/><text x="140.5" y="1161.851" fill="#000" font-family="sans-serif" font-size="11" lengthAdjust="spacingAndGlyphs" textLength="14">no</text><text x="85.5" y="1143.373" fill="#000" font-family="sans-serif" font-size="11" lengthAdjust="spacingAndGlyphs" textLength="102">built-in client class</text><text x="199.5" y="1136.896" fill="#000" font-family="sans-serif" font-size="11" lengthAdjust="spacingAndGlyphs" textLength="18">yes</text><polygon fill="#FEFECE" points="136.5 1229.826 148.5 1241.826 136.5 1253.826 124.5 1241.826 136.5 1229.826" filter="url(#fir6yoc6xktif)" style="stroke:#a80036;stroke-width:1.5"/><rect width="314" height="34.133" x="277" y="1127.216" fill="#FEFECE" filter="url(#fir6yoc6xktif)" rx="12.5" ry="12.5" style="stroke:#a80036;stroke-width:1.5"/><text x="287" y="1148.817" fill="#000" font-family="sans-serif" font-size="12" lengthAdjust="spacingAndGlyphs" textLength="294">push back client class definition configured options</text><polygon fill="#FEFECE" points="285.25 1259.826 297.25 1271.826 285.25 1283.826 273.25 1271.826 285.25 1259.826" filter="url(#fir6yoc6xktif)" style="stroke:#a80036;stroke-width:1.5"/><polygon fill="#FEFECE" points="215.25 995.083 355.25 995.083 367.25 1007.083 355.25 1019.083 215.25 1019.083 203.25 1007.083 215.25 995.083" filter="url(#fir6yoc6xktif)" style="stroke:#a80036;stroke-width:1.5"/><text x="215.25" y="1011.24" fill="#000" font-family="sans-serif" font-size="11" lengthAdjust="spacingAndGlyphs" textLength="140">for each query client class</text><rect width="230" height="34.133" x="170.25" y="1325.826" fill="#FEFECE" filter="url(#fir6yoc6xktif)" rx="12.5" ry="12.5" style="stroke:#a80036;stroke-width:1.5"/><text x="180.25" y="1347.428" fill="#000" font-family="sans-serif" font-size="12" lengthAdjust="spacingAndGlyphs" textLength="210">push back global configured options</text><rect width="55" height="34.133" x="257.75" y="1379.959" fill="#FEFECE" filter="url(#fir6yoc6xktif)" rx="12.5" ry="12.5" style="stroke:#a80036;stroke-width:1.5"/><text x="267.75" y="1401.561" fill="#000" font-family="sans-serif" font-size="12" lengthAdjust="spacingAndGlyphs" textLength="35">return</text><ellipse cx="285.25" cy="1445.092" fill="#FFF" filter="url(#fir6yoc6xktif)" rx="11" ry="11" style="stroke:#000;stroke-width:1"/><ellipse cx="285.25" cy="1445.092" fill="#000" rx="6" ry="6" style="stroke:#7f7f7f;stroke-width:1"/><line style="stroke:#a80036;stroke-width:1.5" x1="285.25" x2="285.25" y1="51.199" y2="71.199"/><polygon fill="#A80036" points="281.25 61.199 285.25 71.199 289.25 61.199 285.25 65.199" style="stroke:#a80036;stroke-width:1"/><line style="stroke:#a80036;stroke-width:1.5" x1="285.25" x2="285.25" y1="207.942" y2="236.376"/><polygon fill="#A80036" points="281.25 226.376 285.25 236.376 289.25 226.376 285.25 230.376" style="stroke:#a80036;stroke-width:1"/><line style="stroke:#a80036;stroke-width:1.5" x1="285.25" x2="285.25" y1="149.332" y2="173.81"/><polygon fill="#A80036" points="281.25 163.81 285.25 173.81 289.25 163.81 285.25 167.81" style="stroke:#a80036;stroke-width:1"/><line style="stroke:#a80036;stroke-width:1.5" x1="324.25" x2="336.25" y1="137.332" y2="137.332"/><polygon fill="#A80036" points="332.25 206.376 336.25 216.376 340.25 206.376 336.25 210.376" style="stroke:#a80036;stroke-width:1.5"/><line style="stroke:#a80036;stroke-width:1.5" x1="336.25" x2="336.25" y1="137.332" y2="280.376"/><line style="stroke:#a80036;stroke-width:1.5" x1="336.25" x2="285.25" y1="280.376" y2="280.376"/><line style="stroke:#a80036;stroke-width:1.5" x1="285.25" x2="285.25" y1="280.376" y2="300.376"/><polygon fill="#A80036" points="281.25 290.376 285.25 300.376 289.25 290.376 285.25 294.376" style="stroke:#a80036;stroke-width:1"/><line style="stroke:#a80036;stroke-width:1.5" x1="285.25" x2="285.25" y1="105.332" y2="125.332"/><polygon fill="#A80036" points="281.25 115.332 285.25 125.332 289.25 115.332 285.25 119.332" style="stroke:#a80036;stroke-width:1"/><line style="stroke:#a80036;stroke-width:1.5" x1="285.25" x2="285.25" y1="324.376" y2="348.853"/><polygon fill="#A80036" points="281.25 338.853 285.25 348.853 289.25 338.853 285.25 342.853" style="stroke:#a80036;stroke-width:1"/><line style="stroke:#a80036;stroke-width:1.5" x1="362.75" x2="404.75" y1="312.376" y2="312.376"/><polygon fill="#A80036" points="400.75 355.92 404.75 365.92 408.75 355.92 404.75 359.92" style="stroke:#a80036;stroke-width:1.5"/><line style="stroke:#a80036;stroke-width:1.5" x1="404.75" x2="404.75" y1="312.376" y2="414.986"/><line style="stroke:#a80036;stroke-width:1.5" x1="404.75" x2="297.25" y1="414.986" y2="414.986"/><polygon fill="#A80036" points="307.25 410.986 297.25 414.986 307.25 418.986 303.25 414.986" style="stroke:#a80036;stroke-width:1"/><line style="stroke:#a80036;stroke-width:1.5" x1="285.25" x2="285.25" y1="382.986" y2="402.986"/><polygon fill="#A80036" points="281.25 392.986 285.25 402.986 289.25 392.986 285.25 396.986" style="stroke:#a80036;stroke-width:1"/><line style="stroke:#a80036;stroke-width:1.5" x1="285.25" x2="285.25" y1="573.597" y2="598.074"/><polygon fill="#A80036" points="281.25 588.074 285.25 598.074 289.25 588.074 285.25 592.074" style="stroke:#a80036;stroke-width:1"/><line style="stroke:#a80036;stroke-width:1.5" x1="309.25" x2="405.25" y1="561.597" y2="561.597"/><polygon fill="#A80036" points="401.25 605.141 405.25 615.141 409.25 605.141 405.25 609.141" style="stroke:#a80036;stroke-width:1.5"/><line style="stroke:#a80036;stroke-width:1.5" x1="405.25" x2="405.25" y1="561.597" y2="664.207"/><line style="stroke:#a80036;stroke-width:1.5" x1="405.25" x2="297.25" y1="664.207" y2="664.207"/><polygon fill="#A80036" points="307.25 660.207 297.25 664.207 307.25 668.207 303.25 664.207" style="stroke:#a80036;stroke-width:1"/><line style="stroke:#a80036;stroke-width:1.5" x1="285.25" x2="285.25" y1="632.207" y2="652.207"/><polygon fill="#A80036" points="281.25 642.207 285.25 652.207 289.25 642.207 285.25 646.207" style="stroke:#a80036;stroke-width:1"/><line style="stroke:#a80036;stroke-width:1.5" x1="285.25" x2="285.25" y1="529.597" y2="549.597"/><polygon fill="#A80036" points="281.25 539.597 285.25 549.597 289.25 539.597 285.25 543.597" style="stroke:#a80036;stroke-width:1"/><line style="stroke:#a80036;stroke-width:1.5" x1="285.25" x2="285.25" y1="470.986" y2="495.464"/><polygon fill="#A80036" points="281.25 485.464 285.25 495.464 289.25 485.464 285.25 489.464" style="stroke:#a80036;stroke-width:1"/><line style="stroke:#a80036;stroke-width:1.5" x1="344.25" x2="427.25" y1="458.986" y2="458.986"/><polygon fill="#A80036" points="423.25 570.574 427.25 580.574 431.25 570.574 427.25 574.574" style="stroke:#a80036;stroke-width:1.5"/><line style="stroke:#a80036;stroke-width:1.5" x1="427.25" x2="427.25" y1="458.986" y2="708.207"/><line style="stroke:#a80036;stroke-width:1.5" x1="427.25" x2="297.25" y1="708.207" y2="708.207"/><polygon fill="#A80036" points="307.25 704.207 297.25 708.207 307.25 712.207 303.25 708.207" style="stroke:#a80036;stroke-width:1"/><line style="stroke:#a80036;stroke-width:1.5" x1="285.25" x2="285.25" y1="676.207" y2="696.207"/><polygon fill="#A80036" points="281.25 686.207 285.25 696.207 289.25 686.207 285.25 690.207" style="stroke:#a80036;stroke-width:1"/><line style="stroke:#a80036;stroke-width:1.5" x1="285.25" x2="285.25" y1="426.986" y2="446.986"/><polygon fill="#A80036" points="281.25 436.986 285.25 446.986 289.25 436.986 285.25 440.986" style="stroke:#a80036;stroke-width:1"/><line style="stroke:#a80036;stroke-width:1.5" x1="285.25" x2="285.25" y1="720.207" y2="740.207"/><polygon fill="#A80036" points="281.25 730.207 285.25 740.207 289.25 730.207 285.25 734.207" style="stroke:#a80036;stroke-width:1"/><line style="stroke:#a80036;stroke-width:1.5" x1="285.25" x2="285.25" y1="774.34" y2="794.34"/><polygon fill="#A80036" points="281.25 784.34 285.25 794.34 289.25 784.34 285.25 788.34" style="stroke:#a80036;stroke-width:1"/><line style="stroke:#a80036;stroke-width:1.5" x1="285.25" x2="285.25" y1="872.473" y2="896.95"/><polygon fill="#A80036" points="281.25 886.95 285.25 896.95 289.25 886.95 285.25 890.95" style="stroke:#a80036;stroke-width:1"/><line style="stroke:#a80036;stroke-width:1.5" x1="338.75" x2="437.75" y1="860.473" y2="860.473"/><polygon fill="#A80036" points="433.75 904.017 437.75 914.017 441.75 904.017 437.75 908.017" style="stroke:#a80036;stroke-width:1.5"/><line style="stroke:#a80036;stroke-width:1.5" x1="437.75" x2="437.75" y1="860.473" y2="963.083"/><line style="stroke:#a80036;stroke-width:1.5" x1="437.75" x2="297.25" y1="963.083" y2="963.083"/><polygon fill="#A80036" points="307.25 959.083 297.25 963.083 307.25 967.083 303.25 963.083" style="stroke:#a80036;stroke-width:1"/><line style="stroke:#a80036;stroke-width:1.5" x1="285.25" x2="285.25" y1="931.083" y2="951.083"/><polygon fill="#A80036" points="281.25 941.083 285.25 951.083 289.25 941.083 285.25 945.083" style="stroke:#a80036;stroke-width:1"/><line style="stroke:#a80036;stroke-width:1.5" x1="285.25" x2="285.25" y1="828.473" y2="848.473"/><polygon fill="#A80036" points="281.25 838.473 285.25 848.473 289.25 838.473 285.25 842.473" style="stroke:#a80036;stroke-width:1"/><line style="stroke:#a80036;stroke-width:1.5" x1="136.5" x2="136.5" y1="1151.216" y2="1175.693"/><polygon fill="#A80036" points="132.5 1165.693 136.5 1175.693 140.5 1165.693 136.5 1169.693" style="stroke:#a80036;stroke-width:1"/><line style="stroke:#a80036;stroke-width:1.5" x1="199.5" x2="245" y1="1139.216" y2="1139.216"/><polygon fill="#A80036" points="241 1182.76 245 1192.76 249 1182.76 245 1186.76" style="stroke:#a80036;stroke-width:1.5"/><line style="stroke:#a80036;stroke-width:1.5" x1="245" x2="245" y1="1139.216" y2="1241.826"/><line style="stroke:#a80036;stroke-width:1.5" x1="245" x2="148.5" y1="1241.826" y2="1241.826"/><polygon fill="#A80036" points="158.5 1237.826 148.5 1241.826 158.5 1245.826 154.5 1241.826" style="stroke:#a80036;stroke-width:1"/><line style="stroke:#a80036;stroke-width:1.5" x1="136.5" x2="136.5" y1="1209.826" y2="1229.826"/><polygon fill="#A80036" points="132.5 1219.826 136.5 1229.826 140.5 1219.826 136.5 1223.826" style="stroke:#a80036;stroke-width:1"/><line style="stroke:#a80036;stroke-width:1.5" x1="257.25" x2="136.5" y1="1105.216" y2="1105.216"/><line style="stroke:#a80036;stroke-width:1.5" x1="136.5" x2="136.5" y1="1105.216" y2="1127.216"/><polygon fill="#A80036" points="132.5 1117.216 136.5 1127.216 140.5 1117.216 136.5 1121.216" style="stroke:#a80036;stroke-width:1"/><line style="stroke:#a80036;stroke-width:1.5" x1="313.25" x2="434" y1="1105.216" y2="1105.216"/><line style="stroke:#a80036;stroke-width:1.5" x1="434" x2="434" y1="1105.216" y2="1127.216"/><polygon fill="#A80036" points="430 1117.216 434 1127.216 438 1117.216 434 1121.216" style="stroke:#a80036;stroke-width:1"/><line style="stroke:#a80036;stroke-width:1.5" x1="136.5" x2="136.5" y1="1253.826" y2="1271.826"/><line style="stroke:#a80036;stroke-width:1.5" x1="136.5" x2="273.25" y1="1271.826" y2="1271.826"/><polygon fill="#A80036" points="263.25 1267.826 273.25 1271.826 263.25 1275.826 267.25 1271.826" style="stroke:#a80036;stroke-width:1"/><line style="stroke:#a80036;stroke-width:1.5" x1="434" x2="434" y1="1161.349" y2="1271.826"/><line style="stroke:#a80036;stroke-width:1.5" x1="434" x2="297.25" y1="1271.826" y2="1271.826"/><polygon fill="#A80036" points="307.25 1267.826 297.25 1271.826 307.25 1275.826 303.25 1271.826" style="stroke:#a80036;stroke-width:1"/><line style="stroke:#a80036;stroke-width:1.5" x1="285.25" x2="285.25" y1="1073.216" y2="1093.216"/><polygon fill="#A80036" points="281.25 1083.216 285.25 1093.216 289.25 1083.216 285.25 1087.216" style="stroke:#a80036;stroke-width:1"/><line style="stroke:#a80036;stroke-width:1.5" x1="285.25" x2="285.25" y1="1019.083" y2="1039.083"/><polygon fill="#A80036" points="281.25 1029.083 285.25 1039.083 289.25 1029.083 285.25 1033.083" style="stroke:#a80036;stroke-width:1"/><line style="stroke:#a80036;stroke-width:1.5" x1="285.25" x2="285.25" y1="1283.826" y2="1293.826"/><line style="stroke:#a80036;stroke-width:1.5" x1="285.25" x2="605" y1="1293.826" y2="1293.826"/><polygon fill="#A80036" points="601 1154.193 605 1144.193 609 1154.193 605 1150.193" style="stroke:#a80036;stroke-width:1.5"/><line style="stroke:#a80036;stroke-width:1.5" x1="605" x2="605" y1="1007.083" y2="1293.826"/><line style="stroke:#a80036;stroke-width:1.5" x1="605" x2="367.25" y1="1007.083" y2="1007.083"/><polygon fill="#A80036" points="377.25 1003.083 367.25 1007.083 377.25 1011.083 373.25 1007.083" style="stroke:#a80036;stroke-width:1"/><line style="stroke:#a80036;stroke-width:1.5" x1="203.25" x2="24" y1="1007.083" y2="1007.083"/><polygon fill="#A80036" points="20 1140.193 24 1150.193 28 1140.193 24 1144.193" style="stroke:#a80036;stroke-width:1.5"/><line style="stroke:#a80036;stroke-width:1.5" x1="24" x2="24" y1="1007.083" y2="1305.826"/><line style="stroke:#a80036;stroke-width:1.5" x1="24" x2="285.25" y1="1305.826" y2="1305.826"/><line style="stroke:#a80036;stroke-width:1.5" x1="285.25" x2="285.25" y1="1305.826" y2="1325.826"/><polygon fill="#A80036" points="281.25 1315.826 285.25 1325.826 289.25 1315.826 285.25 1319.826" style="stroke:#a80036;stroke-width:1"/><line style="stroke:#a80036;stroke-width:1.5" x1="285.25" x2="285.25" y1="975.083" y2="995.083"/><polygon fill="#A80036" points="281.25 985.083 285.25 995.083 289.25 985.083 285.25 989.083" style="stroke:#a80036;stroke-width:1"/><line style="stroke:#a80036;stroke-width:1.5" x1="285.25" x2="285.25" y1="1359.959" y2="1379.959"/><polygon fill="#A80036" points="281.25 1369.959 285.25 1379.959 289.25 1369.959 285.25 1373.959" style="stroke:#a80036;stroke-width:1"/><line style="stroke:#a80036;stroke-width:1.5" x1="285.25" x2="285.25" y1="1414.092" y2="1434.092"/><polygon fill="#A80036" points="281.25 1424.092 285.25 1434.092 289.25 1424.092 285.25 1428.092" style="stroke:#a80036;stroke-width:1"/></g></svg>