<svg xmlns="http://www.w3.org/2000/svg" xmlns:xlink="http://www.w3.org/1999/xlink" width="969" height="2163" contentScriptType="application/ecmascript" contentStyleType="text/css" preserveAspectRatio="none" style="width:969px;height:2163px" version="1.1" viewBox="0 0 969 2163" zoomAndPan="magnify"><defs><filter id="fgxgo3z1vpo2" width="300%" height="300%" x="-1" y="-1"><feGaussianBlur result="blurOut" stdDeviation="2"/><feColorMatrix in="blurOut" result="blurOut2" type="matrix" values="0 0 0 0 0 0 0 0 0 0 0 0 0 0 0 0 0 0 .4 0"/><feOffset dx="4" dy="4" in="blurOut2" result="blurOut3"/><feBlend in="SourceGraphic" in2="blurOut3" mode="normal"/></filter></defs><g><text x="337.25" y="17.402" fill="#000" font-family="sans-serif" font-size="18" lengthAdjust="spacingAndGlyphs" textLength="277">currentHost DHCPv4 (Kea 1.8.0)</text><rect width="134" height="36.488" x="314.5" y="28.199" fill="#FEFECE" filter="url(#fgxgo3z1vpo2)" style="stroke:#a80036;stroke-width:1.5"/><text x="324.5" y="51.734" fill="#000" font-family="sans-serif" font-size="14" lengthAdjust="spacingAndGlyphs" textLength="114">Subnet Selection</text><rect width="247" height="36.488" x="258" y="125.199" fill="#FEFECE" filter="url(#fgxgo3z1vpo2)" style="stroke:#a80036;stroke-width:1.5"/><text x="268" y="148.734" fill="#000" font-family="sans-serif" font-size="14" lengthAdjust="spacingAndGlyphs" textLength="227">Set subnet to the selected subnet</text><rect width="245" height="36.488" x="259" y="222.199" fill="#FEFECE" filter="url(#fgxgo3z1vpo2)" style="stroke:#a80036;stroke-width:1.5"/><text x="269" y="245.734" fill="#000" font-family="sans-serif" font-size="14" lengthAdjust="spacingAndGlyphs" textLength="225">Has client a lease for its client id?</text><rect width="283" height="36.488" x="7" y="319.199" fill="#FEFECE" filter="url(#fgxgo3z1vpo2)" style="stroke:#a80036;stroke-width:1.5"/><text x="17" y="342.734" fill="#000" font-family="sans-serif" font-size="14" lengthAdjust="spacingAndGlyphs" textLength="263">Iterate on allowed subnets for client id</text><rect width="253" height="36.488" x="22" y="498.199" fill="#FEFECE" filter="url(#fgxgo3z1vpo2)" style="stroke:#a80036;stroke-width:1.5"/><text x="32" y="521.734" fill="#000" font-family="sans-serif" font-size="14" lengthAdjust="spacingAndGlyphs" textLength="233">Set subnet to the by client id lease</text><rect width="211" height="36.488" x="449" y="432.199" fill="#FEFECE" filter="url(#fgxgo3z1vpo2)" style="stroke:#a80036;stroke-width:1.5"/><text x="459" y="455.734" fill="#000" font-family="sans-serif" font-size="14" lengthAdjust="spacingAndGlyphs" textLength="191">Has client a matching lease?</text><rect width="352" height="36.488" x="201.5" y="564.199" fill="#FEFECE" filter="url(#fgxgo3z1vpo2)" style="stroke:#a80036;stroke-width:1.5"/><text x="211.5" y="587.734" fill="#000" font-family="sans-serif" font-size="14" lengthAdjust="spacingAndGlyphs" textLength="332">Iterate on allowed subnets for hardware address</text><rect width="243" height="36.488" x="229" y="677.199" fill="#FEFECE" filter="url(#fgxgo3z1vpo2)" style="stroke:#a80036;stroke-width:1.5"/><text x="239" y="700.734" fill="#000" font-family="sans-serif" font-size="14" lengthAdjust="spacingAndGlyphs" textLength="223">Set subnet to the matching lease</text><rect width="211" height="36.488" x="375" y="930.199" fill="#FEFECE" filter="url(#fgxgo3z1vpo2)" style="stroke:#a80036;stroke-width:1.5"/><text x="385" y="953.734" fill="#000" font-family="sans-serif" font-size="14" lengthAdjust="spacingAndGlyphs" textLength="191">Has an address reservation?</text><rect width="300" height="36.488" x="220.5" y="1043.199" fill="#FEFECE" filter="url(#fgxgo3z1vpo2)" style="stroke:#a80036;stroke-width:1.5"/><text x="230.5" y="1066.734" fill="#000" font-family="sans-serif" font-size="14" lengthAdjust="spacingAndGlyphs" textLength="280">Set subnet to address reservation subnet</text><rect width="251" height="36.488" x="355" y="1140.199" fill="#FEFECE" filter="url(#fgxgo3z1vpo2)" style="stroke:#a80036;stroke-width:1.5"/><text x="365" y="1163.734" fill="#000" font-family="sans-serif" font-size="14" lengthAdjust="spacingAndGlyphs" textLength="231">Is the address in an allowed pool?</text><rect width="269" height="36.488" x="141" y="1237.199" fill="#FEFECE" filter="url(#fgxgo3z1vpo2)" style="stroke:#a80036;stroke-width:1.5"/><text x="151" y="1260.734" fill="#000" font-family="sans-serif" font-size="14" lengthAdjust="spacingAndGlyphs" textLength="249">Iterate on allowed subnets with pool</text><rect width="254" height="36.488" x="148.5" y="1350.199" fill="#FEFECE" filter="url(#fgxgo3z1vpo2)" style="stroke:#a80036;stroke-width:1.5"/><text x="158.5" y="1373.734" fill="#000" font-family="sans-serif" font-size="14" lengthAdjust="spacingAndGlyphs" textLength="234">Set subnet to address pool subnet</text><rect width="158" height="36.488" x="393.5" y="1447.199" fill="#FEFECE" filter="url(#fgxgo3z1vpo2)" style="stroke:#a80036;stroke-width:1.5"/><text x="403.5" y="1470.734" fill="#000" font-family="sans-serif" font-size="14" lengthAdjust="spacingAndGlyphs" textLength="138">Allocate a new lease</text><rect width="201" height="36.488" x="232" y="1560.199" fill="#FEFECE" filter="url(#fgxgo3z1vpo2)" style="stroke:#a80036;stroke-width:1.5"/><text x="242" y="1583.734" fill="#000" font-family="sans-serif" font-size="14" lengthAdjust="spacingAndGlyphs" textLength="181">Iterate on allowed subnets</text><rect width="266" height="36.488" x="270.5" y="1673.199" fill="#FEFECE" filter="url(#fgxgo3z1vpo2)" style="stroke:#a80036;stroke-width:1.5"/><text x="280.5" y="1696.734" fill="#000" font-family="sans-serif" font-size="14" lengthAdjust="spacingAndGlyphs" textLength="246">Set subnet to allocated lease subnet</text><rect width="252" height="36.488" x="394.5" y="1770.199" fill="#FEFECE" filter="url(#fgxgo3z1vpo2)" style="stroke:#a80036;stroke-width:1.5"/><text x="404.5" y="1793.734" fill="#000" font-family="sans-serif" font-size="14" lengthAdjust="spacingAndGlyphs" textLength="232">Get subnet host reservation mode</text><rect width="293" height="36.488" x="374" y="1867.199" fill="#FEFECE" filter="url(#fgxgo3z1vpo2)" style="stroke:#a80036;stroke-width:1.5"/><text x="384" y="1890.734" fill="#000" font-family="sans-serif" font-size="14" lengthAdjust="spacingAndGlyphs" textLength="273">Is subnet host reservation mode global?</text><rect width="205" height="36.488" x="298" y="1980.199" fill="#FEFECE" filter="url(#fgxgo3z1vpo2)" style="stroke:#a80036;stroke-width:1.5"/><text x="308" y="2003.734" fill="#000" font-family="sans-serif" font-size="14" lengthAdjust="spacingAndGlyphs" textLength="185">Get global host reservation</text><rect width="209" height="36.488" x="538" y="1980.199" fill="#FEFECE" filter="url(#fgxgo3z1vpo2)" style="stroke:#a80036;stroke-width:1.5"/><text x="548" y="2003.734" fill="#000" font-family="sans-serif" font-size="14" lengthAdjust="spacingAndGlyphs" textLength="189">Get subnet host reservation</text><rect width="235" height="36.488" x="403" y="2093.199" fill="#FEFECE" filter="url(#fgxgo3z1vpo2)" style="stroke:#a80036;stroke-width:1.5"/><text x="413" y="2116.734" fill="#000" font-family="sans-serif" font-size="14" lengthAdjust="spacingAndGlyphs" textLength="215">Return current host reservation</text><path id="entry-&gt;setSelected" fill="none" d="M381.5,64.6192 C381.5,80.1592 381.5,102.9792 381.5,119.8592" style="stroke:#a80036;stroke-width:1"/><polygon fill="#A80036" points="381.5 124.889 385.5 115.889 381.5 119.889 377.5 115.889 381.5 124.889" style="stroke:#a80036;stroke-width:1"/><path id="setSelected-&gt;clientid_lookup" fill="none" d="M381.5,161.6192 C381.5,177.1592 381.5,199.9792 381.5,216.8592" style="stroke:#a80036;stroke-width:1"/><polygon fill="#A80036" points="381.5 221.889 385.5 212.889 381.5 216.889 377.5 212.889 381.5 221.889" style="stroke:#a80036;stroke-width:1"/><path id="clientid_lookup-&gt;hwaddr_lookup" fill="none" d="M450.66,258.2792 C487.31,270.2592 530.95,289.5492 561.5,319.1992 C589.76,346.6192 605.63,365.0792 592.5,402.1992 C589.19,411.5492 583.15,420.3992 576.84,427.8492" style="stroke:#a80036;stroke-width:1"/><polygon fill="#A80036" points="573.32 431.829 582.272 427.724 576.627 428.079 576.272 422.433 573.32 431.829" style="stroke:#a80036;stroke-width:1"/><text x="591.5" y="342.268" fill="#000" font-family="sans-serif" font-size="13" lengthAdjust="spacingAndGlyphs" textLength="116">no client id option</text><path id="clientid_lookup-&gt;clientid_iterate" fill="none" d="M339.58,258.2892 C298.95,274.8592 237.46,299.9292 195.27,317.1292" style="stroke:#a80036;stroke-width:1"/><polygon fill="#A80036" points="190.48 319.079 200.324 319.388 195.111 317.193 197.306 311.979 190.48 319.079" style="stroke:#a80036;stroke-width:1"/><path id="clientid_iterate-&gt;clientid_iterate" fill="none" d="M290.1,329.0592 C310.94,330.3392 325,333.0492 325,337.1992 C325,340.9892 313.25,343.5892 295.32,344.9792" style="stroke:#a80036;stroke-width:1"/><polygon fill="#A80036" points="290.1 345.339 299.353 348.712 295.088 344.996 298.804 340.731 290.1 345.339" style="stroke:#a80036;stroke-width:1"/><text x="331" y="342.268" fill="#000" font-family="sans-serif" font-size="13" lengthAdjust="spacingAndGlyphs" textLength="224">match-client-id is false or no lease</text><path id="clientid_iterate-&gt;found_clientid" fill="none" d="M148.5,355.4892 C148.5,387.8292 148.5,457.3892 148.5,493.0792" style="stroke:#a80036;stroke-width:1"/><polygon fill="#A80036" points="148.5 498.099 152.5 489.099 148.5 493.099 144.5 489.099 148.5 498.099" style="stroke:#a80036;stroke-width:1"/><text x="149.5" y="398.768" fill="#000" font-family="sans-serif" font-size="13" lengthAdjust="spacingAndGlyphs" textLength="84">found a lease</text><path id="found_clientid-&gt;hasAddressReservation" fill="none" d="M148.5,534.3592 C148.5,557.7292 148.5,600.8792 148.5,637.6992 C148.5,637.6992 148.5,637.6992 148.5,869.1992 C148.5,915.6592 273.28,934.4692 369.84,942.0692" style="stroke:#a80036;stroke-width:1"/><polygon fill="#A80036" points="375 942.469 366.335 937.787 370.015 942.084 365.718 945.763 375 942.469" style="stroke:#a80036;stroke-width:1"/><path id="clientid_iterate-&gt;hwaddr_lookup" fill="none" d="M180.8,355.2592 C209.44,369.7192 252.75,389.9992 292.5,402.1992 C341.2,417.1492 396.54,427.9392 443.77,435.3792" style="stroke:#a80036;stroke-width:1"/><polygon fill="#A80036" points="448.9 436.179 440.625 430.839 443.96 435.408 439.391 438.744 448.9 436.179" style="stroke:#a80036;stroke-width:1"/><text x="293.5" y="398.768" fill="#000" font-family="sans-serif" font-size="13" lengthAdjust="spacingAndGlyphs" textLength="294">not found by client id, try by hardware address</text><path id="hwaddr_lookup-&gt;hasAddressReservation" fill="none" d="M660.05,459.9192 C736.51,472.7092 826.5,504.1292 826.5,581.1992 C826.5,581.1992 826.5,581.1992 826.5,869.1992 C826.5,918.2492 692.51,936.4592 591.29,943.2192" style="stroke:#a80036;stroke-width:1"/><polygon fill="#A80036" points="586.19 943.549 595.424 946.975 591.18 943.235 594.92 938.991 586.19 943.549" style="stroke:#a80036;stroke-width:1"/><text x="827.5" y="756.768" fill="#000" font-family="sans-serif" font-size="13" lengthAdjust="spacingAndGlyphs" textLength="130">no hardware address</text><path id="hwaddr_lookup-&gt;hwaddr_iterate" fill="none" d="M531,468.4592 C498.37,492.4192 439.49,535.6692 404.91,561.0692" style="stroke:#a80036;stroke-width:1"/><polygon fill="#A80036" points="400.82 564.069 410.437 561.946 404.844 561.101 405.689 555.508 400.82 564.069" style="stroke:#a80036;stroke-width:1"/><path id="hwaddr_iterate-&gt;hwaddr_iterate" fill="none" d="M553.73,573.1792 C574.76,574.8192 588.5,577.8192 588.5,582.1992 C588.5,586.1992 577.02,589.0592 558.99,590.7692" style="stroke:#a80036;stroke-width:1"/><polygon fill="#A80036" points="553.73 591.219 563.039 594.434 558.712 590.791 562.354 586.463 553.73 591.219" style="stroke:#a80036;stroke-width:1"/><text x="594.5" y="587.268" fill="#000" font-family="sans-serif" font-size="13" lengthAdjust="spacingAndGlyphs" textLength="190">no lease or client id mismatch</text><path id="hwaddr_iterate-&gt;found_hwaddr" fill="none" d="M373.28,600.5392 C368.61,619.7692 361.05,650.8292 355.93,671.8592" style="stroke:#a80036;stroke-width:1"/><polygon fill="#A80036" points="354.69 676.979 360.689 669.168 355.862 672.119 352.912 667.292 354.69 676.979" style="stroke:#a80036;stroke-width:1"/><text x="367.5" y="643.768" fill="#000" font-family="sans-serif" font-size="13" lengthAdjust="spacingAndGlyphs" textLength="84">found a lease</text><path id="found_hwaddr-&gt;hasAddressReservation" fill="none" d="M359.44,713.4492 C382.5,757.9792 443.99,876.6992 469.34,925.6492" style="stroke:#a80036;stroke-width:1"/><polygon fill="#A80036" points="471.67 930.159 471.085 920.328 469.371 925.719 463.98 924.006 471.67 930.159" style="stroke:#a80036;stroke-width:1"/><path id="hwaddr_iterate-&gt;hasAddressReservation" fill="none" d="M433.87,600.2492 C475.7,616.7892 525.5,646.4992 525.5,694.1992 C525.5,694.1992 525.5,694.1992 525.5,869.1992 C525.5,890.4892 512.76,911.2092 500.84,925.9292" style="stroke:#a80036;stroke-width:1"/><polygon fill="#A80036" points="497.51 929.919 506.343 925.563 500.709 926.077 500.195 920.443 497.51 929.919" style="stroke:#a80036;stroke-width:1"/><text x="526.5" y="803.768" fill="#000" font-family="sans-serif" font-size="13" lengthAdjust="spacingAndGlyphs" textLength="62">not found</text><path id="hasAddressReservation-&gt;setAddressReservation" fill="none" d="M463.31,966.5392 C443.86,986.1792 412.17,1018.1492 391.33,1039.1792" style="stroke:#a80036;stroke-width:1"/><polygon fill="#A80036" points="387.57 1042.979 396.748 1039.407 391.091 1039.429 391.068 1033.773 387.57 1042.979" style="stroke:#a80036;stroke-width:1"/><text x="432.5" y="1009.768" fill="#000" font-family="sans-serif" font-size="13" lengthAdjust="spacingAndGlyphs" textLength="21">yes</text><path id="hasAddressReservation-&gt;pool" fill="none" d="M497.22,966.4192 C518.88,990.8992 552.33,1037.4392 538.5,1079.1992 C531.33,1100.8692 515.54,1121.4192 502.24,1135.9792" style="stroke:#a80036;stroke-width:1"/><polygon fill="#A80036" points="498.57 1139.929 507.636 1136.08 501.982 1136.274 501.788 1130.621 498.57 1139.929" style="stroke:#a80036;stroke-width:1"/><text x="542.5" y="1066.268" fill="#000" font-family="sans-serif" font-size="13" lengthAdjust="spacingAndGlyphs" textLength="225">no or not check in the taken branch</text><path id="setAddressReservation-&gt;pool" fill="none" d="M390.42,1079.3992 C409.11,1095.5392 437.07,1119.6992 456.88,1136.7992" style="stroke:#a80036;stroke-width:1"/><polygon fill="#A80036" points="460.73 1140.119 456.536 1131.208 456.947 1136.85 451.305 1137.261 460.73 1140.119" style="stroke:#a80036;stroke-width:1"/><path id="pool-&gt;pool_iterate" fill="none" d="M443.38,1176.3992 C407.82,1192.8792 354.25,1217.7092 317.23,1234.8592" style="stroke:#a80036;stroke-width:1"/><polygon fill="#A80036" points="312.35 1237.119 322.198 1236.974 316.889 1235.021 318.841 1229.712 312.35 1237.119" style="stroke:#a80036;stroke-width:1"/><path id="pool-&gt;allocate" fill="none" d="M562.27,1176.2592 C595.56,1187.6592 630.78,1206.4492 650.5,1237.1992 C659.14,1250.6692 654.47,1257.6992 650.5,1273.1992 C636.28,1328.6892 627.14,1343.9092 588.5,1386.1992 C566.39,1410.3992 535.31,1430.7792 510.89,1444.6292" style="stroke:#a80036;stroke-width:1"/><polygon fill="#A80036" points="506.41 1447.139 516.218 1446.241 510.775 1444.7 512.315 1439.257 506.41 1447.139" style="stroke:#a80036;stroke-width:1"/><text x="642.5" y="1316.768" fill="#000" font-family="sans-serif" font-size="13" lengthAdjust="spacingAndGlyphs" textLength="205">pool check is not in all branches</text><path id="pool_iterate-&gt;pool_iterate" fill="none" d="M410.12,1246.9692 C430.88,1248.2192 445,1250.9592 445,1255.1992 C445,1259.0792 433.2,1261.6992 415.32,1263.0692" style="stroke:#a80036;stroke-width:1"/><polygon fill="#A80036" points="410.12 1263.429 419.373 1266.802 415.108 1263.086 418.824 1258.821 410.12 1263.429" style="stroke:#a80036;stroke-width:1"/><text x="451" y="1260.268" fill="#000" font-family="sans-serif" font-size="13" lengthAdjust="spacingAndGlyphs" textLength="193">address not in an allowed pool</text><path id="pool_iterate-&gt;inAllowedPool" fill="none" d="M275.5,1273.5392 C275.5,1292.7692 275.5,1323.8292 275.5,1344.8592" style="stroke:#a80036;stroke-width:1"/><polygon fill="#A80036" points="275.5 1349.979 279.5 1340.979 275.5 1344.979 271.5 1340.979 275.5 1349.979" style="stroke:#a80036;stroke-width:1"/><text x="276.5" y="1316.768" fill="#000" font-family="sans-serif" font-size="13" lengthAdjust="spacingAndGlyphs" textLength="168">address in an allowed pool</text><path id="pool_iterate-&gt;allocate" fill="none" d="M375.89,1273.2492 C408.78,1280.8692 439.69,1290.9192 450.5,1303.1992 C484.66,1341.9792 481.2,1407.7092 476.46,1441.9492" style="stroke:#a80036;stroke-width:1"/><polygon fill="#A80036" points="475.7 1447.169 480.97 1438.849 476.429 1442.223 473.055 1437.682 475.7 1447.169" style="stroke:#a80036;stroke-width:1"/><text x="479.5" y="1373.268" fill="#000" font-family="sans-serif" font-size="13" lengthAdjust="spacingAndGlyphs" textLength="100">no allowed pool</text><path id="inAllowedPool-&gt;allocate" fill="none" d="M311.18,1386.3992 C345.34,1402.8792 396.82,1427.7092 432.4,1444.8592" style="stroke:#a80036;stroke-width:1"/><polygon fill="#A80036" points="437.09 1447.119 430.723 1439.605 432.587 1444.946 427.246 1446.81 437.09 1447.119" style="stroke:#a80036;stroke-width:1"/><path id="allocate-&gt;allocate_iterate" fill="none" d="M393.3,1481.6592 C375.37,1488.5992 357.97,1498.6492 345.5,1513.1992 C335.73,1524.5992 332.59,1541.3292 331.83,1554.8292" style="stroke:#a80036;stroke-width:1"/><polygon fill="#A80036" points="331.65 1560.009 335.981 1551.164 331.836 1555.013 327.987 1550.867 331.65 1560.009" style="stroke:#a80036;stroke-width:1"/><text x="346.5" y="1526.768" fill="#000" font-family="sans-serif" font-size="13" lengthAdjust="spacingAndGlyphs" textLength="240">start from preferred (last used) subnet</text><path id="allocate-&gt;getHRmode" fill="none" d="M551.57,1482.2592 C567.28,1489.1692 581.88,1499.0592 591.5,1513.1992 C647.03,1594.8392 571.65,1717.1292 536.65,1765.9492" style="stroke:#a80036;stroke-width:1"/><polygon fill="#A80036" points="533.6 1770.169 542.111 1765.213 536.526 1766.115 535.624 1760.531 533.6 1770.169" style="stroke:#a80036;stroke-width:1"/><text x="605.5" y="1639.768" fill="#000" font-family="sans-serif" font-size="13" lengthAdjust="spacingAndGlyphs" textLength="198">allocation is not in all branches</text><path id="allocate_iterate-&gt;allocate_iterate" fill="none" d="M433.25,1568.1192 C453.52,1569.2292 468,1572.5892 468,1578.1992 C468,1583.3192 455.9,1586.5692 438.34,1587.9492" style="stroke:#a80036;stroke-width:1"/><polygon fill="#A80036" points="433.25 1588.279 442.494 1591.679 438.239 1587.95 441.967 1583.696 433.25 1588.279" style="stroke:#a80036;stroke-width:1"/><text x="474" y="1583.268" fill="#000" font-family="sans-serif" font-size="13" lengthAdjust="spacingAndGlyphs" textLength="97">no free address</text><path id="allocate_iterate-&gt;allocated" fill="none" d="M343.59,1596.5392 C356.05,1616.0092 376.26,1647.6192 389.72,1668.6592" style="stroke:#a80036;stroke-width:1"/><polygon fill="#A80036" points="392.48 1672.979 390.978 1663.246 389.776 1668.773 384.248 1667.572 392.48 1672.979" style="stroke:#a80036;stroke-width:1"/><text x="373.5" y="1639.768" fill="#000" font-family="sans-serif" font-size="13" lengthAdjust="spacingAndGlyphs" textLength="129">found a free address</text><path id="allocated-&gt;getHRmode" fill="none" d="M424.69,1709.3992 C444.57,1725.5392 474.31,1749.6992 495.38,1766.7992" style="stroke:#a80036;stroke-width:1"/><polygon fill="#A80036" points="499.47 1770.119 494.988 1761.349 495.582 1766.975 489.957 1767.569 499.47 1770.119" style="stroke:#a80036;stroke-width:1"/><path id="getHRmode-&gt;checkHRmode" fill="none" d="M520.5,1806.6192 C520.5,1822.1592 520.5,1844.9792 520.5,1861.8592" style="stroke:#a80036;stroke-width:1"/><polygon fill="#A80036" points="520.5 1866.889 524.5 1857.889 520.5 1861.889 516.5 1857.889 520.5 1866.889" style="stroke:#a80036;stroke-width:1"/><path id="checkHRmode-&gt;global" fill="none" d="M502.01,1903.2992 C480.76,1922.9592 445.87,1955.2292 423.04,1976.3492" style="stroke:#a80036;stroke-width:1"/><polygon fill="#A80036" points="419.21 1979.899 428.538 1976.738 422.886 1976.51 423.115 1970.857 419.21 1979.899" style="stroke:#a80036;stroke-width:1"/><text x="468.5" y="1946.768" fill="#000" font-family="sans-serif" font-size="13" lengthAdjust="spacingAndGlyphs" textLength="21">yes</text><path id="checkHRmode-&gt;bySubnet" fill="none" d="M539.3,1903.2992 C560.9,1922.9592 596.37,1955.2292 619.58,1976.3492" style="stroke:#a80036;stroke-width:1"/><polygon fill="#A80036" points="623.48 1979.899 619.503 1970.889 619.777 1976.539 614.127 1976.814 623.48 1979.899" style="stroke:#a80036;stroke-width:1"/><text x="589.5" y="1946.768" fill="#000" font-family="sans-serif" font-size="13" lengthAdjust="spacingAndGlyphs" textLength="16">no</text><path id="global-&gt;return" fill="none" d="M397.59,2016.3892 C396.2,2030.3392 396.61,2049.8292 406.5,2063.1992 C415.42,2075.2592 428,2084.2392 441.56,2090.9292" style="stroke:#a80036;stroke-width:1"/><polygon fill="#A80036" points="446.2 2093.109 439.756 2085.661 441.675 2090.982 436.353 2092.901 446.2 2093.109" style="stroke:#a80036;stroke-width:1"/><text x="407.5" y="2059.768" fill="#000" font-family="sans-serif" font-size="13" lengthAdjust="spacingAndGlyphs" textLength="187">return global host reservation</text><path id="bySubnet-&gt;return" fill="none" d="M633.84,2016.2092 C626.18,2030.0592 613.99,2049.4892 599.5,2063.1992 C588.25,2073.8392 574.18,2083.1692 561.05,2090.6492" style="stroke:#a80036;stroke-width:1"/><polygon fill="#A80036" points="556.63 2093.119 566.438 2092.221 560.995 2090.68 562.535 2085.237 556.63 2093.119" style="stroke:#a80036;stroke-width:1"/><text x="614.5" y="2059.768" fill="#000" font-family="sans-serif" font-size="13" lengthAdjust="spacingAndGlyphs" textLength="191">return subnet host reservation</text><text x="164.75" y="2150.356" fill="#888" font-family="sans-serif" font-size="10" lengthAdjust="spacingAndGlyphs" textLength="622">Only the initial lookup is always performed: other occasions to change the subnet so the current host are only in some branches</text></g></svg>