<svg xmlns="http://www.w3.org/2000/svg" xmlns:xlink="http://www.w3.org/1999/xlink" width="631" height="699" contentScriptType="application/ecmascript" contentStyleType="text/css" preserveAspectRatio="none" style="width:631px;height:699px" version="1.1" viewBox="0 0 631 699" zoomAndPan="magnify"><defs><filter id="f14qs590hur024" width="300%" height="300%" x="-1" y="-1"><feGaussianBlur result="blurOut" stdDeviation="2"/><feColorMatrix in="blurOut" result="blurOut2" type="matrix" values="0 0 0 0 0 0 0 0 0 0 0 0 0 0 0 0 0 0 .4 0"/><feOffset dx="4" dy="4" in="blurOut2" result="blurOut3"/><feBlend in="SourceGraphic" in2="blurOut3" mode="normal"/></filter></defs><g><text x="205" y="17.402" fill="#000" font-family="sans-serif" font-size="18" lengthAdjust="spacingAndGlyphs" textLength="203">lease states (Kea 1.8.0)</text><rect width="50" height="36.488" x="268" y="35.339" fill="#FEFECE" filter="url(#f14qs590hur024)" style="stroke:#a80036;stroke-width:1.5"/><text x="278" y="58.874" fill="#000" font-family="sans-serif" font-size="14" lengthAdjust="spacingAndGlyphs" textLength="30">Free</text><path fill="#FBFB77" d="M55,40.8392 L55,66.1498 A0,0 0 0 0 55,66.1498 L233,66.1498 A0,0 0 0 0 233,66.1498 L233,58.8392 L267.71,53.3392 L233,50.8392 L233,50.8392 L223,40.8392 L55,40.8392 A0,0 0 0 0 55,40.8392" filter="url(#f14qs590hur024)" style="stroke:#a80036;stroke-width:1"/><path fill="#FBFB77" d="M223,40.8392 L223,50.8392 L233,50.8392 L223,40.8392" style="stroke:#a80036;stroke-width:1"/><text x="61" y="58.408" fill="#000" font-family="sans-serif" font-size="13" lengthAdjust="spacingAndGlyphs" textLength="157">not in the lease database</text><rect width="83" height="36.488" x="256.5" y="210.339" fill="#FEFECE" filter="url(#f14qs590hur024)" style="stroke:#a80036;stroke-width:1.5"/><text x="266.5" y="233.874" fill="#000" font-family="sans-serif" font-size="14" lengthAdjust="spacingAndGlyphs" textLength="63">Assigned</text><rect width="140" height="36.488" x="357" y="323.339" fill="#FEFECE" filter="url(#f14qs590hur024)" style="stroke:#a80036;stroke-width:1.5"/><text x="367" y="346.874" fill="#000" font-family="sans-serif" font-size="14" lengthAdjust="spacingAndGlyphs" textLength="120">Assigned expired</text><rect width="79" height="36.488" x="130.5" y="436.339" fill="#FEFECE" filter="url(#f14qs590hur024)" style="stroke:#a80036;stroke-width:1.5"/><text x="140.5" y="459.874" fill="#000" font-family="sans-serif" font-size="14" lengthAdjust="spacingAndGlyphs" textLength="59">Declined</text><rect width="136" height="36.488" x="38" y="549.339" fill="#FEFECE" filter="url(#f14qs590hur024)" style="stroke:#a80036;stroke-width:1.5"/><text x="48" y="572.874" fill="#000" font-family="sans-serif" font-size="14" lengthAdjust="spacingAndGlyphs" textLength="116">Declined expired</text><rect width="151" height="36.488" x="272.5" y="646.339" fill="#FEFECE" filter="url(#f14qs590hur024)" style="stroke:#a80036;stroke-width:1.5"/><text x="282.5" y="669.874" fill="#000" font-family="sans-serif" font-size="14" lengthAdjust="spacingAndGlyphs" textLength="131">Expired-Reclaimed</text><path id="free-&gt;assigned" fill="none" d="M276.19,71.5392 C260.17,90.0792 239.64,120.7892 248,149.3392 C254.2,170.4992 268.1,191.3692 279.68,206.1892" style="stroke:#a80036;stroke-width:1"/><polygon fill="#A80036" points="282.87 210.199 280.397 200.666 279.757 206.286 274.136 205.647 282.87 210.199" style="stroke:#a80036;stroke-width:1"/><text x="249" y="145.908" fill="#000" font-family="sans-serif" font-size="13" lengthAdjust="spacingAndGlyphs" textLength="73">assignment</text><path id="free&lt;-assigned" fill="none" d="M305.4,76.1392 C313.32,91.3492 322.85,112.4192 327,132.3392 C332.77,160.0292 319.25,191.2292 308.78,210.0792" style="stroke:#a80036;stroke-width:1"/><polygon fill="#A80036" points="303.01 71.619 303.671 81.446 305.343 76.042 310.747 77.713 303.01 71.619" style="stroke:#a80036;stroke-width:1"/><text x="330" y="145.908" fill="#000" font-family="sans-serif" font-size="13" lengthAdjust="spacingAndGlyphs" textLength="83">release query</text><path id="assigned-&gt;assigned_expired" fill="none" d="M339.85,243.3892 C357.83,250.9992 378.09,261.8492 393,276.3392 C405.06,288.0492 413.79,304.9692 419.38,318.4692" style="stroke:#a80036;stroke-width:1"/><polygon fill="#A80036" points="421.3 323.269 421.671 313.427 419.443 318.627 414.244 316.399 421.3 323.269" style="stroke:#a80036;stroke-width:1"/><text x="407" y="289.908" fill="#000" font-family="sans-serif" font-size="13" lengthAdjust="spacingAndGlyphs" textLength="115">after valid lifetime</text><path id="assigned&lt;-assigned_expired" fill="none" d="M312.18,250.8492 C321.59,264.0992 334.8,280.8792 349,293.3392 C362.19,304.9092 378.61,315.2892 392.97,323.3192" style="stroke:#a80036;stroke-width:1"/><polygon fill="#A80036" points="309.13 246.499 311.032 256.163 312.005 250.59 317.578 251.563 309.13 246.499" style="stroke:#a80036;stroke-width:1"/><text x="350" y="289.908" fill="#000" font-family="sans-serif" font-size="13" lengthAdjust="spacingAndGlyphs" textLength="34">reuse</text><path id="assigned-&gt;assigned" fill="none" d="M339.71,219.4792 C358.36,218.6392 374.5,221.5892 374.5,228.3392 C374.5,234.4592 361.25,237.4592 344.88,237.3392" style="stroke:#a80036;stroke-width:1"/><polygon fill="#A80036" points="339.71 237.199 348.604 241.429 344.708 237.328 348.81 233.432 339.71 237.199" style="stroke:#a80036;stroke-width:1"/><text x="380.5" y="233.408" fill="#000" font-family="sans-serif" font-size="13" lengthAdjust="spacingAndGlyphs" textLength="76">renew query</text><path id="assigned-&gt;declined" fill="none" d="M269.68,246.4392 C245,262.9292 210.38,290.2192 192,323.3392 C173.05,357.4892 169.59,403.8692 169.39,430.9992" style="stroke:#a80036;stroke-width:1"/><polygon fill="#A80036" points="169.39 436.159 173.39 427.159 169.39 431.159 165.39 427.159 169.39 436.159" style="stroke:#a80036;stroke-width:1"/><text x="193" y="346.408" fill="#000" font-family="sans-serif" font-size="13" lengthAdjust="spacingAndGlyphs" textLength="84">decline query</text><path id="declined-&gt;declined_expired" fill="none" d="M157.58,472.3892 C151.4,481.1592 144,492.1192 138,502.3392 C130.01,515.9592 122.06,531.8392 116.09,544.3692" style="stroke:#a80036;stroke-width:1"/><polygon fill="#A80036" points="113.82 549.169 121.285 542.745 115.959 544.65 114.054 539.323 113.82 549.169" style="stroke:#a80036;stroke-width:1"/><text x="139" y="515.908" fill="#000" font-family="sans-serif" font-size="13" lengthAdjust="spacingAndGlyphs" textLength="138">after probation period</text><path id="assigned&lt;-declined_expired" fill="none" d="M251.59,248.4092 C236.48,255.8492 220.22,265.2692 207,276.3392 C159.82,315.8392 153.14,333.6292 127,389.3392 C101.63,443.4092 102.58,516.5492 104.58,549.2792" style="stroke:#a80036;stroke-width:1"/><polygon fill="#A80036" points="256.23 246.159 246.386 246.468 251.727 248.332 249.863 253.673 256.23 246.159" style="stroke:#a80036;stroke-width:1"/><text x="128" y="402.908" fill="#000" font-family="sans-serif" font-size="13" lengthAdjust="spacingAndGlyphs" textLength="34">reuse</text><path id="assigned_expired-&gt;reclaimed" fill="none" d="M422.75,359.5992 C409.44,413.6992 368.51,579.9992 353.55,640.7892" style="stroke:#a80036;stroke-width:1"/><polygon fill="#A80036" points="352.27 645.999 358.312 638.221 353.469 641.145 350.545 636.303 352.27 645.999" style="stroke:#a80036;stroke-width:1"/><text x="388" y="515.908" fill="#000" font-family="sans-serif" font-size="13" lengthAdjust="spacingAndGlyphs" textLength="46">reclaim</text><path id="declined_expired-&gt;free" fill="none" d="M75.18,549.2492 C45.8,530.4392 6,497.2292 6,455.3392 C6,139.8392 6,139.8392 6,139.8392 C6,27.1992 143.26,107.3192 250,71.3392 C254.16,69.9392 258.5,68.3592 262.75,66.7492" style="stroke:#a80036;stroke-width:1"/><polygon fill="#A80036" points="267.69 64.839 257.853 64.353 263.026 66.642 260.737 71.815 267.69 64.839" style="stroke:#a80036;stroke-width:1"/><text x="7" y="289.908" fill="#000" font-family="sans-serif" font-size="13" lengthAdjust="spacingAndGlyphs" textLength="46">remove</text><path id="assigned&lt;-reclaimed" fill="none" d="M299.31,251.7292 C301.08,283.8392 304,344.8492 304,396.8392 C304,396.8392 304,396.8392 304,568.3392 C304,597.7892 321.62,628.0092 334.56,646.2292" style="stroke:#a80036;stroke-width:1"/><polygon fill="#A80036" points="299.02 246.449 295.515 255.653 299.292 251.442 303.503 255.219 299.02 246.449" style="stroke:#a80036;stroke-width:1"/><text x="305" y="459.408" fill="#000" font-family="sans-serif" font-size="13" lengthAdjust="spacingAndGlyphs" textLength="34">reuse</text><path id="free&lt;-reclaimed" fill="none" d="M323.27,57.1392 C395.5,64.6392 572,88.2592 572,139.8392 C572,139.8392 572,139.8392 572,568.3392 C572,634.3392 488.55,655.1692 423.52,661.3692" style="stroke:#a80036;stroke-width:1"/><polygon fill="#A80036" points="318.25 56.619 326.805 61.5 323.225 57.12 327.605 53.54 318.25 56.619" style="stroke:#a80036;stroke-width:1"/><text x="573" y="346.408" fill="#000" font-family="sans-serif" font-size="13" lengthAdjust="spacingAndGlyphs" textLength="46">remove</text></g></svg>