<svg xmlns="http://www.w3.org/2000/svg" xmlns:xlink="http://www.w3.org/1999/xlink" width="1862" height="1814" contentScriptType="application/ecmascript" contentStyleType="text/css" preserveAspectRatio="none" style="width:1862px;height:1814px" version="1.1" viewBox="0 0 1862 1814" zoomAndPan="magnify"><defs><filter id="f1u1c8b25aigi3" width="300%" height="300%" x="-1" y="-1"><feGaussianBlur result="blurOut" stdDeviation="2"/><feColorMatrix in="blurOut" result="blurOut2" type="matrix" values="0 0 0 0 0 0 0 0 0 0 0 0 0 0 0 0 0 0 .4 0"/><feOffset dx="4" dy="4" in="blurOut2" result="blurOut3"/><feBlend in="SourceGraphic" in2="blurOut3" mode="normal"/></filter></defs><g><text x="756" y="17.402" fill="#000" font-family="sans-serif" font-size="18" lengthAdjust="spacingAndGlyphs" textLength="332">DHCPv4 packet processing (Kea 1.8.0)</text><rect width="849" height="103" x="715" y="924.199" fill="#FFF" filter="url(#f1u1c8b25aigi3)" style="stroke:#000;stroke-width:1.5"/><text x="1011" y="939.734" fill="#000" font-family="sans-serif" font-size="14" font-weight="bold" lengthAdjust="spacingAndGlyphs" textLength="257">Process Query on its Message Type</text><rect width="134" height="36.488" x="1088" y="967.199" fill="#FEFECE" filter="url(#f1u1c8b25aigi3)" style="stroke:#a80036;stroke-width:1.5"/><text x="1098" y="990.734" fill="#000" font-family="sans-serif" font-size="14" lengthAdjust="spacingAndGlyphs" textLength="114">Process Discover</text><rect width="131" height="36.488" x="758.5" y="967.199" fill="#FEFECE" filter="url(#f1u1c8b25aigi3)" style="stroke:#a80036;stroke-width:1.5"/><text x="768.5" y="990.734" fill="#000" font-family="sans-serif" font-size="14" lengthAdjust="spacingAndGlyphs" textLength="111">Process Request</text><rect width="128" height="36.488" x="925" y="967.199" fill="#FEFECE" filter="url(#f1u1c8b25aigi3)" style="stroke:#a80036;stroke-width:1.5"/><text x="935" y="990.734" fill="#000" font-family="sans-serif" font-size="14" lengthAdjust="spacingAndGlyphs" textLength="108">Process Release</text><rect width="126" height="36.488" x="1257" y="967.199" fill="#FEFECE" filter="url(#f1u1c8b25aigi3)" style="stroke:#a80036;stroke-width:1.5"/><text x="1267" y="990.734" fill="#000" font-family="sans-serif" font-size="14" lengthAdjust="spacingAndGlyphs" textLength="106">Process Decline</text><rect width="122" height="36.488" x="1418" y="967.199" fill="#FEFECE" filter="url(#f1u1c8b25aigi3)" style="stroke:#a80036;stroke-width:1.5"/><text x="1428" y="990.734" fill="#000" font-family="sans-serif" font-size="14" lengthAdjust="spacingAndGlyphs" textLength="102">Process Inform</text><rect width="114" height="36.488" x="1560" y="28.199" fill="#FEFECE" filter="url(#f1u1c8b25aigi3)" style="stroke:#a80036;stroke-width:1.5"/><text x="1570" y="51.734" fill="#000" font-family="sans-serif" font-size="14" lengthAdjust="spacingAndGlyphs" textLength="94">Receive query</text><path fill="#FBFB77" d="M1471,33.6992 L1471,59.0098 A0,0 0 0 0 1471,59.0098 L1525,59.0098 A0,0 0 0 0 1525,59.0098 L1525,51.6992 L1559.77,46.1992 L1525,43.6992 L1525,43.6992 L1515,33.6992 L1471,33.6992 A0,0 0 0 0 1471,33.6992" filter="url(#f1u1c8b25aigi3)" style="stroke:#a80036;stroke-width:1"/><path fill="#FBFB77" d="M1515,33.6992 L1515,43.6992 L1525,43.6992 L1515,33.6992" style="stroke:#a80036;stroke-width:1"/><text x="1477" y="51.268" fill="#000" font-family="sans-serif" font-size="13" lengthAdjust="spacingAndGlyphs" textLength="33">input</text><rect width="127" height="36.488" x="1553.5" y="125.199" fill="#FEFECE" filter="url(#f1u1c8b25aigi3)" style="stroke:#a80036;stroke-width:1.5"/><text x="1563.5" y="148.734" fill="#000" font-family="sans-serif" font-size="14" lengthAdjust="spacingAndGlyphs" textLength="107">Service Enabled</text><rect width="179" height="36.488" x="1000.5" y="238.199" fill="#FEFECE" filter="url(#f1u1c8b25aigi3)" style="stroke:#a80036;stroke-width:1.5"/><text x="1010.5" y="261.734" fill="#000" font-family="sans-serif" font-size="14" lengthAdjust="spacingAndGlyphs" textLength="159">Callout buffer4_receive</text><path fill="#FBFB77" d="M1214.5,243.6992 L1214.5,252.1992 L1179.66,256.1992 L1214.5,260.1992 L1214.5,269.0098 A0,0 0 0 0 1214.5,269.0098 L1267.5,269.0098 A0,0 0 0 0 1267.5,269.0098 L1267.5,253.6992 L1257.5,243.6992 L1214.5,243.6992 A0,0 0 0 0 1214.5,243.6992" filter="url(#f1u1c8b25aigi3)" style="stroke:#a80036;stroke-width:1"/><path fill="#FBFB77" d="M1257.5,243.6992 L1257.5,253.6992 L1267.5,253.6992 L1257.5,243.6992" style="stroke:#a80036;stroke-width:1"/><text x="1220.5" y="261.268" fill="#000" font-family="sans-serif" font-size="13" lengthAdjust="spacingAndGlyphs" textLength="32">hook</text><rect width="114" height="36.488" x="640" y="351.199" fill="#FEFECE" filter="url(#f1u1c8b25aigi3)" style="stroke:#a80036;stroke-width:1.5"/><text x="650" y="374.734" fill="#000" font-family="sans-serif" font-size="14" lengthAdjust="spacingAndGlyphs" textLength="94">Unpack query</text><rect width="115" height="36.488" x="639.5" y="448.199" fill="#FEFECE" filter="url(#f1u1c8b25aigi3)" style="stroke:#a80036;stroke-width:1.5"/><text x="649.5" y="471.734" fill="#000" font-family="sans-serif" font-size="14" lengthAdjust="spacingAndGlyphs" textLength="95">Classify query</text><rect width="159" height="36.488" x="454.5" y="545.199" fill="#FEFECE" filter="url(#f1u1c8b25aigi3)" style="stroke:#a80036;stroke-width:1.5"/><text x="464.5" y="568.734" fill="#000" font-family="sans-serif" font-size="14" lengthAdjust="spacingAndGlyphs" textLength="139">Callout pkt4_receive</text><path fill="#FBFB77" d="M648.5,550.6992 L648.5,559.1992 L613.59,563.1992 L648.5,567.1992 L648.5,576.0098 A0,0 0 0 0 648.5,576.0098 L701.5,576.0098 A0,0 0 0 0 701.5,576.0098 L701.5,560.6992 L691.5,550.6992 L648.5,550.6992 A0,0 0 0 0 648.5,550.6992" filter="url(#f1u1c8b25aigi3)" style="stroke:#a80036;stroke-width:1"/><path fill="#FBFB77" d="M691.5,550.6992 L691.5,560.6992 L701.5,560.6992 L691.5,550.6992" style="stroke:#a80036;stroke-width:1"/><text x="654.5" y="568.268" fill="#000" font-family="sans-serif" font-size="13" lengthAdjust="spacingAndGlyphs" textLength="32">hook</text><rect width="141" height="36.488" x="243.5" y="658.199" fill="#FEFECE" filter="url(#f1u1c8b25aigi3)" style="stroke:#a80036;stroke-width:1.5"/><text x="253.5" y="681.734" fill="#000" font-family="sans-serif" font-size="14" lengthAdjust="spacingAndGlyphs" textLength="121">Check DROP class</text><rect width="333" height="36.488" x="147.5" y="755.199" fill="#FEFECE" filter="url(#f1u1c8b25aigi3)" style="stroke:#a80036;stroke-width:1.5"/><text x="157.5" y="778.734" fill="#000" font-family="sans-serif" font-size="14" lengthAdjust="spacingAndGlyphs" textLength="313">Avoid same client race in multi-threaded mode</text><path fill="#FBFB77" d="M587.5,760.6992 L587.5,769.1992 L480.63,773.1992 L587.5,777.1992 L587.5,786.0098 A0,0 0 0 0 587.5,786.0098 L790.5,786.0098 A0,0 0 0 0 790.5,786.0098 L790.5,770.6992 L780.5,760.6992 L587.5,760.6992 A0,0 0 0 0 587.5,760.6992" filter="url(#f1u1c8b25aigi3)" style="stroke:#a80036;stroke-width:1"/><path fill="#FBFB77" d="M780.5,760.6992 L780.5,770.6992 L790.5,770.6992 L780.5,760.6992" style="stroke:#a80036;stroke-width:1"/><text x="593.5" y="778.268" fill="#000" font-family="sans-serif" font-size="13" lengthAdjust="spacingAndGlyphs" textLength="182">postpone processing or drop</text><rect width="197" height="36.488" x="1045.5" y="1098.199" fill="#FEFECE" filter="url(#f1u1c8b25aigi3)" style="stroke:#a80036;stroke-width:1.5"/><text x="1055.5" y="1121.734" fill="#000" font-family="sans-serif" font-size="14" lengthAdjust="spacingAndGlyphs" textLength="177">Callout leases4_committed</text><path fill="#FBFB77" d="M1277.5,1103.6992 L1277.5,1112.1992 L1242.75,1116.1992 L1277.5,1120.1992 L1277.5,1129.0098 A0,0 0 0 0 1277.5,1129.0098 L1330.5,1129.0098 A0,0 0 0 0 1330.5,1129.0098 L1330.5,1113.6992 L1320.5,1103.6992 L1277.5,1103.6992 A0,0 0 0 0 1277.5,1103.6992" filter="url(#f1u1c8b25aigi3)" style="stroke:#a80036;stroke-width:1"/><path fill="#FBFB77" d="M1320.5,1103.6992 L1320.5,1113.6992 L1330.5,1113.6992 L1320.5,1103.6992" style="stroke:#a80036;stroke-width:1"/><text x="1283.5" y="1121.268" fill="#000" font-family="sans-serif" font-size="13" lengthAdjust="spacingAndGlyphs" textLength="32">hook</text><rect width="50" height="36.488" x="1119" y="1211.199" fill="#FEFECE" filter="url(#f1u1c8b25aigi3)" style="stroke:#a80036;stroke-width:1.5"/><text x="1129" y="1234.734" fill="#000" font-family="sans-serif" font-size="14" lengthAdjust="spacingAndGlyphs" textLength="30">Park</text><rect width="144" height="36.488" x="943" y="1324.199" fill="#FEFECE" filter="url(#f1u1c8b25aigi3)" style="stroke:#a80036;stroke-width:1.5"/><text x="953" y="1347.734" fill="#000" font-family="sans-serif" font-size="14" lengthAdjust="spacingAndGlyphs" textLength="124">Callout pkt4_send</text><rect width="121" height="36.488" x="1052.5" y="1647.199" fill="#FEFECE" filter="url(#f1u1c8b25aigi3)" style="stroke:#a80036;stroke-width:1.5"/><text x="1062.5" y="1670.734" fill="#000" font-family="sans-serif" font-size="14" lengthAdjust="spacingAndGlyphs" textLength="101">Send response</text><rect width="118" height="36.488" x="1077" y="1437.199" fill="#FEFECE" filter="url(#f1u1c8b25aigi3)" style="stroke:#a80036;stroke-width:1.5"/><text x="1087" y="1460.734" fill="#000" font-family="sans-serif" font-size="14" lengthAdjust="spacingAndGlyphs" textLength="98">Pack response</text><rect width="164" height="36.488" x="1037" y="1534.199" fill="#FEFECE" filter="url(#f1u1c8b25aigi3)" style="stroke:#a80036;stroke-width:1.5"/><text x="1047" y="1557.734" fill="#000" font-family="sans-serif" font-size="14" lengthAdjust="spacingAndGlyphs" textLength="144">Callout buffer4_send</text><path fill="#FBFB77" d="M954.5,1652.6992 L954.5,1678.0098 A0,0 0 0 0 954.5,1678.0098 L1017.5,1678.0098 A0,0 0 0 0 1017.5,1678.0098 L1017.5,1670.6992 L1052.35,1665.1992 L1017.5,1662.6992 L1017.5,1662.6992 L1007.5,1652.6992 L954.5,1652.6992 A0,0 0 0 0 954.5,1652.6992" filter="url(#f1u1c8b25aigi3)" style="stroke:#a80036;stroke-width:1"/><path fill="#FBFB77" d="M1007.5,1652.6992 L1007.5,1662.6992 L1017.5,1662.6992 L1007.5,1652.6992" style="stroke:#a80036;stroke-width:1"/><text x="960.5" y="1670.268" fill="#000" font-family="sans-serif" font-size="13" lengthAdjust="spacingAndGlyphs" textLength="42">output</text><rect width="103" height="36.488" x="912.5" y="1744.199" fill="#FEFECE" filter="url(#f1u1c8b25aigi3)" style="stroke:#a80036;stroke-width:1.5"/><text x="922.5" y="1767.734" fill="#000" font-family="sans-serif" font-size="14" lengthAdjust="spacingAndGlyphs" textLength="83">Drop packet</text><path fill="#FBFB77" d="M826.5,1749.6992 L826.5,1775.0098 A0,0 0 0 0 826.5,1775.0098 L877.5,1775.0098 A0,0 0 0 0 877.5,1775.0098 L877.5,1767.6992 L912.49,1762.1992 L877.5,1759.6992 L877.5,1759.6992 L867.5,1749.6992 L826.5,1749.6992 A0,0 0 0 0 826.5,1749.6992" filter="url(#f1u1c8b25aigi3)" style="stroke:#a80036;stroke-width:1"/><path fill="#FBFB77" d="M867.5,1749.6992 L867.5,1759.6992 L877.5,1759.6992 L867.5,1749.6992" style="stroke:#a80036;stroke-width:1"/><text x="832.5" y="1767.268" fill="#000" font-family="sans-serif" font-size="13" lengthAdjust="spacingAndGlyphs" textLength="30">error</text><path id="receivePacket-&gt;isServiceEnabled" fill="none" d="M1617,64.6192 C1617,80.1592 1617,102.9792 1617,119.8592" style="stroke:#a80036;stroke-width:1"/><polygon fill="#A80036" points="1617 124.889 1621 115.889 1617 119.889 1613 115.889 1617 124.889" style="stroke:#a80036;stroke-width:1"/><path id="isServiceEnabled-&gt;buffer4_receive" fill="none" d="M1553.43,157.5892 C1459.11,177.4592 1281.88,214.7792 1176.04,237.0792" style="stroke:#a80036;stroke-width:1"/><polygon fill="#A80036" points="1171.05 238.129 1180.681 240.189 1175.943 237.099 1179.033 232.361 1171.05 238.129" style="stroke:#a80036;stroke-width:1"/><text x="1386" y="204.768" fill="#000" font-family="sans-serif" font-size="13" lengthAdjust="spacingAndGlyphs" textLength="112">service is enabled</text><path id="isServiceEnabled-&gt;drop" fill="none" d="M1655.3,161.3592 C1689.09,179.3992 1733,211.2992 1733,255.1992 C1733,255.1992 1733,255.1992 1733,1666.1992 C1733,1737.9692 1198.66,1756.0992 1020.81,1760.1492" style="stroke:#a80036;stroke-width:1"/><polygon fill="#A80036" points="1015.65 1760.259 1024.739 1764.053 1020.649 1760.145 1024.556 1756.055 1015.65 1760.259" style="stroke:#a80036;stroke-width:1"/><text x="1734" y="896.768" fill="#000" font-family="sans-serif" font-size="13" lengthAdjust="spacingAndGlyphs" textLength="116">service is disabled</text><path id="buffer4_receive-&gt;unpack" fill="none" d="M1029.46,274.2992 C956.18,294.9992 833.42,329.6692 759.35,350.5892" style="stroke:#a80036;stroke-width:1"/><polygon fill="#A80036" points="754.1 352.069 763.851 353.45 758.909 350.699 761.66 345.757 754.1 352.069" style="stroke:#a80036;stroke-width:1"/><text x="918" y="317.768" fill="#000" font-family="sans-serif" font-size="13" lengthAdjust="spacingAndGlyphs" textLength="67">CONTINUE</text><path id="buffer4_receive-&gt;classify" fill="none" d="M1066.12,274.4492 C1047.04,287.8992 1019.38,306.6792 994,321.1992 C907.16,370.8892 800.63,419.7792 741.66,445.8492" style="stroke:#a80036;stroke-width:1"/><polygon fill="#A80036" points="736.8 447.989 746.649 448.032 741.378 445.978 743.431 440.707 736.8 447.989" style="stroke:#a80036;stroke-width:1"/><text x="940" y="374.268" fill="#000" font-family="sans-serif" font-size="13" lengthAdjust="spacingAndGlyphs" textLength="26">SKIP</text><path id="buffer4_receive-&gt;drop" fill="none" d="M1179.77,272.9392 C1336.38,300.6992 1643,356.5292 1643,368.1992 C1643,368.1992 1643,368.1992 1643,1666.1992 C1643,1728.8292 1184.07,1752.6892 1020.81,1759.1992" style="stroke:#a80036;stroke-width:1"/><polygon fill="#A80036" points="1015.59 1759.399 1024.743 1763.035 1020.586 1759.199 1024.422 1755.042 1015.59 1759.399" style="stroke:#a80036;stroke-width:1"/><text x="1644" y="990.268" fill="#000" font-family="sans-serif" font-size="13" lengthAdjust="spacingAndGlyphs" textLength="35">DROP</text><path id="unpack-&gt;classify" fill="none" d="M697,387.6192 C697,403.1592 697,425.9792 697,442.8592" style="stroke:#a80036;stroke-width:1"/><polygon fill="#A80036" points="697 447.889 701 438.889 697 442.889 693 438.889 697 447.889" style="stroke:#a80036;stroke-width:1"/><path id="unpack-&gt;drop" fill="none" d="M639.86,372.0692 C474.31,378.2592 6,401.3992 6,465.1992 C6,465.1992 6,465.1992 6,1666.1992 C6,1765.3592 797.05,1728.7492 895,1744.1992 C898.94,1744.8192 902.99,1745.5592 907.05,1746.3692" style="stroke:#a80036;stroke-width:1"/><polygon fill="#A80036" points="912.2 1747.429 904.201 1741.683 907.304 1746.413 902.575 1749.516 912.2 1747.429" style="stroke:#a80036;stroke-width:1"/><text x="7" y="1064.768" fill="#000" font-family="sans-serif" font-size="13" lengthAdjust="spacingAndGlyphs" textLength="50">on error</text><path id="classify-&gt;pkt4_receive" fill="none" d="M667.48,484.3992 C639.44,500.7492 597.31,525.2992 567.9,542.4392" style="stroke:#a80036;stroke-width:1"/><polygon fill="#A80036" points="563.3 545.119 573.091 544.058 567.624 542.608 569.073 537.14 563.3 545.119" style="stroke:#a80036;stroke-width:1"/><path id="pkt4_receive-&gt;drop_class" fill="none" d="M499.2,581.2692 C481.2,590.1392 458.89,601.1892 439,611.1992 C409.58,626.0092 376.4,643.0092 351.62,655.7692" style="stroke:#a80036;stroke-width:1"/><polygon fill="#A80036" points="347.1 658.099 356.933 657.539 351.546 655.812 353.273 650.425 347.1 658.099" style="stroke:#a80036;stroke-width:1"/><text x="440" y="624.768" fill="#000" font-family="sans-serif" font-size="13" lengthAdjust="spacingAndGlyphs" textLength="67">CONTINUE</text><path id="pkt4_receive-&gt;drop" fill="none" d="M534,581.4992 C534,603.3392 534,642.0492 534,675.1992 C534,675.1992 534,675.1992 534,1666.1992 C534,1687.5792 558.43,1677.3692 579,1683.1992 C716.63,1722.1692 755.29,1713.5292 895,1744.1992 C899.07,1745.0892 903.27,1746.0492 907.49,1747.0292" style="stroke:#a80036;stroke-width:1"/><polygon fill="#A80036" points="912.45 1748.199 904.601 1742.249 907.582 1747.057 902.774 1750.038 912.45 1748.199" style="stroke:#a80036;stroke-width:1"/><text x="535" y="1177.768" fill="#000" font-family="sans-serif" font-size="13" lengthAdjust="spacingAndGlyphs" textLength="35">DROP</text><path id="drop_class-&gt;same_client" fill="none" d="M314,694.6192 C314,710.1592 314,732.9792 314,749.8592" style="stroke:#a80036;stroke-width:1"/><polygon fill="#A80036" points="314 754.889 318 745.889 314 749.889 310 745.889 314 754.889" style="stroke:#a80036;stroke-width:1"/><path id="drop_class-&gt;drop" fill="none" d="M243.48,679.2592 C179.13,685.3592 94,705.9492 94,772.1992 C94,772.1992 94,772.1992 94,1666.1992 C94,1720.9492 161.68,1676.3392 216,1683.1992 C337.59,1698.5492 367.98,1702.7792 490,1714.1992 C669.71,1731.0192 716.75,1715.8392 895,1744.1992 C898.94,1744.8292 902.99,1745.5692 907.05,1746.3792" style="stroke:#a80036;stroke-width:1"/><polygon fill="#A80036" points="912.2 1747.449 904.198 1741.708 907.304 1746.436 902.576 1749.542 912.2 1747.449" style="stroke:#a80036;stroke-width:1"/><text x="95" y="1234.268" fill="#000" font-family="sans-serif" font-size="13" lengthAdjust="spacingAndGlyphs" textLength="126">query in DROP class</text><path id="same_client-&gt;process" fill="none" d="M347.12,791.2092 C395.425,816.0092 488.31,863.6992 569.655,905.4642 C610.3275,926.3467 648.115,945.748 676.0025,960.0661 C689.9463,967.2252 701.415,973.1134 709.5319,977.2807 C711.5611,978.3225 713.3808,979.2568 714.9774,980.0764" style="stroke:#a80036;stroke-width:1"/><polygon fill="#A80036" points="714.977 980.076 708.798 972.408 710.529 977.793 705.144 979.524 714.977 980.076" style="stroke:#a80036;stroke-width:1"/><path id="same_client-&gt;drop" fill="none" d="M299.7,791.2592 C288.57,806.3092 275,829.3392 275,852.1992 C275,852.1992 275,852.1992 275,1173.6992 C275,1222.3992 247.11,1229.1792 239,1277.1992 C237.74,1284.6492 238.76,1286.6492 239,1294.1992 C239.67,1315.1192 242,1320.2692 242,1341.1992 C242,1341.1992 242,1341.1992 242,1666.1992 C242,1713.3692 777.64,1725.3292 895,1744.1992 C898.94,1744.8292 902.99,1745.5792 907.05,1746.3992" style="stroke:#a80036;stroke-width:1"/><polygon fill="#A80036" points="912.19 1747.469 904.207 1741.701 907.297 1746.439 902.559 1749.529 912.19 1747.469" style="stroke:#a80036;stroke-width:1"/><text x="240" y="1290.768" fill="#000" font-family="sans-serif" font-size="13" lengthAdjust="spacingAndGlyphs" textLength="267">queries from the same client possible race</text><path id="process-&gt;drop" fill="none" d="M714.7345,990.1215 C714.4884,990.2441 714.2376,990.3695 713.9823,990.4976 C712.9607,991.0103 711.8653,991.5676 710.703,992.1686 C708.3783,993.3708 705.7858,994.7482 702.9805,996.2952 C691.7591,1002.483 677.1319,1011.383 662.6163,1022.6242 C633.585,1045.1067 605,1076.9542 605,1115.1992 C605,1115.1992 605,1115.1992 605,1286.6992 C605,1382.9192 605,1406.9792 605,1503.1992 C605,1503.1992 605,1503.1992 605,1666.1992 C605,1670.0592 805.92,1721.3092 907.14,1746.8892" style="stroke:#a80036;stroke-width:1"/><polygon fill="#A80036" points="912.18 1748.159 904.423 1742.09 907.33 1746.943 902.477 1749.85 912.18 1748.159" style="stroke:#a80036;stroke-width:1"/><text x="606" y="1403.768" fill="#000" font-family="sans-serif" font-size="13" lengthAdjust="spacingAndGlyphs" textLength="148">unknown message type</text><path id="processDiscover-&gt;leases4_committed" fill="none" d="M1153.54,1003.3292 C1151.58,1026.3592 1148.08,1067.3592 1145.91,1092.8192" style="stroke:#a80036;stroke-width:1"/><polygon fill="#A80036" points="1145.47 1097.999 1150.226 1089.375 1145.898 1093.018 1142.255 1088.69 1145.47 1097.999" style="stroke:#a80036;stroke-width:1"/><path id="processDiscover-&gt;drop" fill="none" d="M1178.66,1003.2492 C1195.43,1015.0392 1218.66,1030.7692 1240,1043.1992 C1301.84,1079.1992 1384,1043.6492 1384,1115.1992 C1384,1115.1992 1384,1115.1992 1384,1343.1992 C1384,1405.5792 1346.5,1559.4192 1323,1617.1992 C1310.64,1647.5792 1313.41,1660.2292 1290,1683.1992 C1252.31,1720.1992 1104.17,1743.9392 1021.16,1754.6292" style="stroke:#a80036;stroke-width:1"/><polygon fill="#A80036" points="1015.79 1755.309 1025.222 1758.145 1020.75 1754.68 1024.215 1750.209 1015.79 1755.309" style="stroke:#a80036;stroke-width:1"/><text x="1380" y="1403.768" fill="#000" font-family="sans-serif" font-size="13" lengthAdjust="spacingAndGlyphs" textLength="50">on error</text><path id="processRequest-&gt;leases4_committed" fill="none" d="M845.36,1003.3592 C861.72,1015.8092 885.26,1032.3292 908,1043.1992 C957.4,1066.8292 1016.32,1084.8192 1062.92,1096.8992" style="stroke:#a80036;stroke-width:1"/><polygon fill="#A80036" points="1067.97 1098.199 1060.247 1092.088 1063.127 1096.956 1058.258 1099.836 1067.97 1098.199" style="stroke:#a80036;stroke-width:1"/><path id="processRequest-&gt;drop" fill="none" d="M814.47,1003.5592 C802.08,1027.7992 782,1073.5092 782,1115.1992 C782,1115.1992 782,1115.1992 782,1343.1992 C782,1504.6592 842.57,1536.4892 910,1683.1992 C916.56,1697.4792 918.33,1701.0892 927,1714.1992 C932.7,1722.8192 939.57,1731.8492 945.83,1739.6592" style="stroke:#a80036;stroke-width:1"/><polygon fill="#A80036" points="949.23 1743.859 946.68 1734.346 946.086 1739.972 940.46 1739.377 949.23 1743.859" style="stroke:#a80036;stroke-width:1"/><text x="786" y="1403.768" fill="#000" font-family="sans-serif" font-size="13" lengthAdjust="spacingAndGlyphs" textLength="50">on error</text><path id="processRelease-&gt;leases4_committed" fill="none" d="M1009.58,1003.3292 C1037.95,1026.9392 1089.01,1069.4292 1119.37,1094.6992" style="stroke:#a80036;stroke-width:1"/><polygon fill="#A80036" points="1123.33 1097.999 1118.974 1089.166 1119.488 1094.8 1113.854 1095.314 1123.33 1097.999" style="stroke:#a80036;stroke-width:1"/><path id="processRelease-&gt;drop" fill="none" d="M958.18,1003.1992 C924.12,1024.5192 874,1064.4892 874,1115.1992 C874,1115.1992 874,1115.1992 874,1343.1992 C874,1496.1392 893.83,1533.8992 927,1683.1992 C930.11,1697.2092 930.28,1701.0392 936,1714.1992 C939.7,1722.7092 944.65,1731.5692 949.37,1739.2792" style="stroke:#a80036;stroke-width:1"/><polygon fill="#A80036" points="952.26 1743.909 950.873 1734.159 949.606 1739.672 944.093 1738.405 952.26 1743.909" style="stroke:#a80036;stroke-width:1"/><text x="876" y="1403.768" fill="#000" font-family="sans-serif" font-size="13" lengthAdjust="spacingAndGlyphs" textLength="50">on error</text><path id="processDecline-&gt;leases4_committed" fill="none" d="M1296.63,1003.3292 C1264.28,1027.0392 1205.97,1069.7792 1171.54,1095.0092" style="stroke:#a80036;stroke-width:1"/><polygon fill="#A80036" points="1167.47 1097.999 1177.092 1095.898 1171.501 1095.041 1172.358 1089.449 1167.47 1097.999" style="stroke:#a80036;stroke-width:1"/><path id="processDecline-&gt;drop" fill="none" d="M1344.72,1003.4392 C1388.71,1034.5392 1476,1098.3692 1476,1115.1992 C1476,1115.1992 1476,1115.1992 1476,1666.1992 C1476,1712.0592 1154.4,1744.8992 1020.96,1756.5492" style="stroke:#a80036;stroke-width:1"/><polygon fill="#A80036" points="1015.91 1756.989 1025.219 1760.204 1020.892 1756.561 1024.534 1752.233 1015.91 1756.989" style="stroke:#a80036;stroke-width:1"/><text x="1477" y="1403.768" fill="#000" font-family="sans-serif" font-size="13" lengthAdjust="spacingAndGlyphs" textLength="50">on error</text><path id="processInform-&gt;leases4_committed" fill="none" d="M1459.75,1003.3292 C1444.69,1015.9292 1422.73,1032.6492 1401,1043.1992 C1350.13,1067.9092 1289.34,1085.4192 1239.66,1096.9892" style="stroke:#a80036;stroke-width:1"/><polygon fill="#A80036" points="1234.58 1098.159 1244.251 1100.025 1239.451 1097.031 1242.445 1092.231 1234.58 1098.159" style="stroke:#a80036;stroke-width:1"/><path id="processInform-&gt;drop" fill="none" d="M1501,1003.2392 C1527.36,1025.7692 1568,1068.1292 1568,1115.1992 C1568,1115.1992 1568,1115.1992 1568,1666.1992 C1568,1721.2392 1171.5,1749.4592 1021.01,1758.1792" style="stroke:#a80036;stroke-width:1"/><polygon fill="#A80036" points="1015.76 1758.479 1024.974 1761.958 1020.752 1758.193 1024.516 1753.971 1015.76 1758.479" style="stroke:#a80036;stroke-width:1"/><text x="1569" y="1403.768" fill="#000" font-family="sans-serif" font-size="13" lengthAdjust="spacingAndGlyphs" textLength="50">on error</text><path id="leases4_committed-&gt;pkt4_send" fill="none" d="M1113.34,1134.3192 C1087.4,1150.5592 1051.56,1177.4592 1033,1211.1992 C1014.26,1245.2592 1012.51,1291.6692 1013.42,1318.8292" style="stroke:#a80036;stroke-width:1"/><polygon fill="#A80036" points="1013.63 1323.999 1017.24 1314.836 1013.415 1319.004 1009.247 1315.179 1013.63 1323.999" style="stroke:#a80036;stroke-width:1"/><text x="1034" y="1234.268" fill="#000" font-family="sans-serif" font-size="13" lengthAdjust="spacingAndGlyphs" textLength="67">CONTINUE</text><path id="leases4_committed-&gt;drop" fill="none" d="M1215.67,1134.3092 C1261.73,1150.0592 1313,1178.6992 1313,1228.1992 C1313,1228.1992 1313,1228.1992 1313,1399.6992 C1313,1528.5792 1332.51,1582.5492 1252,1683.1992 C1223.32,1719.0492 1096.3,1742.6492 1020.86,1753.7692" style="stroke:#a80036;stroke-width:1"/><polygon fill="#A80036" points="1015.52 1754.549 1025.007 1757.194 1020.467 1753.82 1023.841 1749.28 1015.52 1754.549" style="stroke:#a80036;stroke-width:1"/><text x="1315" y="1460.268" fill="#000" font-family="sans-serif" font-size="13" lengthAdjust="spacingAndGlyphs" textLength="35">DROP</text><path id="leases4_committed-&gt;park" fill="none" d="M1144,1134.5392 C1144,1153.7692 1144,1184.8292 1144,1205.8592" style="stroke:#a80036;stroke-width:1"/><polygon fill="#A80036" points="1144 1210.979 1148 1201.979 1144 1205.979 1140 1201.979 1144 1210.979" style="stroke:#a80036;stroke-width:1"/><text x="1145" y="1177.768" fill="#000" font-family="sans-serif" font-size="13" lengthAdjust="spacingAndGlyphs" textLength="32">PARK</text><path id="park-&gt;pkt4_send" fill="none" d="M1124.13,1247.2992 C1101.18,1267.0392 1063.46,1299.4992 1038.93,1320.6092" style="stroke:#a80036;stroke-width:1;stroke-dasharray:7,7"/><polygon fill="#A80036" points="1035.11 1323.899 1044.541 1321.062 1038.9 1320.638 1039.324 1314.997 1035.11 1323.899" style="stroke:#a80036;stroke-width:1"/><text x="1088" y="1290.768" fill="#000" font-family="sans-serif" font-size="13" lengthAdjust="spacingAndGlyphs" textLength="44">unpark</text><path id="pkt4_send-&gt;pack" fill="none" d="M1033.64,1360.2992 C1055.07,1379.9592 1090.25,1412.2292 1113.27,1433.3492" style="stroke:#a80036;stroke-width:1"/><polygon fill="#A80036" points="1117.14 1436.899 1113.218 1427.865 1113.458 1433.517 1107.806 1433.756 1117.14 1436.899" style="stroke:#a80036;stroke-width:1"/><text x="1083" y="1403.768" fill="#000" font-family="sans-serif" font-size="13" lengthAdjust="spacingAndGlyphs" textLength="67">CONTINUE</text><path id="pkt4_send-&gt;buffer4_send" fill="none" d="M1013.6,1360.3192 C1012.24,1386.3092 1012.69,1436.5492 1032,1473.1992 C1044.57,1497.0592 1067.55,1517.1692 1086.73,1530.9992" style="stroke:#a80036;stroke-width:1"/><polygon fill="#A80036" points="1091.02 1534.029 1085.976 1525.57 1086.936 1531.145 1081.361 1532.104 1091.02 1534.029" style="stroke:#a80036;stroke-width:1"/><text x="1033" y="1460.268" fill="#000" font-family="sans-serif" font-size="13" lengthAdjust="spacingAndGlyphs" textLength="26">SKIP</text><path id="pkt4_send-&gt;drop" fill="none" d="M1008.96,1360.3792 C993.2,1406.2292 951.09,1535.5692 937,1647.1992 C935,1663.0692 934.35,1667.4192 937,1683.1992 C940.27,1702.6292 947.81,1723.6792 954.1,1739.0092" style="stroke:#a80036;stroke-width:1"/><polygon fill="#A80036" points="956.17 1743.979 956.39 1734.133 954.242 1739.366 949.009 1737.218 956.17 1743.979" style="stroke:#a80036;stroke-width:1"/><text x="959" y="1557.268" fill="#000" font-family="sans-serif" font-size="13" lengthAdjust="spacingAndGlyphs" textLength="35">DROP</text><path id="pack-&gt;buffer4_send" fill="none" d="M1132.88,1473.6192 C1130.1,1489.1592 1126.02,1511.9792 1123,1528.8592" style="stroke:#a80036;stroke-width:1"/><polygon fill="#A80036" points="1122.1 1533.889 1127.61 1525.726 1122.973 1528.966 1119.733 1524.329 1122.1 1533.889" style="stroke:#a80036;stroke-width:1"/><path id="buffer4_send-&gt;send" fill="none" d="M1118.06,1570.5392 C1117.02,1589.7692 1115.34,1620.8292 1114.21,1641.8592" style="stroke:#a80036;stroke-width:1"/><polygon fill="#A80036" points="1113.93 1646.979 1118.412 1638.209 1114.201 1641.987 1110.424 1637.776 1113.93 1646.979" style="stroke:#a80036;stroke-width:1"/><text x="1117" y="1613.768" fill="#000" font-family="sans-serif" font-size="13" lengthAdjust="spacingAndGlyphs" textLength="67">CONTINUE</text><path id="buffer4_send-&gt;drop" fill="none" d="M1161.34,1570.3192 C1173.8,1577.5792 1185.96,1587.3992 1193,1600.1992 C1201.95,1616.4792 1222.86,1639.9692 1191,1683.1992 C1151.85,1736.3392 1074.24,1753.5792 1020.76,1758.9992" style="stroke:#a80036;stroke-width:1"/><polygon fill="#A80036" points="1015.66 1759.489 1025.005 1762.598 1020.636 1759.004 1024.23 1754.635 1015.66 1759.489" style="stroke:#a80036;stroke-width:1"/><text x="1208" y="1670.268" fill="#000" font-family="sans-serif" font-size="13" lengthAdjust="spacingAndGlyphs" textLength="35">DROP</text><text x="809.5" y="1801.355" fill="#888" font-family="sans-serif" font-size="10" lengthAdjust="spacingAndGlyphs" textLength="225">dashed arrow means asynchronous processing</text></g></svg>