<svg xmlns="http://www.w3.org/2000/svg" xmlns:xlink="http://www.w3.org/1999/xlink" width="740" height="1782" contentScriptType="application/ecmascript" contentStyleType="text/css" preserveAspectRatio="none" style="width:740px;height:1782px" version="1.1" viewBox="0 0 740 1782" zoomAndPan="magnify"><defs><filter id="f1ilk3q3nd6gdc" width="300%" height="300%" x="-1" y="-1"><feGaussianBlur result="blurOut" stdDeviation="2"/><feColorMatrix in="blurOut" result="blurOut2" type="matrix" values="0 0 0 0 0 0 0 0 0 0 0 0 0 0 0 0 0 0 .4 0"/><feOffset dx="4" dy="4" in="blurOut2" result="blurOut3"/><feBlend in="SourceGraphic" in2="blurOut3" mode="normal"/></filter></defs><g><text x="198" y="17.402" fill="#000" font-family="sans-serif" font-size="18" lengthAdjust="spacingAndGlyphs" textLength="326">DHCPREQUEST processing (Kea 1.8.0)</text><rect width="304" height="762.86" x="419" y="717.199" fill="#FFF" filter="url(#f1ilk3q3nd6gdc)" style="stroke:#000;stroke-width:1.5"/><text x="494" y="732.734" fill="#000" font-family="sans-serif" font-size="14" font-weight="bold" lengthAdjust="spacingAndGlyphs" textLength="154">A lease was assigned</text><rect width="163" height="36.488" x="449.5" y="806.059" fill="#FEFECE" filter="url(#f1ilk3q3nd6gdc)" style="stroke:#a80036;stroke-width:1.5"/><text x="459.5" y="829.594" fill="#000" font-family="sans-serif" font-size="14" lengthAdjust="spacingAndGlyphs" textLength="143">Add reserved classes</text><rect width="187" height="36.488" x="447.5" y="903.059" fill="#FEFECE" filter="url(#f1ilk3q3nd6gdc)" style="stroke:#a80036;stroke-width:1.5"/><text x="457.5" y="926.594" fill="#000" font-family="sans-serif" font-size="14" lengthAdjust="spacingAndGlyphs" textLength="167">Classify required classes</text><rect width="206" height="36.488" x="455" y="1000.059" fill="#FEFECE" filter="url(#f1ilk3q3nd6gdc)" style="stroke:#a80036;stroke-width:1.5"/><text x="465" y="1023.594" fill="#000" font-family="sans-serif" font-size="14" lengthAdjust="spacingAndGlyphs" textLength="186">Build configured option list</text><rect width="203" height="36.488" x="464.5" y="1113.059" fill="#FEFECE" filter="url(#f1ilk3q3nd6gdc)" style="stroke:#a80036;stroke-width:1.5"/><text x="474.5" y="1136.594" fill="#000" font-family="sans-serif" font-size="14" lengthAdjust="spacingAndGlyphs" textLength="183">Append requested options</text><rect width="255" height="36.488" x="443.5" y="1226.059" fill="#FEFECE" filter="url(#f1ilk3q3nd6gdc)" style="stroke:#a80036;stroke-width:1.5"/><text x="453.5" y="1249.594" fill="#000" font-family="sans-serif" font-size="14" lengthAdjust="spacingAndGlyphs" textLength="235">Append requested vendor options</text><rect width="169" height="36.488" x="485.5" y="1323.059" fill="#FEFECE" filter="url(#f1ilk3q3nd6gdc)" style="stroke:#a80036;stroke-width:1.5"/><text x="495.5" y="1346.594" fill="#000" font-family="sans-serif" font-size="14" lengthAdjust="spacingAndGlyphs" textLength="149">Append basic options</text><rect width="121" height="36.488" x="508.5" y="1420.059" fill="#FEFECE" filter="url(#f1ilk3q3nd6gdc)" style="stroke:#a80036;stroke-width:1.5"/><text x="518.5" y="1443.594" fill="#000" font-family="sans-serif" font-size="14" lengthAdjust="spacingAndGlyphs" textLength="101">Set fixed fields</text><rect width="95" height="36.488" x="78.5" y="28.199" fill="#FEFECE" filter="url(#f1ilk3q3nd6gdc)" style="stroke:#a80036;stroke-width:1.5"/><text x="88.5" y="51.734" fill="#000" font-family="sans-serif" font-size="14" lengthAdjust="spacingAndGlyphs" textLength="75">Entry point</text><rect width="111" height="36.488" x="70.5" y="125.199" fill="#FEFECE" filter="url(#f1ilk3q3nd6gdc)" style="stroke:#a80036;stroke-width:1.5"/><text x="80.5" y="148.734" fill="#000" font-family="sans-serif" font-size="14" lengthAdjust="spacingAndGlyphs" textLength="91">Select subnet</text><path fill="#FBFB77" d="M217,130.6992 L217,139.1992 L181.52,143.1992 L217,147.1992 L217,156.0098 A0,0 0 0 0 217,156.0098 L307,156.0098 A0,0 0 0 0 307,156.0098 L307,140.6992 L297,130.6992 L217,130.6992 A0,0 0 0 0 217,130.6992" filter="url(#f1ilk3q3nd6gdc)" style="stroke:#a80036;stroke-width:1"/><path fill="#FBFB77" d="M297,130.6992 L297,140.6992 L307,140.6992 L297,130.6992" style="stroke:#a80036;stroke-width:1"/><text x="223" y="148.268" fill="#000" font-family="sans-serif" font-size="13" lengthAdjust="spacingAndGlyphs" textLength="69">hook point</text><rect width="165" height="36.488" x="187.5" y="222.199" fill="#FEFECE" filter="url(#f1ilk3q3nd6gdc)" style="stroke:#a80036;stroke-width:1.5"/><text x="197.5" y="245.734" fill="#000" font-family="sans-serif" font-size="14" lengthAdjust="spacingAndGlyphs" textLength="145">Find host reservation</text><rect width="280" height="36.488" x="174" y="319.199" fill="#FEFECE" filter="url(#f1ilk3q3nd6gdc)" style="stroke:#a80036;stroke-width:1.5"/><text x="184" y="342.734" fill="#000" font-family="sans-serif" font-size="14" lengthAdjust="spacingAndGlyphs" textLength="260">Add either KNOWN or UNKNOWN class</text><rect width="148" height="36.488" x="248" y="416.199" fill="#FEFECE" filter="url(#f1ilk3q3nd6gdc)" style="stroke:#a80036;stroke-width:1.5"/><text x="258" y="439.734" fill="#000" font-family="sans-serif" font-size="14" lengthAdjust="spacingAndGlyphs" textLength="128">Classify (2nd pass)</text><rect width="155" height="36.488" x="248.5" y="513.199" fill="#FEFECE" filter="url(#f1ilk3q3nd6gdc)" style="stroke:#a80036;stroke-width:1.5"/><text x="258.5" y="536.734" fill="#000" font-family="sans-serif" font-size="14" lengthAdjust="spacingAndGlyphs" textLength="135">Process client name</text><rect width="117" height="36.488" x="269.5" y="610.199" fill="#FEFECE" filter="url(#f1ilk3q3nd6gdc)" style="stroke:#a80036;stroke-width:1.5"/><text x="279.5" y="633.734" fill="#000" font-family="sans-serif" font-size="14" lengthAdjust="spacingAndGlyphs" textLength="97">Assign a lease</text><rect width="162" height="36.488" x="487" y="1535.059" fill="#FEFECE" filter="url(#f1ilk3q3nd6gdc)" style="stroke:#a80036;stroke-width:1.5"/><text x="497" y="1558.594" fill="#000" font-family="sans-serif" font-size="14" lengthAdjust="spacingAndGlyphs" textLength="142">Adjust interface data</text><rect width="138" height="36.488" x="499" y="1632.059" fill="#FEFECE" filter="url(#f1ilk3q3nd6gdc)" style="stroke:#a80036;stroke-width:1.5"/><text x="509" y="1655.594" fill="#000" font-family="sans-serif" font-size="14" lengthAdjust="spacingAndGlyphs" textLength="118">Append server ID</text><path fill="#FBFB77" d="M308,1637.5592 L308,1662.8698 A0,0 0 0 0 308,1662.8698 L464,1662.8698 A0,0 0 0 0 464,1662.8698 L464,1655.5592 L498.67,1650.0592 L464,1647.5592 L464,1647.5592 L454,1637.5592 L308,1637.5592 A0,0 0 0 0 308,1637.5592" filter="url(#f1ilk3q3nd6gdc)" style="stroke:#a80036;stroke-width:1"/><path fill="#FBFB77" d="M454,1637.5592 L454,1647.5592 L464,1647.5592 L454,1637.5592" style="stroke:#a80036;stroke-width:1"/><text x="314" y="1655.128" fill="#000" font-family="sans-serif" font-size="13" lengthAdjust="spacingAndGlyphs" textLength="135">on success exit point</text><rect width="155" height="36.488" x="177.5" y="1729.059" fill="#FEFECE" filter="url(#f1ilk3q3nd6gdc)" style="stroke:#a80036;stroke-width:1.5"/><text x="187.5" y="1752.594" fill="#000" font-family="sans-serif" font-size="14" lengthAdjust="spacingAndGlyphs" textLength="135">Return no response</text><path fill="#FBFB77" d="M6,1734.5592 L6,1759.8698 A0,0 0 0 0 6,1759.8698 L142,1759.8698 A0,0 0 0 0 142,1759.8698 L142,1752.5592 L177.47,1747.0592 L142,1744.5592 L142,1744.5592 L132,1734.5592 L6,1734.5592 A0,0 0 0 0 6,1734.5592" filter="url(#f1ilk3q3nd6gdc)" style="stroke:#a80036;stroke-width:1"/><path fill="#FBFB77" d="M132,1734.5592 L132,1744.5592 L142,1744.5592 L132,1734.5592" style="stroke:#a80036;stroke-width:1"/><text x="12" y="1752.128" fill="#000" font-family="sans-serif" font-size="13" lengthAdjust="spacingAndGlyphs" textLength="115">on error exit point</text><path id="entry-&gt;selectSubnet" fill="none" d="M126,64.6192 C126,80.1592 126,102.9792 126,119.8592" style="stroke:#a80036;stroke-width:1"/><polygon fill="#A80036" points="126 124.889 130 115.889 126 119.889 122 115.889 126 124.889" style="stroke:#a80036;stroke-width:1"/><path id="selectSubnet-&gt;findReservation" fill="none" d="M152.08,161.3992 C176.75,177.6792 213.76,202.0992 239.73,219.2292" style="stroke:#a80036;stroke-width:1"/><polygon fill="#A80036" points="244.12 222.119 238.817 213.82 239.949 219.362 234.406 220.494 244.12 222.119" style="stroke:#a80036;stroke-width:1"/><path id="selectSubnet-&gt;drop" fill="none" d="M120.11,161.4792 C114.21,180.3392 106,211.5592 106,239.1992 C106,239.1992 106,239.1992 106,1651.0592 C106,1689.5192 141.74,1713.0992 178.21,1727.1392" style="stroke:#a80036;stroke-width:1"/><polygon fill="#A80036" points="183.12 1728.979 176.097 1722.074 178.438 1727.224 173.288 1729.564 183.12 1728.979" style="stroke:#a80036;stroke-width:1"/><text x="107" y="926.128" fill="#000" font-family="sans-serif" font-size="13" lengthAdjust="spacingAndGlyphs" textLength="94">hook set DROP</text><path id="findReservation-&gt;known" fill="none" d="M278.07,258.6192 C285.33,274.2892 296.02,297.3792 303.85,314.2892" style="stroke:#a80036;stroke-width:1"/><polygon fill="#A80036" points="305.98 318.889 305.834 309.041 303.882 314.351 298.573 312.398 305.98 318.889" style="stroke:#a80036;stroke-width:1"/><path id="known-&gt;classify2" fill="none" d="M315.47,355.6192 C316.78,371.1592 318.7,393.9792 320.12,410.8592" style="stroke:#a80036;stroke-width:1"/><polygon fill="#A80036" points="320.54 415.889 323.781 406.589 320.126 410.906 315.808 407.251 320.54 415.889" style="stroke:#a80036;stroke-width:1"/><path id="classify2-&gt;processClientName" fill="none" d="M322.73,452.6192 C323.39,468.1592 324.35,490.9792 325.06,507.8592" style="stroke:#a80036;stroke-width:1"/><polygon fill="#A80036" points="325.27 512.889 328.907 503.736 325.07 507.893 320.913 504.056 325.27 512.889" style="stroke:#a80036;stroke-width:1"/><path id="processClientName-&gt;assignLease" fill="none" d="M326.37,549.6192 C326.69,565.1592 327.17,587.9792 327.53,604.8592" style="stroke:#a80036;stroke-width:1"/><polygon fill="#A80036" points="327.64 609.889 331.459 600.811 327.54 604.89 323.461 600.971 327.64 609.889" style="stroke:#a80036;stroke-width:1"/><path id="assignLease-&gt;ack" fill="none" d="M350.16,646.3192 C370.48,662.0192 401.2825,685.8217 427.3263,705.9467 C430.5817,708.4623 433.7628,710.9205 436.8398,713.2982 C438.3783,714.4871 439.8908,715.6558 441.3735,716.8015" style="stroke:#a80036;stroke-width:1"/><polygon fill="#A80036" points="441.373 716.802 436.698 708.133 437.417 713.744 431.806 714.464 441.373 716.802" style="stroke:#a80036;stroke-width:1"/><text x="407" y="689.768" fill="#000" font-family="sans-serif" font-size="13" lengthAdjust="spacingAndGlyphs" textLength="62">DHCPACK</text><path id="assignLease-&gt;common" fill="none" d="M328.48,646.2492 C329.08,668.5892 330,709.0092 330,743.5592 C330,743.5592 330,743.5592 330,1439.0592 C330,1508.3792 413.41,1535.2292 481.47,1545.5992" style="stroke:#a80036;stroke-width:1"/><polygon fill="#A80036" points="486.76 1546.369 478.437 1541.103 481.813 1545.642 477.274 1549.018 486.76 1546.369" style="stroke:#a80036;stroke-width:1"/><text x="331" y="1079.628" fill="#000" font-family="sans-serif" font-size="13" lengthAdjust="spacingAndGlyphs" textLength="63">DHCPNAK</text><path id="assignLease-&gt;drop" fill="none" d="M308.05,646.4192 C286.44,667.0992 255,703.9892 255,743.5592 C255,743.5592 255,743.5592 255,1651.0592 C255,1675.9292 255,1704.4692 255,1723.7292" style="stroke:#a80036;stroke-width:1"/><polygon fill="#A80036" points="255 1728.899 259 1719.899 255 1723.899 251 1719.899 255 1728.899" style="stroke:#a80036;stroke-width:1"/><text x="256" y="1192.628" fill="#000" font-family="sans-serif" font-size="13" lengthAdjust="spacingAndGlyphs" textLength="50">on error</text><path id="ack-&gt;setReservedClasses" fill="none" d="M476.04,745.1192 C477.12,746.6492 499.89,778.9392 515.78,801.4792" style="stroke:#a80036;stroke-width:1"/><polygon fill="#A80036" points="518.86 805.839 516.958 796.176 515.985 801.748 510.412 800.776 518.86 805.839" style="stroke:#a80036;stroke-width:1"/><path id="setReservedClasses-&gt;requiredClassify" fill="none" d="M532.83,842.4792 C534.47,858.0192 536.87,880.8392 538.65,897.7192" style="stroke:#a80036;stroke-width:1"/><polygon fill="#A80036" points="539.18 902.749 542.206 893.377 538.651 897.777 534.251 894.223 539.18 902.749" style="stroke:#a80036;stroke-width:1"/><path id="requiredClassify-&gt;buildCfgOptionList" fill="none" d="M544.12,939.4792 C546.9,955.0192 550.98,977.8392 554,994.7192" style="stroke:#a80036;stroke-width:1"/><polygon fill="#A80036" points="554.9 999.749 557.267 990.189 554.027 994.826 549.39 991.586 554.9 999.749" style="stroke:#a80036;stroke-width:1"/><path id="buildCfgOptionList-&gt;appendRequestedOptions" fill="none" d="M559.25,1036.3992 C560.64,1055.6292 562.87,1086.6892 564.39,1107.7192" style="stroke:#a80036;stroke-width:1"/><polygon fill="#A80036" points="564.76 1112.839 568.107 1103.576 564.403 1107.852 560.127 1104.148 564.76 1112.839" style="stroke:#a80036;stroke-width:1"/><path id="appendRequestedOptions-&gt;appendRequestedVendorOptions" fill="none" d="M566.78,1149.3992 C567.65,1168.6292 569.05,1199.6892 569.99,1220.7192" style="stroke:#a80036;stroke-width:1"/><polygon fill="#A80036" points="570.22 1225.839 573.805 1216.666 569.992 1220.844 565.813 1217.031 570.22 1225.839" style="stroke:#a80036;stroke-width:1"/><path id="appendRequestedVendorOptions-&gt;appendBasicOptions" fill="none" d="M570.82,1262.4792 C570.65,1278.0192 570.41,1300.8392 570.24,1317.7192" style="stroke:#a80036;stroke-width:1"/><polygon fill="#A80036" points="570.18 1322.749 574.257 1313.784 570.223 1317.749 566.258 1313.715 570.18 1322.749" style="stroke:#a80036;stroke-width:1"/><path id="appendBasicOptions-&gt;setFixedFields" fill="none" d="M569.82,1359.4792 C569.65,1375.0192 569.41,1397.8392 569.24,1414.7192" style="stroke:#a80036;stroke-width:1"/><polygon fill="#A80036" points="569.18 1419.749 573.257 1410.784 569.223 1414.749 565.258 1410.715 569.18 1419.749" style="stroke:#a80036;stroke-width:1"/><path id="setFixedFields-&gt;common" fill="none" d="M568.85,1456.2192 C568.67,1475.7992 568.39,1507.8892 568.2,1529.4892" style="stroke:#a80036;stroke-width:1"/><polygon fill="#A80036" points="568.15 1534.739 572.227 1525.774 568.193 1529.739 564.227 1525.705 568.15 1534.739" style="stroke:#a80036;stroke-width:1"/><path id="common-&gt;appendServerID" fill="none" d="M568,1571.4792 C568,1587.0192 568,1609.8392 568,1626.7192" style="stroke:#a80036;stroke-width:1"/><polygon fill="#A80036" points="568 1631.749 572 1622.749 568 1626.749 564 1622.749 568 1631.749" style="stroke:#a80036;stroke-width:1"/></g></svg>