<svg xmlns="http://www.w3.org/2000/svg" xmlns:xlink="http://www.w3.org/1999/xlink" width="2294" height="2399" contentScriptType="application/ecmascript" contentStyleType="text/css" preserveAspectRatio="none" style="width:2294px;height:2399px" version="1.1" viewBox="0 0 2294 2399" zoomAndPan="magnify"><defs><filter id="f5oag86dlpmno" width="300%" height="300%" x="-1" y="-1"><feGaussianBlur result="blurOut" stdDeviation="2"/><feColorMatrix in="blurOut" result="blurOut2" type="matrix" values="0 0 0 0 0 0 0 0 0 0 0 0 0 0 0 0 0 0 .4 0"/><feOffset dx="4" dy="4" in="blurOut2" result="blurOut3"/><feBlend in="SourceGraphic" in2="blurOut3" mode="normal"/></filter></defs><g><text x="938.5" y="17.402" fill="#000" font-family="sans-serif" font-size="18" lengthAdjust="spacingAndGlyphs" textLength="399">Allocate a lease for DHCPREQUEST (Kea 1.8.0)</text><rect width="939" height="378.72" x="950" y="248.199" fill="#FFF" filter="url(#f5oag86dlpmno)" style="stroke:#000;stroke-width:1.5"/><text x="1329.5" y="263.734" fill="#000" font-family="sans-serif" font-size="14" font-weight="bold" lengthAdjust="spacingAndGlyphs" textLength="180">Check requested address</text><rect width="245" height="164.86" x="1604" y="347.059" fill="#FFF" filter="url(#f5oag86dlpmno)" style="stroke:#000;stroke-width:1.5"/><text x="1612" y="362.594" fill="#000" font-family="sans-serif" font-size="14" font-weight="bold" lengthAdjust="spacingAndGlyphs" textLength="229">Get lease for requested address</text><rect width="161" height="164.86" x="470" y="691.919" fill="#FFF" filter="url(#f5oag86dlpmno)" style="stroke:#000;stroke-width:1.5"/><text x="485.5" y="707.454" fill="#000" font-family="sans-serif" font-size="14" font-weight="bold" lengthAdjust="spacingAndGlyphs" textLength="130">Check client lease</text><rect width="1138" height="1385.08" x="7" y="905.779" fill="#FFF" filter="url(#f5oag86dlpmno)" style="stroke:#000;stroke-width:1.5"/><text x="502.5" y="921.314" fill="#000" font-family="sans-serif" font-size="14" font-weight="bold" lengthAdjust="spacingAndGlyphs" textLength="147">Allocate a new lease</text><rect width="300" height="685.36" x="71" y="1466.499" fill="#FFF" filter="url(#f5oag86dlpmno)" style="stroke:#000;stroke-width:1.5"/><text x="139" y="1482.034" fill="#000" font-family="sans-serif" font-size="14" font-weight="bold" lengthAdjust="spacingAndGlyphs" textLength="164">Allocate or reuse lease</text><rect width="514" height="588.22" x="411" y="1044.639" fill="#FFF" filter="url(#f5oag86dlpmno)" style="stroke:#000;stroke-width:1.5"/><text x="576" y="1060.174" fill="#000" font-family="sans-serif" font-size="14" font-weight="bold" lengthAdjust="spacingAndGlyphs" textLength="184">Allocate unreserved lease</text><rect width="246" height="36.488" x="1136" y="451.919" fill="#FEFECE" filter="url(#f5oag86dlpmno)" style="stroke:#a80036;stroke-width:1.5"/><text x="1146" y="475.454" fill="#000" font-family="sans-serif" font-size="14" lengthAdjust="spacingAndGlyphs" textLength="226">Check lease for reserved address</text><rect width="208" height="36.488" x="1020" y="566.919" fill="#FEFECE" filter="url(#f5oag86dlpmno)" style="stroke:#a80036;stroke-width:1.5"/><text x="1030" y="590.454" fill="#000" font-family="sans-serif" font-size="14" lengthAdjust="spacingAndGlyphs" textLength="188">Check out-of-pool address</text><rect width="174" height="36.488" x="1651" y="451.919" fill="#FEFECE" filter="url(#f5oag86dlpmno)" style="stroke:#a80036;stroke-width:1.5"/><text x="1661" y="475.454" fill="#000" font-family="sans-serif" font-size="14" lengthAdjust="spacingAndGlyphs" textLength="154">Check requested lease</text><rect width="108" height="36.488" x="494" y="796.779" fill="#FEFECE" filter="url(#f5oag86dlpmno)" style="stroke:#a80036;stroke-width:1.5"/><text x="504" y="820.314" fill="#000" font-family="sans-serif" font-size="14" lengthAdjust="spacingAndGlyphs" textLength="88">Check renew</text><rect width="148" height="36.488" x="973" y="1703.859" fill="#FEFECE" filter="url(#f5oag86dlpmno)" style="stroke:#a80036;stroke-width:1.5"/><text x="983" y="1727.394" fill="#000" font-family="sans-serif" font-size="14" lengthAdjust="spacingAndGlyphs" textLength="128">Create a new lease</text><rect width="128" height="36.488" x="747" y="2230.859" fill="#FEFECE" filter="url(#f5oag86dlpmno)" style="stroke:#a80036;stroke-width:1.5"/><text x="757" y="2254.394" fill="#000" font-family="sans-serif" font-size="14" lengthAdjust="spacingAndGlyphs" textLength="108">Delete old lease</text><rect width="153" height="36.488" x="188.5" y="1572.859" fill="#FEFECE" filter="url(#f5oag86dlpmno)" style="stroke:#a80036;stroke-width:1.5"/><text x="198.5" y="1596.394" fill="#000" font-family="sans-serif" font-size="14" lengthAdjust="spacingAndGlyphs" textLength="133">Get candidate lease</text><rect width="157" height="36.488" x="118.5" y="1703.859" fill="#FEFECE" filter="url(#f5oag86dlpmno)" style="stroke:#a80036;stroke-width:1.5"/><text x="128.5" y="1727.394" fill="#000" font-family="sans-serif" font-size="14" lengthAdjust="spacingAndGlyphs" textLength="137">Reuse expired lease</text><rect width="169" height="36.488" x="111.5" y="1800.859" fill="#FEFECE" filter="url(#f5oag86dlpmno)" style="stroke:#a80036;stroke-width:1.5"/><text x="121.5" y="1824.394" fill="#000" font-family="sans-serif" font-size="14" lengthAdjust="spacingAndGlyphs" textLength="149">Reclaim expired lease</text><rect width="192" height="36.488" x="96" y="1897.859" fill="#FEFECE" filter="url(#f5oag86dlpmno)" style="stroke:#a80036;stroke-width:1.5"/><text x="106" y="1921.394" fill="#000" font-family="sans-serif" font-size="14" lengthAdjust="spacingAndGlyphs" textLength="172">update lease information</text><rect width="163" height="36.488" x="95.5" y="1994.859" fill="#FEFECE" filter="url(#f5oag86dlpmno)" style="stroke:#a80036;stroke-width:1.5"/><text x="105.5" y="2018.394" fill="#000" font-family="sans-serif" font-size="14" lengthAdjust="spacingAndGlyphs" textLength="143">Callout lease4_select</text><path fill="#FBFB77" d="M293.5,2000.3592 L293.5,2008.8592 L258.55,2012.8592 L293.5,2016.8592 L293.5,2025.6698 A0,0 0 0 0 293.5,2025.6698 L346.5,2025.6698 A0,0 0 0 0 346.5,2025.6698 L346.5,2010.3592 L336.5,2000.3592 L293.5,2000.3592 A0,0 0 0 0 293.5,2000.3592" filter="url(#f5oag86dlpmno)" style="stroke:#a80036;stroke-width:1"/><path fill="#FBFB77" d="M336.5,2000.3592 L336.5,2010.3592 L346.5,2010.3592 L336.5,2000.3592" style="stroke:#a80036;stroke-width:1"/><text x="299.5" y="2017.928" fill="#000" font-family="sans-serif" font-size="13" lengthAdjust="spacingAndGlyphs" textLength="32">hook</text><rect width="108" height="36.488" x="210" y="2091.859" fill="#FEFECE" filter="url(#f5oag86dlpmno)" style="stroke:#a80036;stroke-width:1.5"/><text x="220" y="2115.394" fill="#000" font-family="sans-serif" font-size="14" lengthAdjust="spacingAndGlyphs" textLength="88">Update lease</text><rect width="194" height="36.488" x="450" y="1133.499" fill="#FEFECE" filter="url(#f5oag86dlpmno)" style="stroke:#a80036;stroke-width:1.5"/><text x="460" y="1157.034" fill="#000" font-family="sans-serif" font-size="14" lengthAdjust="spacingAndGlyphs" textLength="174">Iterate pools and subnets</text><rect width="105" height="36.488" x="509.5" y="1246.499" fill="#FEFECE" filter="url(#f5oag86dlpmno)" style="stroke:#a80036;stroke-width:1.5"/><text x="519.5" y="1270.034" fill="#000" font-family="sans-serif" font-size="14" lengthAdjust="spacingAndGlyphs" textLength="85">Pick address</text><rect width="200" height="36.488" x="640" y="1359.499" fill="#FEFECE" filter="url(#f5oag86dlpmno)" style="stroke:#a80036;stroke-width:1.5"/><text x="650" y="1383.034" fill="#000" font-family="sans-serif" font-size="14" lengthAdjust="spacingAndGlyphs" textLength="180">Check reserved addressed</text><rect width="288" height="36.488" x="506" y="1475.859" fill="#FEFECE" filter="url(#f5oag86dlpmno)" style="stroke:#a80036;stroke-width:1.5"/><text x="516" y="1499.394" fill="#000" font-family="sans-serif" font-size="14" lengthAdjust="spacingAndGlyphs" textLength="268">Check already in use by another thread</text><rect width="101" height="36.488" x="476.5" y="1572.859" fill="#FEFECE" filter="url(#f5oag86dlpmno)" style="stroke:#a80036;stroke-width:1.5"/><text x="486.5" y="1596.394" fill="#000" font-family="sans-serif" font-size="14" lengthAdjust="spacingAndGlyphs" textLength="81">Check lease</text><rect width="130" height="36.488" x="1383" y="28.199" fill="#FEFECE" filter="url(#f5oag86dlpmno)" style="stroke:#a80036;stroke-width:1.5"/><text x="1393" y="51.734" fill="#000" font-family="sans-serif" font-size="14" lengthAdjust="spacingAndGlyphs" textLength="110">Find client lease</text><path fill="#FBFB77" d="M1548,33.6992 L1548,42.1992 L1513.14,46.1992 L1548,50.1992 L1548,59.0098 A0,0 0 0 0 1548,59.0098 L1638,59.0098 A0,0 0 0 0 1638,59.0098 L1638,43.6992 L1628,33.6992 L1548,33.6992 A0,0 0 0 0 1548,33.6992" filter="url(#f5oag86dlpmno)" style="stroke:#a80036;stroke-width:1"/><path fill="#FBFB77" d="M1628,33.6992 L1628,43.6992 L1638,43.6992 L1628,33.6992" style="stroke:#a80036;stroke-width:1"/><text x="1554" y="51.268" fill="#000" font-family="sans-serif" font-size="13" lengthAdjust="spacingAndGlyphs" textLength="69">entry point</text><rect width="216" height="36.488" x="1615" y="141.199" fill="#FEFECE" filter="url(#f5oag86dlpmno)" style="stroke:#a80036;stroke-width:1.5"/><text x="1625" y="164.734" fill="#000" font-family="sans-serif" font-size="14" lengthAdjust="spacingAndGlyphs" textLength="196">Check requested reservation</text><rect width="124" height="36.488" x="1112" y="141.199" fill="#FEFECE" filter="url(#f5oag86dlpmno)" style="stroke:#a80036;stroke-width:1.5"/><text x="1122" y="164.734" fill="#000" font-family="sans-serif" font-size="14" lengthAdjust="spacingAndGlyphs" textLength="104">Get reservation</text><rect width="200" height="36.488" x="1380" y="141.199" fill="#FEFECE" filter="url(#f5oag86dlpmno)" style="stroke:#a80036;stroke-width:1.5"/><text x="1390" y="164.734" fill="#000" font-family="sans-serif" font-size="14" lengthAdjust="spacingAndGlyphs" textLength="180">Update requested address</text><rect width="127" height="36.488" x="1444.5" y="2230.859" fill="#FEFECE" filter="url(#f5oag86dlpmno)" style="stroke:#a80036;stroke-width:1.5"/><text x="1454.5" y="2254.394" fill="#000" font-family="sans-serif" font-size="14" lengthAdjust="spacingAndGlyphs" textLength="107">Return no lease</text><path fill="#FBFB77" d="M1607,2236.3592 L1607,2244.8592 L1571.71,2248.8592 L1607,2252.8592 L1607,2261.6698 A0,0 0 0 0 1607,2261.6698 L1689,2261.6698 A0,0 0 0 0 1689,2261.6698 L1689,2246.3592 L1679,2236.3592 L1607,2236.3592 A0,0 0 0 0 1607,2236.3592" filter="url(#f5oag86dlpmno)" style="stroke:#a80036;stroke-width:1"/><path fill="#FBFB77" d="M1679,2236.3592 L1679,2246.3592 L1689,2246.3592 L1679,2236.3592" style="stroke:#a80036;stroke-width:1"/><text x="1613" y="2253.928" fill="#000" font-family="sans-serif" font-size="13" lengthAdjust="spacingAndGlyphs" textLength="61">exit point</text><rect width="168" height="36.488" x="971" y="796.779" fill="#FEFECE" filter="url(#f5oag86dlpmno)" style="stroke:#a80036;stroke-width:1.5"/><text x="981" y="820.314" fill="#000" font-family="sans-serif" font-size="14" lengthAdjust="spacingAndGlyphs" textLength="148">Return renewed lease</text><path fill="#FBFB77" d="M1174,802.2792 L1174,810.7792 L1139.06,814.7792 L1174,818.7792 L1174,827.5898 A0,0 0 0 0 1174,827.5898 L1256,827.5898 A0,0 0 0 0 1256,827.5898 L1256,812.2792 L1246,802.2792 L1174,802.2792 A0,0 0 0 0 1174,802.2792" filter="url(#f5oag86dlpmno)" style="stroke:#a80036;stroke-width:1"/><path fill="#FBFB77" d="M1246,802.2792 L1246,812.2792 L1256,812.2792 L1246,802.2792" style="stroke:#a80036;stroke-width:1"/><text x="1180" y="819.848" fill="#000" font-family="sans-serif" font-size="13" lengthAdjust="spacingAndGlyphs" textLength="61">exit point</text><rect width="105" height="36.488" x="758.5" y="2345.859" fill="#FEFECE" filter="url(#f5oag86dlpmno)" style="stroke:#a80036;stroke-width:1.5"/><text x="768.5" y="2369.394" fill="#000" font-family="sans-serif" font-size="14" lengthAdjust="spacingAndGlyphs" textLength="85">Return lease</text><path fill="#FBFB77" d="M899,2351.3592 L899,2359.8592 L863.66,2363.8592 L899,2367.8592 L899,2376.6698 A0,0 0 0 0 899,2376.6698 L981,2376.6698 A0,0 0 0 0 981,2376.6698 L981,2361.3592 L971,2351.3592 L899,2351.3592 A0,0 0 0 0 899,2351.3592" filter="url(#f5oag86dlpmno)" style="stroke:#a80036;stroke-width:1"/><path fill="#FBFB77" d="M971,2351.3592 L971,2361.3592 L981,2361.3592 L971,2351.3592" style="stroke:#a80036;stroke-width:1"/><text x="905" y="2368.928" fill="#000" font-family="sans-serif" font-size="13" lengthAdjust="spacingAndGlyphs" textLength="61">exit point</text><path id="findClientLease-&gt;addressReserved" fill="none" d="M1490.37,64.2992 C1540.43,84.5092 1623.49,118.0392 1675.64,139.0792" style="stroke:#a80036;stroke-width:1"/><polygon fill="#A80036" points="1680.59 141.079 1673.746 133.997 1675.955 139.205 1670.747 141.414 1680.59 141.079" style="stroke:#a80036;stroke-width:1"/><text x="1602" y="107.768" fill="#000" font-family="sans-serif" font-size="13" lengthAdjust="spacingAndGlyphs" textLength="178">has requested address (hint)</text><path id="findClientLease-&gt;hasAddressReservation" fill="none" d="M1405.79,64.2992 C1355.91,84.5092 1273.15,118.0392 1221.19,139.0792" style="stroke:#a80036;stroke-width:1"/><polygon fill="#A80036" points="1216.26 141.079 1226.103 141.414 1220.895 139.205 1223.104 133.997 1216.26 141.079" style="stroke:#a80036;stroke-width:1"/><text x="1328" y="107.768" fill="#000" font-family="sans-serif" font-size="13" lengthAdjust="spacingAndGlyphs" textLength="172">no requested address (hint)</text><path id="addressReserved-&gt;check_hint" fill="none" d="M1706.14,177.5692 C1690.855,193.3142 1667.81,217.0567 1648.3475,237.1092 C1645.9147,239.6158 1643.5379,242.0647 1641.2391,244.4331 C1640.0898,245.6173 1638.96,246.7814 1637.8525,247.9225" style="stroke:#a80036;stroke-width:1"/><polygon fill="#A80036" points="1637.852 247.923 1646.991 244.25 1641.335 244.335 1641.25 238.678 1637.852 247.923" style="stroke:#a80036;stroke-width:1"/><text x="1675" y="220.768" fill="#000" font-family="sans-serif" font-size="13" lengthAdjust="spacingAndGlyphs" textLength="162">no conflicting reservation</text><path id="addressReserved-&gt;no_lease" fill="none" d="M1831.12,176.2492 C1928.35,193.8192 2056,226.1192 2056,274.5592 C2056,274.5592 2056,274.5592 2056,2110.8592 C2056,2245.5392 1894.72,2159.4592 1764,2191.8592 C1729.14,2200.4992 1639.9,2219.7792 1576.62,2233.2992" style="stroke:#a80036;stroke-width:1"/><polygon fill="#A80036" points="1571.73 2234.339 1581.366 2236.378 1576.62 2233.298 1579.7 2228.553 1571.73 2234.339" style="stroke:#a80036;stroke-width:1"/><text x="2057" y="1213.068" fill="#000" font-family="sans-serif" font-size="13" lengthAdjust="spacingAndGlyphs" textLength="225">reservation owned by another client</text><path id="hasAddressReservation-&gt;update_hint" fill="none" d="M1236.29,159.1992 C1276.08,159.1992 1328.68,159.1992 1374.83,159.1992" style="stroke:#a80036;stroke-width:1"/><polygon fill="#A80036" points="1379.85 159.199 1370.85 155.199 1374.85 159.199 1370.85 163.199 1379.85 159.199" style="stroke:#a80036;stroke-width:1"/><text x="1254.5" y="152.768" fill="#000" font-family="sans-serif" font-size="13" lengthAdjust="spacingAndGlyphs" textLength="107">has a reservation</text><path id="update_hint-&gt;check_hint" fill="none" d="M1480.56,177.2992 C1481.87,191.3892 1485.77,211.1092 1497,224.1992 C1501.4688,229.4105 1506.5789,234.1017 1512.105,238.322 C1514.868,240.4322 1517.735,242.4246 1520.6778,244.3054 C1522.1492,245.2458 1523.6395,246.1583 1525.1453,247.0437 C1525.5217,247.2651 1525.8991,247.4847 1526.2774,247.7027 C1526.4666,247.8117 1526.656,247.9202 1526.8456,248.0284" style="stroke:#a80036;stroke-width:1"/><polygon fill="#A80036" points="1526.846 248.028 1521.009 240.095 1522.502 245.551 1517.046 247.044 1526.846 248.028" style="stroke:#a80036;stroke-width:1"/><text x="1498" y="220.768" fill="#000" font-family="sans-serif" font-size="13" lengthAdjust="spacingAndGlyphs" textLength="157">request reserved address</text><path id="hasAddressReservation-&gt;check_done" fill="none" d="M1111.78,160.2292 C968.42,161.9792 627,176.4492 627,274.5592 C627,274.5592 627,274.5592 627,585.9192 C627,614.8842 626.03,647.4017 625.045,672.958 C624.7987,679.347 624.5516,685.301 624.3184,690.6556 C624.3038,690.9903 624.2893,691.3226 624.2748,691.6526" style="stroke:#a80036;stroke-width:1"/><polygon fill="#A80036" points="624.275 691.653 628.665 682.836 624.494 686.657 620.673 682.486 624.275 691.653" style="stroke:#a80036;stroke-width:1"/><text x="628" y="418.488" fill="#000" font-family="sans-serif" font-size="13" lengthAdjust="spacingAndGlyphs" textLength="90">no reservation</text><path id="check_hint-&gt;get_existing" fill="none" d="M1612,276.1292 C1612,277.5792 1612,301.1692 1612,324.7542 C1612,330.6505 1612,336.5464 1612,342.096 C1612,343.4834 1612,344.8492 1612,346.1879 C1612,346.3552 1612,346.5221 1612,346.6886" style="stroke:#a80036;stroke-width:1"/><polygon fill="#A80036" points="1612 346.689 1616 337.689 1612 341.689 1608 337.689 1612 346.689" style="stroke:#a80036;stroke-width:1"/><path id="get_existing-&gt;existing" fill="none" d="M1612.09,374.9892 C1614.74,376.9592 1674.43,421.4892 1710.66,448.5192" style="stroke:#a80036;stroke-width:1"/><polygon fill="#A80036" points="1714.95 451.729 1710.116 443.149 1710.938 448.745 1705.341 449.568 1714.95 451.729" style="stroke:#a80036;stroke-width:1"/><text x="1676" y="418.488" fill="#000" font-family="sans-serif" font-size="13" lengthAdjust="spacingAndGlyphs" textLength="124">has requested lease</text><path id="existing-&gt;no_lease" fill="none" d="M1738,488.1492 C1738,510.3092 1738,549.9792 1738,583.9192 C1738,583.9192 1738,583.9192 1738,2110.8592 C1738,2169.0192 1692.68,2170.6192 1643,2200.8592 C1622.7,2213.2092 1598.7,2222.8992 1576.6,2230.1892" style="stroke:#a80036;stroke-width:1"/><polygon fill="#A80036" points="1571.62 2231.799 1581.415 2232.828 1576.376 2230.257 1578.947 2225.218 1571.62 2231.799" style="stroke:#a80036;stroke-width:1"/><text x="1739" y="1382.568" fill="#000" font-family="sans-serif" font-size="13" lengthAdjust="spacingAndGlyphs" textLength="263">not expired lease owned by another client</text><path id="get_existing-&gt;out_of_pool" fill="none" d="M1603.5702,375.107 C1603.282,375.1139 1602.9868,375.1209 1602.6847,375.1282 C1602.0805,375.1427 1601.4485,375.158 1600.7892,375.1741 C1599.4706,375.2063 1598.043,375.2417 1596.5101,375.2804 C1593.4444,375.3579 1589.9579,375.4487 1586.0818,375.5535 C1570.5772,375.973 1548.8378,376.6183 1522.855,377.543 C1470.8894,379.3923 1401.95,382.3592 1331.9675,386.8717 C1192.0025,395.8967 1047.865,411.1042 1027,435.9192 C1000.68,467.2192 1006.56,492.5092 1027,527.9192 C1036.33,544.0792 1052.3,555.9992 1068.62,564.5792" style="stroke:#a80036;stroke-width:1"/><polygon fill="#A80036" points="1073.22 566.909 1066.998 559.275 1068.759 564.65 1063.384 566.412 1073.22 566.909" style="stroke:#a80036;stroke-width:1"/><text x="1028" y="474.988" fill="#000" font-family="sans-serif" font-size="13" lengthAdjust="spacingAndGlyphs" textLength="90">no reservation</text><path id="get_existing-&gt;out_of_pool-1" fill="none" d="M1603.8377,376.8955 C1603.4057,377.006 1602.9584,377.1212 1602.4962,377.2411 C1600.6472,377.7206 1598.5597,378.2751 1596.2617,378.9056 C1587.0697,381.4277 1574.5094,385.1648 1560.3738,390.173 C1532.1025,400.1892 1497.53,415.2892 1471,435.9192 C1430.23,467.6192 1443.85,500.6192 1400,527.9192 C1350.34,558.8392 1286.82,573.0892 1233.23,579.4992" style="stroke:#a80036;stroke-width:1"/><polygon fill="#A80036" points="1228.08 580.089 1237.486 583.009 1233.046 579.504 1236.55 575.064 1228.08 580.089" style="stroke:#a80036;stroke-width:1"/><text x="1472" y="474.988" fill="#000" font-family="sans-serif" font-size="13" lengthAdjust="spacingAndGlyphs" textLength="162">has requested reservation</text><path id="get_existing-&gt;getReservedLease" fill="none" d="M1603.7999,374.8934 C1603.5697,374.893 1603.3349,374.8927 1603.0956,374.8923 C1602.6171,374.8916 1602.1205,374.891 1601.6064,374.8904 C1599.5497,374.8882 1597.2106,374.8875 1594.61,374.8892 C1584.2075,374.8962 1569.6199,374.9436 1552.1798,375.1011 C1517.2997,375.4161 1471.0094,376.1717 1423.9688,377.9267 C1329.8875,381.4367 1232.805,388.9442 1218,404.9192 C1205.95,417.9192 1217.84,434.9092 1231.87,448.1092" style="stroke:#a80036;stroke-width:1"/><polygon fill="#A80036" points="1235.86 451.729 1231.883 442.719 1232.157 448.369 1226.507 448.644 1235.86 451.729" style="stroke:#a80036;stroke-width:1"/><text x="1219" y="418.488" fill="#000" font-family="sans-serif" font-size="13" lengthAdjust="spacingAndGlyphs" textLength="223">has reservation for another address</text><path id="getReservedLease-&gt;no_lease" fill="none" d="M1298.31,487.9392 C1370.31,519.1292 1516,582.4492 1516,583.9192 C1516,583.9192 1516,583.9192 1516,1321.9992 C1516,1356.7992 1520.59,1368.8792 1543,1395.4992 C1560.18,1415.9092 1578.19,1404.7792 1595,1425.4992 C1614.84,1449.9592 1617,1461.3692 1617,1492.8592 C1617,1492.8592 1617,1492.8592 1617,2110.8592 C1617,2161.3292 1571.14,2203.9592 1538.92,2227.6992" style="stroke:#a80036;stroke-width:1"/><polygon fill="#A80036" points="1534.66 2230.779 1544.295 2228.739 1538.709 2227.846 1539.602 2222.26 1534.66 2230.779" style="stroke:#a80036;stroke-width:1"/><text x="1544" y="1382.568" fill="#000" font-family="sans-serif" font-size="13" lengthAdjust="spacingAndGlyphs" textLength="150">no active reserved lease</text><path id="getReservedLease-&gt;out_of_pool" fill="none" d="M1238.5,488.0792 C1214.41,508.2392 1174.48,541.6692 1148.71,563.2392" style="stroke:#a80036;stroke-width:1"/><polygon fill="#A80036" points="1144.7 566.599 1154.176 563.914 1148.542 563.4 1149.056 557.766 1144.7 566.599" style="stroke:#a80036;stroke-width:1"/><path id="out_of_pool-&gt;check_done" fill="none" d="M1094.93,603.0392 C1061.57,621.9092 1004.65,651.7292 952,667.9192 C882.41,689.3242 801.6225,701.8592 737.5188,709.0692 C705.4669,712.6742 677.5859,714.948 657.3611,716.3336 C647.2487,717.0264 639.0503,717.4972 633.2015,717.8013 C632.4705,717.8393 631.7761,717.8748 631.1193,717.9077" style="stroke:#a80036;stroke-width:1"/><polygon fill="#A80036" points="631.119 717.908 640.308 721.452 636.113 717.657 639.908 713.462 631.119 717.908" style="stroke:#a80036;stroke-width:1"/><text x="997" y="664.488" fill="#000" font-family="sans-serif" font-size="13" lengthAdjust="spacingAndGlyphs" textLength="280">owned reservation for the requested address</text><path id="out_of_pool-&gt;check_done-1" fill="none" d="M1019.57,594.3492 C910.87,604.4092 748.83,623.3992 693,650.9192 C674.24,660.1642 657.23,676.2567 644.6763,690.3942 C641.5378,693.9286 638.6779,697.3408 636.1388,700.4932 C634.8692,702.0695 633.6798,703.5808 632.576,705.0099 C632.3,705.3672 632.0294,705.7194 631.7642,706.0662 C631.6316,706.2395 631.5003,706.4116 631.3705,706.5822 C631.3055,706.6675 631.2409,706.7525 631.1767,706.8371" style="stroke:#a80036;stroke-width:1"/><polygon fill="#A80036" points="631.177 706.837 639.805 702.088 634.2 702.855 633.433 697.25 631.177 706.837" style="stroke:#a80036;stroke-width:1"/><text x="694" y="664.488" fill="#000" font-family="sans-serif" font-size="13" lengthAdjust="spacingAndGlyphs" textLength="249">requested address is in allowed an pool</text><path id="out_of_pool-&gt;no_lease" fill="none" d="M1203.74,602.9892 C1232.91,612.7492 1264.1,627.8392 1286,650.9192 C1307.77,673.8692 1309,686.6492 1309,718.2792 C1309,718.2792 1309,718.2792 1306,1434.9992 C1306,1673.5792 1398,1725.2792 1398,1963.8592 C1398,1963.8592 1398,1963.8592 1398,2110.8592 C1398,2161.5092 1444.28,2204.0892 1476.8,2227.7592" style="stroke:#a80036;stroke-width:1"/><polygon fill="#A80036" points="1481.09 2230.829 1476.08 2222.35 1477.017 2227.928 1471.439 2228.866 1481.09 2230.829" style="stroke:#a80036;stroke-width:1"/><text x="1310" y="1439.068" fill="#000" font-family="sans-serif" font-size="13" lengthAdjust="spacingAndGlyphs" textLength="283">address not reserved and not in allowed pool</text><path id="check_done-&gt;client_lease" fill="none" d="M622.95,719.8492 C621.39,721.7992 586.7,765.2692 565.07,792.3792" style="stroke:#a80036;stroke-width:1"/><polygon fill="#A80036" points="561.72 796.589 570.462 792.052 564.84 792.682 564.21 787.06 561.72 796.589" style="stroke:#a80036;stroke-width:1"/><text x="600" y="763.348" fill="#000" font-family="sans-serif" font-size="13" lengthAdjust="spacingAndGlyphs" textLength="108">has a client lease</text><path id="client_lease-&gt;renew" fill="none" d="M602.26,814.7792 C689.18,814.7792 860.52,814.7792 965.69,814.7792" style="stroke:#a80036;stroke-width:1"/><polygon fill="#A80036" points="970.96 814.779 961.96 810.779 965.96 814.779 961.96 818.779 970.96 814.779" style="stroke:#a80036;stroke-width:1"/><text x="620.5" y="808.348" fill="#000" font-family="sans-serif" font-size="13" lengthAdjust="spacingAndGlyphs" textLength="332">requested address was already assigned to the client</text><path id="client_lease-&gt;new_lease" fill="none" d="M547.85,832.9492 C547.715,848.8792 547.5075,873.1567 547.3313,893.7055 C547.3092,896.2741 547.2877,898.7844 547.2668,901.2129 C547.2564,902.4271 547.2461,903.6209 547.2361,904.7913 C547.2336,905.0839 547.2311,905.375 547.2286,905.6646" style="stroke:#a80036;stroke-width:1"/><polygon fill="#A80036" points="547.229 905.665 551.306 896.699 547.271 900.665 543.306 896.631 547.229 905.665" style="stroke:#a80036;stroke-width:1"/><path id="new_lease-&gt;allocateOrReuseLease4" fill="none" d="M546.94,933.6392 C542.11,933.4192 233,919.8692 233,1070.9992 C233,1070.9992 233,1070.9992 233,1378.4992 C233,1403.8242 237.36,1431.9242 241.7888,1453.9317 C242.3423,1456.6827 242.897,1459.3384 243.4444,1461.8816 C243.7181,1463.1532 243.9899,1464.3967 244.2589,1465.6099 C244.2925,1465.7616 244.3261,1465.9127 244.3596,1466.0634" style="stroke:#a80036;stroke-width:1"/><polygon fill="#A80036" points="244.36 1466.063 246.309 1456.409 243.274 1461.183 238.5 1458.147 244.36 1466.063" style="stroke:#a80036;stroke-width:1"/><text x="234" y="1213.068" fill="#000" font-family="sans-serif" font-size="13" lengthAdjust="spacingAndGlyphs" textLength="152">has a requested address</text><path id="new_lease-&gt;allocateUnreservedLease4" fill="none" d="M547,933.7392 C547,935.7842 547,969.0667 547,1002.3417 C547,1010.6605 547,1018.9788 547,1026.8084 C547,1030.7232 547,1034.5158 547,1038.1252 C547,1039.93 547,1041.6889 547,1043.3944 C547,1043.6076 547,1043.8199 547,1044.0314" style="stroke:#a80036;stroke-width:1"/><polygon fill="#A80036" points="547 1044.031 551 1035.031 547 1039.031 543 1035.031 547 1044.031" style="stroke:#a80036;stroke-width:1"/><text x="548" y="977.208" fill="#000" font-family="sans-serif" font-size="13" lengthAdjust="spacingAndGlyphs" textLength="135">no requested address</text><path id="allocateOrReuseLease4-&gt;candidate" fill="none" d="M251.01,1494.9292 C251.3,1496.8792 257.62,1539.7592 261.66,1567.2092" style="stroke:#a80036;stroke-width:1"/><polygon fill="#A80036" points="262.44 1572.479 265.085 1562.992 261.711 1567.533 257.17 1564.159 262.44 1572.479" style="stroke:#a80036;stroke-width:1"/><path id="candidate-&gt;reuseExpiredLease4" fill="none" d="M255.97,1608.9892 C243.73,1632.2192 221.85,1673.7092 208.46,1699.1092" style="stroke:#a80036;stroke-width:1"/><polygon fill="#A80036" points="206.07 1703.659 213.799 1697.555 208.397 1699.234 206.718 1693.832 206.07 1703.659" style="stroke:#a80036;stroke-width:1"/><text x="230" y="1670.428" fill="#000" font-family="sans-serif" font-size="13" lengthAdjust="spacingAndGlyphs" textLength="148">expired candidate lease</text><path id="candidate-&gt;no_lease" fill="none" d="M300.41,1608.9492 C331,1622.7292 376.81,1641.0592 419,1648.8592 C438.61,1652.4892 1119.78,1646.7992 1137,1656.8592 C1165.37,1673.4392 1174,1687.9992 1174,1720.8592 C1174,1720.8592 1174,1720.8592 1174,2110.8592 C1174,2167.7192 1341.77,2212.7992 1439.5,2234.2292" style="stroke:#a80036;stroke-width:1"/><polygon fill="#A80036" points="1444.39 2235.299 1436.456 2229.464 1439.506 2234.228 1434.742 2237.278 1444.39 2235.299" style="stroke:#a80036;stroke-width:1"/><text x="1175" y="1920.928" fill="#000" font-family="sans-serif" font-size="13" lengthAdjust="spacingAndGlyphs" textLength="169">conflicting candidate lease</text><path id="candidate-&gt;create" fill="none" d="M302.78,1608.8892 C333.47,1621.9592 378.19,1639.3492 419,1648.8592 C452.51,1656.6692 461.8,1653.0992 496,1656.8592 C663.96,1675.3392 860.53,1698.5492 967.59,1711.3292" style="stroke:#a80036;stroke-width:1"/><polygon fill="#A80036" points="972.62 1711.929 964.164 1706.88 967.656 1711.33 963.206 1714.822 972.62 1711.929" style="stroke:#a80036;stroke-width:1"/><text x="634" y="1670.428" fill="#000" font-family="sans-serif" font-size="13" lengthAdjust="spacingAndGlyphs" textLength="117">no candidate lease</text><path id="reuseExpiredLease4-&gt;reclaimExpiredLease" fill="none" d="M196.82,1740.2792 C196.65,1755.8192 196.41,1778.6392 196.24,1795.5192" style="stroke:#a80036;stroke-width:1"/><polygon fill="#A80036" points="196.18 1800.549 200.257 1791.584 196.223 1795.549 192.257 1791.515 196.18 1800.549" style="stroke:#a80036;stroke-width:1"/><path id="reclaimExpiredLease-&gt;updateLease4Information" fill="none" d="M195.27,1837.2792 C194.61,1852.8192 193.65,1875.6392 192.94,1892.5192" style="stroke:#a80036;stroke-width:1"/><polygon fill="#A80036" points="192.73 1897.549 197.087 1888.716 192.93 1892.553 189.093 1888.397 192.73 1897.549" style="stroke:#a80036;stroke-width:1"/><path id="updateLease4Information-&gt;lease4_select" fill="none" d="M189.25,1934.2792 C186.8,1949.8192 183.19,1972.6392 180.53,1989.5192" style="stroke:#a80036;stroke-width:1"/><polygon fill="#A80036" points="179.73 1994.549 185.097 1986.291 180.517 1989.612 177.197 1985.032 179.73 1994.549" style="stroke:#a80036;stroke-width:1"/><path id="lease4_select-&gt;no_lease" fill="none" d="M256.64,2030.8892 C422.11,2065.8992 815.39,2147.1692 1148,2200.8592 C1249.02,2217.1692 1366.7,2231.6892 1439.28,2240.1392" style="stroke:#a80036;stroke-width:1"/><polygon fill="#A80036" points="1444.43 2240.739 1435.946 2235.738 1439.463 2240.168 1435.032 2243.685 1444.43 2240.739" style="stroke:#a80036;stroke-width:1"/><text x="1090" y="2114.928" fill="#000" font-family="sans-serif" font-size="13" lengthAdjust="spacingAndGlyphs" textLength="26">SKIP</text><path id="lease4_select-&gt;updateLease4" fill="none" d="M187.75,2031.0092 C194.04,2040.4992 202.41,2052.2792 211,2061.8592 C219.4,2071.2392 229.56,2080.6292 238.73,2088.5292" style="stroke:#a80036;stroke-width:1"/><polygon fill="#A80036" points="242.59 2091.809 238.341 2082.924 238.787 2088.564 233.147 2089.01 242.59 2091.809" style="stroke:#a80036;stroke-width:1"/><path id="updateLease4-&gt;old_lease" fill="none" d="M271.13,2128.1092 C280.01,2147.2092 297.1,2177.2192 322,2191.8592 C391.49,2232.7292 624.21,2243.7792 741.78,2246.7592" style="stroke:#a80036;stroke-width:1"/><polygon fill="#A80036" points="746.95 2246.889 738.044 2242.685 741.951 2246.775 737.861 2250.682 746.95 2246.889" style="stroke:#a80036;stroke-width:1"/><path id="allocateUnreservedLease4-&gt;iterate" fill="none" d="M547,1072.5592 C547,1074.0692 547,1105.5792 547,1128.0692" style="stroke:#a80036;stroke-width:1"/><polygon fill="#A80036" points="547 1133.279 551 1124.279 547 1128.279 543 1124.279 547 1133.279" style="stroke:#a80036;stroke-width:1"/><path id="iterate-&gt;pick" fill="none" d="M549.34,1169.8392 C551.94,1189.0692 556.14,1220.1292 558.98,1241.1592" style="stroke:#a80036;stroke-width:1"/><polygon fill="#A80036" points="559.67 1246.279 562.426 1236.824 558.999 1241.324 554.498 1237.898 559.67 1246.279" style="stroke:#a80036;stroke-width:1"/><path id="pick-&gt;pick_reserved" fill="none" d="M614.74,1276.6292 C662.69,1287.2492 727.13,1302.9992 735,1312.4992 C744.41,1323.8692 745.43,1340.5992 744.21,1354.0992" style="stroke:#a80036;stroke-width:1"/><polygon fill="#A80036" points="743.62 1359.289 748.6 1350.792 744.178 1354.321 740.65 1349.899 743.62 1359.289" style="stroke:#a80036;stroke-width:1"/><path id="iterate&lt;-pick_reserved" fill="none" d="M587.85,1171.9592 C635.04,1196.9992 710.25,1245.3892 742,1312.4992 C748.94,1327.1692 747.31,1345.9192 744.63,1359.3292" style="stroke:#a80036;stroke-width:1"/><polygon fill="#A80036" points="583.37 1169.609 589.464 1177.346 587.792 1171.942 593.197 1170.27 583.37 1169.609" style="stroke:#a80036;stroke-width:1"/><text x="723" y="1269.568" fill="#000" font-family="sans-serif" font-size="13" lengthAdjust="spacingAndGlyphs" textLength="214">address reserved to another client</text><path id="pick_reserved-&gt;mt_in_use" fill="none" d="M726.33,1395.8692 C710.31,1416.2192 683.78,1449.9292 666.6,1471.7692" style="stroke:#a80036;stroke-width:1"/><polygon fill="#A80036" points="663.5 1475.699 672.215 1471.112 666.597 1471.774 665.935 1466.156 663.5 1475.699" style="stroke:#a80036;stroke-width:1"/><path id="iterate&lt;-mt_in_use" fill="none" d="M525.22,1173.1292 C491.49,1207.6292 434.06,1278.2892 470,1329.4992 C492.53,1361.6092 521.64,1335.9392 553,1359.4992 C595.57,1391.4892 627.49,1447.3892 641.76,1475.5692" style="stroke:#a80036;stroke-width:1"/><polygon fill="#A80036" points="528.81 1169.509 519.639 1173.1 525.296 1173.066 525.33 1178.723 528.81 1169.509" style="stroke:#a80036;stroke-width:1"/><text x="471" y="1326.068" fill="#000" font-family="sans-serif" font-size="13" lengthAdjust="spacingAndGlyphs" textLength="255">address already in use by another thread</text><path id="mt_in_use-&gt;pick_lease" fill="none" d="M627.73,1512.0592 C606.74,1528.2692 575.3,1552.5592 553.13,1569.6792" style="stroke:#a80036;stroke-width:1"/><polygon fill="#A80036" points="549.11 1572.779 558.678 1570.442 553.067 1569.722 553.787 1564.111 549.11 1572.779" style="stroke:#a80036;stroke-width:1"/><path id="iterate&lt;-pick_lease" fill="none" d="M513.37,1172.6092 C502.3,1180.1892 490.42,1189.4392 481,1199.4992 C464.23,1217.4192 458.7,1222.8892 452,1246.4992 C435.76,1303.7492 469.06,1455.4492 488,1511.8592 C495.37,1533.8192 507.86,1557.3892 516.72,1572.7992" style="stroke:#a80036;stroke-width:1"/><polygon fill="#A80036" points="517.73 1169.679 508.029 1171.382 513.581 1172.469 512.493 1178.021 517.73 1169.679" style="stroke:#a80036;stroke-width:1"/><text x="461" y="1382.568" fill="#000" font-family="sans-serif" font-size="13" lengthAdjust="spacingAndGlyphs" textLength="73">active lease</text><path id="pick_lease-&gt;reuseExpiredLease4" fill="none" d="M486.46,1608.9192 C461.21,1620.5292 428.75,1637.3192 403,1656.8592 C394.74,1663.1292 395.96,1668.6192 387,1673.8592 C377.25,1679.5592 326.42,1692.0092 279.78,1702.6592" style="stroke:#a80036;stroke-width:1"/><polygon fill="#A80036" points="274.7 1703.819 284.359 1705.745 279.578 1702.721 282.602 1697.94 274.7 1703.819" style="stroke:#a80036;stroke-width:1"/><text x="404" y="1670.428" fill="#000" font-family="sans-serif" font-size="13" lengthAdjust="spacingAndGlyphs" textLength="83">expired lease</text><path id="pick_lease-&gt;create" fill="none" d="M577.81,1604.4592 C670.26,1627.3992 866.3,1676.0292 973.39,1702.5992" style="stroke:#a80036;stroke-width:1"/><polygon fill="#A80036" points="978.42 1703.849 970.642 1697.807 973.566 1702.65 968.723 1705.574 978.42 1703.849" style="stroke:#a80036;stroke-width:1"/><text x="849" y="1670.428" fill="#000" font-family="sans-serif" font-size="13" lengthAdjust="spacingAndGlyphs" textLength="52">no lease</text><path id="create-&gt;old_lease" fill="none" d="M1027.36,1740.0192 C1009.53,1757.5992 986,1786.6992 986,1817.8592 C986,1817.8592 986,1817.8592 986,2110.8592 C986,2170.8492 921.44,2208.5092 870.75,2228.8292" style="stroke:#a80036;stroke-width:1"/><polygon fill="#A80036" points="865.89 2230.739 875.729 2231.173 870.544 2228.912 872.806 2223.727 865.89 2230.739" style="stroke:#a80036;stroke-width:1"/><path id="old_lease-&gt;return" fill="none" d="M811,2267.0192 C811,2286.5992 811,2318.6892 811,2340.2892" style="stroke:#a80036;stroke-width:1"/><polygon fill="#A80036" points="811 2345.539 815 2336.539 811 2340.539 807 2336.539 811 2345.539" style="stroke:#a80036;stroke-width:1"/></g></svg>