<svg xmlns="http://www.w3.org/2000/svg" xmlns:xlink="http://www.w3.org/1999/xlink" width="1468" height="2210" contentScriptType="application/ecmascript" contentStyleType="text/css" preserveAspectRatio="none" style="width:1468px;height:2210px" version="1.1" viewBox="0 0 1468 2210" zoomAndPan="magnify"><defs><filter id="f5nw3f4rb2pkr" width="300%" height="300%" x="-1" y="-1"><feGaussianBlur result="blurOut" stdDeviation="2"/><feColorMatrix in="blurOut" result="blurOut2" type="matrix" values="0 0 0 0 0 0 0 0 0 0 0 0 0 0 0 0 0 0 .4 0"/><feOffset dx="4" dy="4" in="blurOut2" result="blurOut3"/><feBlend in="SourceGraphic" in2="blurOut3" mode="normal"/></filter></defs><g><text x="566.5" y="17.402" fill="#000" font-family="sans-serif" font-size="18" lengthAdjust="spacingAndGlyphs" textLength="317">DHCPv4 subnet selection (Kea 1.8.0)</text><rect width="445" height="374.86" x="7" y="329.199" fill="#FFF" filter="url(#f5nw3f4rb2pkr)" style="stroke:#000;stroke-width:1.5"/><text x="201.5" y="344.734" fill="#000" font-family="sans-serif" font-size="14" font-weight="bold" lengthAdjust="spacingAndGlyphs" textLength="56">Relayed</text><rect width="803" height="164.86" x="227" y="769.059" fill="#FFF" filter="url(#f5nw3f4rb2pkr)" style="stroke:#000;stroke-width:1.5"/><text x="546.5" y="784.594" fill="#000" font-family="sans-serif" font-size="14" font-weight="bold" lengthAdjust="spacingAndGlyphs" textLength="164">Set address for lookup</text><rect width="395" height="488" x="945" y="990.919" fill="#FFF" filter="url(#f5nw3f4rb2pkr)" style="stroke:#000;stroke-width:1.5"/><text x="1060.5" y="1006.454" fill="#000" font-family="sans-serif" font-size="14" font-weight="bold" lengthAdjust="spacingAndGlyphs" textLength="164">Try incoming interface</text><rect width="190" height="294" x="745" y="1527.919" fill="#FFF" filter="url(#f5nw3f4rb2pkr)" style="stroke:#000;stroke-width:1.5"/><text x="797.5" y="1543.454" fill="#000" font-family="sans-serif" font-size="14" font-weight="bold" lengthAdjust="spacingAndGlyphs" textLength="85">Try address</text><rect width="226" height="36.488" x="172" y="418.059" fill="#FEFECE" filter="url(#f5nw3f4rb2pkr)" style="stroke:#a80036;stroke-width:1.5"/><text x="182" y="441.594" fill="#000" font-family="sans-serif" font-size="14" lengthAdjust="spacingAndGlyphs" textLength="206">Relay address matches subnet</text><rect width="286" height="36.488" x="142" y="531.059" fill="#FEFECE" filter="url(#f5nw3f4rb2pkr)" style="stroke:#a80036;stroke-width:1.5"/><text x="152" y="554.594" fill="#000" font-family="sans-serif" font-size="14" lengthAdjust="spacingAndGlyphs" textLength="266">Relay address matches shared network</text><rect width="140" height="36.488" x="112" y="644.059" fill="#FEFECE" filter="url(#f5nw3f4rb2pkr)" style="stroke:#a80036;stroke-width:1.5"/><text x="122" y="667.594" fill="#000" font-family="sans-serif" font-size="14" lengthAdjust="spacingAndGlyphs" textLength="120">Check client class</text><rect width="136" height="36.488" x="251" y="873.919" fill="#FEFECE" filter="url(#f5nw3f4rb2pkr)" style="stroke:#a80036;stroke-width:1.5"/><text x="261" y="897.454" fill="#000" font-family="sans-serif" font-size="14" lengthAdjust="spacingAndGlyphs" textLength="116">Set relay address</text><rect width="140" height="36.488" x="553" y="873.919" fill="#FEFECE" filter="url(#f5nw3f4rb2pkr)" style="stroke:#a80036;stroke-width:1.5"/><text x="563" y="897.454" fill="#000" font-family="sans-serif" font-size="14" lengthAdjust="spacingAndGlyphs" textLength="120">Set client address</text><rect width="149" height="36.488" x="856.5" y="873.919" fill="#FEFECE" filter="url(#f5nw3f4rb2pkr)" style="stroke:#a80036;stroke-width:1.5"/><text x="866.5" y="897.454" fill="#000" font-family="sans-serif" font-size="14" lengthAdjust="spacingAndGlyphs" textLength="129">Set source address</text><rect width="192" height="36.488" x="997" y="1025.919" fill="#FEFECE" filter="url(#f5nw3f4rb2pkr)" style="stroke:#a80036;stroke-width:1.5"/><text x="1007" y="1049.454" fill="#000" font-family="sans-serif" font-size="14" lengthAdjust="spacingAndGlyphs" textLength="172">Interface matches subnet</text><rect width="252" height="36.488" x="1072" y="1138.919" fill="#FEFECE" filter="url(#f5nw3f4rb2pkr)" style="stroke:#a80036;stroke-width:1.5"/><text x="1082" y="1162.454" fill="#000" font-family="sans-serif" font-size="14" lengthAdjust="spacingAndGlyphs" textLength="232">Interface matches shared network</text><rect width="140" height="36.488" x="1022" y="1251.919" fill="#FEFECE" filter="url(#f5nw3f4rb2pkr)" style="stroke:#a80036;stroke-width:1.5"/><text x="1032" y="1275.454" fill="#000" font-family="sans-serif" font-size="14" lengthAdjust="spacingAndGlyphs" textLength="120">Check client class</text><rect width="163" height="36.488" x="961.5" y="1426.919" fill="#FEFECE" filter="url(#f5nw3f4rb2pkr)" style="stroke:#a80036;stroke-width:1.5"/><text x="971.5" y="1450.454" fill="#000" font-family="sans-serif" font-size="14" lengthAdjust="spacingAndGlyphs" textLength="143">Set interface address</text><rect width="158" height="36.488" x="761" y="1562.919" fill="#FEFECE" filter="url(#f5nw3f4rb2pkr)" style="stroke:#a80036;stroke-width:1.5"/><text x="771" y="1586.454" fill="#000" font-family="sans-serif" font-size="14" lengthAdjust="spacingAndGlyphs" textLength="138">Check subnet prefix</text><rect width="140" height="36.488" x="779" y="1769.919" fill="#FEFECE" filter="url(#f5nw3f4rb2pkr)" style="stroke:#a80036;stroke-width:1.5"/><text x="789" y="1793.454" fill="#000" font-family="sans-serif" font-size="14" lengthAdjust="spacingAndGlyphs" textLength="120">Check client class</text><rect width="95" height="36.488" x="350.5" y="28.199" fill="#FEFECE" filter="url(#f5nw3f4rb2pkr)" style="stroke:#a80036;stroke-width:1.5"/><text x="360.5" y="51.734" fill="#000" font-family="sans-serif" font-size="14" lengthAdjust="spacingAndGlyphs" textLength="75">Entry point</text><rect width="141" height="36.488" x="327.5" y="125.199" fill="#FEFECE" filter="url(#f5nw3f4rb2pkr)" style="stroke:#a80036;stroke-width:1.5"/><text x="337.5" y="148.734" fill="#000" font-family="sans-serif" font-size="14" lengthAdjust="spacingAndGlyphs" textLength="121">Try RAI link select</text><rect width="207" height="36.488" x="294.5" y="222.199" fill="#FEFECE" filter="url(#f5nw3f4rb2pkr)" style="stroke:#a80036;stroke-width:1.5"/><text x="304.5" y="245.734" fill="#000" font-family="sans-serif" font-size="14" lengthAdjust="spacingAndGlyphs" textLength="187">Try subnet selection option</text><rect width="127" height="36.488" x="708.5" y="1946.919" fill="#FEFECE" filter="url(#f5nw3f4rb2pkr)" style="stroke:#a80036;stroke-width:1.5"/><text x="718.5" y="1970.454" fill="#000" font-family="sans-serif" font-size="14" lengthAdjust="spacingAndGlyphs" textLength="107">Found a subnet</text><rect width="137" height="36.488" x="870.5" y="1946.919" fill="#FEFECE" filter="url(#f5nw3f4rb2pkr)" style="stroke:#a80036;stroke-width:1.5"/><text x="880.5" y="1970.454" fill="#000" font-family="sans-serif" font-size="14" lengthAdjust="spacingAndGlyphs" textLength="117">Found no subnet</text><rect width="175" height="36.488" x="767.5" y="2043.919" fill="#FEFECE" filter="url(#f5nw3f4rb2pkr)" style="stroke:#a80036;stroke-width:1.5"/><text x="777.5" y="2067.454" fill="#000" font-family="sans-serif" font-size="14" lengthAdjust="spacingAndGlyphs" textLength="155">Callout subnet4_select</text><rect width="129" height="36.488" x="584.5" y="2156.919" fill="#FEFECE" filter="url(#f5nw3f4rb2pkr)" style="stroke:#a80036;stroke-width:1.5"/><text x="594.5" y="2180.454" fill="#000" font-family="sans-serif" font-size="14" lengthAdjust="spacingAndGlyphs" textLength="109">Return a subnet</text><rect width="139" height="36.488" x="785.5" y="2156.919" fill="#FEFECE" filter="url(#f5nw3f4rb2pkr)" style="stroke:#a80036;stroke-width:1.5"/><text x="795.5" y="2180.454" fill="#000" font-family="sans-serif" font-size="14" lengthAdjust="spacingAndGlyphs" textLength="119">Return no subnet</text><rect width="97" height="36.488" x="986.5" y="2156.919" fill="#FEFECE" filter="url(#f5nw3f4rb2pkr)" style="stroke:#a80036;stroke-width:1.5"/><text x="996.5" y="2180.454" fill="#000" font-family="sans-serif" font-size="14" lengthAdjust="spacingAndGlyphs" textLength="77">Drop query</text><path id="entry-&gt;rai_link_select" fill="none" d="M398,64.6192 C398,80.1592 398,102.9792 398,119.8592" style="stroke:#a80036;stroke-width:1"/><polygon fill="#A80036" points="398 124.889 402 115.889 398 119.889 394 115.889 398 124.889" style="stroke:#a80036;stroke-width:1"/><path id="rai_link_select-&gt;subnet_select" fill="none" d="M398,161.6192 C398,177.1592 398,199.9792 398,216.8592" style="stroke:#a80036;stroke-width:1"/><polygon fill="#A80036" points="398 221.889 402 212.889 398 216.889 394 212.889 398 221.889" style="stroke:#a80036;stroke-width:1"/><path id="subnet_select-&gt;relayed" fill="none" d="M389.65,258.5692 C382.075,274.3142 370.655,298.0567 361.01,318.1092 C359.8044,320.6158 358.6265,323.0647 357.4873,325.4331 C356.9177,326.6173 356.3578,327.7814 355.8089,328.9225" style="stroke:#a80036;stroke-width:1"/><polygon fill="#A80036" points="355.809 328.923 363.315 322.546 357.976 324.417 356.105 319.078 355.809 328.923" style="stroke:#a80036;stroke-width:1"/><text x="374" y="301.768" fill="#000" font-family="sans-serif" font-size="13" lengthAdjust="spacingAndGlyphs" textLength="45">relayed</text><path id="subnet_select-&gt;set_address" fill="none" d="M433.44,258.3692 C466.58,277.1792 511,310.7592 511,355.5592 C511,355.5592 511,355.5592 511,663.0592 C511,711.2292 468.365,744.0467 425.0638,764.9542 C422.3574,766.2609 419.6485,767.5211 416.9472,768.7356" style="stroke:#a80036;stroke-width:1"/><polygon fill="#A80036" points="416.947 768.736 426.796 768.693 421.507 766.685 423.515 761.397 416.947 768.736" style="stroke:#a80036;stroke-width:1"/><text x="512" y="497.628" fill="#000" font-family="sans-serif" font-size="13" lengthAdjust="spacingAndGlyphs" textLength="70">not relayed</text><path id="relayed-&gt;relay_subnet" fill="none" d="M342.96,357.1192 C341.81,358.6492 317.61,391.2092 300.84,413.7592" style="stroke:#a80036;stroke-width:1"/><polygon fill="#A80036" points="297.8 417.839 306.381 413.005 300.784 413.827 299.962 408.231 297.8 417.839" style="stroke:#a80036;stroke-width:1"/><path id="relay_subnet-&gt;relay_network" fill="none" d="M285,454.3992 C285,473.6292 285,504.6892 285,525.7192" style="stroke:#a80036;stroke-width:1"/><polygon fill="#A80036" points="285 530.839 289 521.839 285 525.839 281 521.839 285 530.839" style="stroke:#a80036;stroke-width:1"/><text x="286" y="497.628" fill="#000" font-family="sans-serif" font-size="13" lengthAdjust="spacingAndGlyphs" textLength="59">no match</text><path id="relay_subnet-&gt;relay_class" fill="none" d="M199.58,454.0892 C156.79,467.3892 108.74,490.6992 83,531.0592 C56.99,571.8592 109.58,615.9992 147.59,640.9192" style="stroke:#a80036;stroke-width:1"/><polygon fill="#A80036" points="152.15 643.859 146.742 635.628 147.944 641.155 142.416 642.357 152.15 643.859" style="stroke:#a80036;stroke-width:1"/><text x="84" y="554.128" fill="#000" font-family="sans-serif" font-size="13" lengthAdjust="spacingAndGlyphs" textLength="39">match</text><path id="relay_network-&gt;set_address" fill="none" d="M288.52,567.3092 C294.12,594.7992 305.4675,650.4892 315.5475,699.9592 C320.5875,724.6942 325.3106,747.8742 328.84,765.1967 C329.0606,766.2794 329.2765,767.3392 329.4876,768.375" style="stroke:#a80036;stroke-width:1"/><polygon fill="#A80036" points="329.488 768.375 331.61 758.758 328.489 763.476 323.771 760.355 329.488 768.375" style="stroke:#a80036;stroke-width:1"/><text x="319" y="667.128" fill="#000" font-family="sans-serif" font-size="13" lengthAdjust="spacingAndGlyphs" textLength="59">no match</text><path id="relay_network-&gt;relay_class" fill="none" d="M268.91,567.3992 C250.69,587.0392 221.02,619.0092 201.5,640.0392" style="stroke:#a80036;stroke-width:1"/><polygon fill="#A80036" points="197.98 643.839 207.038 639.971 201.384 640.177 201.179 634.524 197.98 643.839" style="stroke:#a80036;stroke-width:1"/><text x="241" y="610.628" fill="#000" font-family="sans-serif" font-size="13" lengthAdjust="spacingAndGlyphs" textLength="39">match</text><path id="relay_class-&gt;found" fill="none" d="M177.97,680.0792 C172.39,705.1692 163,753.6292 163,795.4192 C163,795.4192 163,795.4192 163,1878.4192 C163,1932.4492 543.78,1954.4892 703.15,1961.3492" style="stroke:#a80036;stroke-width:1"/><polygon fill="#A80036" points="708.26 1961.569 699.439 1957.188 703.265 1961.355 699.097 1965.18 708.26 1961.569" style="stroke:#a80036;stroke-width:1"/><text x="164" y="1362.488" fill="#000" font-family="sans-serif" font-size="13" lengthAdjust="spacingAndGlyphs" textLength="70">compatible</text><path id="relay_class-&gt;set_address" fill="none" d="M185.6,680.2592 C190.22,698.4992 199.91,727.0992 218,745.0592 C222.9438,749.9667 228.4423,754.4291 234.2844,758.4815 C237.2054,760.5077 240.2123,762.4314 243.2786,764.2571 C244.8117,765.1699 246.3597,766.0582 247.9193,766.9226 C248.6991,767.3547 249.4818,767.7809 250.2669,768.2012 C250.6595,768.4113 251.0527,768.6199 251.4464,768.8271" style="stroke:#a80036;stroke-width:1"/><polygon fill="#A80036" points="251.446 768.827 245.344 761.096 247.022 766.499 241.619 768.176 251.446 768.827" style="stroke:#a80036;stroke-width:1"/><text x="219" y="741.628" fill="#000" font-family="sans-serif" font-size="13" lengthAdjust="spacingAndGlyphs" textLength="95">not compatible</text><path id="set_address-&gt;relay_address" fill="none" d="M334.99,796.9892 C334.66,798.9192 327.44,841.3492 322.81,868.5092" style="stroke:#a80036;stroke-width:1"/><polygon fill="#A80036" points="321.93 873.729 327.39 865.532 322.773 868.801 319.504 864.184 321.93 873.729" style="stroke:#a80036;stroke-width:1"/><text x="330" y="840.488" fill="#000" font-family="sans-serif" font-size="13" lengthAdjust="spacingAndGlyphs" textLength="135">try the relay address</text><path id="relay_address-&gt;client_address" fill="none" d="M387.22,891.9192 C434.95,891.9192 498.7,891.9192 547.88,891.9192" style="stroke:#a80036;stroke-width:1"/><polygon fill="#A80036" points="552.9 891.919 543.9 887.919 547.9 891.919 543.9 895.919 552.9 891.919" style="stroke:#a80036;stroke-width:1"/><text x="405.5" y="885.488" fill="#000" font-family="sans-serif" font-size="13" lengthAdjust="spacingAndGlyphs" textLength="129">has no relay address</text><path id="client_address-&gt;source_address" fill="none" d="M693.28,891.9192 C740.3,891.9192 802.28,891.9192 851.17,891.9192" style="stroke:#a80036;stroke-width:1"/><polygon fill="#A80036" points="856.46 891.919 847.46 887.919 851.46 891.919 847.46 895.919 856.46 891.919" style="stroke:#a80036;stroke-width:1"/><text x="711.25" y="885.488" fill="#000" font-family="sans-serif" font-size="13" lengthAdjust="spacingAndGlyphs" textLength="127">has no client address</text><path id="source_address-&gt;interface_subnet" fill="none" d="M949.58,910.1292 C979.61,937.9292 1038.68,992.6192 1070.85,1022.4092" style="stroke:#a80036;stroke-width:1"/><polygon fill="#A80036" points="1074.63 1025.909 1070.726 1016.867 1070.954 1022.52 1065.302 1022.748 1074.63 1025.909" style="stroke:#a80036;stroke-width:1"/><text x="1017" y="971.488" fill="#000" font-family="sans-serif" font-size="13" lengthAdjust="spacingAndGlyphs" textLength="123">no suitable address</text><path id="relay_address-&gt;inRange" fill="none" d="M319,910.0192 C319,937.8592 319,994.7392 319,1042.9192 C319,1042.9192 319,1042.9192 319,1445.9192 C319,1534.9892 608.22,1565.7192 755.69,1575.5992" style="stroke:#a80036;stroke-width:1"/><polygon fill="#A80036" points="760.87 1575.939 752.153 1571.356 755.881 1575.61 751.626 1579.339 760.87 1575.939" style="stroke:#a80036;stroke-width:1"/><text x="320" y="1274.988" fill="#000" font-family="sans-serif" font-size="13" lengthAdjust="spacingAndGlyphs" textLength="120">has a relay address</text><path id="client_address-&gt;inRange" fill="none" d="M598.14,910.0992 C565.15,935.1492 511,985.0692 511,1042.9192 C511,1042.9192 511,1042.9192 511,1445.9192 C511,1498.7592 658.41,1540.8992 755.88,1562.9892" style="stroke:#a80036;stroke-width:1"/><polygon fill="#A80036" points="760.78 1564.089 752.866 1558.227 755.9 1563.002 751.125 1566.036 760.78 1564.089" style="stroke:#a80036;stroke-width:1"/><text x="512" y="1274.988" fill="#000" font-family="sans-serif" font-size="13" lengthAdjust="spacingAndGlyphs" textLength="125">has a client address</text><path id="source_address-&gt;inRange" fill="none" d="M856.74,909.9992 C791.87,929.8492 708,969.6692 708,1042.9192 C708,1042.9192 708,1042.9192 708,1445.9192 C708,1498.6392 760.49,1538.1592 799.27,1560.1592" style="stroke:#a80036;stroke-width:1"/><polygon fill="#A80036" points="803.93 1562.749 798.025 1554.867 799.565 1560.31 794.122 1561.851 803.93 1562.749" style="stroke:#a80036;stroke-width:1"/><text x="709" y="1274.988" fill="#000" font-family="sans-serif" font-size="13" lengthAdjust="spacingAndGlyphs" textLength="219">has source address and use unicast</text><path id="interface_subnet-&gt;not_found" fill="none" d="M1183.41,1061.9192 C1267.54,1080.3992 1380,1113.1092 1380,1155.9192 C1380,1155.9192 1380,1155.9192 1380,1878.4192 C1380,1952.2692 1138.67,1963.6392 1013.06,1964.5692" style="stroke:#a80036;stroke-width:1"/><polygon fill="#A80036" points="1007.91 1964.599 1016.933 1968.548 1012.91 1964.571 1016.887 1960.548 1007.91 1964.599" style="stroke:#a80036;stroke-width:1"/><text x="1381" y="1508.488" fill="#000" font-family="sans-serif" font-size="13" lengthAdjust="spacingAndGlyphs" textLength="75">no interface</text><path id="interface_subnet-&gt;interface_class" fill="none" d="M1071.84,1062.1092 C1052.58,1079.2392 1025.46,1107.4692 1014,1138.9192 C998.88,1180.3992 1037.07,1223.3392 1065.19,1248.0092" style="stroke:#a80036;stroke-width:1"/><polygon fill="#A80036" points="1069.26 1251.519 1065.066 1242.608 1065.477 1248.25 1059.835 1248.661 1069.26 1251.519" style="stroke:#a80036;stroke-width:1"/><text x="1015" y="1161.988" fill="#000" font-family="sans-serif" font-size="13" lengthAdjust="spacingAndGlyphs" textLength="39">match</text><path id="interface_subnet-&gt;interface_network" fill="none" d="M1109.41,1062.2592 C1127.98,1081.8992 1158.22,1113.8692 1178.12,1134.8992" style="stroke:#a80036;stroke-width:1"/><polygon fill="#A80036" points="1181.71 1138.699 1178.417 1129.417 1178.268 1135.072 1172.614 1134.924 1181.71 1138.699" style="stroke:#a80036;stroke-width:1"/><text x="1152" y="1105.488" fill="#000" font-family="sans-serif" font-size="13" lengthAdjust="spacingAndGlyphs" textLength="59">no match</text><path id="interface_network-&gt;interface_class" fill="none" d="M1181.44,1175.2592 C1162.69,1194.8992 1132.15,1226.8692 1112.07,1247.8992" style="stroke:#a80036;stroke-width:1"/><polygon fill="#A80036" points="1108.45 1251.699 1117.554 1247.942 1111.899 1248.079 1111.762 1242.424 1108.45 1251.699" style="stroke:#a80036;stroke-width:1"/><text x="1152" y="1218.488" fill="#000" font-family="sans-serif" font-size="13" lengthAdjust="spacingAndGlyphs" textLength="39">march</text><path id="interface_network-&gt;not_found" fill="none" d="M1216.94,1175.1492 C1237.06,1195.4392 1266,1231.1792 1266,1268.9192 C1266,1268.9192 1266,1268.9192 1266,1878.4192 C1266,1930.4492 1109.1,1951.4192 1012.67,1959.3992" style="stroke:#a80036;stroke-width:1"/><polygon fill="#A80036" points="1007.55 1959.819 1016.851 1963.058 1012.533 1959.404 1016.187 1955.086 1007.55 1959.819" style="stroke:#a80036;stroke-width:1"/><text x="1267" y="1585.988" fill="#000" font-family="sans-serif" font-size="13" lengthAdjust="spacingAndGlyphs" textLength="59">no match</text><path id="interface_class-&gt;found" fill="none" d="M1111.94,1288.2092 C1127.1,1302.7092 1146.84,1324.8592 1156,1348.9192 C1203,1472.3792 1160.06,1514.0492 1168,1645.9192 C1169,1662.6092 1171,1666.6992 1171,1683.4192 C1171,1683.4192 1171,1683.4192 1171,1878.4192 C1171,1879.4592 954.79,1925.2992 840.68,1949.4192" style="stroke:#a80036;stroke-width:1"/><polygon fill="#A80036" points="835.66 1950.479 845.295 1952.518 840.551 1949.438 843.63 1944.693 835.66 1950.479" style="stroke:#a80036;stroke-width:1"/><text x="1169" y="1642.488" fill="#000" font-family="sans-serif" font-size="13" lengthAdjust="spacingAndGlyphs" textLength="70">compatible</text><path id="interface_class-&gt;interface_address" fill="none" d="M1081.97,1287.9492 C1073.39,1303.3492 1061.43,1326.9092 1055,1348.9192 C1047.93,1373.1292 1045.02,1402.0192 1043.83,1421.5292" style="stroke:#a80036;stroke-width:1"/><polygon fill="#A80036" points="1043.54 1426.769 1048.048 1418.013 1043.826 1421.777 1040.062 1417.555 1043.54 1426.769" style="stroke:#a80036;stroke-width:1"/><text x="1056" y="1362.488" fill="#000" font-family="sans-serif" font-size="13" lengthAdjust="spacingAndGlyphs" textLength="95">not compatible</text><path id="interface_address-&gt;inRange" fill="none" d="M961.24,1454.9892 C910.72,1462.4692 852.64,1475.1192 837,1494.9192 C823.19,1512.3892 826.7,1538.7792 831.91,1557.5092" style="stroke:#a80036;stroke-width:1"/><polygon fill="#A80036" points="833.41 1562.579 834.695 1552.815 831.993 1557.784 827.023 1555.082 833.41 1562.579" style="stroke:#a80036;stroke-width:1"/><text x="838" y="1508.488" fill="#000" font-family="sans-serif" font-size="13" lengthAdjust="spacingAndGlyphs" textLength="153">has an interface address</text><path id="interface_address-&gt;not_found" fill="none" d="M1037.7,1463.0692 C1030.36,1488.3792 1018,1537.3192 1018,1579.9192 C1018,1579.9192 1018,1579.9192 1018,1878.4192 C1018,1906.2692 995.11,1928.9092 973.97,1943.8892" style="stroke:#a80036;stroke-width:1"/><polygon fill="#A80036" points="969.77 1946.779 979.448 1944.954 973.884 1943.937 974.9 1938.372 969.77 1946.779" style="stroke:#a80036;stroke-width:1"/><text x="1019" y="1736.488" fill="#000" font-family="sans-serif" font-size="13" lengthAdjust="spacingAndGlyphs" textLength="128">no interface address</text><path id="inRange-&gt;address_class" fill="none" d="M840.75,1599.0492 C842.38,1636.0492 846.21,1723.4492 848.02,1764.6692" style="stroke:#a80036;stroke-width:1"/><polygon fill="#A80036" points="848.24 1769.699 851.85 1760.536 848.025 1764.704 843.857 1760.879 848.24 1769.699" style="stroke:#a80036;stroke-width:1"/><text x="845" y="1689.488" fill="#000" font-family="sans-serif" font-size="13" lengthAdjust="spacingAndGlyphs" textLength="39">match</text><path id="inRange-&gt;not_found" fill="none" d="M768.39,1598.9792 C726.98,1613.5792 683,1639.4392 683,1683.4192 C683,1683.4192 683,1683.4192 683,1878.4192 C683,1897.7892 789.82,1927.8092 865.46,1946.6392" style="stroke:#a80036;stroke-width:1"/><polygon fill="#A80036" points="870.4 1947.869 862.622 1941.827 865.546 1946.67 860.703 1949.594 870.4 1947.869" style="stroke:#a80036;stroke-width:1"/><text x="684" y="1792.988" fill="#000" font-family="sans-serif" font-size="13" lengthAdjust="spacingAndGlyphs" textLength="59">no match</text><path id="address_class-&gt;found" fill="none" d="M815.7,1805.9392 C765.48,1832.3692 674.36,1883.6192 657,1915.9192 C644.07,1939.9792 671.86,1951.9792 703.35,1957.9692" style="stroke:#a80036;stroke-width:1"/><polygon fill="#A80036" points="708.43 1958.879 700.279 1953.35 703.509 1957.995 698.864 1961.224 708.43 1958.879" style="stroke:#a80036;stroke-width:1"/><text x="708" y="1882.488" fill="#000" font-family="sans-serif" font-size="13" lengthAdjust="spacingAndGlyphs" textLength="70">compatible</text><path id="address_class-&gt;not_found" fill="none" d="M856.62,1805.9192 C865.47,1825.4292 880.68,1858.2892 895,1885.9192 C904.99,1905.1792 917.16,1926.6292 926.17,1942.1492" style="stroke:#a80036;stroke-width:1"/><polygon fill="#A80036" points="928.86 1946.759 927.784 1936.969 926.342 1942.439 920.872 1940.997 928.86 1946.759" style="stroke:#a80036;stroke-width:1"/><text x="896" y="1882.488" fill="#000" font-family="sans-serif" font-size="13" lengthAdjust="spacingAndGlyphs" textLength="95">not compatible</text><path id="found-&gt;subnet4_select" fill="none" d="M787.22,1983.3392 C801.03,1999.1492 821.43,2022.4892 836.24,2039.4392" style="stroke:#a80036;stroke-width:1"/><polygon fill="#A80036" points="839.87 2043.609 836.956 2034.201 836.578 2039.845 830.934 2039.468 839.87 2043.609" style="stroke:#a80036;stroke-width:1"/><path id="not_found-&gt;subnet4_select" fill="none" d="M923.59,1983.3392 C909.62,1999.1492 888.98,2022.4892 873.99,2039.4392" style="stroke:#a80036;stroke-width:1"/><polygon fill="#A80036" points="870.31 2043.609 879.271 2039.523 873.625 2039.866 873.282 2034.219 870.31 2043.609" style="stroke:#a80036;stroke-width:1"/><path id="subnet4_select-&gt;success" fill="none" d="M767.05,2070.2692 C735.7,2076.7092 702,2088.4992 677,2109.9192 C664.53,2120.5992 657.42,2137.8792 653.49,2151.7992" style="stroke:#a80036;stroke-width:1"/><polygon fill="#A80036" points="652.18 2156.749 658.334 2149.06 653.45 2151.913 650.596 2147.028 652.18 2156.749" style="stroke:#a80036;stroke-width:1"/><text x="678" y="2123.488" fill="#000" font-family="sans-serif" font-size="13" lengthAdjust="spacingAndGlyphs" textLength="164">CONTINUE and subnet set</text><path id="subnet4_select-&gt;no_subnet" fill="none" d="M853.62,2080.3192 C852.99,2089.1692 852.31,2100.1092 852,2109.9192 C851.56,2123.8292 852.26,2139.4292 853.1,2151.7492" style="stroke:#a80036;stroke-width:1"/><polygon fill="#A80036" points="853.47 2156.809 856.817 2147.546 853.113 2151.822 848.837 2148.118 853.47 2156.809" style="stroke:#a80036;stroke-width:1"/><text x="853" y="2123.488" fill="#000" font-family="sans-serif" font-size="13" lengthAdjust="spacingAndGlyphs" textLength="138">SKIP or subnet not set</text><path id="subnet4_select-&gt;drop" fill="none" d="M938.2,2080.0192 C958.54,2086.9392 979.25,2096.5792 996,2109.9192 C1009.78,2120.8892 1019.89,2138.1592 1026.36,2151.9892" style="stroke:#a80036;stroke-width:1"/><polygon fill="#A80036" points="1028.58 2156.919 1028.523 2147.07 1026.523 2152.362 1021.231 2150.362 1028.58 2156.919" style="stroke:#a80036;stroke-width:1"/><text x="1012" y="2123.488" fill="#000" font-family="sans-serif" font-size="13" lengthAdjust="spacingAndGlyphs" textLength="35">DROP</text></g></svg>